<svg width="60" height="60" viewBox="0 0 60 60" fill="none" xmlns="http://www.w3.org/2000/svg">
<path d="M13.2564 24.3763L27.2533 29.9751C28.6092 30.5175 29.2872 30.7886 29.9991 30.7886C30.7111 30.7886 31.3895 30.5176 32.7454 29.9752L46.7423 24.3765C47.4797 24.0815 47.8485 23.934 47.8485 23.6801C47.8485 23.6482 47.8426 23.618 47.831 23.589C47.75 23.3868 47.3871 23.2417 46.7423 22.9837L32.7455 17.385C31.3895 16.8426 30.7111 16.5713 29.9991 16.5713C29.2872 16.5713 28.6092 16.8425 27.2533 17.3849L13.2564 22.9836C12.6116 23.2415 12.2487 23.3867 12.1677 23.5888C12.1561 23.6179 12.1503 23.6481 12.1503 23.68C12.1503 23.9339 12.519 24.0813 13.2564 24.3763Z" fill="currentColor"/>
<path d="M48.4832 36.6186L38.0041 40.8103C38.3588 41.0526 39.1933 41.6255 39.6944 41.9792C40.3207 42.4213 40.8365 42.4837 42.0522 41.9792C43.0248 41.5757 46.7448 40.1164 48.4832 39.4372V36.6186Z" fill="currentColor"/>
<path d="M29.9991 30.7886L26.7799 38.7996C26.3855 39.746 26.1087 40.4104 25.8015 40.8548C26.0637 40.9576 26.7108 41.2073 27.2007 41.3843C27.8131 41.6054 28.7193 41.2848 28.9359 40.3806C29.1525 39.4763 29.9991 35.9583 29.9991 35.9583V30.7886Z" fill="currentColor"/>
<path d="M27.2533 52.1554C28.6092 52.6978 29.2872 52.969 29.9991 52.969C29.9991 52.2549 29.9991 51.5407 29.9991 50.8266C29.9991 52.1555 28.4088 52.6176 27.2533 52.1554Z" fill="currentColor"/>
<path d="M29.9991 52.969C30.7111 52.969 31.3895 52.6979 32.7454 52.1555C31.5651 52.6277 29.9991 52.1555 29.9991 50.8266V52.969Z" fill="currentColor"/>
<path d="M27.2533 52.1554L16.1631 47.7193C13.9122 46.819 12.7867 46.3688 12.1511 45.43C11.5155 44.4912 11.5155 43.279 11.5155 40.8547V38.1883M27.2533 52.1554C28.6092 52.6978 29.2872 52.969 29.9991 52.969M27.2533 52.1554C28.4088 52.6176 29.9991 52.1555 29.9991 50.8266M29.9991 52.969C30.7111 52.969 31.3895 52.6979 32.7454 52.1555M29.9991 52.969C29.9991 52.2549 29.9991 51.5407 29.9991 50.8266M29.9991 52.969V50.8266M29.9991 30.7886C29.2872 30.7886 28.6092 30.5175 27.2533 29.9751L13.2564 24.3763C12.519 24.0813 12.1503 23.9339 12.1503 23.68C12.1503 23.6481 12.1561 23.6179 12.1677 23.5888M29.9991 30.7886L26.7799 38.7996C26.1183 40.3873 25.7876 41.1812 25.0888 41.4748C24.3901 41.7683 23.5916 41.4489 21.9946 40.8101L10.5375 36.2273C8.82925 35.544 7.97513 35.2023 7.68272 34.4598C7.39032 33.7173 7.78215 32.885 8.56581 31.2204L12.0229 23.877L12.1677 23.5888M29.9991 30.7886C30.7111 30.7886 31.3895 30.5176 32.7454 29.9752L46.7423 24.3765C47.4797 24.0815 47.8485 23.934 47.8485 23.6801C47.8485 23.6482 47.8426 23.618 47.831 23.589M29.9991 30.7886L33.2188 38.7998C33.8804 40.3875 34.2112 41.1813 34.9099 41.4749C35.6086 41.7685 36.4071 41.4491 38.0041 40.8103L48.4832 36.6186M29.9991 30.7886C29.9991 30.7886 29.9991 49.4977 29.9991 50.8266M12.1677 23.5888C12.2487 23.3867 12.6116 23.2415 13.2564 22.9836L27.2533 17.3849C28.6092 16.8425 29.2872 16.5713 29.9991 16.5713C30.7111 16.5713 31.3895 16.8426 32.7455 17.385L46.7423 22.9837C47.3871 23.2417 47.75 23.3868 47.831 23.589M32.7454 52.1555L43.8356 47.7195C46.0865 46.8191 47.212 46.3689 47.8476 45.4301C48.4832 44.4913 48.4832 43.2792 48.4832 40.8548V36.6186M32.7454 52.1555C31.5651 52.6277 29.9991 52.1555 29.9991 50.8266M48.4832 36.6186L49.4612 36.2274C51.1695 35.5441 52.0236 35.2025 52.316 34.46C52.6084 33.7174 52.2166 32.8851 51.4329 31.2205L47.9758 23.8772L47.831 23.589" stroke="currentColor" stroke-width="0.46875" stroke-linecap="round"/>
</svg>
