<svg width="16" height="16" viewBox="0 0 16 16" fill="none" xmlns="http://www.w3.org/2000/svg">
  <path
    d="M12.6377 3.52454C14.1435 5.73853 14.8872 8.23586 14.6092 11.1109C14.608 11.123 14.6017 11.1342 14.5917 11.1415C13.4513 11.9789 12.3465 12.487 11.2572 12.824C11.2487 12.8266 11.2396 12.8265 11.2312 12.8236C11.2228 12.8208 11.2155 12.8154 11.2104 12.8082C10.9587 12.458 10.73 12.0889 10.5297 11.7012C10.5182 11.6784 10.5287 11.6509 10.5524 11.6419C10.9155 11.505 11.2609 11.341 11.593 11.1469C11.6192 11.1315 11.6209 11.094 11.5967 11.076C11.5262 11.0237 11.4564 10.9687 11.3895 10.9137C11.377 10.9035 11.3602 10.9015 11.346 10.9084C9.18952 11.9042 6.82719 11.9042 4.6452 10.9084C4.63103 10.902 4.6142 10.9042 4.60203 10.9142C4.53536 10.9692 4.46536 11.0237 4.39553 11.076C4.37136 11.094 4.37336 11.1315 4.3997 11.1469C4.73186 11.3374 5.0772 11.505 5.43986 11.6425C5.46336 11.6515 5.47453 11.6784 5.46286 11.7012C5.26686 12.0894 5.0382 12.4585 4.78186 12.8087C4.7707 12.8229 4.75236 12.8294 4.73503 12.824C3.65087 12.487 2.54603 11.9789 1.4057 11.1415C1.3962 11.1342 1.38937 11.1225 1.38837 11.1104C1.15604 8.62353 1.62954 6.10553 3.35803 3.52404C3.3622 3.51721 3.36853 3.51187 3.37587 3.50871C4.22636 3.11837 5.13753 2.83121 6.08986 2.66721C6.10719 2.66454 6.12453 2.67254 6.13353 2.68787C6.25119 2.89621 6.38569 3.16337 6.47669 3.38171C7.48053 3.22837 8.50002 3.22837 9.52486 3.38171C9.61586 3.16804 9.74569 2.89621 9.86285 2.68787C9.86703 2.68027 9.8735 2.67417 9.88134 2.67046C9.88918 2.66675 9.89799 2.66561 9.90652 2.66721C10.8594 2.83171 11.7705 3.11887 12.6203 3.50871C12.6279 3.51187 12.634 3.51721 12.6377 3.52454ZM6.98703 8.25286C6.99753 7.5177 6.46153 6.90937 5.7887 6.90937C5.12136 6.90937 4.59053 7.51237 4.59053 8.25286C4.59053 8.9932 5.13186 9.5962 5.7887 9.5962C6.45619 9.5962 6.98703 8.9932 6.98703 8.25286ZM11.4174 8.25286C11.4279 7.5177 10.8919 6.90937 10.2192 6.90937C9.55169 6.90937 9.02086 7.51237 9.02086 8.25286C9.02086 8.9932 9.56219 9.5962 10.2192 9.5962C10.8919 9.5962 11.4174 8.9932 11.4174 8.25286Z"
    fill="currentColor" />
</svg>