<svg width="20" height="20" viewBox="0 0 20 20" fill="none" xmlns="http://www.w3.org/2000/svg">
<path fill-rule="evenodd" clip-rule="evenodd" d="M17.6209 10.0009C17.6209 14.2093 14.2093 17.6209 10.0009 17.6209C5.79245 17.6209 2.38086 14.2093 2.38086 10.0009C2.38086 5.79245 5.79245 2.38086 10.0009 2.38086C14.2093 2.38086 17.6209 5.79245 17.6209 10.0009ZM10.2737 8.00568C9.53254 8.31395 8.05127 8.952 5.82988 9.91982C5.46917 10.0633 5.28021 10.2036 5.263 10.3408C5.23393 10.5727 5.52433 10.664 5.91979 10.7884C5.97358 10.8053 6.02931 10.8228 6.08645 10.8414C6.47552 10.9679 6.99888 11.1158 7.27095 11.1217C7.51775 11.127 7.7932 11.0253 8.09731 10.8165C10.1728 9.41543 11.2442 8.70728 11.3115 8.69201C11.3589 8.68124 11.4247 8.6677 11.4692 8.7073C11.5138 8.74691 11.5094 8.8219 11.5047 8.84202C11.4759 8.96467 10.336 10.0244 9.74608 10.5729C9.56217 10.7439 9.43172 10.8651 9.40505 10.8928C9.34531 10.9549 9.28443 11.0136 9.22592 11.07C8.86447 11.4184 8.59341 11.6797 9.24093 12.1064C9.55209 12.3115 9.80108 12.481 10.0495 12.6502C10.3208 12.835 10.5914 13.0192 10.9415 13.2487C11.0306 13.3072 11.1158 13.3679 11.1988 13.4271C11.5145 13.6521 11.7982 13.8543 12.1486 13.8221C12.3522 13.8034 12.5625 13.6119 12.6693 13.0409C12.9218 11.6914 13.418 8.76738 13.5326 7.56248C13.5427 7.45691 13.53 7.32181 13.5199 7.26251C13.5097 7.2032 13.4885 7.1187 13.4114 7.05615C13.3202 6.98206 13.1792 6.96644 13.1162 6.96755C12.8296 6.9726 12.3899 7.1255 10.2737 8.00568Z" fill="#646464"/>
</svg>
