<svg width="16" height="16" viewBox="0 0 16 16" fill="none" xmlns="http://www.w3.org/2000/svg">
<path d="M8.93943 8.1648C8.93943 10.4649 7.0875 12.3295 4.80316 12.3295C2.51882 12.3295 0.666748 10.4645 0.666748 8.1648C0.666748 5.86514 2.51867 4 4.80316 4C7.08764 4 8.93943 5.86471 8.93943 8.1648Z" fill="currentColor"/>
<path d="M13.4769 8.16503C13.4769 10.3301 12.5509 12.0859 11.4087 12.0859C10.2665 12.0859 9.3405 10.3301 9.3405 8.16503C9.3405 6 10.2663 4.2442 11.4086 4.2442C12.5508 4.2442 13.4769 5.99944 13.4769 8.16503Z" fill="currentColor"/>
<path d="M15.3332 8.16484C15.3332 10.1042 15.0076 11.6773 14.6059 11.6773C14.2041 11.6773 13.8786 10.1046 13.8786 8.16484C13.8786 6.22508 14.2042 4.65239 14.6059 4.65239C15.0075 4.65239 15.3332 6.22494 15.3332 8.16484Z" fill="currentColor"/>
</svg>
