<svg width="20" height="20" viewBox="0 0 20 20" fill="none" xmlns="http://www.w3.org/2000/svg">
<path fill-rule="evenodd" clip-rule="evenodd" d="M18.3309 9.99844C18.3309 14.6003 14.6003 18.3309 9.99844 18.3309C5.39657 18.3309 1.66602 14.6003 1.66602 9.99844C1.66602 5.39657 5.39657 1.66602 9.99844 1.66602C14.6003 1.66602 18.3309 5.39657 18.3309 9.99844ZM10.2968 7.81672C9.48633 8.15382 7.86657 8.85152 5.4375 9.90983C5.04306 10.0667 4.83643 10.2201 4.81762 10.3702C4.78583 10.6238 5.10339 10.7236 5.53581 10.8596C5.59463 10.8781 5.65558 10.8972 5.71806 10.9176C6.1435 11.0558 6.71579 11.2176 7.0133 11.2241C7.28317 11.2299 7.58437 11.1186 7.91692 10.8903C10.1865 9.35827 11.358 8.58392 11.4316 8.56722C11.4835 8.55545 11.5554 8.54064 11.6041 8.58394C11.6528 8.62725 11.648 8.70926 11.6429 8.73126C11.6114 8.86537 10.3649 10.0242 9.71983 10.624C9.51873 10.8109 9.37609 10.9435 9.34693 10.9738C9.2816 11.0417 9.21503 11.1058 9.15104 11.1675C8.7558 11.5485 8.45941 11.8343 9.16745 12.3009C9.50771 12.5251 9.77998 12.7105 10.0516 12.8955C10.3483 13.0975 10.6441 13.299 11.027 13.5499C11.1245 13.6139 11.2177 13.6803 11.3084 13.745C11.6536 13.9911 11.9638 14.2122 12.3469 14.1769C12.5696 14.1565 12.7996 13.9471 12.9164 13.3227C13.1924 11.847 13.735 8.64964 13.8604 7.33208C13.8714 7.21665 13.8576 7.06892 13.8465 7.00406C13.8354 6.93921 13.8122 6.84681 13.7279 6.77841C13.6281 6.69741 13.4739 6.68032 13.405 6.68154C13.0916 6.68706 12.6108 6.85425 10.2968 7.81672Z" fill="#AEAEAE"/>
</svg>
