<svg width="27" height="26" viewBox="0 0 27 26" fill="none" xmlns="http://www.w3.org/2000/svg">
  <path
    d="M24.3327 15.1667C24.3327 19.3548 20.9375 22.75 16.7493 22.75C12.5612 22.75 9.16602 19.3548 9.16602 15.1667C9.16602 10.9785 12.5612 7.58333 16.7493 7.58333C20.9375 7.58333 24.3327 10.9785 24.3327 15.1667Z"
    fill="currentColor" />
  <path
    d="M16.0784 5.9824C11.306 6.32604 7.54102 10.3067 7.54102 15.1667C7.54102 16.1852 7.7064 17.1652 8.01177 18.0811C4.91582 17.1265 2.66602 14.2426 2.66602 10.8333C2.66602 6.64517 6.06119 3.25 10.2493 3.25C12.5925 3.25 14.6874 4.31269 16.0784 5.9824Z"
    fill="currentColor" />
</svg>