<svg width="27" height="26" viewBox="0 0 27 26" fill="none" xmlns="http://www.w3.org/2000/svg">
  <path d="M3.75 3.25H12.4167V11.9167H3.75V3.25Z" fill="currentColor" />
  <path d="M3.75 14.0833H12.4167V22.75H3.75V14.0833Z" fill="currentColor" />
  <path fill-rule="evenodd" clip-rule="evenodd"
    d="M18.9167 14.0833C16.5234 14.0833 14.5833 16.0234 14.5833 18.4167C14.5833 20.8099 16.5234 22.75 18.9167 22.75C21.3099 22.75 23.25 20.8099 23.25 18.4167C23.25 16.0234 21.3099 14.0833 18.9167 14.0833ZM16.2083 18.4167C16.2083 16.9209 17.4209 15.7083 18.9167 15.7083C20.4124 15.7083 21.625 16.9209 21.625 18.4167C21.625 19.9124 20.4124 21.125 18.9167 21.125C17.4209 21.125 16.2083 19.9124 16.2083 18.4167Z"
    fill="currentColor" />
  <path d="M23.25 3.25H14.5833V11.9167H23.25V3.25Z" fill="currentColor" />
</svg>