<svg width="24" height="24" viewBox="0 0 24 24" fill="none" xmlns="http://www.w3.org/2000/svg">
<path d="M14.8206 22.7522H9.05249L9.24545 22.3379C10.1298 20.4371 10.4973 17.6409 10.6384 16C9.68489 17.1297 8.27585 18.5399 6.75953 18.5399C3.95825 18.5399 1.67969 16.2609 1.67969 13.4599C1.67969 10.6588 3.95825 8.37977 6.75953 8.37977C6.91241 8.37977 7.06505 8.38673 7.21745 8.40065C6.98033 7.80473 6.85649 7.16369 6.85649 6.51953C6.85649 3.71849 9.13553 1.43945 11.9366 1.43945C14.7378 1.43945 17.0164 3.71849 17.0164 6.51953C17.0164 7.16369 16.8928 7.80449 16.6557 8.40065C16.8081 8.38673 16.961 8.37977 17.1136 8.37977C19.9149 8.37977 22.1937 10.6588 22.1937 13.4599C22.1937 16.2609 19.9149 18.5399 17.1136 18.5399C15.5975 18.5399 14.1885 17.1297 13.235 16C13.3761 17.6409 13.7433 20.4371 14.6277 22.3379L14.8206 22.7522Z" fill="#202020"/>
<path d="M6.75953 17.9579C4.27985 17.9579 2.26193 15.9403 2.26193 13.4603C2.26193 10.9804 4.27985 8.96297 6.75953 8.96297C7.05809 8.96297 7.35761 8.99273 7.64969 9.05129L8.25329 9.17249L7.96433 8.62889C7.62065 7.98329 7.43921 7.25393 7.43921 6.51977C7.43921 4.03985 9.45641 2.02169 11.9363 2.02169C14.4162 2.02169 16.4339 4.03937 16.4339 6.51929C16.4339 7.25345 16.2525 7.98281 15.9088 8.62841L15.6198 9.17201L16.2234 9.05081C16.5158 8.99225 16.8153 8.96249 17.1136 8.96249C19.5935 8.96249 21.6114 10.9799 21.6114 13.4599C21.6114 15.9398 19.5935 17.9575 17.1136 17.9575C15.4427 17.9575 12.5406 14.4328 12.5406 14.4328L12.6147 15.707C12.6147 15.707 12.9364 19.8614 13.9156 22.1699H9.95777C10.937 19.8611 11.2854 15.707 11.2854 15.707M14.8206 22.7522H9.05249L9.24545 22.3379C10.1298 20.4371 10.4973 17.6409 10.6384 16C9.68489 17.1297 8.27585 18.5399 6.75953 18.5399C3.95825 18.5399 1.67969 16.2609 1.67969 13.4599C1.67969 10.6588 3.95825 8.37977 6.75953 8.37977C6.91241 8.37977 7.06505 8.38673 7.21745 8.40065C6.98033 7.80473 6.85649 7.16369 6.85649 6.51953C6.85649 3.71849 9.13553 1.43945 11.9366 1.43945C14.7378 1.43945 17.0164 3.71849 17.0164 6.51953C17.0164 7.16369 16.8928 7.80449 16.6557 8.40065C16.8081 8.38673 16.961 8.37977 17.1136 8.37977C19.9149 8.37977 22.1937 10.6588 22.1937 13.4599C22.1937 16.2609 19.9149 18.5399 17.1136 18.5399C15.5975 18.5399 14.1885 17.1297 13.235 16C13.3761 17.6409 13.7433 20.4371 14.6277 22.3379L14.8206 22.7522Z" stroke="#202020" stroke-width="0.5"/>
</svg>
