<svg width="169" height="32" viewBox="0 0 169 32" fill="none" xmlns="http://www.w3.org/2000/svg">
    <path d="M168.096 24.0067C167.986 24.9823 167.478 25.973 166.572 26.9788C165.164 28.578 163.193 29.3776 160.658 29.3776C158.566 29.3776 156.721 28.7037 155.121 27.356C153.522 26.0082 152.723 23.8156 152.723 20.778C152.723 17.9316 153.442 15.7491 154.88 14.2303C156.328 12.7116 158.204 11.9522 160.508 11.9522C161.875 11.9522 163.108 12.2087 164.204 12.7216C165.3 13.2346 166.205 14.0442 166.919 15.1506C167.563 16.1262 167.981 17.2578 168.172 18.5452C168.282 19.2995 168.328 20.3858 168.307 21.804H157.053C157.113 23.4535 157.631 24.6101 158.607 25.274C159.2 25.6863 159.914 25.8925 160.749 25.8925C161.634 25.8925 162.353 25.6411 162.906 25.1382C163.208 24.8666 163.475 24.4894 163.706 24.0067H168.096ZM163.842 18.9676C163.771 17.8311 163.424 16.9711 162.801 16.3877C162.187 15.7943 161.423 15.4976 160.508 15.4976C159.512 15.4976 158.737 15.8094 158.184 16.433C157.641 17.0566 157.299 17.9015 157.158 18.9676H163.842Z" fill="black"/>
    <path d="M136.383 16.9158C136.021 16.1212 135.312 15.7239 134.256 15.7239C133.029 15.7239 132.204 16.1212 131.781 16.9158C131.55 17.3684 131.434 18.0423 131.434 18.9374V28.8345H127.074V12.4199H131.253V14.8187C131.786 13.9638 132.289 13.3553 132.762 12.9932C133.597 12.3495 134.678 12.0276 136.006 12.0276C137.263 12.0276 138.279 12.3042 139.053 12.8574C139.677 13.3704 140.15 14.0292 140.471 14.8338C141.035 13.8682 141.734 13.1591 142.569 12.7065C143.454 12.2539 144.439 12.0276 145.526 12.0276C146.25 12.0276 146.964 12.1684 147.668 12.4501C148.372 12.7317 149.011 13.2245 149.584 13.9286C150.047 14.5019 150.358 15.2059 150.519 16.0407C150.62 16.5939 150.67 17.4036 150.67 18.4697L150.64 28.8345H146.235V18.3641C146.235 17.7405 146.134 17.2276 145.933 16.8253C145.551 16.0609 144.847 15.6787 143.821 15.6787C142.634 15.6787 141.814 16.1715 141.362 17.1572C141.13 17.6802 141.015 18.3088 141.015 19.0431V28.8345H136.685V19.0431C136.685 18.0674 136.584 17.3583 136.383 16.9158Z" fill="black"/>
    <path d="M123.589 12.3897V28.8345H119.229V12.3897H123.589ZM123.589 6.46054V10.4284H119.229V6.46054H123.589Z" fill="black"/>
    <path d="M116.014 16.3576C114.284 16.3576 113.122 16.9208 112.529 18.0473C112.197 18.681 112.031 19.6566 112.031 20.9742V28.8345H107.701V12.3897H111.805V15.2562C112.469 14.1599 113.047 13.4106 113.54 13.0083C114.344 12.3344 115.39 11.9975 116.678 11.9975C116.758 11.9975 116.824 12.0025 116.874 12.0125C116.934 12.0125 117.06 12.0176 117.251 12.0276V16.433C116.98 16.4028 116.738 16.3827 116.527 16.3727C116.316 16.3626 116.145 16.3576 116.014 16.3576Z" fill="black"/>
    <path d="M97.5478 20.8384H92.8256V28.8345H88.209V6.59631H97.8948C100.128 6.59631 101.908 7.16962 103.236 8.31623C104.563 9.46283 105.227 11.2381 105.227 13.6419C105.227 16.267 104.563 18.1227 103.236 19.209C101.908 20.2953 100.012 20.8384 97.5478 20.8384ZM99.7203 16.2067C100.324 15.6736 100.626 14.8288 100.626 13.6721C100.626 12.5154 100.319 11.6907 99.7052 11.1978C99.1018 10.705 98.2519 10.4586 97.1555 10.4586H92.8256V17.0063H97.1555C98.2519 17.0063 99.1068 16.7398 99.7203 16.2067Z" fill="black"/>
    <path d="M59.3853 22.0306C59.3853 26.3612 56.1352 28.9009 50.8952 28.9009H41.5762V5.52254H50.5305C55.5382 5.52254 58.6227 7.73663 58.6227 11.7416C58.6227 13.8905 57.3954 15.6163 55.273 16.6907C57.9262 17.6024 59.3853 19.4584 59.3853 22.0306ZM50.1326 9.42978H46.1527V14.8674H50.1326C52.5868 14.8674 53.8471 13.8254 53.8471 12.1323C53.8471 10.4717 52.5868 9.42978 50.1326 9.42978ZM50.4974 18.8072H46.1527V24.9936H50.4974C53.2167 24.9936 54.643 23.8215 54.643 21.8353C54.643 19.9793 53.2167 18.8072 50.4974 18.8072Z" fill="black"/>
    <path d="M80.0122 22.0306C80.0122 26.3611 76.7621 28.9008 71.5222 28.9008H62.2031V5.52249H71.1574C76.1652 5.52249 79.2496 7.73659 79.2496 11.7415C79.2496 13.8905 78.0224 15.6162 75.9 16.6907C78.5532 17.6024 80.0122 19.4583 80.0122 22.0306ZM70.7596 9.42974H66.7797V14.8673H70.7596C73.2137 14.8673 74.474 13.8254 74.474 12.1322C74.474 10.4717 73.2137 9.42974 70.7596 9.42974ZM71.1244 18.8071H66.7797V24.9936H71.1244C73.8437 24.9936 75.27 23.8214 75.27 21.8352C75.27 19.9793 73.8437 18.8071 71.1244 18.8071Z" fill="black"/>
    <path fill-rule="evenodd" clip-rule="evenodd" d="M14.7471 6.14635C15.5492 4.20974 15.9621 2.1341 15.9621 0.0379333H3.12153e-05V16H6.97724e-07L0 31.9621C2.09617 31.9621 4.17181 31.5492 6.10842 30.747C8.04502 29.9448 9.80467 28.7691 11.2869 27.2869C12.7691 25.8047 13.9449 24.045 14.747 22.1084C15.5414 20.1905 15.9541 18.1362 15.9619 16.0607L15.9619 31.9621C18.0581 31.9621 20.1338 31.5492 22.0704 30.747C24.007 29.9448 25.7666 28.7691 27.2488 27.2869C28.731 25.8047 29.9068 24.045 30.709 22.1084C31.5111 20.1718 31.924 18.0962 31.924 16L31.9239 16V0.0379333C29.8277 0.0379333 27.7521 0.450804 25.8155 1.25297C23.8789 2.05514 22.1192 3.2309 20.637 4.71311C19.1548 6.19533 17.979 7.95497 17.1769 9.89158C16.3747 11.8282 15.9618 13.9038 15.9618 16H3.12153e-05C2.0962 16 4.17184 15.5871 6.10845 14.785C8.04505 13.9828 9.8047 12.807 11.2869 11.3248C12.7691 9.8426 13.9449 8.08295 14.7471 6.14635Z" fill="black"/>
</svg>
