<svg width="20" height="20" viewBox="0 0 20 20" fill="none" xmlns="http://www.w3.org/2000/svg">
<path id="Vector" d="M0 4C0 1.79086 1.79086 0 4 0H16C18.2092 0 20 1.79086 20 4V16C20 18.2092 18.2092 20 16 20H4C1.79086 20 0 18.2092 0 16V4Z" fill="#14151A"/>
<path id="Vector_2" d="M3 9.9996L4.58065 8.41895L6.1613 9.9996L4.58065 11.5802L3 9.9996Z" fill="#F0B90B"/>
<path id="Vector_3" d="M5.70898 7.2903L9.99928 3L14.2896 7.2903L12.709 8.87095L9.99928 6.1613L7.28958 8.87095L5.70898 7.2903Z" fill="#F0B90B"/>
<path id="Vector_4" d="M8.41992 9.9996L10.0006 8.41895L11.5812 9.9996L10.0006 11.5802L8.41992 9.9996Z" fill="#F0B90B"/>
<path id="Vector_5" d="M7.28958 11.1294L5.70898 12.71L9.99928 17.0003L14.2896 12.71L12.709 11.1294L9.99928 13.839L7.28958 11.1294Z" fill="#F0B90B"/>
<path id="Vector_6" d="M13.8379 10.0001L15.4185 8.41943L16.9992 10.0001L15.4185 11.5807L13.8379 10.0001Z" fill="#F0B90B"/>
</svg>
