<svg width="169" height="32" viewBox="0 0 169 32" fill="none" xmlns="http://www.w3.org/2000/svg">
    <path d="M168.096 23.9688C167.986 24.9444 167.478 25.9351 166.572 26.9409C165.164 28.5401 163.193 29.3397 160.658 29.3397C158.566 29.3397 156.721 28.6658 155.121 27.3181C153.522 25.9703 152.723 23.7777 152.723 20.7402C152.723 17.8938 153.442 15.7112 154.88 14.1924C156.328 12.6737 158.204 11.9143 160.508 11.9143C161.875 11.9143 163.108 12.1708 164.204 12.6837C165.3 13.1967 166.205 14.0064 166.919 15.1127C167.563 16.0884 167.981 17.2199 168.172 18.5073C168.282 19.2617 168.328 20.3479 168.307 21.7661H157.053C157.113 23.4156 157.631 24.5723 158.607 25.2361C159.2 25.6485 159.914 25.8546 160.749 25.8546C161.634 25.8546 162.353 25.6032 162.906 25.1003C163.208 24.8287 163.475 24.4516 163.706 23.9688H168.096ZM163.842 18.9297C163.771 17.7932 163.424 16.9332 162.801 16.3499C162.187 15.7564 161.423 15.4597 160.508 15.4597C159.512 15.4597 158.737 15.7715 158.184 16.3951C157.641 17.0187 157.299 17.8636 157.158 18.9297H163.842Z" fill="white"/>
    <path d="M136.383 16.8779C136.021 16.0833 135.312 15.686 134.256 15.686C133.029 15.686 132.204 16.0833 131.781 16.8779C131.55 17.3305 131.434 18.0044 131.434 18.8996V28.7966H127.074V12.382H131.253V14.7808C131.786 13.9259 132.289 13.3174 132.762 12.9553C133.597 12.3116 134.678 11.9897 136.006 11.9897C137.263 11.9897 138.279 12.2663 139.053 12.8195C139.677 13.3325 140.15 13.9913 140.471 14.7959C141.035 13.8304 141.734 13.1213 142.569 12.6687C143.454 12.2161 144.439 11.9897 145.526 11.9897C146.25 11.9897 146.964 12.1306 147.668 12.4122C148.372 12.6938 149.011 13.1866 149.584 13.8907C150.047 14.464 150.358 15.1681 150.519 16.0029C150.62 16.5561 150.67 17.3657 150.67 18.4319L150.64 28.7966H146.235V18.3263C146.235 17.7027 146.134 17.1897 145.933 16.7874C145.551 16.023 144.847 15.6408 143.821 15.6408C142.634 15.6408 141.814 16.1336 141.362 17.1193C141.13 17.6423 141.015 18.2709 141.015 19.0052V28.7966H136.685V19.0052C136.685 18.0296 136.584 17.3205 136.383 16.8779Z" fill="white"/>
    <path d="M123.589 12.3518V28.7966H119.229V12.3518H123.589ZM123.589 6.42261V10.3905H119.229V6.42261H123.589Z" fill="white"/>
    <path d="M116.014 16.3196C114.284 16.3196 113.122 16.8828 112.529 18.0093C112.197 18.643 112.031 19.6186 112.031 20.9362V28.7965H107.701V12.3517H111.805V15.2183C112.469 14.1219 113.047 13.3726 113.54 12.9703C114.344 12.2964 115.39 11.9595 116.678 11.9595C116.758 11.9595 116.824 11.9645 116.874 11.9746C116.934 11.9746 117.06 11.9796 117.251 11.9896V16.395C116.98 16.3649 116.738 16.3447 116.527 16.3347C116.316 16.3246 116.145 16.3196 116.014 16.3196Z" fill="white"/>
    <path d="M97.5478 20.8004H92.8256V28.7965H88.209V6.55835H97.8948C100.128 6.55835 101.908 7.13165 103.236 8.27826C104.563 9.42487 105.227 11.2001 105.227 13.604C105.227 16.2291 104.563 18.0848 103.236 19.171C101.908 20.2573 100.012 20.8004 97.5478 20.8004ZM99.7203 16.1687C100.324 15.6357 100.626 14.7908 100.626 13.6341C100.626 12.4775 100.319 11.6527 99.7052 11.1599C99.1018 10.667 98.2519 10.4206 97.1555 10.4206H92.8256V16.9683H97.1555C98.2519 16.9683 99.1068 16.7018 99.7203 16.1687Z" fill="white"/>
    <path d="M59.3853 21.9926C59.3853 26.3231 56.1352 28.8628 50.8952 28.8628H41.5762V5.4845H50.5305C55.5382 5.4845 58.6227 7.69859 58.6227 11.7035C58.6227 13.8525 57.3954 15.5782 55.273 16.6527C57.9262 17.5644 59.3853 19.4203 59.3853 21.9926ZM50.1326 9.39174H46.1527V14.8293H50.1326C52.5868 14.8293 53.8471 13.7874 53.8471 12.0942C53.8471 10.4337 52.5868 9.39174 50.1326 9.39174ZM50.4974 18.7691H46.1527V24.9556H50.4974C53.2167 24.9556 54.643 23.7834 54.643 21.7973C54.643 19.9413 53.2167 18.7691 50.4974 18.7691Z" fill="white"/>
    <path d="M80.0122 21.9926C80.0122 26.3231 76.7621 28.8628 71.5222 28.8628H62.2031V5.4845H71.1574C76.1652 5.4845 79.2496 7.69859 79.2496 11.7035C79.2496 13.8525 78.0224 15.5782 75.9 16.6527C78.5532 17.5644 80.0122 19.4203 80.0122 21.9926ZM70.7596 9.39174H66.7797V14.8293H70.7596C73.2137 14.8293 74.474 13.7874 74.474 12.0942C74.474 10.4337 73.2137 9.39174 70.7596 9.39174ZM71.1244 18.7691H66.7797V24.9556H71.1244C73.8437 24.9556 75.27 23.7834 75.27 21.7973C75.27 19.9413 73.8437 18.7691 71.1244 18.7691Z" fill="white"/>
    <path fill-rule="evenodd" clip-rule="evenodd" d="M14.747 6.10842C15.5492 4.17181 15.9621 2.09617 15.9621 0H0V15.9621H-3.05176e-05L-3.12153e-05 31.9241C2.09614 31.9241 4.17178 31.5112 6.10838 30.7091C8.04499 29.9069 9.80464 28.7312 11.2868 27.2489C12.7691 25.7667 13.9448 24.0071 14.747 22.0705C15.5253 20.1914 15.9372 18.1813 15.9609 16.1487L15.9609 31.9241C18.0571 31.9241 20.1327 31.5112 22.0694 30.7091C24.006 29.9069 25.7656 28.7311 27.2478 27.2489C28.73 25.7667 29.9058 24.0071 30.708 22.0705C31.5101 20.1339 31.923 18.0582 31.923 15.9621H31.9239V0C29.8277 0 27.752 0.412871 25.8154 1.21504C23.8788 2.01721 22.1192 3.19296 20.637 4.67518C19.1548 6.15739 17.979 7.91704 17.1768 9.85364C16.3747 11.7902 15.9618 13.8659 15.9618 15.962H15.9609V15.9621L0 15.9621C2.09617 15.9621 4.17181 15.5492 6.10842 14.747C8.04502 13.9449 9.80467 12.7691 11.2869 11.2869C12.7691 9.80467 13.9449 8.04502 14.747 6.10842Z" fill="white"/>
</svg>
