<svg width="41" height="40" viewBox="0 0 41 40" fill="none" xmlns="http://www.w3.org/2000/svg">
    <path d="M18.1667 20.5804L15.145 17.5588L13.5 19.2038L18.1667 23.8704L27.5 14.5371L25.855 12.8921L18.1667 20.5804Z" fill="#1C3F3A"/>
    <path d="M20.5 35.1665L13.8093 31.5991C11.9018 30.5846 10.3066 29.0696 9.19503 27.2169C8.08345 25.3643 7.49748 23.2438 7.50001 21.0832V6.99992C7.50001 6.42528 7.72828 5.87418 8.13461 5.46785C8.54094 5.06152 9.09204 4.83325 9.66667 4.83325H31.3333C31.9079 4.83325 32.459 5.06152 32.8654 5.46785C33.2717 5.87418 33.5 6.42528 33.5 6.99992V21.0832C33.5025 23.2438 32.9165 25.3643 31.805 27.2169C30.6934 29.0696 29.0982 30.5846 27.1906 31.5991L20.5 35.1665ZM9.66667 6.99992V21.0832C9.66547 22.8509 10.1454 24.5856 11.0549 26.1012C11.9645 27.6169 13.2694 28.8565 14.8298 29.687L20.5 32.7106L26.1701 29.6881C27.7307 28.8575 29.0357 27.6178 29.9453 26.1019C30.8549 24.586 31.3347 22.8511 31.3333 21.0832V6.99992H9.66667Z" fill="#1C3F3A"/>
</svg>
