<svg width="40" height="40" viewBox="0 0 40 40" fill="none" xmlns="http://www.w3.org/2000/svg">
    <path d="M21.01 6.23406C20.7033 6.05441 20.3544 5.95972 19.999 5.95972C19.6436 5.95972 19.2946 6.05441 18.988 6.23406L6.96797 13.2741C6.66706 13.4509 6.41767 13.7034 6.24459 14.0065C6.07151 14.3096 5.98076 14.6528 5.98137 15.0018C5.98198 15.3508 6.07391 15.6936 6.24805 15.9961C6.42218 16.2986 6.67244 16.5503 6.97397 16.7261L18.992 23.7301C19.2977 23.9082 19.6451 24.0021 19.999 24.0021C20.3528 24.0021 20.7003 23.9082 21.006 23.7301L33.024 16.7261C33.3257 16.55 33.5762 16.298 33.7503 15.9951C33.9244 15.6922 34.0161 15.349 34.0163 14.9996C34.0165 14.6503 33.9252 14.3069 33.7514 14.0038C33.5777 13.7007 33.3275 13.4484 33.026 13.2721L21.01 6.23406ZM18.988 8.55206C19.2944 8.37279 19.643 8.2783 19.998 8.2783C20.353 8.2783 20.7016 8.37279 21.008 8.55206L32.016 14.9981L21.006 21.4161C20.7003 21.5942 20.3528 21.6881 19.999 21.6881C19.6451 21.6881 19.2977 21.5942 18.992 21.4161L7.97997 14.9981L18.988 8.55206ZM6.13997 19.3001L19.016 26.5461C19.3152 26.7143 19.6527 26.8026 19.996 26.8026C20.3392 26.8026 20.6767 26.7143 20.976 26.5461L33.852 19.3001C34.0455 19.749 34.0679 20.2532 33.915 20.7175C33.7621 21.1818 33.4444 21.574 33.022 21.8201L21.002 28.8241C20.6965 29.0018 20.3494 29.0955 19.996 29.0955C19.6425 29.0955 19.2954 29.0018 18.99 28.8241L6.96996 21.8201C6.54755 21.574 6.22987 21.1818 6.07695 20.7175C5.92402 20.2532 5.94644 19.749 6.13997 19.3001ZM6.13997 24.2061L19.016 31.4501C19.3152 31.6183 19.6527 31.7066 19.996 31.7066C20.3392 31.7066 20.6767 31.6183 20.976 31.4501L33.852 24.2061C34.0455 24.655 34.0679 25.1592 33.915 25.6235C33.7621 26.0878 33.4444 26.48 33.022 26.7261L21.002 33.7301C20.6965 33.9078 20.3494 34.0015 19.996 34.0015C19.6425 34.0015 19.2954 33.9078 18.99 33.7301L6.96996 26.7261C6.54755 26.48 6.22987 26.0878 6.07695 25.6235C5.92402 25.1592 5.94644 24.655 6.13997 24.2061Z" fill="#1C3F3A"/>
</svg>
