<svg width="196" height="123" viewBox="0 0 196 123" fill="none" xmlns="http://www.w3.org/2000/svg">
    <g filter="url(#filter0_d_1261_7125)">
        <rect x="23" y="23" width="149.684" height="76.6844" rx="6" fill="#FCFCFC" shape-rendering="crispEdges"/>
        <rect x="23.2138" y="23.2138" width="149.257" height="76.2568" rx="5.78618" stroke="black" stroke-opacity="0.1" stroke-width="0.427638" shape-rendering="crispEdges"/>
        <path d="M31.6838 36.8422V31.9542H29.9398V31.1622H34.2918V31.9542H32.5478V36.8422H31.6838ZM36.102 36.9382C35.6967 36.9382 35.342 36.8475 35.038 36.6662C34.734 36.4795 34.4993 36.2209 34.334 35.8902C34.1687 35.5595 34.086 35.1675 34.086 34.7142C34.086 34.2609 34.1687 33.8689 34.334 33.5382C34.4993 33.2075 34.734 32.9515 35.038 32.7702C35.342 32.5835 35.6967 32.4902 36.102 32.4902C36.5073 32.4902 36.862 32.5835 37.166 32.7702C37.47 32.9515 37.7047 33.2075 37.87 33.5382C38.0353 33.8689 38.118 34.2609 38.118 34.7142C38.118 35.1675 38.0353 35.5595 37.87 35.8902C37.7047 36.2209 37.47 36.4795 37.166 36.6662C36.862 36.8475 36.5073 36.9382 36.102 36.9382ZM36.102 36.2022C36.4647 36.2022 36.7447 36.0715 36.942 35.8102C37.1393 35.5489 37.238 35.1835 37.238 34.7142C37.238 34.2502 37.1393 33.8875 36.942 33.6262C36.7447 33.3595 36.4647 33.2262 36.102 33.2262C35.7447 33.2262 35.4647 33.3595 35.262 33.6262C35.0647 33.8875 34.966 34.2502 34.966 34.7142C34.966 35.1835 35.0647 35.5489 35.262 35.8102C35.4647 36.0715 35.7447 36.2022 36.102 36.2022ZM40.4508 36.8422C40.0454 36.8422 39.7468 36.7515 39.5548 36.5702C39.3628 36.3835 39.2668 36.0902 39.2668 35.6902V33.2822H38.6188V32.5862H39.2668V31.5862H40.1148V32.5862H41.2428V33.2822H40.1148V35.6262C40.1148 35.8235 40.1574 35.9595 40.2428 36.0342C40.3281 36.1089 40.4588 36.1462 40.6348 36.1462H41.2428V36.8422H40.4508ZM43.2217 36.9382C42.779 36.9382 42.4244 36.8369 42.1577 36.6342C41.8964 36.4315 41.7657 36.1462 41.7657 35.7782C41.7657 35.4155 41.875 35.1302 42.0937 34.9222C42.3177 34.7142 42.6617 34.5649 43.1257 34.4742L44.5897 34.1942C44.5897 33.5382 44.283 33.2102 43.6697 33.2102C43.3977 33.2102 43.1844 33.2715 43.0297 33.3942C42.875 33.5169 42.7684 33.6929 42.7097 33.9222L41.8377 33.8662C41.9177 33.4395 42.115 33.1035 42.4297 32.8582C42.7497 32.6129 43.163 32.4902 43.6697 32.4902C44.2457 32.4902 44.683 32.6449 44.9817 32.9542C45.2857 33.2582 45.4377 33.6875 45.4377 34.2422V35.8982C45.4377 35.9995 45.4537 36.0715 45.4857 36.1142C45.523 36.1515 45.5817 36.1702 45.6617 36.1702H45.8137V36.8422C45.739 36.8582 45.635 36.8662 45.5017 36.8662C45.2617 36.8662 45.0697 36.8155 44.9257 36.7142C44.7817 36.6129 44.6937 36.4369 44.6617 36.1862C44.555 36.4102 44.371 36.5915 44.1097 36.7302C43.8484 36.8689 43.5524 36.9382 43.2217 36.9382ZM43.3577 36.2662C43.7417 36.2662 44.043 36.1569 44.2617 35.9382C44.4804 35.7195 44.5897 35.4422 44.5897 35.1062V34.8342L43.3417 35.0742C43.0857 35.1222 42.9044 35.1995 42.7977 35.3062C42.6964 35.4075 42.6457 35.5382 42.6457 35.6982C42.6457 35.8795 42.707 36.0209 42.8297 36.1222C42.9577 36.2182 43.1337 36.2662 43.3577 36.2662ZM47.403 36.8422C47.1203 36.8422 46.8937 36.7702 46.723 36.6262C46.5577 36.4822 46.475 36.2529 46.475 35.9382V31.1622H47.323V35.8582C47.323 36.0502 47.4217 36.1462 47.619 36.1462H47.955V36.8422H47.403ZM52.8141 36.9702C52.3608 36.9702 51.9661 36.8875 51.6301 36.7222C51.2995 36.5569 51.0381 36.3275 50.8461 36.0342C50.6541 35.7409 50.5421 35.3995 50.5101 35.0102L51.3981 34.9542C51.4515 35.3489 51.5955 35.6529 51.8301 35.8662C52.0701 36.0795 52.4035 36.1862 52.8301 36.1862C53.1981 36.1862 53.4835 36.1169 53.6861 35.9782C53.8888 35.8395 53.9901 35.6369 53.9901 35.3702C53.9901 35.2102 53.9501 35.0689 53.8701 34.9462C53.7955 34.8182 53.6488 34.7035 53.4301 34.6022C53.2168 34.4955 52.9021 34.3915 52.4861 34.2902C52.0328 34.1835 51.6701 34.0635 51.3981 33.9302C51.1261 33.7915 50.9288 33.6235 50.8061 33.4262C50.6888 33.2235 50.6301 32.9755 50.6301 32.6822C50.6301 32.3569 50.7075 32.0715 50.8621 31.8262C51.0221 31.5755 51.2488 31.3809 51.5421 31.2422C51.8355 31.1035 52.1875 31.0342 52.5981 31.0342C53.0301 31.0342 53.4008 31.1142 53.7101 31.2742C54.0195 31.4342 54.2621 31.6529 54.4381 31.9302C54.6141 32.2075 54.7235 32.5249 54.7661 32.8822L53.8781 32.9302C53.8355 32.6049 53.7048 32.3382 53.4861 32.1302C53.2728 31.9222 52.9715 31.8182 52.5821 31.8182C52.2515 31.8182 51.9901 31.8955 51.7981 32.0502C51.6115 32.1995 51.5181 32.3995 51.5181 32.6502C51.5181 32.8155 51.5555 32.9515 51.6301 33.0582C51.7101 33.1649 51.8488 33.2609 52.0461 33.3462C52.2488 33.4262 52.5341 33.5089 52.9021 33.5942C53.3928 33.7062 53.7821 33.8449 54.0701 34.0102C54.3581 34.1702 54.5635 34.3595 54.6861 34.5782C54.8141 34.7969 54.8781 35.0449 54.8781 35.3222C54.8781 35.6582 54.7901 35.9515 54.6141 36.2022C54.4435 36.4475 54.2035 36.6369 53.8941 36.7702C53.5848 36.9035 53.2248 36.9702 52.8141 36.9702ZM57.357 36.8422C56.9517 36.8422 56.653 36.7515 56.461 36.5702C56.269 36.3835 56.173 36.0902 56.173 35.6902V33.2822H55.525V32.5862H56.173V31.5862H57.021V32.5862H58.149V33.2822H57.021V35.6262C57.021 35.8235 57.0637 35.9595 57.149 36.0342C57.2343 36.1089 57.365 36.1462 57.541 36.1462H58.149V36.8422H57.357ZM60.1279 36.9382C59.6853 36.9382 59.3306 36.8369 59.0639 36.6342C58.8026 36.4315 58.6719 36.1462 58.6719 35.7782C58.6719 35.4155 58.7813 35.1302 58.9999 34.9222C59.2239 34.7142 59.5679 34.5649 60.0319 34.4742L61.4959 34.1942C61.4959 33.5382 61.1893 33.2102 60.5759 33.2102C60.3039 33.2102 60.0906 33.2715 59.9359 33.3942C59.7813 33.5169 59.6746 33.6929 59.6159 33.9222L58.7439 33.8662C58.8239 33.4395 59.0213 33.1035 59.3359 32.8582C59.6559 32.6129 60.0693 32.4902 60.5759 32.4902C61.1519 32.4902 61.5893 32.6449 61.8879 32.9542C62.1919 33.2582 62.3439 33.6875 62.3439 34.2422V35.8982C62.3439 35.9995 62.3599 36.0715 62.3919 36.1142C62.4293 36.1515 62.4879 36.1702 62.5679 36.1702H62.7199V36.8422C62.6453 36.8582 62.5413 36.8662 62.4079 36.8662C62.1679 36.8662 61.9759 36.8155 61.8319 36.7142C61.6879 36.6129 61.5999 36.4369 61.5679 36.1862C61.4613 36.4102 61.2773 36.5915 61.0159 36.7302C60.7546 36.8689 60.4586 36.9382 60.1279 36.9382ZM60.2639 36.2662C60.6479 36.2662 60.9493 36.1569 61.1679 35.9382C61.3866 35.7195 61.4959 35.4422 61.4959 35.1062V34.8342L60.2479 35.0742C59.9919 35.1222 59.8106 35.1995 59.7039 35.3062C59.6026 35.4075 59.5519 35.5382 59.5519 35.6982C59.5519 35.8795 59.6133 36.0209 59.7359 36.1222C59.8639 36.2182 60.0399 36.2662 60.2639 36.2662ZM63.3969 36.8422V31.1622H64.2449V34.6902L66.1569 32.5862H67.2289L65.5649 34.3782L67.2929 36.8422H66.3169L64.9969 34.9062L64.2449 35.7062V36.8422H63.3969ZM69.5707 36.9382C69.1548 36.9382 68.7948 36.8475 68.4908 36.6662C68.1921 36.4795 67.9601 36.2209 67.7948 35.8902C67.6348 35.5542 67.5548 35.1622 67.5548 34.7142C67.5548 34.2662 67.6348 33.8769 67.7948 33.5462C67.9601 33.2102 68.1921 32.9515 68.4908 32.7702C68.7894 32.5835 69.1414 32.4902 69.5468 32.4902C69.9308 32.4902 70.2694 32.5809 70.5628 32.7622C70.8561 32.9382 71.0828 33.1942 71.2428 33.5302C71.4081 33.8662 71.4908 34.2715 71.4908 34.7462V34.9622H68.4348C68.4561 35.3782 68.5654 35.6902 68.7628 35.8982C68.9654 36.1062 69.2374 36.2102 69.5788 36.2102C69.8294 36.2102 70.0348 36.1542 70.1948 36.0422C70.3601 35.9249 70.4774 35.7649 70.5468 35.5622L71.4268 35.6182C71.3148 36.0182 71.0934 36.3382 70.7628 36.5782C70.4374 36.8182 70.0401 36.9382 69.5707 36.9382ZM68.4348 34.3222H70.5948C70.5681 33.9435 70.4588 33.6635 70.2668 33.4822C70.0748 33.3009 69.8348 33.2102 69.5468 33.2102C69.2428 33.2102 68.9921 33.3062 68.7948 33.4982C68.6028 33.6849 68.4828 33.9595 68.4348 34.3222Z" fill="#646464"/>
        <circle cx="162.844" cy="34.3422" r="3" fill="#1C3F3A"/>
        <path d="M36.9238 71.0022V69.0822C35.1798 68.8902 33.8038 68.2822 32.7958 67.2582C31.7878 66.2182 31.2278 64.9062 31.1158 63.3222L34.2118 63.1542C34.4678 64.9462 35.3718 66.0262 36.9238 66.3942V61.4262C35.5958 61.1062 34.5318 60.7462 33.7318 60.3462C32.9318 59.9462 32.3478 59.4502 31.9798 58.8582C31.6278 58.2662 31.4518 57.5222 31.4518 56.6262C31.4518 55.2342 31.9318 54.0902 32.8918 53.1942C33.8678 52.2982 35.2118 51.8022 36.9238 51.7062V49.6422H38.7958V51.7782C40.3798 52.0182 41.6038 52.6342 42.4678 53.6262C43.3478 54.6182 43.8678 55.8182 44.0278 57.2262L40.9318 57.3942C40.8518 56.7062 40.6278 56.1142 40.2598 55.6182C39.9078 55.1062 39.4198 54.7462 38.7958 54.5382V59.1702C40.1718 59.5062 41.2598 59.9142 42.0598 60.3942C42.8758 60.8582 43.4518 61.4102 43.7878 62.0502C44.1398 62.6742 44.3158 63.3862 44.3158 64.1862C44.3158 65.6102 43.8118 66.7622 42.8038 67.6422C41.8118 68.5062 40.4758 68.9942 38.7958 69.1062V71.0022H36.9238ZM34.5718 56.5062C34.5718 57.0662 34.7318 57.5062 35.0518 57.8262C35.3878 58.1462 36.0118 58.4422 36.9238 58.7142V54.3462C36.1878 54.4262 35.6118 54.6662 35.1958 55.0662C34.7798 55.4502 34.5718 55.9302 34.5718 56.5062ZM41.2198 64.3542C41.2198 63.8262 41.0598 63.3782 40.7398 63.0102C40.4358 62.6262 39.7878 62.2662 38.7958 61.9302V66.4662C39.5638 66.3862 40.1558 66.1702 40.5718 65.8182C41.0038 65.4662 41.2198 64.9782 41.2198 64.3542ZM53.4178 69.2262C51.3058 69.2262 49.6978 68.5462 48.5938 67.1862C47.5058 65.8262 46.9618 63.9142 46.9618 61.4502C46.9618 60.0262 47.0978 58.7062 47.3698 57.4902C47.6418 56.2742 48.0578 55.2102 48.6178 54.2982C49.1938 53.3862 49.9218 52.6822 50.8018 52.1862C51.6978 51.6742 52.7698 51.4182 54.0178 51.4182C55.6178 51.4182 56.8818 51.8102 57.8098 52.5942C58.7378 53.3782 59.3618 54.4262 59.6818 55.7382L56.7298 55.9782C56.5378 55.3862 56.2338 54.9302 55.8178 54.6102C55.4018 54.2742 54.7938 54.1062 53.9938 54.1062C52.8898 54.1062 51.9938 54.5382 51.3058 55.4022C50.6338 56.2662 50.2178 57.5862 50.0578 59.3622C50.4418 58.8502 50.9698 58.4262 51.6418 58.0902C52.3138 57.7382 53.1138 57.5622 54.0418 57.5622C55.1938 57.5622 56.1938 57.8022 57.0418 58.2822C57.9058 58.7462 58.5778 59.4022 59.0578 60.2502C59.5378 61.0982 59.7778 62.0902 59.7778 63.2262C59.7778 64.4902 59.5058 65.5702 58.9618 66.4662C58.4178 67.3622 57.6658 68.0502 56.7058 68.5302C55.7618 68.9942 54.6658 69.2262 53.4178 69.2262ZM53.4178 66.6102C54.3618 66.6102 55.1298 66.3142 55.7218 65.7222C56.3298 65.1142 56.6338 64.2822 56.6338 63.2262C56.6338 62.2502 56.3458 61.4662 55.7698 60.8742C55.1938 60.2662 54.4498 59.9622 53.5378 59.9622C52.5618 59.9622 51.7538 60.2582 51.1138 60.8502C50.4738 61.4422 50.1538 62.2342 50.1538 63.2262C50.1538 64.2182 50.4498 65.0342 51.0418 65.6742C51.6338 66.2982 52.4258 66.6102 53.4178 66.6102ZM65.2475 68.8422V57.1542H61.5995V54.7782H63.0635C64.0875 54.7782 64.8155 54.5702 65.2475 54.1542C65.6795 53.7222 65.8955 52.9382 65.8955 51.8022H68.3675V68.8422H65.2475ZM72.1113 68.8422C72.1113 67.4662 72.3033 66.2662 72.6873 65.2422C73.0713 64.2022 73.7193 63.2582 74.6313 62.4102C75.5433 61.5462 76.7753 60.7062 78.3273 59.8902C79.0953 59.4742 79.7113 59.1062 80.1753 58.7862C80.6393 58.4662 80.9753 58.1382 81.1833 57.8022C81.3913 57.4502 81.4953 57.0342 81.4953 56.5542C81.4953 55.8342 81.2633 55.2502 80.7993 54.8022C80.3353 54.3542 79.6473 54.1302 78.7353 54.1302C77.7593 54.1302 76.9833 54.4102 76.4073 54.9702C75.8473 55.5142 75.5033 56.2982 75.3753 57.3222L72.1593 57.1302C72.3193 55.3542 72.9673 53.9622 74.1033 52.9542C75.2393 51.9302 76.7833 51.4182 78.7353 51.4182C80.6233 51.4182 82.0873 51.8902 83.1273 52.8342C84.1833 53.7622 84.7113 54.9862 84.7113 56.5062C84.7113 57.3702 84.5593 58.1142 84.2553 58.7382C83.9673 59.3622 83.4873 59.9382 82.8153 60.4662C82.1593 60.9782 81.2713 61.5302 80.1513 62.1222C78.7433 62.8742 77.6873 63.6022 76.9833 64.3062C76.2793 64.9942 75.9033 65.6022 75.8553 66.1302H84.7113V68.8422H72.1113ZM87.2458 72.6342L88.4938 68.8422H87.0298V65.4822H90.5338V68.4582L88.9498 72.6342H87.2458ZM100.652 68.8422V65.4342H92.1084V62.8902L100.148 51.8022H103.772V62.7222H105.812V65.4342H103.772V68.8422H100.652ZM95.5164 62.7222H100.652V55.8582L95.5164 62.7222ZM108.322 68.8422C108.322 67.4662 108.514 66.2662 108.898 65.2422C109.282 64.2022 109.93 63.2582 110.842 62.4102C111.754 61.5462 112.986 60.7062 114.538 59.8902C115.306 59.4742 115.922 59.1062 116.386 58.7862C116.85 58.4662 117.186 58.1382 117.394 57.8022C117.602 57.4502 117.706 57.0342 117.706 56.5542C117.706 55.8342 117.474 55.2502 117.01 54.8022C116.546 54.3542 115.858 54.1302 114.946 54.1302C113.97 54.1302 113.194 54.4102 112.618 54.9702C112.058 55.5142 111.714 56.2982 111.586 57.3222L108.37 57.1302C108.53 55.3542 109.178 53.9622 110.314 52.9542C111.45 51.9302 112.994 51.4182 114.946 51.4182C116.834 51.4182 118.298 51.8902 119.338 52.8342C120.394 53.7622 120.922 54.9862 120.922 56.5062C120.922 57.3702 120.77 58.1142 120.466 58.7382C120.178 59.3622 119.698 59.9382 119.026 60.4662C118.37 60.9782 117.482 61.5302 116.362 62.1222C114.954 62.8742 113.898 63.6022 113.194 64.3062C112.49 64.9942 112.114 65.6022 112.066 66.1302H120.922V68.8422H108.322ZM130.129 69.2262C128.145 69.2262 126.601 68.7702 125.497 67.8582C124.409 66.9462 123.801 65.7462 123.673 64.2582L126.865 64.0902C126.993 64.8902 127.337 65.4902 127.897 65.8902C128.473 66.2902 129.217 66.4902 130.129 66.4902C131.169 66.4902 131.977 66.2102 132.553 65.6502C133.145 65.0742 133.441 64.2662 133.441 63.2262C133.441 62.2342 133.145 61.4422 132.553 60.8502C131.961 60.2422 131.145 59.9382 130.105 59.9382C129.385 59.9382 128.753 60.0982 128.209 60.4182C127.681 60.7222 127.297 61.1302 127.057 61.6422H123.889L125.065 51.8022H135.505V54.5142H127.777L127.225 58.8582C128.121 57.9462 129.361 57.4902 130.945 57.4902C132.097 57.4902 133.097 57.7382 133.945 58.2342C134.809 58.7302 135.473 59.4182 135.937 60.2982C136.417 61.1622 136.657 62.1382 136.657 63.2262C136.657 64.4422 136.385 65.4982 135.841 66.3942C135.297 67.2902 134.537 67.9862 133.561 68.4822C132.585 68.9782 131.441 69.2262 130.129 69.2262Z" fill="#1C3F3A"/>
        <path d="M35.8437 93.3422C39.1575 93.3422 41.8437 90.6559 41.8437 87.3422C41.8437 84.0285 39.1575 81.3422 35.8437 81.3422C32.53 81.3422 29.8438 84.0285 29.8438 87.3422C29.8438 90.6559 32.53 93.3422 35.8437 93.3422Z" fill="#F5F2E9"/>
        <g clip-path="url(#clip0_1261_7125)">
            <path d="M38.6566 84.3426C38.6556 84.4037 38.6542 84.4648 38.6503 84.5259C38.6154 85.0872 38.4063 85.6358 38.0583 86.0775C37.9249 86.2518 37.7618 86.3996 37.6084 86.5557C36.6833 87.4812 35.7578 88.406 34.8328 89.3317C34.566 89.5952 34.413 89.9665 34.4126 90.3412C33.9494 90.3415 33.4863 90.3417 33.0234 90.341C33.0244 90.2879 33.0256 90.2351 33.0278 90.1822C33.0626 89.5141 33.3478 88.8628 33.8153 88.3843C34.825 87.3741 35.8355 86.3643 36.8453 85.3538C37.1131 85.0901 37.2665 84.7181 37.2672 84.3426C37.7304 84.3424 38.1935 84.3419 38.6566 84.3426Z" fill="black"/>
            <path d="M38.5819 89.6903C38.6323 89.9033 38.6566 90.1222 38.6576 90.3411C38.1945 90.3421 37.7311 90.3399 37.268 90.3421C37.2663 90.0592 37.1823 89.7765 37.0221 89.5427C36.8363 89.2656 36.5499 89.0608 36.2305 88.9673C36.5806 88.6184 36.929 88.268 37.2794 87.9194C37.9286 88.3021 38.4109 88.9559 38.5819 89.6903Z" fill="black"/>
            <path d="M35.4508 85.716C35.1009 86.0651 34.7522 86.4153 34.4018 86.7642C33.8289 86.425 33.3833 85.8769 33.1715 85.2453C33.0731 84.9551 33.0244 84.6488 33.0234 84.3425C33.4868 84.3422 33.9499 84.3425 34.4133 84.3422C34.414 84.6651 34.526 84.9862 34.7298 85.237C34.9134 85.4659 35.1693 85.6339 35.4508 85.716Z" fill="black"/>
            <path d="M35.1446 84.3422C35.1434 84.4436 35.1644 84.5451 35.2102 84.6377C35.349 84.9503 35.7373 85.1176 36.06 85.0017C36.3412 84.9148 36.5353 84.6315 36.5359 84.3422H35.1446Z" fill="black"/>
            <path d="M36.5359 90.3411C36.5363 90.277 36.5274 90.2127 36.5079 90.1502C36.4833 90.0635 36.4417 89.982 36.3859 89.9113C36.1834 89.6423 35.7767 89.5651 35.4892 89.7404C35.2745 89.8596 35.1469 90.1 35.1445 90.3411H36.5359Z" fill="black"/>
        </g>
        <path d="M45.1871 90.8422V83.7422H47.7371C48.5905 83.7422 49.2338 83.8955 49.6671 84.2022C50.1005 84.5089 50.3171 84.9955 50.3171 85.6622C50.3171 86.0689 50.2005 86.4089 49.9671 86.6822C49.7338 86.9489 49.4105 87.1122 48.9971 87.1722C49.5105 87.2322 49.9071 87.4155 50.1871 87.7222C50.4738 88.0289 50.6171 88.4189 50.6171 88.8922C50.6171 89.5389 50.4005 90.0255 49.9671 90.3522C49.5338 90.6789 48.9171 90.8422 48.1171 90.8422H45.1871ZM46.2671 86.7722H47.7171C48.1905 86.7722 48.5571 86.6822 48.8171 86.5022C49.0771 86.3222 49.2071 86.0689 49.2071 85.7422C49.2071 85.0555 48.7105 84.7122 47.7171 84.7122H46.2671V86.7722ZM46.2671 89.8722H48.0871C48.5338 89.8722 48.8805 89.7822 49.1271 89.6022C49.3805 89.4155 49.5071 89.1455 49.5071 88.7922C49.5071 88.4455 49.3805 88.1755 49.1271 87.9822C48.8805 87.7889 48.5338 87.6922 48.0871 87.6922H46.2671V89.8722ZM51.9157 90.8422V83.7422H56.5357V84.7322H52.9957V86.8022H56.4157V87.7622H52.9957V89.8522H56.6157V90.8422H51.9157ZM57.9215 90.8422V83.7422H59.2915L62.5715 89.5322V83.7422H63.6515V90.8422H62.2315L59.0015 85.1822V90.8422H57.9215ZM67.3169 91.0022C66.8436 91.0022 66.4302 90.8955 66.0769 90.6822C65.7236 90.4622 65.4469 90.1622 65.2469 89.7822C65.0536 89.3955 64.9536 88.9522 64.9469 88.4522L66.0469 88.3922C66.0536 88.9189 66.1669 89.3222 66.3869 89.6022C66.6069 89.8755 66.9169 90.0122 67.3169 90.0122C67.7302 90.0122 68.0502 89.8689 68.2769 89.5822C68.5036 89.2955 68.6169 88.8822 68.6169 88.3422V83.7422H69.6969V88.3422C69.6969 88.8822 69.5969 89.3522 69.3969 89.7522C69.2036 90.1522 68.9302 90.4622 68.5769 90.6822C68.2236 90.8955 67.8036 91.0022 67.3169 91.0022ZM71.4176 90.8422V83.7422H72.4976V90.8422H71.4176Z" fill="#202020"/>
    </g>
    <defs>
        <filter id="filter0_d_1261_7125" x="0" y="0" width="195.684" height="122.684" filterUnits="userSpaceOnUse" color-interpolation-filters="sRGB">
            <feFlood flood-opacity="0" result="BackgroundImageFix"/>
            <feColorMatrix in="SourceAlpha" type="matrix" values="0 0 0 0 0 0 0 0 0 0 0 0 0 0 0 0 0 0 127 0" result="hardAlpha"/>
            <feMorphology radius="10" operator="dilate" in="SourceAlpha" result="effect1_dropShadow_1261_7125"/>
            <feOffset/>
            <feGaussianBlur stdDeviation="6.5"/>
            <feComposite in2="hardAlpha" operator="out"/>
            <feColorMatrix type="matrix" values="0 0 0 0 0.752319 0 0 0 0 0.781869 0 0 0 0 0.781869 0 0 0 1 0"/>
            <feBlend mode="normal" in2="BackgroundImageFix" result="effect1_dropShadow_1261_7125"/>
            <feBlend mode="normal" in="SourceGraphic" in2="effect1_dropShadow_1261_7125" result="shape"/>
        </filter>
        <clipPath id="clip0_1261_7125">
            <rect width="6" height="6" fill="white" transform="translate(32.8438 84.3422)"/>
        </clipPath>
    </defs>
</svg>
