<svg width="144" height="124" viewBox="0 0 144 124" fill="none" xmlns="http://www.w3.org/2000/svg">
    <path d="M0 19.8543C10.8448 19.8543 19.6363 28.6458 19.6363 39.4906V123.49H0V19.8543Z" fill="#9B9B9B"/>
    <path d="M25.0898 55.8542C35.9347 55.8542 44.7261 64.6456 44.7261 75.4904V123.49H25.0898V55.8542Z" fill="#D9D9D9"/>
    <path d="M50.1836 0.727783C61.0284 0.727783 69.8199 9.51925 69.8199 20.3641V124H50.1836V0.727783Z" fill="#B0B0B0"/>
    <path d="M74.1836 43.8542C85.0284 43.8542 93.8199 52.6457 93.8199 63.4905V123.49H74.1836V43.8542Z" fill="#9B9B9B"/>
    <path d="M99.2734 73.3087C110.118 73.3087 118.91 82.1001 118.91 92.9449V123.49H99.2734V73.3087Z" fill="#D9D9D9"/>
    <path d="M124.363 29.6725C135.208 29.6725 144 38.4639 144 49.3087V123.49H124.363V29.6725Z" fill="#B0B0B0"/>
</svg>

