<svg width="303" height="216" viewBox="0 0 303 216" fill="none" xmlns="http://www.w3.org/2000/svg">
    <g filter="url(#filter0_d_1261_7059)">
        <g clip-path="url(#clip0_1261_7059)">
            <rect x="20" y="16" width="263" height="176" rx="10.214" fill="#FCFCFC"/>
            <path d="M32.2939 40.068H28.9639V38.268H32.2939V34.938H34.3639V38.268H37.6939V40.068H34.3639V43.398H32.2939V40.068ZM45.7622 42.534H40.4882C40.0442 42.534 39.7022 42.444 39.4622 42.264C39.2222 42.072 39.1022 41.796 39.1022 41.436V40.986L45.7622 32.4H47.8502V40.662H49.4342V42.534H47.8502V45H45.7622V42.534ZM45.8162 40.734V35.136H45.7982L41.4782 40.734H45.8162ZM51.9862 45.18C51.5902 45.18 51.2722 45.06 51.0322 44.82C50.7922 44.58 50.6722 44.262 50.6722 43.866C50.6722 43.482 50.7922 43.17 51.0322 42.93C51.2722 42.69 51.5902 42.57 51.9862 42.57C52.3702 42.57 52.6822 42.69 52.9222 42.93C53.1622 43.17 53.2822 43.482 53.2822 43.866C53.2822 44.262 53.1622 44.58 52.9222 44.82C52.6822 45.06 52.3702 45.18 51.9862 45.18ZM58.7547 45.144C57.9987 45.144 57.3327 45 56.7567 44.712C56.1927 44.412 55.7547 44.004 55.4427 43.488C55.1307 42.96 54.9747 42.348 54.9747 41.652H57.0447C57.0447 42.144 57.2007 42.54 57.5127 42.84C57.8247 43.14 58.2387 43.29 58.7547 43.29H60.3027C60.8787 43.29 61.3407 43.104 61.6887 42.732C62.0367 42.348 62.2107 41.838 62.2107 41.202V39.51C61.8987 39.834 61.5207 40.092 61.0767 40.284C60.6327 40.464 60.1827 40.554 59.7267 40.554H58.5207C57.7407 40.554 57.0567 40.398 56.4687 40.086C55.8807 39.774 55.4247 39.336 55.1007 38.772C54.7767 38.196 54.6147 37.536 54.6147 36.792V36.072C54.6147 35.316 54.7947 34.65 55.1547 34.074C55.5147 33.498 56.0187 33.054 56.6667 32.742C57.3147 32.418 58.0647 32.256 58.9167 32.256H60.1767C60.9927 32.256 61.7127 32.418 62.3367 32.742C62.9727 33.054 63.4587 33.504 63.7947 34.092C64.1427 34.668 64.3167 35.334 64.3167 36.09V41.202C64.3167 41.994 64.1487 42.69 63.8127 43.29C63.4887 43.878 63.0207 44.334 62.4087 44.658C61.8087 44.982 61.1067 45.144 60.3027 45.144H58.7547ZM59.7627 38.772C60.3507 38.772 60.8667 38.604 61.3107 38.268C61.7667 37.92 62.0667 37.476 62.2107 36.936V35.946C62.2107 35.382 62.0247 34.926 61.6527 34.578C61.2807 34.218 60.7887 34.038 60.1767 34.038H58.9167C58.2567 34.038 57.7227 34.224 57.3147 34.596C56.9187 34.968 56.7207 35.46 56.7207 36.072V36.792C56.7207 37.392 56.8827 37.872 57.2067 38.232C57.5307 38.592 57.9627 38.772 58.5027 38.772H59.7627ZM67.7824 44.298C67.7824 43.722 67.8424 43.134 67.9624 42.534C68.0944 41.922 68.2804 41.376 68.5204 40.896L71.7784 34.254H65.3164V32.4H74.2264V33.624L70.6084 41.166C70.3684 41.658 70.1884 42.186 70.0684 42.75C69.9484 43.302 69.8884 43.818 69.8884 44.298V45H67.7824V44.298ZM79.6285 45.144C78.8005 45.144 78.0685 44.97 77.4325 44.622C76.7965 44.262 76.2985 43.764 75.9385 43.128C75.5905 42.48 75.4165 41.736 75.4165 40.896V36.45C75.4165 35.61 75.5905 34.872 75.9385 34.236C76.2865 33.6 76.7725 33.114 77.3965 32.778C78.0205 32.43 78.7465 32.256 79.5745 32.256H81.1225C81.8425 32.256 82.4785 32.406 83.0305 32.706C83.5945 33.006 84.0265 33.426 84.3265 33.966C84.6385 34.506 84.7945 35.13 84.7945 35.838H82.7245C82.7245 35.322 82.5745 34.908 82.2745 34.596C81.9865 34.272 81.6025 34.11 81.1225 34.11H79.5745C78.9625 34.11 78.4645 34.32 78.0805 34.74C77.7085 35.16 77.5225 35.73 77.5225 36.45V38.124C77.8225 37.764 78.2065 37.476 78.6745 37.26C79.1545 37.032 79.6285 36.918 80.0965 36.918H81.2845C82.0525 36.918 82.7305 37.068 83.3185 37.368C83.9065 37.668 84.3565 38.094 84.6685 38.646C84.9925 39.186 85.1545 39.816 85.1545 40.536V41.256C85.1545 42.024 84.9745 42.702 84.6145 43.29C84.2665 43.878 83.7745 44.334 83.1385 44.658C82.5025 44.982 81.7705 45.144 80.9425 45.144H79.6285ZM80.9425 43.362C81.5785 43.362 82.0885 43.17 82.4725 42.786C82.8565 42.402 83.0485 41.892 83.0485 41.256V40.518C83.0485 39.966 82.8805 39.528 82.5445 39.204C82.2205 38.868 81.7885 38.7 81.2485 38.7H80.0605C79.4485 38.7 78.9145 38.898 78.4585 39.294C78.0025 39.678 77.7085 40.17 77.5765 40.77V41.382C77.5765 41.97 77.7685 42.45 78.1525 42.822C78.5365 43.182 79.0405 43.362 79.6645 43.362H80.9425ZM90.6265 45.144C89.4505 45.144 88.5265 44.808 87.8545 44.136C87.1825 43.452 86.8465 42.522 86.8465 41.346H88.9165C88.9165 41.946 89.0665 42.42 89.3665 42.768C89.6785 43.116 90.0985 43.29 90.6265 43.29H92.3545C92.9305 43.29 93.3925 43.128 93.7405 42.804C94.1005 42.468 94.2805 42.024 94.2805 41.472V40.446C94.2805 39.954 94.1005 39.558 93.7405 39.258C93.3805 38.958 92.9005 38.808 92.3005 38.808H87.2785V32.4H95.9185V34.254H89.3845V36.936H92.3005C93.1045 36.936 93.8125 37.086 94.4245 37.386C95.0485 37.674 95.5285 38.082 95.8645 38.61C96.2125 39.138 96.3865 39.75 96.3865 40.446V41.472C96.3865 42.192 96.2185 42.834 95.8825 43.398C95.5465 43.95 95.0725 44.382 94.4605 44.694C93.8485 44.994 93.1465 45.144 92.3545 45.144H90.6265ZM109.134 32.004H111.276L104.274 45.45H102.132L109.134 32.004ZM101.124 40.32C100.284 40.32 99.6003 40.056 99.0723 39.528C98.5563 39 98.2983 38.31 98.2983 37.458V35.118C98.2983 34.266 98.5563 33.576 99.0723 33.048C99.6003 32.52 100.284 32.256 101.124 32.256H102.132C102.984 32.256 103.668 32.52 104.184 33.048C104.712 33.576 104.976 34.266 104.976 35.118V37.458C104.976 38.31 104.712 39 104.184 39.528C103.668 40.056 102.984 40.32 102.132 40.32H101.124ZM102.096 38.664C102.396 38.664 102.636 38.55 102.816 38.322C102.996 38.082 103.086 37.764 103.086 37.368V35.208C103.086 34.812 102.996 34.5 102.816 34.272C102.636 34.032 102.396 33.912 102.096 33.912H101.16C100.86 33.912 100.62 34.032 100.44 34.272C100.26 34.512 100.17 34.824 100.17 35.208V37.368C100.17 37.752 100.26 38.064 100.44 38.304C100.62 38.544 100.86 38.664 101.16 38.664H102.096ZM111.24 45.144C110.4 45.144 109.716 44.88 109.188 44.352C108.672 43.824 108.414 43.134 108.414 42.282V39.942C108.414 39.09 108.672 38.4 109.188 37.872C109.716 37.344 110.4 37.08 111.24 37.08H112.248C113.1 37.08 113.784 37.344 114.3 37.872C114.828 38.4 115.092 39.09 115.092 39.942V42.282C115.092 43.134 114.828 43.824 114.3 44.352C113.784 44.88 113.1 45.144 112.248 45.144H111.24ZM112.212 43.488C112.512 43.488 112.752 43.374 112.932 43.146C113.112 42.906 113.202 42.588 113.202 42.192V40.032C113.202 39.636 113.112 39.324 112.932 39.096C112.752 38.856 112.512 38.736 112.212 38.736H111.276C110.976 38.736 110.736 38.856 110.556 39.096C110.376 39.336 110.286 39.648 110.286 40.032V42.192C110.286 42.576 110.376 42.888 110.556 43.128C110.736 43.368 110.976 43.488 111.276 43.488H112.212Z" fill="#202020"/>
            <path d="M130.294 40.068H126.964V38.268H130.294V34.938H132.364V38.268H135.694V40.068H132.364V43.398H130.294V40.068ZM140.18 34.686L137.282 36.144V34.182L140.63 32.4H142.286V45H140.18V34.686ZM152.618 38.502C153.122 38.778 153.518 39.132 153.806 39.564C154.094 39.996 154.238 40.464 154.238 40.968V41.688C154.238 42.372 154.07 42.978 153.734 43.506C153.41 44.022 152.942 44.424 152.33 44.712C151.73 45 151.04 45.144 150.26 45.144H148.514C147.302 45.144 146.342 44.79 145.634 44.082C144.938 43.362 144.59 42.384 144.59 41.148H146.66C146.66 41.808 146.822 42.33 147.146 42.714C147.482 43.098 147.938 43.29 148.514 43.29H150.26C150.812 43.29 151.262 43.146 151.61 42.858C151.958 42.558 152.132 42.168 152.132 41.688V40.968C152.132 40.5 151.958 40.134 151.61 39.87C151.262 39.606 150.794 39.474 150.206 39.474H148.028V37.638H150.206C150.722 37.638 151.13 37.512 151.43 37.26C151.742 36.996 151.898 36.636 151.898 36.18V35.46C151.898 35.052 151.748 34.728 151.448 34.488C151.16 34.236 150.776 34.11 150.296 34.11H148.55C148.01 34.11 147.578 34.302 147.254 34.686C146.942 35.07 146.786 35.592 146.786 36.252H144.68C144.68 35.016 145.022 34.044 145.706 33.336C146.402 32.616 147.35 32.256 148.55 32.256H150.296C151.028 32.256 151.67 32.388 152.222 32.652C152.786 32.916 153.224 33.294 153.536 33.786C153.848 34.266 154.004 34.824 154.004 35.46V36.18C154.004 36.648 153.878 37.086 153.626 37.494C153.386 37.902 153.05 38.238 152.618 38.502ZM157.114 45.18C156.718 45.18 156.4 45.06 156.16 44.82C155.92 44.58 155.8 44.262 155.8 43.866C155.8 43.482 155.92 43.17 156.16 42.93C156.4 42.69 156.718 42.57 157.114 42.57C157.498 42.57 157.81 42.69 158.05 42.93C158.29 43.17 158.41 43.482 158.41 43.866C158.41 44.262 158.29 44.58 158.05 44.82C157.81 45.06 157.498 45.18 157.114 45.18ZM161.529 44.298C161.529 43.722 161.589 43.134 161.709 42.534C161.841 41.922 162.027 41.376 162.267 40.896L165.525 34.254H159.063V32.4H167.973V33.624L164.355 41.166C164.115 41.658 163.935 42.186 163.815 42.75C163.695 43.302 163.635 43.818 163.635 44.298V45H161.529V44.298ZM180.1 32.004H182.242L175.24 45.45H173.098L180.1 32.004ZM172.09 40.32C171.25 40.32 170.566 40.056 170.038 39.528C169.522 39 169.264 38.31 169.264 37.458V35.118C169.264 34.266 169.522 33.576 170.038 33.048C170.566 32.52 171.25 32.256 172.09 32.256H173.098C173.95 32.256 174.634 32.52 175.15 33.048C175.678 33.576 175.942 34.266 175.942 35.118V37.458C175.942 38.31 175.678 39 175.15 39.528C174.634 40.056 173.95 40.32 173.098 40.32H172.09ZM173.062 38.664C173.362 38.664 173.602 38.55 173.782 38.322C173.962 38.082 174.052 37.764 174.052 37.368V35.208C174.052 34.812 173.962 34.5 173.782 34.272C173.602 34.032 173.362 33.912 173.062 33.912H172.126C171.826 33.912 171.586 34.032 171.406 34.272C171.226 34.512 171.136 34.824 171.136 35.208V37.368C171.136 37.752 171.226 38.064 171.406 38.304C171.586 38.544 171.826 38.664 172.126 38.664H173.062ZM182.206 45.144C181.366 45.144 180.682 44.88 180.154 44.352C179.638 43.824 179.38 43.134 179.38 42.282V39.942C179.38 39.09 179.638 38.4 180.154 37.872C180.682 37.344 181.366 37.08 182.206 37.08H183.214C184.066 37.08 184.75 37.344 185.266 37.872C185.794 38.4 186.058 39.09 186.058 39.942V42.282C186.058 43.134 185.794 43.824 185.266 44.352C184.75 44.88 184.066 45.144 183.214 45.144H182.206ZM183.178 43.488C183.478 43.488 183.718 43.374 183.898 43.146C184.078 42.906 184.168 42.588 184.168 42.192V40.032C184.168 39.636 184.078 39.324 183.898 39.096C183.718 38.856 183.478 38.736 183.178 38.736H182.242C181.942 38.736 181.702 38.856 181.522 39.096C181.342 39.336 181.252 39.648 181.252 40.032V42.192C181.252 42.576 181.342 42.888 181.522 43.128C181.702 43.368 181.942 43.488 182.242 43.488H183.178ZM195.378 45C194.922 45 194.55 44.862 194.262 44.586C193.974 44.298 193.83 43.932 193.83 43.488V32.4H199.788C200.904 32.4 201.798 32.67 202.47 33.21C203.154 33.738 203.496 34.44 203.496 35.316V36.234C203.496 36.654 203.394 37.05 203.19 37.422C202.986 37.794 202.704 38.094 202.344 38.322V38.34C202.932 38.532 203.4 38.856 203.748 39.312C204.108 39.768 204.288 40.284 204.288 40.86V41.76C204.288 42.756 203.946 43.548 203.262 44.136C202.578 44.712 201.654 45 200.49 45H195.378ZM199.896 37.782C200.34 37.782 200.7 37.638 200.976 37.35C201.252 37.062 201.39 36.69 201.39 36.234V35.496C201.39 35.112 201.234 34.806 200.922 34.578C200.622 34.35 200.22 34.236 199.716 34.236H195.936V37.782H199.896ZM200.31 43.164C200.898 43.164 201.354 43.032 201.678 42.768C202.014 42.504 202.182 42.138 202.182 41.67V40.86C202.182 40.452 202.038 40.128 201.75 39.888C201.462 39.636 201.078 39.51 200.598 39.51H195.936V43.164H200.31ZM207.99 45C207.534 45 207.162 44.862 206.874 44.586C206.586 44.298 206.442 43.932 206.442 43.488V32.4H212.4C213.516 32.4 214.41 32.67 215.082 33.21C215.766 33.738 216.108 34.44 216.108 35.316V36.234C216.108 36.654 216.006 37.05 215.802 37.422C215.598 37.794 215.316 38.094 214.956 38.322V38.34C215.544 38.532 216.012 38.856 216.36 39.312C216.72 39.768 216.9 40.284 216.9 40.86V41.76C216.9 42.756 216.558 43.548 215.874 44.136C215.19 44.712 214.266 45 213.102 45H207.99ZM212.508 37.782C212.952 37.782 213.312 37.638 213.588 37.35C213.864 37.062 214.002 36.69 214.002 36.234V35.496C214.002 35.112 213.846 34.806 213.534 34.578C213.234 34.35 212.832 34.236 212.328 34.236H208.548V37.782H212.508ZM212.922 43.164C213.51 43.164 213.966 43.032 214.29 42.768C214.626 42.504 214.794 42.138 214.794 41.67V40.86C214.794 40.452 214.65 40.128 214.362 39.888C214.074 39.636 213.69 39.51 213.21 39.51H208.548V43.164H212.922Z" fill="#D92727"/>
            <path d="M41.3399 74.8016C40.6319 74.8016 40.0859 74.6366 39.7019 74.3066C39.3179 73.9706 39.1109 73.5386 39.0809 73.0106L39.8819 72.9566C39.9179 73.3466 40.0679 73.6256 40.3319 73.7936C40.6019 73.9616 40.9379 74.0456 41.3399 74.0456C41.6159 74.0456 41.8709 74.0096 42.1049 73.9376C42.3389 73.8596 42.5279 73.7366 42.6719 73.5686C42.8159 73.3946 42.8879 73.1636 42.8879 72.8756C42.8879 72.4496 42.7469 72.1376 42.4649 71.9396C42.1829 71.7416 41.8109 71.6426 41.3489 71.6426H40.8449V70.8866H41.3489C41.7269 70.8866 42.0389 70.8116 42.2849 70.6616C42.5369 70.5116 42.6629 70.2536 42.6629 69.8876C42.6629 69.2156 42.2369 68.8796 41.3849 68.8796C40.9649 68.8796 40.6469 68.9606 40.4309 69.1226C40.2209 69.2846 40.0949 69.5066 40.0529 69.7886L39.2429 69.7346C39.3029 69.2546 39.5159 68.8676 39.8819 68.5736C40.2479 68.2736 40.7489 68.1236 41.3849 68.1236C42.0329 68.1236 42.5429 68.2796 42.9149 68.5916C43.2869 68.8976 43.4729 69.3176 43.4729 69.8516C43.4729 70.5356 43.1039 70.9916 42.3659 71.2196C42.7799 71.3336 43.1039 71.5376 43.3379 71.8316C43.5779 72.1196 43.6979 72.4676 43.6979 72.8756C43.6979 73.2836 43.5959 73.6316 43.3919 73.9196C43.1939 74.2076 42.9179 74.4266 42.5639 74.5766C42.2099 74.7266 41.8019 74.8016 41.3399 74.8016ZM46.9584 74.8016C46.2864 74.8016 45.7524 74.6366 45.3564 74.3066C44.9604 73.9706 44.7384 73.5386 44.6904 73.0106L45.5004 72.9566C45.5484 73.3166 45.7014 73.5896 45.9594 73.7756C46.2234 73.9556 46.5564 74.0456 46.9584 74.0456C47.4084 74.0456 47.7654 73.9196 48.0294 73.6676C48.2934 73.4096 48.4254 73.0556 48.4254 72.6056C48.4254 72.1556 48.2934 71.7986 48.0294 71.5346C47.7714 71.2706 47.4084 71.1386 46.9404 71.1386C46.6464 71.1386 46.3794 71.2016 46.1394 71.3276C45.8994 71.4536 45.7284 71.6306 45.6264 71.8586H44.7984L45.2214 68.2676H48.8034V69.0236H45.9324L45.6984 70.9496C45.8604 70.7696 46.0614 70.6346 46.3014 70.5446C46.5474 70.4486 46.8084 70.4006 47.0844 70.4006C47.5104 70.4006 47.8854 70.4966 48.2094 70.6886C48.5334 70.8746 48.7854 71.1356 48.9654 71.4716C49.1454 71.8016 49.2354 72.1796 49.2354 72.6056C49.2354 73.0316 49.1394 73.4126 48.9474 73.7486C48.7554 74.0786 48.4884 74.3366 48.1464 74.5226C47.8044 74.7086 47.4084 74.8016 46.9584 74.8016ZM51.5662 71.3636C51.1642 71.3636 50.8312 71.2286 50.5672 70.9586C50.3092 70.6826 50.1802 70.2896 50.1802 69.7796C50.1802 69.2636 50.3092 68.8706 50.5672 68.6006C50.8312 68.3306 51.1642 68.1956 51.5662 68.1956C51.9742 68.1956 52.3072 68.3306 52.5652 68.6006C52.8232 68.8706 52.9522 69.2636 52.9522 69.7796C52.9522 70.2896 52.8232 70.6826 52.5652 70.9586C52.3072 71.2286 51.9742 71.3636 51.5662 71.3636ZM50.8282 74.6576L55.2382 68.2676H55.9582L51.5482 74.6576H50.8282ZM51.5662 70.8056C51.8122 70.8056 51.9952 70.7156 52.1152 70.5356C52.2412 70.3556 52.3042 70.1036 52.3042 69.7796C52.3042 69.4556 52.2412 69.2036 52.1152 69.0236C51.9952 68.8436 51.8122 68.7536 51.5662 68.7536C51.3262 68.7536 51.1432 68.8436 51.0172 69.0236C50.8912 69.2036 50.8282 69.4556 50.8282 69.7796C50.8282 70.1036 50.8912 70.3556 51.0172 70.5356C51.1432 70.7156 51.3262 70.8056 51.5662 70.8056ZM55.2202 74.7296C54.8182 74.7296 54.4852 74.5946 54.2212 74.3246C53.9632 74.0486 53.8342 73.6556 53.8342 73.1456C53.8342 72.6296 53.9632 72.2366 54.2212 71.9666C54.4852 71.6966 54.8182 71.5616 55.2202 71.5616C55.6282 71.5616 55.9612 71.6966 56.2192 71.9666C56.4772 72.2366 56.6062 72.6296 56.6062 73.1456C56.6062 73.6556 56.4772 74.0486 56.2192 74.3246C55.9612 74.5946 55.6282 74.7296 55.2202 74.7296ZM55.2202 74.1716C55.4662 74.1716 55.6492 74.0816 55.7692 73.9016C55.8952 73.7216 55.9582 73.4696 55.9582 73.1456C55.9582 72.8216 55.8952 72.5696 55.7692 72.3896C55.6492 72.2096 55.4662 72.1196 55.2202 72.1196C54.9802 72.1196 54.7972 72.2096 54.6712 72.3896C54.5452 72.5696 54.4822 72.8216 54.4822 73.1456C54.4822 73.4696 54.5452 73.7216 54.6712 73.9016C54.7972 74.0816 54.9802 74.1716 55.2202 74.1716Z" fill="#646464"/>
            <path d="M43.2145 122.529V117.795H41.8825V117.129H42.4225C42.7765 117.129 43.0225 117.06 43.1605 116.922C43.3045 116.778 43.3765 116.517 43.3765 116.139H43.9885V122.529H43.2145ZM46.5786 122.529C46.5786 121.869 46.6686 121.212 46.8486 120.558C47.0286 119.898 47.2866 119.259 47.6226 118.641C47.9646 118.023 48.3726 117.441 48.8466 116.895H45.1566V116.139H49.6926V116.841C49.1586 117.453 48.7176 118.059 48.3696 118.659C48.0276 119.253 47.7756 119.868 47.6136 120.504C47.4516 121.134 47.3706 121.809 47.3706 122.529H46.5786ZM51.5662 119.235C51.1642 119.235 50.8312 119.1 50.5672 118.83C50.3092 118.554 50.1802 118.161 50.1802 117.651C50.1802 117.135 50.3092 116.742 50.5672 116.472C50.8312 116.202 51.1642 116.067 51.5662 116.067C51.9742 116.067 52.3072 116.202 52.5652 116.472C52.8232 116.742 52.9522 117.135 52.9522 117.651C52.9522 118.161 52.8232 118.554 52.5652 118.83C52.3072 119.1 51.9742 119.235 51.5662 119.235ZM50.8282 122.529L55.2382 116.139H55.9582L51.5482 122.529H50.8282ZM51.5662 118.677C51.8122 118.677 51.9952 118.587 52.1152 118.407C52.2412 118.227 52.3042 117.975 52.3042 117.651C52.3042 117.327 52.2412 117.075 52.1152 116.895C51.9952 116.715 51.8122 116.625 51.5662 116.625C51.3262 116.625 51.1432 116.715 51.0172 116.895C50.8912 117.075 50.8282 117.327 50.8282 117.651C50.8282 117.975 50.8912 118.227 51.0172 118.407C51.1432 118.587 51.3262 118.677 51.5662 118.677ZM55.2202 122.601C54.8182 122.601 54.4852 122.466 54.2212 122.196C53.9632 121.92 53.8342 121.527 53.8342 121.017C53.8342 120.501 53.9632 120.108 54.2212 119.838C54.4852 119.568 54.8182 119.433 55.2202 119.433C55.6282 119.433 55.9612 119.568 56.2192 119.838C56.4772 120.108 56.6062 120.501 56.6062 121.017C56.6062 121.527 56.4772 121.92 56.2192 122.196C55.9612 122.466 55.6282 122.601 55.2202 122.601ZM55.2202 122.043C55.4662 122.043 55.6492 121.953 55.7692 121.773C55.8952 121.593 55.9582 121.341 55.9582 121.017C55.9582 120.693 55.8952 120.441 55.7692 120.261C55.6492 120.081 55.4662 119.991 55.2202 119.991C54.9802 119.991 54.7972 120.081 54.6712 120.261C54.5452 120.441 54.4822 120.693 54.4822 121.017C54.4822 121.341 54.5452 121.593 54.6712 121.773C54.7972 121.953 54.9802 122.043 55.2202 122.043Z" fill="#646464"/>
            <path d="M46.7954 170.545C46.2794 170.545 45.8324 170.41 45.4544 170.14C45.0764 169.87 44.7824 169.486 44.5724 168.988C44.3684 168.49 44.2664 167.899 44.2664 167.215C44.2664 166.531 44.3684 165.94 44.5724 165.442C44.7824 164.938 45.0764 164.551 45.4544 164.281C45.8324 164.005 46.2794 163.867 46.7954 163.867C47.3174 163.867 47.7674 164.005 48.1454 164.281C48.5234 164.551 48.8144 164.935 49.0184 165.433C49.2284 165.931 49.3334 166.525 49.3334 167.215C49.3334 167.899 49.2284 168.49 49.0184 168.988C48.8144 169.486 48.5234 169.87 48.1454 170.14C47.7674 170.41 47.3174 170.545 46.7954 170.545ZM46.7954 169.789C47.3474 169.789 47.7734 169.567 48.0734 169.123C48.3734 168.673 48.5234 168.037 48.5234 167.215C48.5234 166.387 48.3734 165.748 48.0734 165.298C47.7734 164.848 47.3474 164.623 46.7954 164.623C46.2494 164.623 45.8264 164.848 45.5264 165.298C45.2264 165.748 45.0764 166.387 45.0764 167.215C45.0764 168.037 45.2264 168.673 45.5264 169.123C45.8264 169.567 46.2494 169.789 46.7954 169.789ZM51.5662 167.107C51.1642 167.107 50.8312 166.972 50.5672 166.702C50.3092 166.426 50.1802 166.033 50.1802 165.523C50.1802 165.007 50.3092 164.614 50.5672 164.344C50.8312 164.074 51.1642 163.939 51.5662 163.939C51.9742 163.939 52.3072 164.074 52.5652 164.344C52.8232 164.614 52.9522 165.007 52.9522 165.523C52.9522 166.033 52.8232 166.426 52.5652 166.702C52.3072 166.972 51.9742 167.107 51.5662 167.107ZM50.8282 170.401L55.2382 164.011H55.9582L51.5482 170.401H50.8282ZM51.5662 166.549C51.8122 166.549 51.9952 166.459 52.1152 166.279C52.2412 166.099 52.3042 165.847 52.3042 165.523C52.3042 165.199 52.2412 164.947 52.1152 164.767C51.9952 164.587 51.8122 164.497 51.5662 164.497C51.3262 164.497 51.1432 164.587 51.0172 164.767C50.8912 164.947 50.8282 165.199 50.8282 165.523C50.8282 165.847 50.8912 166.099 51.0172 166.279C51.1432 166.459 51.3262 166.549 51.5662 166.549ZM55.2202 170.473C54.8182 170.473 54.4852 170.338 54.2212 170.068C53.9632 169.792 53.8342 169.399 53.8342 168.889C53.8342 168.373 53.9632 167.98 54.2212 167.71C54.4852 167.44 54.8182 167.305 55.2202 167.305C55.6282 167.305 55.9612 167.44 56.2192 167.71C56.4772 167.98 56.6062 168.373 56.6062 168.889C56.6062 169.399 56.4772 169.792 56.2192 170.068C55.9612 170.338 55.6282 170.473 55.2202 170.473ZM55.2202 169.915C55.4662 169.915 55.6492 169.825 55.7692 169.645C55.8952 169.465 55.9582 169.213 55.9582 168.889C55.9582 168.565 55.8952 168.313 55.7692 168.133C55.6492 167.953 55.4662 167.863 55.2202 167.863C54.9802 167.863 54.7972 167.953 54.6712 168.133C54.5452 168.313 54.4822 168.565 54.4822 168.889C54.4822 169.213 54.5452 169.465 54.6712 169.645C54.7972 169.825 54.9802 169.915 55.2202 169.915Z" fill="#646464"/>
            <g clip-path="url(#clip1_1261_7059)">
                <line x1="63" y1="72.9292" x2="259.55" y2="72.9292" stroke="black" stroke-opacity="0.1" stroke-width="0.6"/>
                <line x1="63" y1="96.3292" x2="259.55" y2="96.3292" stroke="black" stroke-opacity="0.1" stroke-width="0.6"/>
                <line x1="63" y1="119.729" x2="259.55" y2="119.729" stroke="black" stroke-opacity="0.1" stroke-width="0.6"/>
                <line x1="63" y1="143.129" x2="259.55" y2="143.129" stroke="black" stroke-opacity="0.1" stroke-width="0.6"/>
                <line x1="63" y1="166.529" x2="259.55" y2="166.529" stroke="black" stroke-opacity="0.1" stroke-width="0.6"/>
                <path d="M72.9362 182.63C72.4202 182.63 71.9732 182.495 71.5952 182.225C71.2172 181.955 70.9232 181.571 70.7132 181.073C70.5092 180.575 70.4072 179.984 70.4072 179.3C70.4072 178.616 70.5092 178.025 70.7132 177.527C70.9232 177.023 71.2172 176.636 71.5952 176.366C71.9732 176.09 72.4202 175.952 72.9362 175.952C73.4582 175.952 73.9082 176.09 74.2862 176.366C74.6642 176.636 74.9552 177.02 75.1592 177.518C75.3692 178.016 75.4742 178.61 75.4742 179.3C75.4742 179.984 75.3692 180.575 75.1592 181.073C74.9552 181.571 74.6642 181.955 74.2862 182.225C73.9082 182.495 73.4582 182.63 72.9362 182.63ZM72.9362 181.874C73.4882 181.874 73.9142 181.652 74.2142 181.208C74.5142 180.758 74.6642 180.122 74.6642 179.3C74.6642 178.472 74.5142 177.833 74.2142 177.383C73.9142 176.933 73.4882 176.708 72.9362 176.708C72.3902 176.708 71.9672 176.933 71.6672 177.383C71.3672 177.833 71.2172 178.472 71.2172 179.3C71.2172 180.122 71.3672 180.758 71.6672 181.208C71.9672 181.652 72.3902 181.874 72.9362 181.874ZM79.444 182.486V181.1H76.195V180.398L79.39 176.096H80.218V180.344H81.01V181.1H80.218V182.486H79.444ZM77.131 180.344H79.444V177.284L77.131 180.344ZM81.7702 180.218V179.507H84.7492V180.218H81.7702ZM85.6847 182.486C85.6847 182.036 85.7537 181.631 85.8917 181.271C86.0357 180.905 86.2847 180.557 86.6387 180.227C86.9987 179.897 87.4967 179.564 88.1327 179.228C88.4267 179.072 88.6637 178.928 88.8437 178.796C89.0237 178.664 89.1557 178.523 89.2397 178.373C89.3237 178.223 89.3657 178.04 89.3657 177.824C89.3657 177.494 89.2577 177.227 89.0417 177.023C88.8317 176.813 88.5137 176.708 88.0877 176.708C87.6377 176.708 87.2807 176.825 87.0167 177.059C86.7587 177.293 86.5967 177.626 86.5307 178.058L85.7207 178.004C85.7927 177.38 86.0327 176.882 86.4407 176.51C86.8487 176.138 87.3977 175.952 88.0877 175.952C88.7477 175.952 89.2607 176.123 89.6267 176.465C89.9927 176.807 90.1757 177.254 90.1757 177.806C90.1757 178.13 90.1217 178.412 90.0137 178.652C89.9057 178.886 89.7227 179.105 89.4647 179.309C89.2127 179.513 88.8647 179.732 88.4207 179.966C87.8447 180.272 87.4067 180.581 87.1067 180.893C86.8127 181.205 86.6567 181.484 86.6387 181.73H90.1757V182.486H85.6847Z" fill="#646464"/>
                <path d="M106.41 182.63C105.894 182.63 105.447 182.495 105.069 182.225C104.691 181.955 104.397 181.571 104.187 181.073C103.983 180.575 103.881 179.984 103.881 179.3C103.881 178.616 103.983 178.025 104.187 177.527C104.397 177.023 104.691 176.636 105.069 176.366C105.447 176.09 105.894 175.952 106.41 175.952C106.932 175.952 107.382 176.09 107.76 176.366C108.138 176.636 108.429 177.02 108.633 177.518C108.843 178.016 108.948 178.61 108.948 179.3C108.948 179.984 108.843 180.575 108.633 181.073C108.429 181.571 108.138 181.955 107.76 182.225C107.382 182.495 106.932 182.63 106.41 182.63ZM106.41 181.874C106.962 181.874 107.388 181.652 107.688 181.208C107.988 180.758 108.138 180.122 108.138 179.3C108.138 178.472 107.988 177.833 107.688 177.383C107.388 176.933 106.962 176.708 106.41 176.708C105.864 176.708 105.441 176.933 105.141 177.383C104.841 177.833 104.691 178.472 104.691 179.3C104.691 180.122 104.841 180.758 105.141 181.208C105.441 181.652 105.864 181.874 106.41 181.874ZM112.918 182.486V181.1H109.669V180.398L112.864 176.096H113.692V180.344H114.484V181.1H113.692V182.486H112.918ZM110.605 180.344H112.918V177.284L110.605 180.344ZM115.244 180.218V179.507H118.223V180.218H115.244ZM122.225 182.486V181.1H118.976V180.398L122.171 176.096H122.999V180.344H123.791V181.1H122.999V182.486H122.225ZM119.912 180.344H122.225V177.284L119.912 180.344Z" fill="#646464"/>
                <path d="M139.914 182.63C139.398 182.63 138.951 182.495 138.573 182.225C138.195 181.955 137.901 181.571 137.691 181.073C137.487 180.575 137.385 179.984 137.385 179.3C137.385 178.616 137.487 178.025 137.691 177.527C137.901 177.023 138.195 176.636 138.573 176.366C138.951 176.09 139.398 175.952 139.914 175.952C140.436 175.952 140.886 176.09 141.264 176.366C141.642 176.636 141.933 177.02 142.137 177.518C142.347 178.016 142.452 178.61 142.452 179.3C142.452 179.984 142.347 180.575 142.137 181.073C141.933 181.571 141.642 181.955 141.264 182.225C140.886 182.495 140.436 182.63 139.914 182.63ZM139.914 181.874C140.466 181.874 140.892 181.652 141.192 181.208C141.492 180.758 141.642 180.122 141.642 179.3C141.642 178.472 141.492 177.833 141.192 177.383C140.892 176.933 140.466 176.708 139.914 176.708C139.368 176.708 138.945 176.933 138.645 177.383C138.345 177.833 138.195 178.472 138.195 179.3C138.195 180.122 138.345 180.758 138.645 181.208C138.945 181.652 139.368 181.874 139.914 181.874ZM146.422 182.486V181.1H143.173V180.398L146.368 176.096H147.196V180.344H147.988V181.1H147.196V182.486H146.422ZM144.109 180.344H146.422V177.284L144.109 180.344ZM148.748 180.218V179.507H151.727V180.218H148.748ZM154.931 182.63C154.211 182.63 153.653 182.384 153.257 181.892C152.861 181.4 152.663 180.698 152.663 179.786C152.663 179.258 152.705 178.763 152.789 178.301C152.879 177.839 153.02 177.434 153.212 177.086C153.41 176.732 153.668 176.456 153.986 176.258C154.31 176.054 154.709 175.952 155.183 175.952C155.753 175.952 156.194 176.093 156.506 176.375C156.818 176.651 157.037 177.014 157.163 177.464L156.353 177.536C156.281 177.284 156.155 177.083 155.975 176.933C155.801 176.783 155.537 176.708 155.183 176.708C154.697 176.708 154.304 176.9 154.004 177.284C153.71 177.662 153.533 178.235 153.473 179.003C153.629 178.769 153.842 178.574 154.112 178.418C154.388 178.262 154.709 178.184 155.075 178.184C155.495 178.184 155.864 178.274 156.182 178.454C156.5 178.634 156.746 178.889 156.92 179.219C157.1 179.543 157.19 179.924 157.19 180.362C157.19 180.83 157.094 181.235 156.902 181.577C156.71 181.913 156.443 182.174 156.101 182.36C155.765 182.54 155.375 182.63 154.931 182.63ZM154.949 181.874C155.369 181.874 155.711 181.742 155.975 181.478C156.245 181.208 156.38 180.836 156.38 180.362C156.38 179.918 156.254 179.567 156.002 179.309C155.75 179.051 155.423 178.922 155.021 178.922C154.733 178.922 154.475 178.982 154.247 179.102C154.019 179.216 153.839 179.381 153.707 179.597C153.575 179.813 153.509 180.068 153.509 180.362C153.509 180.8 153.638 181.163 153.896 181.451C154.16 181.733 154.511 181.874 154.949 181.874Z" fill="#646464"/>
                <path d="M173.506 182.63C172.99 182.63 172.543 182.495 172.165 182.225C171.787 181.955 171.493 181.571 171.283 181.073C171.079 180.575 170.977 179.984 170.977 179.3C170.977 178.616 171.079 178.025 171.283 177.527C171.493 177.023 171.787 176.636 172.165 176.366C172.543 176.09 172.99 175.952 173.506 175.952C174.028 175.952 174.478 176.09 174.856 176.366C175.234 176.636 175.525 177.02 175.729 177.518C175.939 178.016 176.044 178.61 176.044 179.3C176.044 179.984 175.939 180.575 175.729 181.073C175.525 181.571 175.234 181.955 174.856 182.225C174.478 182.495 174.028 182.63 173.506 182.63ZM173.506 181.874C174.058 181.874 174.484 181.652 174.784 181.208C175.084 180.758 175.234 180.122 175.234 179.3C175.234 178.472 175.084 177.833 174.784 177.383C174.484 176.933 174.058 176.708 173.506 176.708C172.96 176.708 172.537 176.933 172.237 177.383C171.937 177.833 171.787 178.472 171.787 179.3C171.787 180.122 171.937 180.758 172.237 181.208C172.537 181.652 172.96 181.874 173.506 181.874ZM180.014 182.486V181.1H176.765V180.398L179.96 176.096H180.788V180.344H181.58V181.1H180.788V182.486H180.014ZM177.701 180.344H180.014V177.284L177.701 180.344ZM182.34 180.218V179.507H185.319V180.218H182.34ZM188.433 182.63C187.977 182.63 187.569 182.558 187.209 182.414C186.855 182.27 186.576 182.057 186.372 181.775C186.174 181.493 186.075 181.145 186.075 180.731C186.075 180.317 186.186 179.966 186.408 179.678C186.63 179.39 186.93 179.18 187.308 179.048C187.026 178.934 186.801 178.769 186.633 178.553C186.465 178.331 186.381 178.049 186.381 177.707C186.381 177.371 186.465 177.071 186.633 176.807C186.807 176.543 187.047 176.336 187.353 176.186C187.659 176.03 188.019 175.952 188.433 175.952C188.847 175.952 189.207 176.03 189.513 176.186C189.825 176.336 190.065 176.543 190.233 176.807C190.401 177.071 190.485 177.371 190.485 177.707C190.485 178.049 190.401 178.331 190.233 178.553C190.065 178.769 189.84 178.934 189.558 179.048C189.936 179.18 190.236 179.39 190.458 179.678C190.68 179.966 190.791 180.317 190.791 180.731C190.791 181.145 190.689 181.493 190.485 181.775C190.287 182.057 190.011 182.27 189.657 182.414C189.303 182.558 188.895 182.63 188.433 182.63ZM188.433 178.733C188.829 178.733 189.135 178.649 189.351 178.481C189.567 178.307 189.675 178.049 189.675 177.707C189.675 177.401 189.57 177.158 189.36 176.978C189.15 176.798 188.841 176.708 188.433 176.708C188.031 176.708 187.722 176.798 187.506 176.978C187.296 177.158 187.191 177.401 187.191 177.707C187.191 178.049 187.299 178.307 187.515 178.481C187.731 178.649 188.037 178.733 188.433 178.733ZM188.433 181.874C188.907 181.874 189.282 181.778 189.558 181.586C189.84 181.388 189.981 181.088 189.981 180.686C189.981 180.314 189.855 180.017 189.603 179.795C189.357 179.567 188.967 179.453 188.433 179.453C187.905 179.453 187.515 179.567 187.263 179.795C187.011 180.017 186.885 180.314 186.885 180.686C186.885 181.088 187.023 181.388 187.299 181.586C187.581 181.778 187.959 181.874 188.433 181.874Z" fill="#646464"/>
                <path d="M205.143 182.63C204.627 182.63 204.18 182.495 203.802 182.225C203.424 181.955 203.13 181.571 202.92 181.073C202.716 180.575 202.614 179.984 202.614 179.3C202.614 178.616 202.716 178.025 202.92 177.527C203.13 177.023 203.424 176.636 203.802 176.366C204.18 176.09 204.627 175.952 205.143 175.952C205.665 175.952 206.115 176.09 206.493 176.366C206.871 176.636 207.162 177.02 207.366 177.518C207.576 178.016 207.681 178.61 207.681 179.3C207.681 179.984 207.576 180.575 207.366 181.073C207.162 181.571 206.871 181.955 206.493 182.225C206.115 182.495 205.665 182.63 205.143 182.63ZM205.143 181.874C205.695 181.874 206.121 181.652 206.421 181.208C206.721 180.758 206.871 180.122 206.871 179.3C206.871 178.472 206.721 177.833 206.421 177.383C206.121 176.933 205.695 176.708 205.143 176.708C204.597 176.708 204.174 176.933 203.874 177.383C203.574 177.833 203.424 178.472 203.424 179.3C203.424 180.122 203.574 180.758 203.874 181.208C204.174 181.652 204.597 181.874 205.143 181.874ZM211.651 182.486V181.1H208.402V180.398L211.597 176.096H212.425V180.344H213.217V181.1H212.425V182.486H211.651ZM209.338 180.344H211.651V177.284L209.338 180.344ZM213.977 180.218V179.507H216.956V180.218H213.977ZM218.868 182.486V177.752H217.536V177.086H218.076C218.43 177.086 218.676 177.017 218.814 176.879C218.958 176.735 219.03 176.474 219.03 176.096H219.642V182.486H218.868ZM223.521 182.63C223.005 182.63 222.558 182.495 222.18 182.225C221.802 181.955 221.508 181.571 221.298 181.073C221.094 180.575 220.992 179.984 220.992 179.3C220.992 178.616 221.094 178.025 221.298 177.527C221.508 177.023 221.802 176.636 222.18 176.366C222.558 176.09 223.005 175.952 223.521 175.952C224.043 175.952 224.493 176.09 224.871 176.366C225.249 176.636 225.54 177.02 225.744 177.518C225.954 178.016 226.059 178.61 226.059 179.3C226.059 179.984 225.954 180.575 225.744 181.073C225.54 181.571 225.249 181.955 224.871 182.225C224.493 182.495 224.043 182.63 223.521 182.63ZM223.521 181.874C224.073 181.874 224.499 181.652 224.799 181.208C225.099 180.758 225.249 180.122 225.249 179.3C225.249 178.472 225.099 177.833 224.799 177.383C224.499 176.933 224.073 176.708 223.521 176.708C222.975 176.708 222.552 176.933 222.252 177.383C221.952 177.833 221.802 178.472 221.802 179.3C221.802 180.122 221.952 180.758 222.252 181.208C222.552 181.652 222.975 181.874 223.521 181.874Z" fill="#646464"/>
                <path d="M238.841 182.63C238.325 182.63 237.878 182.495 237.5 182.225C237.122 181.955 236.828 181.571 236.618 181.073C236.414 180.575 236.312 179.984 236.312 179.3C236.312 178.616 236.414 178.025 236.618 177.527C236.828 177.023 237.122 176.636 237.5 176.366C237.878 176.09 238.325 175.952 238.841 175.952C239.363 175.952 239.813 176.09 240.191 176.366C240.569 176.636 240.86 177.02 241.064 177.518C241.274 178.016 241.379 178.61 241.379 179.3C241.379 179.984 241.274 180.575 241.064 181.073C240.86 181.571 240.569 181.955 240.191 182.225C239.813 182.495 239.363 182.63 238.841 182.63ZM238.841 181.874C239.393 181.874 239.819 181.652 240.119 181.208C240.419 180.758 240.569 180.122 240.569 179.3C240.569 178.472 240.419 177.833 240.119 177.383C239.819 176.933 239.393 176.708 238.841 176.708C238.295 176.708 237.872 176.933 237.572 177.383C237.272 177.833 237.122 178.472 237.122 179.3C237.122 180.122 237.272 180.758 237.572 181.208C237.872 181.652 238.295 181.874 238.841 181.874ZM245.349 182.486V181.1H242.1V180.398L245.295 176.096H246.123V180.344H246.915V181.1H246.123V182.486H245.349ZM243.036 180.344H245.349V177.284L243.036 180.344ZM247.675 180.218V179.507H250.654V180.218H247.675ZM252.566 182.486V177.752H251.234V177.086H251.774C252.128 177.086 252.374 177.017 252.512 176.879C252.656 176.735 252.728 176.474 252.728 176.096H253.34V182.486H252.566ZM254.78 182.486C254.78 182.036 254.849 181.631 254.987 181.271C255.131 180.905 255.38 180.557 255.734 180.227C256.094 179.897 256.592 179.564 257.228 179.228C257.522 179.072 257.759 178.928 257.939 178.796C258.119 178.664 258.251 178.523 258.335 178.373C258.419 178.223 258.461 178.04 258.461 177.824C258.461 177.494 258.353 177.227 258.137 177.023C257.927 176.813 257.609 176.708 257.183 176.708C256.733 176.708 256.376 176.825 256.112 177.059C255.854 177.293 255.692 177.626 255.626 178.058L254.816 178.004C254.888 177.38 255.128 176.882 255.536 176.51C255.944 176.138 256.493 175.952 257.183 175.952C257.843 175.952 258.356 176.123 258.722 176.465C259.088 176.807 259.271 177.254 259.271 177.806C259.271 178.13 259.217 178.412 259.109 178.652C259.001 178.886 258.818 179.105 258.56 179.309C258.308 179.513 257.96 179.732 257.516 179.966C256.94 180.272 256.502 180.581 256.202 180.893C255.908 181.205 255.752 181.484 255.734 181.73H259.271V182.486H254.78Z" fill="#646464"/>
            </g>
            <g clip-path="url(#clip2_1261_7059)">
                <path d="M68.4219 145.06L77.9302 154.051L93.4108 145.06L108.498 140.946L124.372 143.079L150.422 137.905L161.422 121.76L184.922 130.614L205.922 117.593L227.422 97.8012L246.33 109.427L280.408 90.5096H286.422" stroke="#AAA290" stroke-width="2" stroke-linecap="round"/>
                <rect x="107" y="81" width="109.581" height="33.7173" rx="4.21466" fill="#E0E9E9"/>
                <circle cx="116.833" cy="90.8344" r="2.80978" fill="#CF3DFF"/>
                <path d="M124.028 93.8343L126.186 87.8494H127.341L129.499 93.8343H128.529L127.981 92.2748H125.537L124.997 93.8343H124.028ZM125.823 91.4488H127.703L126.759 88.7177L125.823 91.4488ZM130.207 93.8343V87.8494H132.44C133.12 87.8494 133.651 88.0152 134.034 88.3468C134.421 88.6727 134.615 89.1279 134.615 89.7123C134.615 90.2968 134.421 90.7576 134.034 91.0947C133.651 91.4263 133.12 91.5921 132.44 91.5921H131.117V93.8343H130.207ZM131.117 90.766H132.415C133.252 90.766 133.671 90.4148 133.671 89.7123C133.671 89.0267 133.252 88.6839 132.415 88.6839H131.117V90.766ZM135.582 93.8343V87.8494H137.967C138.602 87.8494 139.105 88.0124 139.476 88.3383C139.853 88.6643 140.041 89.1026 140.041 89.6533C140.041 90.0017 139.94 90.3024 139.738 90.5552C139.541 90.8025 139.302 90.9683 139.021 91.0526C139.296 91.0975 139.51 91.2043 139.662 91.3729C139.819 91.5415 139.912 91.7803 139.94 92.0894L140.1 93.8343H139.181L139.038 92.2074C139.021 91.9658 138.94 91.7887 138.794 91.6764C138.647 91.5583 138.409 91.4993 138.077 91.4993H136.492V93.8343H135.582ZM136.492 90.6648H137.984C138.327 90.6648 138.597 90.5805 138.794 90.412C138.996 90.2434 139.097 89.9989 139.097 89.6786C139.097 89.3583 138.993 89.1138 138.785 88.9452C138.583 88.771 138.291 88.6839 137.908 88.6839H136.492V90.6648Z" fill="#1C3F3A"/>
                <path d="M146.964 93.8343V92.5361H143.921V91.8787L146.913 87.8494H147.689V91.8281H148.431V92.5361H147.689V93.8343H146.964ZM144.797 91.8281H146.964V88.9621L144.797 91.8281ZM149.225 93.8343V92.8817H150.177V93.8343H149.225ZM151.055 93.8343C151.055 93.4128 151.12 93.0335 151.249 92.6963C151.384 92.3535 151.617 92.0276 151.949 91.7185C152.286 91.4094 152.753 91.0975 153.348 90.7828C153.624 90.6367 153.846 90.5019 154.014 90.3782C154.183 90.2546 154.306 90.1225 154.385 89.9821C154.464 89.8416 154.503 89.6702 154.503 89.4679C154.503 89.1588 154.402 88.9087 154.2 88.7177C154.003 88.521 153.705 88.4226 153.306 88.4226C152.885 88.4226 152.55 88.5322 152.303 88.7514C152.061 88.9705 151.91 89.2824 151.848 89.687L151.089 89.6365C151.157 89.052 151.381 88.5856 151.764 88.2372C152.146 87.8888 152.66 87.7146 153.306 87.7146C153.924 87.7146 154.405 87.8747 154.748 88.195C155.09 88.5154 155.262 88.934 155.262 89.451C155.262 89.7545 155.211 90.0186 155.11 90.2434C155.009 90.4625 154.837 90.6676 154.596 90.8587C154.36 91.0498 154.034 91.2549 153.618 91.474C153.079 91.7606 152.668 92.0501 152.387 92.3423C152.112 92.6345 151.966 92.8958 151.949 93.1262H155.262V93.8343H151.055ZM158.141 93.9691C157.478 93.9691 156.967 93.8146 156.607 93.5055C156.247 93.1908 156.054 92.7862 156.025 92.2917L156.776 92.2411C156.809 92.6064 156.95 92.8677 157.197 93.025C157.45 93.1824 157.765 93.2611 158.141 93.2611C158.4 93.2611 158.639 93.2273 158.858 93.1599C159.077 93.0869 159.254 92.9717 159.389 92.8143C159.524 92.6513 159.591 92.435 159.591 92.1653C159.591 91.7663 159.459 91.474 159.195 91.2886C158.931 91.1032 158.582 91.0104 158.15 91.0104H157.678V90.3024H158.15C158.504 90.3024 158.796 90.2321 159.026 90.0916C159.262 89.9511 159.38 89.7095 159.38 89.3667C159.38 88.7373 158.981 88.4226 158.183 88.4226C157.79 88.4226 157.492 88.4985 157.29 88.6502C157.093 88.8019 156.975 89.0099 156.936 89.274L156.177 89.2234C156.233 88.7739 156.433 88.4114 156.776 88.136C157.118 87.8551 157.588 87.7146 158.183 87.7146C158.79 87.7146 159.268 87.8607 159.616 88.1529C159.965 88.4395 160.139 88.8329 160.139 89.333C160.139 89.9736 159.793 90.4007 159.102 90.6143C159.49 90.721 159.793 90.9121 160.013 91.1874C160.237 91.4572 160.35 91.7831 160.35 92.1653C160.35 92.5474 160.254 92.8733 160.063 93.1431C159.878 93.4128 159.619 93.6179 159.288 93.7584C158.956 93.8989 158.574 93.9691 158.141 93.9691ZM162.443 90.7491C162.066 90.7491 161.754 90.6227 161.507 90.3698C161.265 90.1113 161.144 89.7432 161.144 89.2656C161.144 88.7823 161.265 88.4142 161.507 88.1613C161.754 87.9084 162.066 87.782 162.443 87.782C162.825 87.782 163.137 87.9084 163.378 88.1613C163.62 88.4142 163.741 88.7823 163.741 89.2656C163.741 89.7432 163.62 90.1113 163.378 90.3698C163.137 90.6227 162.825 90.7491 162.443 90.7491ZM161.751 93.8343L165.882 87.8494H166.556L162.426 93.8343H161.751ZM162.443 90.2265C162.673 90.2265 162.844 90.1422 162.957 89.9736C163.075 89.805 163.134 89.569 163.134 89.2656C163.134 88.9621 163.075 88.7261 162.957 88.5575C162.844 88.3889 162.673 88.3046 162.443 88.3046C162.218 88.3046 162.046 88.3889 161.928 88.5575C161.81 88.7261 161.751 88.9621 161.751 89.2656C161.751 89.569 161.81 89.805 161.928 89.9736C162.046 90.1422 162.218 90.2265 162.443 90.2265ZM165.865 93.9017C165.488 93.9017 165.176 93.7753 164.929 93.5224C164.688 93.2639 164.567 92.8958 164.567 92.4181C164.567 91.9349 164.688 91.5668 164.929 91.3139C165.176 91.061 165.488 90.9346 165.865 90.9346C166.247 90.9346 166.559 91.061 166.801 91.3139C167.042 91.5668 167.163 91.9349 167.163 92.4181C167.163 92.8958 167.042 93.2639 166.801 93.5224C166.559 93.7753 166.247 93.9017 165.865 93.9017ZM165.865 93.3791C166.095 93.3791 166.267 93.2948 166.379 93.1262C166.497 92.9576 166.556 92.7216 166.556 92.4181C166.556 92.1147 166.497 91.8787 166.379 91.7101C166.267 91.5415 166.095 91.4572 165.865 91.4572C165.64 91.4572 165.469 91.5415 165.351 91.7101C165.233 91.8787 165.174 92.1147 165.174 92.4181C165.174 92.7216 165.233 92.9576 165.351 93.1262C165.469 93.2948 165.64 93.3791 165.865 93.3791Z" fill="#1C3F3A"/>
                <circle cx="116.833" cy="104.883" r="2.80978" fill="#3A7FF6"/>
                <path d="M124.584 107.883V101.898H126.734C127.453 101.898 127.995 102.028 128.361 102.286C128.726 102.545 128.909 102.955 128.909 103.517C128.909 103.86 128.81 104.146 128.614 104.377C128.417 104.601 128.144 104.739 127.796 104.79C128.229 104.84 128.563 104.995 128.799 105.253C129.041 105.512 129.161 105.84 129.161 106.239C129.161 106.784 128.979 107.195 128.614 107.47C128.248 107.745 127.728 107.883 127.054 107.883H124.584ZM125.495 104.452H126.717C127.116 104.452 127.425 104.377 127.644 104.225C127.863 104.073 127.973 103.86 127.973 103.584C127.973 103.005 127.554 102.716 126.717 102.716H125.495V104.452ZM125.495 107.065H127.029C127.405 107.065 127.698 106.99 127.905 106.838C128.119 106.681 128.226 106.453 128.226 106.155C128.226 105.863 128.119 105.635 127.905 105.472C127.698 105.309 127.405 105.228 127.029 105.228H125.495V107.065ZM130.322 107.883V101.898H132.471C133.191 101.898 133.733 102.028 134.098 102.286C134.463 102.545 134.646 102.955 134.646 103.517C134.646 103.86 134.548 104.146 134.351 104.377C134.154 104.601 133.882 104.739 133.533 104.79C133.966 104.84 134.3 104.995 134.537 105.253C134.778 105.512 134.899 105.84 134.899 106.239C134.899 106.784 134.716 107.195 134.351 107.47C133.986 107.745 133.466 107.883 132.792 107.883H130.322ZM131.232 104.452H132.454C132.853 104.452 133.163 104.377 133.382 104.225C133.601 104.073 133.71 103.86 133.71 103.584C133.71 103.005 133.292 102.716 132.454 102.716H131.232V104.452ZM131.232 107.065H132.766C133.143 107.065 133.435 106.99 133.643 106.838C133.857 106.681 133.963 106.453 133.963 106.155C133.963 105.863 133.857 105.635 133.643 105.472C133.435 105.309 133.143 105.228 132.766 105.228H131.232V107.065ZM137.619 107.883L139.777 101.898H140.931L143.089 107.883H142.12L141.572 106.324H139.127L138.588 107.883H137.619ZM139.414 105.498H141.294L140.35 102.767L139.414 105.498ZM143.797 107.883V101.898H146.031C146.711 101.898 147.242 102.064 147.624 102.396C148.012 102.722 148.206 103.177 148.206 103.761C148.206 104.346 148.012 104.806 147.624 105.144C147.242 105.475 146.711 105.641 146.031 105.641H144.708V107.883H143.797ZM144.708 104.815H146.006C146.843 104.815 147.262 104.464 147.262 103.761C147.262 103.076 146.843 102.733 146.006 102.733H144.708V104.815ZM149.173 107.883V101.898H151.558C152.193 101.898 152.696 102.061 153.067 102.387C153.443 102.713 153.632 103.151 153.632 103.702C153.632 104.051 153.531 104.351 153.328 104.604C153.132 104.851 152.893 105.017 152.612 105.101C152.887 105.146 153.101 105.253 153.252 105.422C153.41 105.59 153.502 105.829 153.531 106.138L153.691 107.883H152.772L152.629 106.256C152.612 106.015 152.53 105.838 152.384 105.725C152.238 105.607 151.999 105.548 151.668 105.548H150.083V107.883H149.173ZM150.083 104.714H151.575C151.918 104.714 152.187 104.629 152.384 104.461C152.586 104.292 152.688 104.048 152.688 103.727C152.688 103.407 152.584 103.163 152.376 102.994C152.173 102.82 151.881 102.733 151.499 102.733H150.083V104.714Z" fill="#1C3F3A"/>
                <path d="M159.253 107.883V103.449H158.005V102.826H158.511C158.842 102.826 159.073 102.761 159.202 102.632C159.337 102.497 159.404 102.252 159.404 101.898H159.978V107.883H159.253ZM161.326 107.883C161.326 107.462 161.391 107.082 161.52 106.745C161.655 106.402 161.888 106.076 162.22 105.767C162.557 105.458 163.024 105.146 163.619 104.832C163.895 104.686 164.117 104.551 164.285 104.427C164.454 104.303 164.577 104.171 164.656 104.031C164.735 103.89 164.774 103.719 164.774 103.517C164.774 103.208 164.673 102.958 164.471 102.767C164.274 102.57 163.976 102.471 163.577 102.471C163.156 102.471 162.821 102.581 162.574 102.8C162.332 103.019 162.181 103.331 162.119 103.736L161.36 103.685C161.428 103.101 161.652 102.634 162.035 102.286C162.417 101.938 162.931 101.763 163.577 101.763C164.195 101.763 164.676 101.924 165.019 102.244C165.361 102.564 165.533 102.983 165.533 103.5C165.533 103.803 165.482 104.067 165.381 104.292C165.28 104.511 165.108 104.716 164.867 104.908C164.631 105.099 164.305 105.304 163.889 105.523C163.35 105.81 162.939 106.099 162.658 106.391C162.383 106.683 162.237 106.945 162.22 107.175H165.533V107.883H161.326ZM166.411 107.883V106.931H167.363V107.883H166.411ZM168.241 107.883C168.241 107.462 168.306 107.082 168.435 106.745C168.57 106.402 168.803 106.076 169.135 105.767C169.472 105.458 169.938 105.146 170.534 104.832C170.809 104.686 171.031 104.551 171.2 104.427C171.368 104.303 171.492 104.171 171.571 104.031C171.649 103.89 171.689 103.719 171.689 103.517C171.689 103.208 171.588 102.958 171.385 102.767C171.189 102.57 170.891 102.471 170.492 102.471C170.07 102.471 169.736 102.581 169.489 102.8C169.247 103.019 169.095 103.331 169.034 103.736L168.275 103.685C168.342 103.101 168.567 102.634 168.949 102.286C169.331 101.938 169.846 101.763 170.492 101.763C171.11 101.763 171.59 101.924 171.933 102.244C172.276 102.564 172.447 102.983 172.447 103.5C172.447 103.803 172.397 104.067 172.296 104.292C172.195 104.511 172.023 104.716 171.781 104.908C171.545 105.099 171.22 105.304 170.804 105.523C170.264 105.81 169.854 106.099 169.573 106.391C169.298 106.683 169.152 106.945 169.135 107.175H172.447V107.883H168.241ZM174.539 107.883V103.449H173.292V102.826H173.797C174.129 102.826 174.359 102.761 174.488 102.632C174.623 102.497 174.691 102.252 174.691 101.898H175.264V107.883H174.539ZM177.858 104.798C177.482 104.798 177.17 104.672 176.923 104.419C176.681 104.16 176.56 103.792 176.56 103.314C176.56 102.831 176.681 102.463 176.923 102.21C177.17 101.957 177.482 101.831 177.858 101.831C178.241 101.831 178.552 101.957 178.794 102.21C179.036 102.463 179.157 102.831 179.157 103.314C179.157 103.792 179.036 104.16 178.794 104.419C178.552 104.672 178.241 104.798 177.858 104.798ZM177.167 107.883L181.298 101.898H181.972L177.842 107.883H177.167ZM177.858 104.275C178.089 104.275 178.26 104.191 178.373 104.022C178.491 103.854 178.55 103.618 178.55 103.314C178.55 103.011 178.491 102.775 178.373 102.606C178.26 102.438 178.089 102.353 177.858 102.353C177.634 102.353 177.462 102.438 177.344 102.606C177.226 102.775 177.167 103.011 177.167 103.314C177.167 103.618 177.226 103.854 177.344 104.022C177.462 104.191 177.634 104.275 177.858 104.275ZM181.281 107.951C180.904 107.951 180.592 107.824 180.345 107.571C180.103 107.313 179.983 106.945 179.983 106.467C179.983 105.984 180.103 105.616 180.345 105.363C180.592 105.11 180.904 104.983 181.281 104.983C181.663 104.983 181.975 105.11 182.216 105.363C182.458 105.616 182.579 105.984 182.579 106.467C182.579 106.945 182.458 107.313 182.216 107.571C181.975 107.824 181.663 107.951 181.281 107.951ZM181.281 107.428C181.511 107.428 181.683 107.344 181.795 107.175C181.913 107.006 181.972 106.77 181.972 106.467C181.972 106.164 181.913 105.928 181.795 105.759C181.683 105.59 181.511 105.506 181.281 105.506C181.056 105.506 180.885 105.59 180.767 105.759C180.649 105.928 180.59 106.164 180.59 106.467C180.59 106.77 180.649 107.006 180.767 107.175C180.885 107.344 181.056 107.428 181.281 107.428ZM185.831 107.883V101.898H187.887C188.595 101.898 189.126 102.028 189.48 102.286C189.834 102.545 190.012 102.952 190.012 103.508C190.012 103.845 189.916 104.129 189.725 104.36C189.539 104.584 189.281 104.728 188.949 104.79C189.36 104.846 189.68 105.006 189.91 105.27C190.146 105.529 190.264 105.852 190.264 106.239C190.264 106.784 190.087 107.195 189.733 107.47C189.379 107.745 188.876 107.883 188.224 107.883H185.831ZM186.555 104.486H187.887C188.326 104.486 188.663 104.405 188.899 104.242C189.135 104.073 189.253 103.84 189.253 103.542C189.253 102.918 188.798 102.606 187.887 102.606H186.555V104.486ZM186.555 107.175H188.224C188.635 107.175 188.949 107.091 189.169 106.922C189.393 106.754 189.506 106.512 189.506 106.197C189.506 105.883 189.393 105.638 189.169 105.464C188.949 105.284 188.635 105.194 188.224 105.194H186.555V107.175ZM191.494 107.883V101.898H193.551C194.259 101.898 194.79 102.028 195.144 102.286C195.498 102.545 195.675 102.952 195.675 103.508C195.675 103.845 195.579 104.129 195.388 104.36C195.203 104.584 194.944 104.728 194.613 104.79C195.023 104.846 195.343 105.006 195.574 105.27C195.81 105.529 195.928 105.852 195.928 106.239C195.928 106.784 195.751 107.195 195.397 107.47C195.043 107.745 194.54 107.883 193.888 107.883H191.494ZM192.219 104.486H193.551C193.989 104.486 194.326 104.405 194.562 104.242C194.798 104.073 194.916 103.84 194.916 103.542C194.916 102.918 194.461 102.606 193.551 102.606H192.219V104.486ZM192.219 107.175H193.888C194.298 107.175 194.613 107.091 194.832 106.922C195.057 106.754 195.169 106.512 195.169 106.197C195.169 105.883 195.057 105.638 194.832 105.464C194.613 105.284 194.298 105.194 193.888 105.194H192.219V107.175Z" fill="#1C3F3A"/>
                <path d="M161.789 114.717H166.004L162.782 117.939C162.234 118.487 161.344 118.487 160.795 117.939L157.574 114.717H161.789Z" fill="#E0E9E9"/>
            </g>
        </g>
    </g>
    <defs>
        <filter id="filter0_d_1261_7059" x="0" y="0" width="303" height="216" filterUnits="userSpaceOnUse" color-interpolation-filters="sRGB">
            <feFlood flood-opacity="0" result="BackgroundImageFix"/>
            <feColorMatrix in="SourceAlpha" type="matrix" values="0 0 0 0 0 0 0 0 0 0 0 0 0 0 0 0 0 0 127 0" result="hardAlpha"/>
            <feMorphology radius="2" operator="dilate" in="SourceAlpha" result="effect1_dropShadow_1261_7059"/>
            <feOffset dy="4"/>
            <feGaussianBlur stdDeviation="9"/>
            <feComposite in2="hardAlpha" operator="out"/>
            <feColorMatrix type="matrix" values="0 0 0 0 0 0 0 0 0 0 0 0 0 0 0 0 0 0 0.2 0"/>
            <feBlend mode="normal" in2="BackgroundImageFix" result="effect1_dropShadow_1261_7059"/>
            <feBlend mode="normal" in="SourceGraphic" in2="effect1_dropShadow_1261_7059" result="shape"/>
        </filter>
        <clipPath id="clip0_1261_7059">
            <rect x="20" y="16" width="263" height="176" rx="10.214" fill="white"/>
        </clipPath>
        <clipPath id="clip1_1261_7059">
            <rect width="201" height="117" fill="white" transform="translate(63 67.6576)"/>
        </clipPath>
        <clipPath id="clip2_1261_7059">
            <rect width="203" height="100" fill="white" transform="translate(60 66)"/>
        </clipPath>
    </defs>
</svg>
