<svg width="146" height="15" viewBox="0 0 146 15" fill="none" xmlns="http://www.w3.org/2000/svg">
    <path d="M9.1365 8.06407C9.1365 10.4641 7.1525 11.4241 4.9605 11.4241H0.4005C0.3045 11.4241 0.2085 11.3281 0.2085 11.2321L0.3365 5.74407L0.2085 0.416072C0.2085 0.320072 0.3045 0.224072 0.4005 0.224072H4.9125C7.1845 0.224072 8.8165 1.08807 8.8165 2.96007C8.8165 4.33607 8.0965 5.10407 6.8005 5.45607C8.4005 5.80807 9.1205 6.80007 9.1365 8.06407ZM2.2565 1.68007L2.1605 4.83207H4.9285C6.1125 4.83207 6.8485 4.33607 6.8485 3.26407C6.8485 2.17607 6.0325 1.68007 4.9285 1.68007H2.2565ZM2.1605 6.27207L2.2565 9.96807H4.9285C6.2085 9.96807 7.1525 9.50407 7.1525 8.06407C7.1525 6.75207 6.1125 6.27207 4.9285 6.27207H2.1605ZM19.4334 8.06407C19.4334 10.4641 17.4494 11.4241 15.2574 11.4241H10.6974C10.6014 11.4241 10.5054 11.3281 10.5054 11.2321L10.6334 5.74407L10.5054 0.416072C10.5054 0.320072 10.6014 0.224072 10.6974 0.224072H15.2094C17.4814 0.224072 19.1134 1.08807 19.1134 2.96007C19.1134 4.33607 18.3934 5.10407 17.0974 5.45607C18.6974 5.80807 19.4174 6.80007 19.4334 8.06407ZM12.5534 1.68007L12.4574 4.83207H15.2254C16.4094 4.83207 17.1454 4.33607 17.1454 3.26407C17.1454 2.17607 16.3294 1.68007 15.2254 1.68007H12.5534ZM12.4574 6.27207L12.5534 9.96807H15.2254C16.5054 9.96807 17.4494 9.50407 17.4494 8.06407C17.4494 6.75207 16.4094 6.27207 15.2254 6.27207H12.4574ZM29.0423 3.74407C29.0423 6.08007 27.4423 7.36007 24.9143 7.36007H22.7863L22.8503 11.2321C22.8503 11.3281 22.7543 11.4241 22.6583 11.4241H20.9943C20.8983 11.4241 20.8023 11.3281 20.8023 11.2321L20.9143 5.76007L20.8023 0.416072C20.8023 0.320072 20.8983 0.224072 20.9943 0.224072H24.9143C27.4903 0.224072 29.0423 1.40807 29.0423 3.74407ZM27.1383 3.77607C27.1383 2.38407 26.3543 1.72807 24.9943 1.72807H22.8183L22.7543 5.85607H25.0583C26.2423 5.85607 27.1383 5.26407 27.1383 3.77607ZM31.9815 11.4241H30.3975C30.3015 11.4241 30.2055 11.3281 30.2055 11.2321L30.2855 7.26407L30.2055 3.37607C30.2055 3.28007 30.3015 3.18407 30.3975 3.18407H31.9655C32.0615 3.18407 32.1575 3.28007 32.1415 3.37607L32.0935 4.65607C32.7015 3.63207 33.7895 3.12007 34.9735 3.12007C35.1015 3.12007 35.2295 3.13607 35.3415 3.15207C35.4535 3.16807 35.5335 3.26407 35.5335 3.37607V4.49607C35.5335 4.59207 35.4535 4.67207 35.3415 4.67207C35.2455 4.65607 35.1175 4.65607 34.9895 4.65607C33.4535 4.65607 32.2535 5.53607 32.1415 7.37607L32.1735 11.2321C32.1735 11.3281 32.0775 11.4241 31.9815 11.4241ZM38.39 2.28807H36.822C36.726 2.28807 36.63 2.19207 36.63 2.09607V0.576072C36.63 0.480072 36.726 0.384071 36.822 0.384071H38.39C38.486 0.384071 38.582 0.480072 38.582 0.576072V2.09607C38.582 2.19207 38.486 2.28807 38.39 2.28807ZM38.422 11.4241H36.79C36.694 11.4241 36.598 11.3281 36.598 11.2321L36.678 7.24807L36.598 3.37607C36.598 3.28007 36.694 3.18407 36.79 3.18407H38.422C38.518 3.18407 38.614 3.28007 38.614 3.37607L38.534 7.24807L38.614 11.2321C38.614 11.3281 38.518 11.4241 38.422 11.4241ZM42.1888 7.02407V8.35207L42.2688 11.2321C42.2688 11.3281 42.1728 11.4241 42.0768 11.4241H40.4288C40.3328 11.4241 40.2368 11.3281 40.2368 11.2321L40.3168 8.35207L40.2688 3.37607C40.2688 3.28007 40.3648 3.18407 40.4608 3.18407H41.9648C42.0608 3.18407 42.1568 3.28007 42.1568 3.37607L42.1248 4.38407C42.6688 3.55207 43.4368 2.99207 44.5728 2.99207C45.7408 2.99207 46.5568 3.50407 46.9248 4.62407C47.5808 3.44007 48.4288 2.99207 49.4848 2.99207C51.1328 2.99207 52.0928 4.00007 52.0928 6.22407V8.35207L52.1408 11.2321C52.1408 11.3281 52.0448 11.4241 51.9488 11.4241H50.3328C50.2368 11.4241 50.1408 11.3281 50.1408 11.2321L50.2208 8.35207V6.27207C50.2208 5.02407 49.6768 4.49607 48.8767 4.49607C48.1248 4.49607 47.3568 5.29607 47.1488 6.76807V8.35207L47.2288 11.2321C47.2288 11.3281 47.1328 11.4241 47.0368 11.4241H45.4208C45.3248 11.4241 45.2288 11.3281 45.2288 11.2321L45.2928 8.35207V6.27207C45.2928 5.02407 44.7808 4.49607 43.9648 4.49607C43.1488 4.49607 42.3488 5.39207 42.1888 7.02407ZM59.5958 8.60807H61.0518C61.1478 8.60807 61.2278 8.70407 61.2118 8.80007C60.9718 10.3521 59.6278 11.6161 57.4518 11.6161C54.7958 11.6161 53.3558 9.84007 53.3558 7.32807C53.3558 4.72007 54.8758 2.99207 57.3878 2.99207C59.9158 2.99207 61.3718 4.68807 61.4358 7.47207C61.4358 7.56807 61.3398 7.66407 61.2438 7.66407H55.2918C55.3718 9.42407 56.0918 10.2561 57.4678 10.2561C58.4598 10.2561 59.1158 9.79207 59.3558 8.80007C59.3878 8.68807 59.4838 8.60807 59.5958 8.60807ZM59.3558 6.36807C59.2758 5.29607 58.6518 4.33607 57.4038 4.33607C56.2518 4.33607 55.5638 5.04007 55.3558 6.36807H59.3558ZM73.4583 5.85607C73.4583 9.31207 71.2663 11.6481 67.9383 11.6481C64.6103 11.6481 62.4503 9.29607 62.4503 5.84007C62.4503 2.27207 64.6103 7.15256e-05 67.9383 7.15256e-05C71.2663 7.15256e-05 73.4583 2.24007 73.4583 5.85607ZM63.3623 5.85607C63.3623 8.92807 65.0583 10.8321 67.9543 10.8321C70.8503 10.8321 72.5303 8.94407 72.5303 5.85607C72.5303 2.76807 70.8663 0.816072 67.9383 0.816072C64.9943 0.816072 63.3623 2.72007 63.3623 5.85607ZM71.1703 6.92807C70.8023 8.73607 69.6823 9.48807 68.0503 9.48807C65.9223 9.48807 64.6263 8.03207 64.6263 5.82407C64.6263 3.56807 65.9543 2.11207 68.0503 2.11207C69.5063 2.11207 70.7063 2.72007 71.1063 4.51207C71.1223 4.60807 71.0423 4.70407 70.9462 4.70407H70.0983C69.9703 4.70407 69.8743 4.62407 69.8423 4.51207C69.6183 3.60007 68.9623 3.15207 68.0343 3.15207C66.6903 3.15207 65.9383 4.16007 65.9383 5.80807C65.9383 7.53607 66.7063 8.48007 68.0183 8.48007C69.0583 8.48007 69.6983 7.92007 69.8903 6.92807C69.9062 6.81607 70.0023 6.73607 70.1143 6.73607H71.0103C71.1063 6.73607 71.1863 6.83207 71.1703 6.92807ZM82.2564 8.48007C82.0644 10.3041 80.6404 11.6161 78.5284 11.6161C75.9844 11.6161 74.4964 9.93607 74.4964 7.32807C74.4964 4.72007 75.9844 2.99207 78.5764 2.99207C80.6244 2.99207 81.9364 4.16007 82.1444 5.88807C82.1604 5.98407 82.0644 6.08007 81.9684 6.08007H80.5764C80.4644 6.08007 80.3684 6.00007 80.3524 5.88807C80.1444 4.84807 79.4244 4.36807 78.5764 4.36807C77.1524 4.36807 76.4804 5.39207 76.4804 7.31207C76.4804 9.29607 77.1684 10.2401 78.5764 10.2561C79.5684 10.2721 80.2884 9.64807 80.4324 8.48007C80.4484 8.36807 80.5284 8.28807 80.6404 8.28807H82.0804C82.1764 8.28807 82.2724 8.38407 82.2564 8.48007ZM91.3275 7.28007C91.3275 9.90407 89.8715 11.6161 87.2795 11.6161C84.6875 11.6161 83.1995 9.93607 83.1995 7.32807C83.1995 4.72007 84.6875 2.99207 87.2795 2.99207C89.8715 2.99207 91.3275 4.67207 91.3275 7.28007ZM85.1835 7.34407C85.1835 9.28007 85.8715 10.2561 87.2795 10.2561C88.6875 10.2561 89.3435 9.29607 89.3435 7.32807C89.3435 5.37607 88.6715 4.35207 87.2635 4.35207C85.8555 4.36807 85.1835 5.39207 85.1835 7.34407ZM94.5154 7.23207C94.4994 9.13607 95.2194 10.2081 96.5314 10.2081C97.9234 10.2081 98.6114 9.15207 98.6114 7.39207C98.6114 5.52007 97.9394 4.41607 96.5634 4.41607C95.2834 4.41607 94.5314 5.37607 94.5154 7.23207ZM100.579 7.28007C100.579 9.66407 99.2514 11.5841 97.0434 11.5841C95.9874 11.5841 95.1554 11.1841 94.5954 10.4161L94.6434 13.9521C94.6434 14.0481 94.5474 14.1441 94.4514 14.1441H92.8194C92.7234 14.1441 92.6274 14.0481 92.6274 13.9521L92.7074 7.96807L92.6274 3.37607C92.6274 3.28007 92.7234 3.18407 92.8194 3.18407H94.4034C94.4994 3.18407 94.5954 3.28007 94.5954 3.37607L94.5634 4.30407C95.1234 3.50407 95.9874 3.02407 97.0914 3.02407C99.3634 3.02407 100.579 4.88007 100.579 7.28007ZM108.593 3.36007L104.945 13.9681C104.913 14.0641 104.801 14.1441 104.689 14.1441H103.233C103.137 14.1441 103.073 14.0481 103.105 13.9681L103.953 11.4721L100.705 3.36007C100.673 3.28007 100.737 3.18407 100.833 3.18407H102.625C102.737 3.18407 102.849 3.26407 102.881 3.36007L104.929 8.99207L106.641 3.36007C106.673 3.26407 106.769 3.18407 106.881 3.18407H108.465C108.561 3.18407 108.625 3.28007 108.593 3.36007ZM111.2 11.4241H109.616C109.52 11.4241 109.424 11.3281 109.424 11.2321L109.504 7.26407L109.424 3.37607C109.424 3.28007 109.52 3.18407 109.616 3.18407H111.184C111.28 3.18407 111.376 3.28007 111.36 3.37607L111.312 4.65607C111.92 3.63207 113.008 3.12007 114.192 3.12007C114.32 3.12007 114.448 3.13607 114.56 3.15207C114.672 3.16807 114.752 3.26407 114.752 3.37607V4.49607C114.752 4.59207 114.672 4.67207 114.56 4.67207C114.464 4.65607 114.336 4.65607 114.208 4.65607C112.672 4.65607 111.472 5.53607 111.36 7.37607L111.392 11.2321C111.392 11.3281 111.296 11.4241 111.2 11.4241ZM117.609 2.28807H116.041C115.945 2.28807 115.849 2.19207 115.849 2.09607V0.576072C115.849 0.480072 115.945 0.384071 116.041 0.384071H117.609C117.705 0.384071 117.801 0.480072 117.801 0.576072V2.09607C117.801 2.19207 117.705 2.28807 117.609 2.28807ZM117.641 11.4241H116.009C115.913 11.4241 115.817 11.3281 115.817 11.2321L115.897 7.24807L115.817 3.37607C115.817 3.28007 115.913 3.18407 116.009 3.18407H117.641C117.737 3.18407 117.833 3.28007 117.833 3.37607L117.753 7.24807L117.833 11.2321C117.833 11.3281 117.737 11.4241 117.641 11.4241ZM121.168 7.18407C121.168 9.05607 121.872 10.0641 123.248 10.0481C124.496 10.0481 125.248 9.15207 125.264 7.32807C125.28 5.45607 124.56 4.41607 123.248 4.40007C121.872 4.36807 121.168 5.42407 121.168 7.18407ZM127.104 11.0561C127.135 13.2641 125.76 14.5921 123.232 14.5921C121.216 14.6241 119.648 13.7921 119.488 12.0321C119.472 11.9361 119.568 11.8401 119.664 11.8401H121.168C121.296 11.8401 121.376 11.9201 121.408 12.0321C121.552 12.8321 122.24 13.2481 123.28 13.2481C124.496 13.2481 125.296 12.5761 125.296 11.0241V10.0641C124.752 10.8961 123.92 11.3761 122.832 11.3761C120.448 11.3761 119.2 9.60007 119.2 7.26407C119.2 4.94407 120.512 3.05607 122.752 3.05607C123.824 3.05607 124.672 3.47207 125.216 4.25607L125.184 3.37607C125.184 3.28007 125.28 3.18407 125.376 3.18407H126.911C127.008 3.18407 127.104 3.28007 127.104 3.37607L127.056 7.00807L127.104 11.0561ZM134.147 6.27207C134.131 5.02407 133.507 4.48007 132.675 4.48007C131.731 4.48007 130.819 5.24807 130.563 6.67207L130.643 11.2321C130.643 11.3281 130.547 11.4241 130.451 11.4241H128.883C128.787 11.4241 128.691 11.3281 128.691 11.2321L128.771 5.77607L128.691 0.416072C128.691 0.320072 128.787 0.224072 128.883 0.224072H130.451C130.547 0.224072 130.643 0.320072 130.643 0.416072L130.579 4.30407C131.123 3.50407 131.987 2.99207 133.171 2.99207C134.979 2.99207 136.083 4.08007 136.035 6.48007L136.019 8.19207L136.099 11.2321C136.099 11.3281 136.003 11.4241 135.907 11.4241H134.275C134.179 11.4241 134.083 11.3281 134.083 11.2321L134.163 8.22407L134.147 6.27207ZM141.969 10.1441V11.1041C141.969 11.2161 141.889 11.3281 141.793 11.3601C141.393 11.4721 140.945 11.5681 140.513 11.5681C139.217 11.5681 138.049 10.9121 138.049 9.07207L138.065 4.62407H137.185C137.089 4.62407 136.993 4.52807 136.993 4.43207V3.37607C136.993 3.28007 137.089 3.18407 137.185 3.18407H138.049L138.017 1.31207C138.017 1.21607 138.113 1.12007 138.209 1.12007H139.809C139.905 1.12007 140.001 1.21607 140.001 1.31207L139.985 3.18407H141.777C141.873 3.18407 141.969 3.28007 141.969 3.37607V4.43207C141.969 4.52807 141.873 4.62407 141.777 4.62407H139.969V9.02407C139.969 9.85607 140.321 10.1121 140.929 10.1121C141.265 10.1121 141.553 10.0641 141.777 10.0001C141.873 9.98407 141.969 10.0481 141.969 10.1441ZM144.886 11.4241H143.222C143.126 11.4241 143.03 11.3281 143.03 11.2321V9.60007C143.03 9.50407 143.126 9.40807 143.222 9.40807H144.886C144.982 9.40807 145.078 9.50407 145.078 9.60007V11.2321C145.078 11.3281 144.982 11.4241 144.886 11.4241Z" fill="black" fill-opacity="0.8"/>
</svg>
