<svg width="479" height="77" viewBox="0 0 479 77" fill="none" xmlns="http://www.w3.org/2000/svg">
    <path d="M1.8 16V2H3.7V16H1.8ZM7.10781 16V5.6H8.84781V7.34C9.22115 6.78 9.69448 6.31333 10.2678 5.94C10.8545 5.55333 11.5478 5.36 12.3478 5.36C13.5211 5.36 14.3945 5.71333 14.9678 6.42C15.5545 7.12667 15.8478 8.06 15.8478 9.22V16H14.0478V9.42C14.0478 8.67333 13.8678 8.07333 13.5078 7.62C13.1611 7.16667 12.6745 6.94 12.0478 6.94C11.4345 6.94 10.8545 7.16 10.3078 7.6C9.76115 8.02667 9.29448 8.53333 8.90781 9.12V16H7.10781ZM21.7438 16.24C20.9571 16.24 20.2438 16.14 19.6038 15.94C18.9771 15.74 18.4571 15.48 18.0438 15.16L18.8038 13.66C19.1504 13.9533 19.5838 14.2 20.1038 14.4C20.6371 14.5867 21.2038 14.68 21.8038 14.68C22.5504 14.68 23.1104 14.56 23.4838 14.32C23.8704 14.0667 24.0638 13.7467 24.0638 13.36C24.0638 13.08 23.9904 12.8333 23.8438 12.62C23.7104 12.4067 23.4571 12.2 23.0838 12C22.7104 11.7867 22.1704 11.56 21.4638 11.32C20.4904 10.9867 19.7571 10.5933 19.2638 10.14C18.7838 9.67333 18.5438 9.03333 18.5438 8.22C18.5438 7.42 18.8904 6.74667 19.5838 6.2C20.2904 5.64 21.2638 5.36 22.5038 5.36C23.1704 5.36 23.7638 5.43333 24.2838 5.58C24.8038 5.71333 25.2704 5.88667 25.6838 6.1L25.1838 7.58C24.8238 7.36667 24.4104 7.19333 23.9438 7.06C23.4904 6.92667 22.9838 6.86 22.4238 6.86C21.7304 6.86 21.2038 7 20.8438 7.28C20.4838 7.56 20.3038 7.86667 20.3038 8.2C20.3038 8.52 20.4438 8.79333 20.7238 9.02C21.0038 9.24667 21.5504 9.49333 22.3638 9.76C23.6838 10.2 24.6038 10.6867 25.1238 11.22C25.6438 11.7533 25.9038 12.42 25.9038 13.22C25.9038 14.1533 25.5238 14.8933 24.7638 15.44C24.0171 15.9733 23.0104 16.24 21.7438 16.24ZM31.9392 16.24C30.9392 16.24 30.1459 15.9133 29.5592 15.26C28.9859 14.5933 28.6992 13.6467 28.6992 12.42V7.54H26.8992V5.98H28.7392L29.1192 2.7H30.4992V5.98H33.3792V7.54H30.4992V12.56C30.4992 13.3333 30.6592 13.8733 30.9792 14.18C31.3126 14.4867 31.7059 14.64 32.1592 14.64C32.4926 14.64 32.8059 14.5867 33.0992 14.48C33.4059 14.3733 33.6859 14.2467 33.9392 14.1L34.4392 15.54C34.1726 15.7 33.8126 15.8533 33.3592 16C32.9059 16.16 32.4326 16.24 31.9392 16.24ZM36.2484 16V5.6H38.0484V16H36.2484ZM37.1484 3.82C36.8018 3.82 36.5018 3.69333 36.2484 3.44C36.0084 3.18667 35.8884 2.89333 35.8884 2.56C35.8884 2.17333 36.0018 1.86667 36.2284 1.64C36.4551 1.41333 36.7618 1.3 37.1484 1.3C37.4951 1.3 37.7884 1.42667 38.0284 1.68C38.2818 1.92 38.4084 2.21333 38.4084 2.56C38.4084 2.93333 38.2951 3.24 38.0684 3.48C37.8418 3.70667 37.5351 3.82 37.1484 3.82ZM44.8884 16.24C43.8884 16.24 43.0951 15.9133 42.5084 15.26C41.9351 14.5933 41.6484 13.6467 41.6484 12.42V7.54H39.8484V5.98H41.6884L42.0684 2.7H43.4484V5.98H46.3284V7.54H43.4484V12.56C43.4484 13.3333 43.6084 13.8733 43.9284 14.18C44.2618 14.4867 44.6551 14.64 45.1084 14.64C45.4418 14.64 45.7551 14.5867 46.0484 14.48C46.3551 14.3733 46.6351 14.2467 46.8884 14.1L47.3884 15.54C47.1218 15.7 46.7618 15.8533 46.3084 16C45.8551 16.16 45.3818 16.24 44.8884 16.24ZM52.5 16.24C51.9 16.24 51.3333 16.1133 50.8 15.86C50.2667 15.6067 49.8333 15.2 49.5 14.64C49.1667 14.0667 49 13.3067 49 12.36V5.6H50.8V12.12C50.8 12.9333 50.9733 13.56 51.32 14C51.6667 14.4267 52.1733 14.64 52.84 14.64C53.3867 14.64 53.9133 14.5333 54.42 14.32C54.94 14.0933 55.4 13.7933 55.8 13.42V5.6H57.6V13.3C57.6 13.8733 57.72 14.2533 57.96 14.44C58.2133 14.6133 58.4867 14.7 58.78 14.7L58.4 16.1C57.16 16.1 56.3933 15.6067 56.1 14.62C55.6333 15.1 55.0933 15.4933 54.48 15.8C53.8667 16.0933 53.2067 16.24 52.5 16.24ZM64.8103 16.24C63.8103 16.24 63.017 15.9133 62.4303 15.26C61.857 14.5933 61.5703 13.6467 61.5703 12.42V7.54H59.7703V5.98H61.6103L61.9903 2.7H63.3703V5.98H66.2503V7.54H63.3703V12.56C63.3703 13.3333 63.5303 13.8733 63.8503 14.18C64.1836 14.4867 64.577 14.64 65.0303 14.64C65.3636 14.64 65.677 14.5867 65.9703 14.48C66.277 14.3733 66.557 14.2467 66.8103 14.1L67.3103 15.54C67.0436 15.7 66.6836 15.8533 66.2303 16C65.777 16.16 65.3036 16.24 64.8103 16.24ZM69.1195 16V5.6H70.9195V16H69.1195ZM70.0195 3.82C69.6729 3.82 69.3729 3.69333 69.1195 3.44C68.8795 3.18667 68.7595 2.89333 68.7595 2.56C68.7595 2.17333 68.8729 1.86667 69.0995 1.64C69.3262 1.41333 69.6329 1.3 70.0195 1.3C70.3662 1.3 70.6595 1.42667 70.8995 1.68C71.1529 1.92 71.2795 2.21333 71.2795 2.56C71.2795 2.93333 71.1662 3.24 70.9395 3.48C70.7129 3.70667 70.4062 3.82 70.0195 3.82ZM78.4995 16.24C77.5129 16.24 76.6262 16.0133 75.8395 15.56C75.0529 15.0933 74.4329 14.4533 73.9795 13.64C73.5395 12.8133 73.3195 11.8667 73.3195 10.8C73.3195 9.68 73.5462 8.71333 73.9995 7.9C74.4529 7.08667 75.0729 6.46 75.8595 6.02C76.6462 5.58 77.5262 5.36 78.4995 5.36C79.4729 5.36 80.3462 5.58 81.1195 6.02C81.9062 6.46 82.5262 7.08667 82.9795 7.9C83.4462 8.7 83.6795 9.65333 83.6795 10.76C83.6795 11.8667 83.4529 12.8333 82.9995 13.66C82.5462 14.4733 81.9262 15.1067 81.1395 15.56C80.3662 16.0133 79.4862 16.24 78.4995 16.24ZM78.4995 14.64C79.5529 14.64 80.3729 14.2867 80.9595 13.58C81.5462 12.86 81.8395 11.9333 81.8395 10.8C81.8395 10.1067 81.6929 9.47333 81.3995 8.9C81.1062 8.31333 80.7062 7.84667 80.1995 7.5C79.7062 7.14 79.1395 6.96 78.4995 6.96C77.4462 6.96 76.6262 7.30667 76.0395 8C75.4529 8.69333 75.1595 9.61333 75.1595 10.76C75.1595 11.4533 75.3062 12.1 75.5995 12.7C75.8929 13.2867 76.2862 13.76 76.7795 14.12C77.2862 14.4667 77.8595 14.64 78.4995 14.64ZM86.0727 16V5.6H87.8127V7.34C88.186 6.78 88.6593 6.31333 89.2327 5.94C89.8193 5.55333 90.5127 5.36 91.3127 5.36C92.486 5.36 93.3593 5.71333 93.9327 6.42C94.5193 7.12667 94.8127 8.06 94.8127 9.22V16H93.0127V9.42C93.0127 8.67333 92.8327 8.07333 92.4727 7.62C92.126 7.16667 91.6393 6.94 91.0127 6.94C90.3993 6.94 89.8193 7.16 89.2727 7.6C88.726 8.02667 88.2593 8.53333 87.8727 9.12V16H86.0727ZM101.889 16.24C101.022 16.24 100.235 16.02 99.5286 15.58C98.8219 15.14 98.2553 14.52 97.8286 13.72C97.4153 12.9067 97.2086 11.9533 97.2086 10.86C97.2086 9.82 97.4153 8.88667 97.8286 8.06C98.2553 7.23333 98.8353 6.58 99.5686 6.1C100.315 5.60667 101.169 5.36 102.129 5.36C102.729 5.36 103.269 5.46667 103.749 5.68C104.242 5.88 104.669 6.13333 105.029 6.44V5.6H106.669V13.48C106.669 13.9867 106.789 14.32 107.029 14.48C107.282 14.6267 107.555 14.7 107.849 14.7L107.469 16.1C106.189 16.1 105.415 15.58 105.149 14.54C104.842 14.9667 104.422 15.36 103.889 15.72C103.369 16.0667 102.702 16.24 101.889 16.24ZM102.289 14.64C102.795 14.64 103.275 14.52 103.729 14.28C104.182 14.0267 104.562 13.7133 104.869 13.34V7.76C104.509 7.50667 104.109 7.30667 103.669 7.16C103.242 7 102.789 6.92 102.309 6.92C101.669 6.92 101.102 7.08667 100.609 7.42C100.129 7.74 99.7486 8.19333 99.4686 8.78C99.1886 9.35333 99.0486 10.0267 99.0486 10.8C99.0486 11.5467 99.1886 12.2133 99.4686 12.8C99.7486 13.3733 100.135 13.8267 100.629 14.16C101.122 14.48 101.675 14.64 102.289 14.64ZM113.412 16.24C112.799 16.24 112.246 16.1267 111.752 15.9C111.259 15.66 110.866 15.28 110.572 14.76C110.292 14.24 110.152 13.5667 110.152 12.74V1.2H111.952V12.56C111.952 13.28 112.099 13.8133 112.392 14.16C112.699 14.5067 113.119 14.68 113.652 14.68C113.906 14.68 114.152 14.6533 114.392 14.6C114.646 14.5333 114.859 14.46 115.032 14.38L115.472 15.84C115.232 15.9467 114.932 16.04 114.572 16.12C114.226 16.2 113.839 16.24 113.412 16.24ZM118.166 9.96V8.32H124.966V9.96H118.166ZM134.139 16.24C133.059 16.24 132.099 15.96 131.259 15.4C130.419 14.84 129.759 14.0467 129.279 13.02C128.799 11.98 128.559 10.76 128.559 9.36C128.559 7.86667 128.812 6.55333 129.319 5.42C129.825 4.27333 130.552 3.38 131.499 2.74C132.459 2.08667 133.612 1.76 134.959 1.76C135.825 1.76 136.599 1.86667 137.279 2.08C137.959 2.29333 138.599 2.56667 139.199 2.9L138.499 4.48C137.939 4.17333 137.365 3.92 136.779 3.72C136.205 3.52 135.565 3.42 134.859 3.42C134.019 3.42 133.272 3.64667 132.619 4.1C131.965 4.54 131.445 5.19333 131.059 6.06C130.685 6.92667 130.499 7.98667 130.499 9.24C130.499 10.36 130.672 11.32 131.019 12.12C131.365 12.9067 131.845 13.5133 132.459 13.94C133.072 14.3667 133.779 14.58 134.579 14.58C135.325 14.58 135.985 14.4267 136.559 14.12C137.145 13.8 137.605 13.4733 137.939 13.14V10.08H135.039V8.58H139.739V16H138.059V14.6C137.592 15.0133 137.025 15.3933 136.359 15.74C135.692 16.0733 134.952 16.24 134.139 16.24ZM142.635 16V5.6H144.375V7.86C144.548 7.42 144.782 7.01333 145.075 6.64C145.368 6.25333 145.735 5.94667 146.175 5.72C146.615 5.48 147.128 5.36 147.715 5.36C147.915 5.36 148.115 5.37333 148.315 5.4C148.515 5.41333 148.682 5.44 148.815 5.48L148.275 7.34C148.022 7.23333 147.722 7.18 147.375 7.18C146.882 7.18 146.408 7.32 145.955 7.6C145.515 7.88 145.148 8.31333 144.855 8.9C144.575 9.48667 144.435 10.2333 144.435 11.14V16H142.635ZM153.998 16.24C153.131 16.24 152.345 16.02 151.638 15.58C150.931 15.14 150.365 14.52 149.938 13.72C149.525 12.9067 149.318 11.9533 149.318 10.86C149.318 9.82 149.525 8.88667 149.938 8.06C150.365 7.23333 150.945 6.58 151.678 6.1C152.425 5.60667 153.278 5.36 154.238 5.36C154.838 5.36 155.378 5.46667 155.858 5.68C156.351 5.88 156.778 6.13333 157.138 6.44V5.6H158.778V13.48C158.778 13.9867 158.898 14.32 159.138 14.48C159.391 14.6267 159.665 14.7 159.958 14.7L159.578 16.1C158.298 16.1 157.525 15.58 157.258 14.54C156.951 14.9667 156.531 15.36 155.998 15.72C155.478 16.0667 154.811 16.24 153.998 16.24ZM154.398 14.64C154.905 14.64 155.385 14.52 155.838 14.28C156.291 14.0267 156.671 13.7133 156.978 13.34V7.76C156.618 7.50667 156.218 7.30667 155.778 7.16C155.351 7 154.898 6.92 154.418 6.92C153.778 6.92 153.211 7.08667 152.718 7.42C152.238 7.74 151.858 8.19333 151.578 8.78C151.298 9.35333 151.158 10.0267 151.158 10.8C151.158 11.5467 151.298 12.2133 151.578 12.8C151.858 13.3733 152.245 13.8267 152.738 14.16C153.231 14.48 153.785 14.64 154.398 14.64ZM166.106 16.24C165.253 16.24 164.473 16.02 163.766 15.58C163.06 15.14 162.5 14.52 162.086 13.72C161.673 12.9067 161.466 11.9533 161.466 10.86C161.466 9.80667 161.673 8.86667 162.086 8.04C162.513 7.21333 163.073 6.56 163.766 6.08C164.473 5.6 165.246 5.36 166.086 5.36C166.78 5.36 167.373 5.5 167.866 5.78C168.373 6.06 168.766 6.34667 169.046 6.64V1.2H170.846V13.48C170.846 13.9867 170.966 14.32 171.206 14.48C171.46 14.6267 171.733 14.7 172.026 14.7L171.646 16.1C170.38 16.1 169.606 15.5933 169.326 14.58C169.033 14.9933 168.62 15.3733 168.086 15.72C167.566 16.0667 166.906 16.24 166.106 16.24ZM166.506 14.64C167 14.64 167.466 14.5267 167.906 14.3C168.36 14.06 168.74 13.7533 169.046 13.38V8.22C168.793 7.9 168.44 7.60667 167.986 7.34C167.533 7.06 167.033 6.92 166.486 6.92C165.846 6.92 165.286 7.09333 164.806 7.44C164.326 7.78667 163.953 8.25333 163.686 8.84C163.433 9.41333 163.306 10.0667 163.306 10.8C163.306 11.5333 163.446 12.1933 163.726 12.78C164.006 13.3533 164.386 13.8067 164.866 14.14C165.36 14.4733 165.906 14.64 166.506 14.64ZM178.397 16.24C176.903 16.24 175.717 15.7667 174.837 14.82C173.97 13.86 173.537 12.52 173.537 10.8C173.537 9.76 173.73 8.83333 174.117 8.02C174.517 7.19333 175.07 6.54667 175.777 6.08C176.483 5.6 177.303 5.36 178.237 5.36C179.237 5.36 180.063 5.58 180.717 6.02C181.383 6.44667 181.883 7.02667 182.217 7.76C182.55 8.49333 182.717 9.3 182.717 10.18C182.717 10.6467 182.697 11.1 182.657 11.54H175.377C175.497 12.5133 175.837 13.2733 176.397 13.82C176.957 14.3667 177.697 14.64 178.617 14.64C179.217 14.64 179.757 14.58 180.237 14.46C180.717 14.3267 181.177 14.16 181.617 13.96L182.037 15.5C181.557 15.7133 181.017 15.8867 180.417 16.02C179.817 16.1667 179.143 16.24 178.397 16.24ZM175.357 10.08H181.057C181.057 9.06667 180.803 8.28667 180.297 7.74C179.79 7.19333 179.09 6.92 178.197 6.92C177.423 6.92 176.783 7.19333 176.277 7.74C175.77 8.27333 175.463 9.05333 175.357 10.08ZM194.572 16V10.68L189.712 2.78L191.312 1.82L195.592 8.92L199.792 1.9L201.292 2.78L196.472 10.68V16H194.572ZM203.084 16V5.6H204.884V16H203.084ZM203.984 3.82C203.638 3.82 203.338 3.69333 203.084 3.44C202.844 3.18667 202.724 2.89333 202.724 2.56C202.724 2.17333 202.838 1.86667 203.064 1.64C203.291 1.41333 203.598 1.3 203.984 1.3C204.331 1.3 204.624 1.42667 204.864 1.68C205.118 1.92 205.244 2.21333 205.244 2.56C205.244 2.93333 205.131 3.24 204.904 3.48C204.678 3.70667 204.371 3.82 203.984 3.82ZM212.244 16.24C210.751 16.24 209.564 15.7667 208.684 14.82C207.818 13.86 207.384 12.52 207.384 10.8C207.384 9.76 207.578 8.83333 207.964 8.02C208.364 7.19333 208.918 6.54667 209.624 6.08C210.331 5.6 211.151 5.36 212.084 5.36C213.084 5.36 213.911 5.58 214.564 6.02C215.231 6.44667 215.731 7.02667 216.064 7.76C216.398 8.49333 216.564 9.3 216.564 10.18C216.564 10.6467 216.544 11.1 216.504 11.54H209.224C209.344 12.5133 209.684 13.2733 210.244 13.82C210.804 14.3667 211.544 14.64 212.464 14.64C213.064 14.64 213.604 14.58 214.084 14.46C214.564 14.3267 215.024 14.16 215.464 13.96L215.884 15.5C215.404 15.7133 214.864 15.8867 214.264 16.02C213.664 16.1667 212.991 16.24 212.244 16.24ZM209.204 10.08H214.904C214.904 9.06667 214.651 8.28667 214.144 7.74C213.638 7.19333 212.938 6.92 212.044 6.92C211.271 6.92 210.631 7.19333 210.124 7.74C209.618 8.27333 209.311 9.05333 209.204 10.08ZM222.123 16.24C221.51 16.24 220.957 16.1267 220.463 15.9C219.97 15.66 219.577 15.28 219.283 14.76C219.003 14.24 218.863 13.5667 218.863 12.74V1.2H220.663V12.56C220.663 13.28 220.81 13.8133 221.103 14.16C221.41 14.5067 221.83 14.68 222.363 14.68C222.617 14.68 222.863 14.6533 223.103 14.6C223.357 14.5333 223.57 14.46 223.743 14.38L224.183 15.84C223.943 15.9467 223.643 16.04 223.283 16.12C222.937 16.2 222.55 16.24 222.123 16.24ZM229.524 16.24C228.671 16.24 227.891 16.02 227.184 15.58C226.478 15.14 225.918 14.52 225.504 13.72C225.091 12.9067 224.884 11.9533 224.884 10.86C224.884 9.80667 225.091 8.86667 225.504 8.04C225.931 7.21333 226.491 6.56 227.184 6.08C227.891 5.6 228.664 5.36 229.504 5.36C230.198 5.36 230.791 5.5 231.284 5.78C231.791 6.06 232.184 6.34667 232.464 6.64V1.2H234.264V13.48C234.264 13.9867 234.384 14.32 234.624 14.48C234.878 14.6267 235.151 14.7 235.444 14.7L235.064 16.1C233.798 16.1 233.024 15.5933 232.744 14.58C232.451 14.9933 232.038 15.3733 231.504 15.72C230.984 16.0667 230.324 16.24 229.524 16.24ZM229.924 14.64C230.418 14.64 230.884 14.5267 231.324 14.3C231.778 14.06 232.158 13.7533 232.464 13.38V8.22C232.211 7.9 231.858 7.60667 231.404 7.34C230.951 7.06 230.451 6.92 229.904 6.92C229.264 6.92 228.704 7.09333 228.224 7.44C227.744 7.78667 227.371 8.25333 227.104 8.84C226.851 9.41333 226.724 10.0667 226.724 10.8C226.724 11.5333 226.864 12.1933 227.144 12.78C227.424 13.3533 227.804 13.8067 228.284 14.14C228.778 14.4733 229.324 14.64 229.924 14.64ZM247.526 16.24C246.553 16.24 245.666 16.1133 244.866 15.86C244.066 15.5933 243.393 15.2467 242.846 14.82L243.806 13.22C244.286 13.62 244.826 13.9467 245.426 14.2C246.026 14.4533 246.726 14.58 247.526 14.58C248.486 14.58 249.246 14.38 249.806 13.98C250.366 13.58 250.646 13.04 250.646 12.36C250.646 11.9733 250.566 11.6333 250.406 11.34C250.246 11.0333 249.933 10.74 249.466 10.46C249.013 10.1667 248.339 9.85333 247.446 9.52C246.486 9.14667 245.719 8.77333 245.146 8.4C244.573 8.01333 244.159 7.58 243.906 7.1C243.666 6.60667 243.546 6.02667 243.546 5.36C243.546 4.69333 243.726 4.09333 244.086 3.56C244.459 3.01333 244.999 2.58 245.706 2.26C246.426 1.92667 247.293 1.76 248.306 1.76C249.133 1.76 249.873 1.84667 250.526 2.02C251.193 2.18 251.839 2.41333 252.466 2.72L251.766 4.34C251.313 4.07333 250.779 3.85333 250.166 3.68C249.566 3.49333 248.933 3.4 248.266 3.4C247.386 3.4 246.693 3.57333 246.186 3.92C245.679 4.26667 245.426 4.71333 245.426 5.26C245.426 5.60667 245.499 5.91333 245.646 6.18C245.793 6.44667 246.079 6.70667 246.506 6.96C246.946 7.21333 247.599 7.5 248.466 7.82C249.506 8.20667 250.326 8.61333 250.926 9.04C251.539 9.46667 251.973 9.93333 252.226 10.44C252.479 10.9333 252.606 11.5 252.606 12.14C252.606 13.0067 252.386 13.7467 251.946 14.36C251.519 14.9733 250.919 15.44 250.146 15.76C249.386 16.08 248.513 16.24 247.526 16.24ZM259.593 16.24C258.607 16.24 257.72 16.0133 256.933 15.56C256.147 15.0933 255.527 14.4533 255.073 13.64C254.633 12.8133 254.413 11.8667 254.413 10.8C254.413 9.68 254.64 8.71333 255.093 7.9C255.547 7.08667 256.167 6.46 256.953 6.02C257.74 5.58 258.62 5.36 259.593 5.36C260.567 5.36 261.44 5.58 262.213 6.02C263 6.46 263.62 7.08667 264.073 7.9C264.54 8.7 264.773 9.65333 264.773 10.76C264.773 11.8667 264.547 12.8333 264.093 13.66C263.64 14.4733 263.02 15.1067 262.233 15.56C261.46 16.0133 260.58 16.24 259.593 16.24ZM259.593 14.64C260.647 14.64 261.467 14.2867 262.053 13.58C262.64 12.86 262.933 11.9333 262.933 10.8C262.933 10.1067 262.787 9.47333 262.493 8.9C262.2 8.31333 261.8 7.84667 261.293 7.5C260.8 7.14 260.233 6.96 259.593 6.96C258.54 6.96 257.72 7.30667 257.133 8C256.547 8.69333 256.253 9.61333 256.253 10.76C256.253 11.4533 256.4 12.1 256.693 12.7C256.987 13.2867 257.38 13.76 257.873 14.12C258.38 14.4667 258.953 14.64 259.593 14.64ZM270.326 16.24C269.713 16.24 269.16 16.1267 268.666 15.9C268.173 15.66 267.78 15.28 267.486 14.76C267.206 14.24 267.066 13.5667 267.066 12.74V1.2H268.866V12.56C268.866 13.28 269.013 13.8133 269.306 14.16C269.613 14.5067 270.033 14.68 270.566 14.68C270.82 14.68 271.066 14.6533 271.306 14.6C271.56 14.5333 271.773 14.46 271.946 14.38L272.386 15.84C272.146 15.9467 271.846 16.04 271.486 16.12C271.14 16.2 270.753 16.24 270.326 16.24ZM277.188 16.24C276.588 16.24 276.021 16.1133 275.488 15.86C274.954 15.6067 274.521 15.2 274.188 14.64C273.854 14.0667 273.688 13.3067 273.688 12.36V5.6H275.488V12.12C275.488 12.9333 275.661 13.56 276.008 14C276.354 14.4267 276.861 14.64 277.528 14.64C278.074 14.64 278.601 14.5333 279.108 14.32C279.628 14.0933 280.088 13.7933 280.488 13.42V5.6H282.287V13.3C282.287 13.8733 282.407 14.2533 282.648 14.44C282.901 14.6133 283.174 14.7 283.468 14.7L283.088 16.1C281.848 16.1 281.081 15.6067 280.788 14.62C280.321 15.1 279.781 15.4933 279.168 15.8C278.554 16.0933 277.894 16.24 277.188 16.24ZM289.498 16.24C288.498 16.24 287.704 15.9133 287.118 15.26C286.544 14.5933 286.258 13.6467 286.258 12.42V7.54H284.458V5.98H286.298L286.678 2.7H288.058V5.98H290.938V7.54H288.058V12.56C288.058 13.3333 288.218 13.8733 288.538 14.18C288.871 14.4867 289.264 14.64 289.718 14.64C290.051 14.64 290.364 14.5867 290.658 14.48C290.964 14.3733 291.244 14.2467 291.498 14.1L291.998 15.54C291.731 15.7 291.371 15.8533 290.918 16C290.464 16.16 289.991 16.24 289.498 16.24ZM293.807 16V5.6H295.607V16H293.807ZM294.707 3.82C294.36 3.82 294.06 3.69333 293.807 3.44C293.567 3.18667 293.447 2.89333 293.447 2.56C293.447 2.17333 293.56 1.86667 293.787 1.64C294.014 1.41333 294.32 1.3 294.707 1.3C295.054 1.3 295.347 1.42667 295.587 1.68C295.84 1.92 295.967 2.21333 295.967 2.56C295.967 2.93333 295.854 3.24 295.627 3.48C295.4 3.70667 295.094 3.82 294.707 3.82ZM303.187 16.24C302.2 16.24 301.314 16.0133 300.527 15.56C299.74 15.0933 299.12 14.4533 298.667 13.64C298.227 12.8133 298.007 11.8667 298.007 10.8C298.007 9.68 298.234 8.71333 298.687 7.9C299.14 7.08667 299.76 6.46 300.547 6.02C301.334 5.58 302.214 5.36 303.187 5.36C304.16 5.36 305.034 5.58 305.807 6.02C306.594 6.46 307.214 7.08667 307.667 7.9C308.134 8.7 308.367 9.65333 308.367 10.76C308.367 11.8667 308.14 12.8333 307.687 13.66C307.234 14.4733 306.614 15.1067 305.827 15.56C305.054 16.0133 304.174 16.24 303.187 16.24ZM303.187 14.64C304.24 14.64 305.06 14.2867 305.647 13.58C306.234 12.86 306.527 11.9333 306.527 10.8C306.527 10.1067 306.38 9.47333 306.087 8.9C305.794 8.31333 305.394 7.84667 304.887 7.5C304.394 7.14 303.827 6.96 303.187 6.96C302.134 6.96 301.314 7.30667 300.727 8C300.14 8.69333 299.847 9.61333 299.847 10.76C299.847 11.4533 299.994 12.1 300.287 12.7C300.58 13.2867 300.974 13.76 301.467 14.12C301.974 14.4667 302.547 14.64 303.187 14.64ZM310.76 16V5.6H312.5V7.34C312.873 6.78 313.347 6.31333 313.92 5.94C314.507 5.55333 315.2 5.36 316 5.36C317.173 5.36 318.047 5.71333 318.62 6.42C319.207 7.12667 319.5 8.06 319.5 9.22V16H317.7V9.42C317.7 8.67333 317.52 8.07333 317.16 7.62C316.813 7.16667 316.327 6.94 315.7 6.94C315.087 6.94 314.507 7.16 313.96 7.6C313.413 8.02667 312.947 8.53333 312.56 9.12V16H310.76ZM325.396 16.24C324.609 16.24 323.896 16.14 323.256 15.94C322.629 15.74 322.109 15.48 321.696 15.16L322.456 13.66C322.803 13.9533 323.236 14.2 323.756 14.4C324.289 14.5867 324.856 14.68 325.456 14.68C326.203 14.68 326.763 14.56 327.136 14.32C327.523 14.0667 327.716 13.7467 327.716 13.36C327.716 13.08 327.643 12.8333 327.496 12.62C327.363 12.4067 327.109 12.2 326.736 12C326.363 11.7867 325.823 11.56 325.116 11.32C324.143 10.9867 323.409 10.5933 322.916 10.14C322.436 9.67333 322.196 9.03333 322.196 8.22C322.196 7.42 322.543 6.74667 323.236 6.2C323.943 5.64 324.916 5.36 326.156 5.36C326.823 5.36 327.416 5.43333 327.936 5.58C328.456 5.71333 328.923 5.88667 329.336 6.1L328.836 7.58C328.476 7.36667 328.063 7.19333 327.596 7.06C327.143 6.92667 326.636 6.86 326.076 6.86C325.383 6.86 324.856 7 324.496 7.28C324.136 7.56 323.956 7.86667 323.956 8.2C323.956 8.52 324.096 8.79333 324.376 9.02C324.656 9.24667 325.203 9.49333 326.016 9.76C327.336 10.2 328.256 10.6867 328.776 11.22C329.296 11.7533 329.556 12.42 329.556 13.22C329.556 14.1533 329.176 14.8933 328.416 15.44C327.669 15.9733 326.663 16.24 325.396 16.24ZM338.148 16V7.54H336.548V5.98H338.148V4.76C338.148 3.58667 338.474 2.66 339.128 1.98C339.781 1.3 340.634 0.959999 341.688 0.959999C342.234 0.959999 342.714 1.02667 343.128 1.16C343.541 1.28 343.934 1.43333 344.308 1.62L343.768 3.14C343.488 2.99333 343.188 2.86 342.868 2.74C342.548 2.62 342.194 2.56 341.808 2.56C341.248 2.56 340.794 2.74 340.448 3.1C340.114 3.44667 339.948 3.96 339.948 4.64V5.98H343.028V7.54H339.948V16H338.148ZM348.988 16.24C348.001 16.24 347.114 16.0133 346.328 15.56C345.541 15.0933 344.921 14.4533 344.468 13.64C344.028 12.8133 343.808 11.8667 343.808 10.8C343.808 9.68 344.034 8.71333 344.488 7.9C344.941 7.08667 345.561 6.46 346.348 6.02C347.134 5.58 348.014 5.36 348.988 5.36C349.961 5.36 350.834 5.58 351.608 6.02C352.394 6.46 353.014 7.08667 353.468 7.9C353.934 8.7 354.168 9.65333 354.168 10.76C354.168 11.8667 353.941 12.8333 353.488 13.66C353.034 14.4733 352.414 15.1067 351.628 15.56C350.854 16.0133 349.974 16.24 348.988 16.24ZM348.988 14.64C350.041 14.64 350.861 14.2867 351.448 13.58C352.034 12.86 352.328 11.9333 352.328 10.8C352.328 10.1067 352.181 9.47333 351.888 8.9C351.594 8.31333 351.194 7.84667 350.688 7.5C350.194 7.14 349.628 6.96 348.988 6.96C347.934 6.96 347.114 7.30667 346.528 8C345.941 8.69333 345.648 9.61333 345.648 10.76C345.648 11.4533 345.794 12.1 346.088 12.7C346.381 13.2867 346.774 13.76 347.268 14.12C347.774 14.4667 348.348 14.64 348.988 14.64ZM356.561 16V5.6H358.301V7.86C358.474 7.42 358.708 7.01333 359.001 6.64C359.294 6.25333 359.661 5.94667 360.101 5.72C360.541 5.48 361.054 5.36 361.641 5.36C361.841 5.36 362.041 5.37333 362.241 5.4C362.441 5.41333 362.608 5.44 362.741 5.48L362.201 7.34C361.948 7.23333 361.648 7.18 361.301 7.18C360.808 7.18 360.334 7.32 359.881 7.6C359.441 7.88 359.074 8.31333 358.781 8.9C358.501 9.48667 358.361 10.2333 358.361 11.14V16H356.561ZM378.905 16.24L377.165 12.44C376.725 11.4933 376.172 10.82 375.505 10.42C374.839 10.02 373.985 9.82 372.945 9.82H372.645V16H370.745V2.04C371.452 1.97333 372.125 1.92667 372.765 1.9C373.419 1.86 374.112 1.84 374.845 1.84C376.552 1.84 377.832 2.18667 378.685 2.88C379.552 3.57333 379.985 4.46667 379.985 5.56C379.985 6.53333 379.692 7.32 379.105 7.92C378.532 8.50667 377.699 8.94667 376.605 9.24C376.965 9.4 377.285 9.59333 377.565 9.82C377.845 10.0333 378.112 10.3267 378.365 10.7C378.632 11.06 378.899 11.5333 379.165 12.12L380.685 15.4L378.905 16.24ZM372.645 8.22H374.845C375.805 8.22 376.585 8.00667 377.185 7.58C377.785 7.15333 378.085 6.54 378.085 5.74C378.085 5.07333 377.805 4.52667 377.245 4.1C376.685 3.66 375.885 3.44 374.845 3.44C374.392 3.44 373.985 3.44667 373.625 3.46C373.265 3.47333 372.939 3.49333 372.645 3.52V8.22ZM387.049 16.24C385.556 16.24 384.369 15.7667 383.489 14.82C382.622 13.86 382.189 12.52 382.189 10.8C382.189 9.76 382.382 8.83333 382.769 8.02C383.169 7.19333 383.722 6.54667 384.429 6.08C385.136 5.6 385.956 5.36 386.889 5.36C387.889 5.36 388.716 5.58 389.369 6.02C390.036 6.44667 390.536 7.02667 390.869 7.76C391.202 8.49333 391.369 9.3 391.369 10.18C391.369 10.6467 391.349 11.1 391.309 11.54H384.029C384.149 12.5133 384.489 13.2733 385.049 13.82C385.609 14.3667 386.349 14.64 387.269 14.64C387.869 14.64 388.409 14.58 388.889 14.46C389.369 14.3267 389.829 14.16 390.269 13.96L390.689 15.5C390.209 15.7133 389.669 15.8867 389.069 16.02C388.469 16.1667 387.796 16.24 387.049 16.24ZM384.009 10.08H389.709C389.709 9.06667 389.456 8.28667 388.949 7.74C388.442 7.19333 387.742 6.92 386.849 6.92C386.076 6.92 385.436 7.19333 384.929 7.74C384.422 8.27333 384.116 9.05333 384.009 10.08ZM397.748 16.24C396.881 16.24 396.095 16.02 395.388 15.58C394.681 15.14 394.115 14.52 393.688 13.72C393.275 12.9067 393.068 11.9533 393.068 10.86C393.068 9.82 393.275 8.88667 393.688 8.06C394.115 7.23333 394.695 6.58 395.428 6.1C396.175 5.60667 397.028 5.36 397.988 5.36C398.588 5.36 399.128 5.46667 399.608 5.68C400.101 5.88 400.528 6.13333 400.888 6.44V5.6H402.528V13.48C402.528 13.9867 402.648 14.32 402.888 14.48C403.141 14.6267 403.415 14.7 403.708 14.7L403.328 16.1C402.048 16.1 401.275 15.58 401.008 14.54C400.701 14.9667 400.281 15.36 399.748 15.72C399.228 16.0667 398.561 16.24 397.748 16.24ZM398.148 14.64C398.655 14.64 399.135 14.52 399.588 14.28C400.041 14.0267 400.421 13.7133 400.728 13.34V7.76C400.368 7.50667 399.968 7.30667 399.528 7.16C399.101 7 398.648 6.92 398.168 6.92C397.528 6.92 396.961 7.08667 396.468 7.42C395.988 7.74 395.608 8.19333 395.328 8.78C395.048 9.35333 394.908 10.0267 394.908 10.8C394.908 11.5467 395.048 12.2133 395.328 12.8C395.608 13.3733 395.995 13.8267 396.488 14.16C396.981 14.48 397.535 14.64 398.148 14.64ZM409.272 16.24C408.658 16.24 408.105 16.1267 407.612 15.9C407.118 15.66 406.725 15.28 406.432 14.76C406.152 14.24 406.012 13.5667 406.012 12.74V1.2H407.812V12.56C407.812 13.28 407.958 13.8133 408.252 14.16C408.558 14.5067 408.978 14.68 409.512 14.68C409.765 14.68 410.012 14.6533 410.252 14.6C410.505 14.5333 410.718 14.46 410.892 14.38L411.332 15.84C411.092 15.9467 410.792 16.04 410.432 16.12C410.085 16.2 409.698 16.24 409.272 16.24ZM421.522 16L417.722 2.46L419.602 1.86L422.762 13.98L425.742 3.46H428.122L431.082 13.98L434.222 1.92L435.982 2.46L432.202 16H429.842L426.882 5.48L423.882 16H421.522ZM441.664 16.24C440.677 16.24 439.79 16.0133 439.004 15.56C438.217 15.0933 437.597 14.4533 437.144 13.64C436.704 12.8133 436.484 11.8667 436.484 10.8C436.484 9.68 436.71 8.71333 437.164 7.9C437.617 7.08667 438.237 6.46 439.024 6.02C439.81 5.58 440.69 5.36 441.664 5.36C442.637 5.36 443.51 5.58 444.284 6.02C445.07 6.46 445.69 7.08667 446.144 7.9C446.61 8.7 446.844 9.65333 446.844 10.76C446.844 11.8667 446.617 12.8333 446.164 13.66C445.71 14.4733 445.09 15.1067 444.304 15.56C443.53 16.0133 442.65 16.24 441.664 16.24ZM441.664 14.64C442.717 14.64 443.537 14.2867 444.124 13.58C444.71 12.86 445.004 11.9333 445.004 10.8C445.004 10.1067 444.857 9.47333 444.564 8.9C444.27 8.31333 443.87 7.84667 443.364 7.5C442.87 7.14 442.304 6.96 441.664 6.96C440.61 6.96 439.79 7.30667 439.204 8C438.617 8.69333 438.324 9.61333 438.324 10.76C438.324 11.4533 438.47 12.1 438.764 12.7C439.057 13.2867 439.45 13.76 439.944 14.12C440.45 14.4667 441.024 14.64 441.664 14.64ZM449.237 16V5.6H450.977V7.86C451.15 7.42 451.383 7.01333 451.677 6.64C451.97 6.25333 452.337 5.94667 452.777 5.72C453.217 5.48 453.73 5.36 454.317 5.36C454.517 5.36 454.717 5.37333 454.917 5.4C455.117 5.41333 455.283 5.44 455.417 5.48L454.877 7.34C454.623 7.23333 454.323 7.18 453.977 7.18C453.483 7.18 453.01 7.32 452.557 7.6C452.117 7.88 451.75 8.31333 451.457 8.9C451.177 9.48667 451.037 10.2333 451.037 11.14V16H449.237ZM460.385 16.24C459.772 16.24 459.218 16.1267 458.725 15.9C458.232 15.66 457.838 15.28 457.545 14.76C457.265 14.24 457.125 13.5667 457.125 12.74V1.2H458.925V12.56C458.925 13.28 459.072 13.8133 459.365 14.16C459.672 14.5067 460.092 14.68 460.625 14.68C460.878 14.68 461.125 14.6533 461.365 14.6C461.618 14.5333 461.832 14.46 462.005 14.38L462.445 15.84C462.205 15.9467 461.905 16.04 461.545 16.12C461.198 16.2 460.812 16.24 460.385 16.24ZM467.786 16.24C466.933 16.24 466.153 16.02 465.446 15.58C464.739 15.14 464.179 14.52 463.766 13.72C463.353 12.9067 463.146 11.9533 463.146 10.86C463.146 9.80667 463.353 8.86667 463.766 8.04C464.193 7.21333 464.753 6.56 465.446 6.08C466.153 5.6 466.926 5.36 467.766 5.36C468.459 5.36 469.053 5.5 469.546 5.78C470.053 6.06 470.446 6.34667 470.726 6.64V1.2H472.526V13.48C472.526 13.9867 472.646 14.32 472.886 14.48C473.139 14.6267 473.413 14.7 473.706 14.7L473.326 16.1C472.059 16.1 471.286 15.5933 471.006 14.58C470.713 14.9933 470.299 15.3733 469.766 15.72C469.246 16.0667 468.586 16.24 467.786 16.24ZM468.186 14.64C468.679 14.64 469.146 14.5267 469.586 14.3C470.039 14.06 470.419 13.7533 470.726 13.38V8.22C470.473 7.9 470.119 7.60667 469.666 7.34C469.213 7.06 468.713 6.92 468.166 6.92C467.526 6.92 466.966 7.09333 466.486 7.44C466.006 7.78667 465.633 8.25333 465.366 8.84C465.113 9.41333 464.986 10.0667 464.986 10.8C464.986 11.5333 465.126 12.1933 465.406 12.78C465.686 13.3533 466.066 13.8067 466.546 14.14C467.039 14.4733 467.586 14.64 468.186 14.64ZM11.42 44.2L9.86 40.2H3.38L1.82 44.16L0.2 43.5L5.68 30H7.76L13.16 43.5L11.42 44.2ZM3.98 38.6H9.24L6.62 31.88L3.98 38.6ZM17.7594 44.24C16.9727 44.24 16.2594 44.14 15.6194 43.94C14.9927 43.74 14.4727 43.48 14.0594 43.16L14.8194 41.66C15.166 41.9533 15.5994 42.2 16.1194 42.4C16.6527 42.5867 17.2194 42.68 17.8194 42.68C18.566 42.68 19.126 42.56 19.4994 42.32C19.886 42.0667 20.0794 41.7467 20.0794 41.36C20.0794 41.08 20.006 40.8333 19.8594 40.62C19.726 40.4067 19.4727 40.2 19.0994 40C18.726 39.7867 18.186 39.56 17.4794 39.32C16.506 38.9867 15.7727 38.5933 15.2794 38.14C14.7994 37.6733 14.5594 37.0333 14.5594 36.22C14.5594 35.42 14.906 34.7467 15.5994 34.2C16.306 33.64 17.2794 33.36 18.5194 33.36C19.186 33.36 19.7794 33.4333 20.2994 33.58C20.8194 33.7133 21.286 33.8867 21.6994 34.1L21.1994 35.58C20.8394 35.3667 20.426 35.1933 19.9594 35.06C19.506 34.9267 18.9994 34.86 18.4394 34.86C17.746 34.86 17.2194 35 16.8594 35.28C16.4994 35.56 16.3194 35.8667 16.3194 36.2C16.3194 36.52 16.4594 36.7933 16.7394 37.02C17.0194 37.2467 17.566 37.4933 18.3794 37.76C19.6994 38.2 20.6194 38.6867 21.1394 39.22C21.6594 39.7533 21.9194 40.42 21.9194 41.22C21.9194 42.1533 21.5394 42.8933 20.7794 43.44C20.0327 43.9733 19.026 44.24 17.7594 44.24ZM27.1148 44.24C26.3282 44.24 25.6148 44.14 24.9748 43.94C24.3482 43.74 23.8282 43.48 23.4148 43.16L24.1748 41.66C24.5215 41.9533 24.9548 42.2 25.4748 42.4C26.0082 42.5867 26.5748 42.68 27.1748 42.68C27.9215 42.68 28.4815 42.56 28.8548 42.32C29.2415 42.0667 29.4348 41.7467 29.4348 41.36C29.4348 41.08 29.3615 40.8333 29.2148 40.62C29.0815 40.4067 28.8282 40.2 28.4548 40C28.0815 39.7867 27.5415 39.56 26.8348 39.32C25.8615 38.9867 25.1282 38.5933 24.6348 38.14C24.1548 37.6733 23.9148 37.0333 23.9148 36.22C23.9148 35.42 24.2615 34.7467 24.9548 34.2C25.6615 33.64 26.6348 33.36 27.8748 33.36C28.5415 33.36 29.1348 33.4333 29.6548 33.58C30.1748 33.7133 30.6415 33.8867 31.0548 34.1L30.5548 35.58C30.1948 35.3667 29.7815 35.1933 29.3148 35.06C28.8615 34.9267 28.3548 34.86 27.7948 34.86C27.1015 34.86 26.5748 35 26.2148 35.28C25.8548 35.56 25.6748 35.8667 25.6748 36.2C25.6748 36.52 25.8148 36.7933 26.0948 37.02C26.3748 37.2467 26.9215 37.4933 27.7348 37.76C29.0548 38.2 29.9748 38.6867 30.4948 39.22C31.0148 39.7533 31.2748 40.42 31.2748 41.22C31.2748 42.1533 30.8948 42.8933 30.1348 43.44C29.3882 43.9733 28.3815 44.24 27.1148 44.24ZM37.8303 44.24C36.337 44.24 35.1503 43.7667 34.2703 42.82C33.4036 41.86 32.9703 40.52 32.9703 38.8C32.9703 37.76 33.1636 36.8333 33.5503 36.02C33.9503 35.1933 34.5036 34.5467 35.2103 34.08C35.917 33.6 36.737 33.36 37.6703 33.36C38.6703 33.36 39.497 33.58 40.1503 34.02C40.817 34.4467 41.317 35.0267 41.6503 35.76C41.9836 36.4933 42.1503 37.3 42.1503 38.18C42.1503 38.6467 42.1303 39.1 42.0903 39.54H34.8103C34.9303 40.5133 35.2703 41.2733 35.8303 41.82C36.3903 42.3667 37.1303 42.64 38.0503 42.64C38.6503 42.64 39.1903 42.58 39.6703 42.46C40.1503 42.3267 40.6103 42.16 41.0503 41.96L41.4703 43.5C40.9903 43.7133 40.4503 43.8867 39.8503 44.02C39.2503 44.1667 38.577 44.24 37.8303 44.24ZM34.7903 38.08H40.4903C40.4903 37.0667 40.237 36.2867 39.7303 35.74C39.2236 35.1933 38.5236 34.92 37.6303 34.92C36.857 34.92 36.217 35.1933 35.7103 35.74C35.2036 36.2733 34.897 37.0533 34.7903 38.08ZM48.1892 44.24C47.1892 44.24 46.3959 43.9133 45.8092 43.26C45.2359 42.5933 44.9492 41.6467 44.9492 40.42V35.54H43.1492V33.98H44.9892L45.3692 30.7H46.7492V33.98H49.6292V35.54H46.7492V40.56C46.7492 41.3333 46.9092 41.8733 47.2292 42.18C47.5626 42.4867 47.9559 42.64 48.4092 42.64C48.7426 42.64 49.0559 42.5867 49.3492 42.48C49.6559 42.3733 49.9359 42.2467 50.1892 42.1L50.6892 43.54C50.4226 43.7 50.0626 43.8533 49.6092 44C49.1559 44.16 48.6826 44.24 48.1892 44.24ZM55.4938 44.24C54.7071 44.24 53.9938 44.14 53.3538 43.94C52.7271 43.74 52.2071 43.48 51.7938 43.16L52.5538 41.66C52.9004 41.9533 53.3338 42.2 53.8538 42.4C54.3871 42.5867 54.9538 42.68 55.5538 42.68C56.3004 42.68 56.8604 42.56 57.2338 42.32C57.6204 42.0667 57.8138 41.7467 57.8138 41.36C57.8138 41.08 57.7404 40.8333 57.5938 40.62C57.4604 40.4067 57.2071 40.2 56.8338 40C56.4604 39.7867 55.9204 39.56 55.2138 39.32C54.2404 38.9867 53.5071 38.5933 53.0138 38.14C52.5338 37.6733 52.2938 37.0333 52.2938 36.22C52.2938 35.42 52.6404 34.7467 53.3338 34.2C54.0404 33.64 55.0138 33.36 56.2538 33.36C56.9204 33.36 57.5138 33.4333 58.0338 33.58C58.5538 33.7133 59.0204 33.8867 59.4338 34.1L58.9338 35.58C58.5738 35.3667 58.1604 35.1933 57.6938 35.06C57.2404 34.9267 56.7338 34.86 56.1738 34.86C55.4804 34.86 54.9538 35 54.5938 35.28C54.2338 35.56 54.0538 35.8667 54.0538 36.2C54.0538 36.52 54.1938 36.7933 54.4738 37.02C54.7538 37.2467 55.3004 37.4933 56.1138 37.76C57.4338 38.2 58.3538 38.6867 58.8738 39.22C59.3938 39.7533 59.6538 40.42 59.6538 41.22C59.6538 42.1533 59.2738 42.8933 58.5138 43.44C57.7671 43.9733 56.7604 44.24 55.4938 44.24ZM63.4492 44.24C63.0892 44.24 62.7759 44.1067 62.5092 43.84C62.2426 43.5733 62.1092 43.26 62.1092 42.9C62.1092 42.4867 62.2292 42.16 62.4692 41.92C62.7092 41.68 63.0359 41.56 63.4492 41.56C63.7959 41.56 64.1026 41.6933 64.3692 41.96C64.6492 42.2267 64.7892 42.54 64.7892 42.9C64.7892 43.3 64.6626 43.6267 64.4092 43.88C64.1559 44.12 63.8359 44.24 63.4492 44.24ZM72.0316 44.24C70.4182 44.24 69.1516 43.76 68.2316 42.8C67.3116 41.84 66.8516 40.4667 66.8516 38.68V30H68.7516V38.38C68.7516 39.7133 69.0249 40.7467 69.5716 41.48C70.1182 42.2133 70.9382 42.58 72.0316 42.58C73.1649 42.58 74.0116 42.2267 74.5716 41.52C75.1316 40.8 75.4116 39.7533 75.4116 38.38V30H77.2516V38.6C77.2516 39.7733 77.0316 40.7867 76.5916 41.64C76.1649 42.48 75.5582 43.1267 74.7716 43.58C73.9982 44.02 73.0849 44.24 72.0316 44.24ZM80.35 44V33.6H82.09V35.34C82.4633 34.78 82.9367 34.3133 83.51 33.94C84.0967 33.5533 84.79 33.36 85.59 33.36C86.7633 33.36 87.6367 33.7133 88.21 34.42C88.7967 35.1267 89.09 36.06 89.09 37.22V44H87.29V37.42C87.29 36.6733 87.11 36.0733 86.75 35.62C86.4033 35.1667 85.9167 34.94 85.29 34.94C84.6767 34.94 84.0967 35.16 83.55 35.6C83.0033 36.0267 82.5367 36.5333 82.15 37.12V44H80.35ZM95.3459 44.24C94.7326 44.24 94.1793 44.1267 93.6859 43.9C93.1926 43.66 92.7993 43.28 92.5059 42.76C92.2259 42.24 92.0859 41.5667 92.0859 40.74V29.2H93.8859V40.56C93.8859 41.28 94.0326 41.8133 94.3259 42.16C94.6326 42.5067 95.0526 42.68 95.5859 42.68C95.8393 42.68 96.0859 42.6533 96.3259 42.6C96.5793 42.5333 96.7926 42.46 96.9659 42.38L97.4059 43.84C97.1659 43.9467 96.8659 44.04 96.5059 44.12C96.1593 44.2 95.7726 44.24 95.3459 44.24ZM103.187 44.24C102.2 44.24 101.314 44.0133 100.527 43.56C99.7404 43.0933 99.1204 42.4533 98.667 41.64C98.227 40.8133 98.007 39.8667 98.007 38.8C98.007 37.68 98.2337 36.7133 98.687 35.9C99.1404 35.0867 99.7604 34.46 100.547 34.02C101.334 33.58 102.214 33.36 103.187 33.36C104.16 33.36 105.034 33.58 105.807 34.02C106.594 34.46 107.214 35.0867 107.667 35.9C108.134 36.7 108.367 37.6533 108.367 38.76C108.367 39.8667 108.14 40.8333 107.687 41.66C107.234 42.4733 106.614 43.1067 105.827 43.56C105.054 44.0133 104.174 44.24 103.187 44.24ZM103.187 42.64C104.24 42.64 105.06 42.2867 105.647 41.58C106.234 40.86 106.527 39.9333 106.527 38.8C106.527 38.1067 106.38 37.4733 106.087 36.9C105.794 36.3133 105.394 35.8467 104.887 35.5C104.394 35.14 103.827 34.96 103.187 34.96C102.134 34.96 101.314 35.3067 100.727 36C100.14 36.6933 99.847 37.6133 99.847 38.76C99.847 39.4533 99.9937 40.1 100.287 40.7C100.58 41.2867 100.974 41.76 101.467 42.12C101.974 42.4667 102.547 42.64 103.187 42.64ZM114.96 44.24C113.973 44.24 113.107 44.0133 112.36 43.56C111.627 43.0933 111.06 42.4533 110.66 41.64C110.26 40.8133 110.06 39.8667 110.06 38.8C110.06 37.8 110.26 36.8867 110.66 36.06C111.073 35.2333 111.66 34.58 112.42 34.1C113.18 33.6067 114.073 33.36 115.1 33.36C115.687 33.36 116.2 33.4133 116.64 33.52C117.093 33.6267 117.527 33.78 117.94 33.98L117.4 35.5C117.027 35.3133 116.667 35.18 116.32 35.1C115.987 35.0067 115.613 34.96 115.2 34.96C114.267 34.96 113.48 35.3 112.84 35.98C112.213 36.6467 111.9 37.5733 111.9 38.76C111.9 39.48 112.033 40.1333 112.3 40.72C112.567 41.3067 112.933 41.7733 113.4 42.12C113.88 42.4667 114.44 42.64 115.08 42.64C115.587 42.64 116.02 42.5867 116.38 42.48C116.74 42.36 117.127 42.1933 117.54 41.98L118.1 43.5C117.687 43.7267 117.22 43.9067 116.7 44.04C116.193 44.1733 115.613 44.24 114.96 44.24ZM127.374 44.2L121.994 38.66V44H120.194V29.2H121.994V37.66L126.694 33.4L127.734 34.54L123.714 38.1L128.614 43L127.374 44.2ZM140.785 44.24C139.798 44.24 138.911 44.0133 138.125 43.56C137.338 43.0933 136.718 42.4533 136.265 41.64C135.825 40.8133 135.605 39.8667 135.605 38.8C135.605 37.68 135.831 36.7133 136.285 35.9C136.738 35.0867 137.358 34.46 138.145 34.02C138.931 33.58 139.811 33.36 140.785 33.36C141.758 33.36 142.631 33.58 143.405 34.02C144.191 34.46 144.811 35.0867 145.265 35.9C145.731 36.7 145.965 37.6533 145.965 38.76C145.965 39.8667 145.738 40.8333 145.285 41.66C144.831 42.4733 144.211 43.1067 143.425 43.56C142.651 44.0133 141.771 44.24 140.785 44.24ZM140.785 42.64C141.838 42.64 142.658 42.2867 143.245 41.58C143.831 40.86 144.125 39.9333 144.125 38.8C144.125 38.1067 143.978 37.4733 143.685 36.9C143.391 36.3133 142.991 35.8467 142.485 35.5C141.991 35.14 141.425 34.96 140.785 34.96C139.731 34.96 138.911 35.3067 138.325 36C137.738 36.6933 137.445 37.6133 137.445 38.76C137.445 39.4533 137.591 40.1 137.885 40.7C138.178 41.2867 138.571 41.76 139.065 42.12C139.571 42.4667 140.145 42.64 140.785 42.64ZM148.358 44V33.6H150.098V35.34C150.471 34.78 150.944 34.3133 151.518 33.94C152.104 33.5533 152.798 33.36 153.598 33.36C154.771 33.36 155.644 33.7133 156.218 34.42C156.804 35.1267 157.098 36.06 157.098 37.22V44H155.298V37.42C155.298 36.6733 155.118 36.0733 154.758 35.62C154.411 35.1667 153.924 34.94 153.298 34.94C152.684 34.94 152.104 35.16 151.558 35.6C151.011 36.0267 150.544 36.5333 150.158 37.12V44H148.358ZM161.194 37.96V36.32H167.994V37.96H161.194ZM176.386 44.24C175.399 44.24 174.533 44.0133 173.786 43.56C173.053 43.0933 172.486 42.4533 172.086 41.64C171.686 40.8133 171.486 39.8667 171.486 38.8C171.486 37.8 171.686 36.8867 172.086 36.06C172.499 35.2333 173.086 34.58 173.846 34.1C174.606 33.6067 175.499 33.36 176.526 33.36C177.113 33.36 177.626 33.4133 178.066 33.52C178.519 33.6267 178.953 33.78 179.366 33.98L178.826 35.5C178.453 35.3133 178.093 35.18 177.746 35.1C177.413 35.0067 177.039 34.96 176.626 34.96C175.693 34.96 174.906 35.3 174.266 35.98C173.639 36.6467 173.326 37.5733 173.326 38.76C173.326 39.48 173.459 40.1333 173.726 40.72C173.993 41.3067 174.359 41.7733 174.826 42.12C175.306 42.4667 175.866 42.64 176.506 42.64C177.013 42.64 177.446 42.5867 177.806 42.48C178.166 42.36 178.553 42.1933 178.966 41.98L179.526 43.5C179.113 43.7267 178.646 43.9067 178.126 44.04C177.619 44.1733 177.039 44.24 176.386 44.24ZM181.62 44V29.2H183.42V35.26C183.793 34.7133 184.266 34.26 184.84 33.9C185.413 33.54 186.086 33.36 186.86 33.36C188.033 33.36 188.906 33.7133 189.48 34.42C190.066 35.1267 190.36 36.06 190.36 37.22V44H188.56V37.42C188.56 36.6733 188.386 36.0733 188.04 35.62C187.693 35.1667 187.206 34.94 186.58 34.94C185.966 34.94 185.38 35.16 184.82 35.6C184.273 36.0267 183.806 36.5333 183.42 37.12V44H181.62ZM197.435 44.24C196.569 44.24 195.782 44.02 195.075 43.58C194.369 43.14 193.802 42.52 193.375 41.72C192.962 40.9067 192.755 39.9533 192.755 38.86C192.755 37.82 192.962 36.8867 193.375 36.06C193.802 35.2333 194.382 34.58 195.115 34.1C195.862 33.6067 196.715 33.36 197.675 33.36C198.275 33.36 198.815 33.4667 199.295 33.68C199.789 33.88 200.215 34.1333 200.575 34.44V33.6H202.215V41.48C202.215 41.9867 202.335 42.32 202.575 42.48C202.829 42.6267 203.102 42.7 203.395 42.7L203.015 44.1C201.735 44.1 200.962 43.58 200.695 42.54C200.389 42.9667 199.969 43.36 199.435 43.72C198.915 44.0667 198.249 44.24 197.435 44.24ZM197.835 42.64C198.342 42.64 198.822 42.52 199.275 42.28C199.729 42.0267 200.109 41.7133 200.415 41.34V35.76C200.055 35.5067 199.655 35.3067 199.215 35.16C198.789 35 198.335 34.92 197.855 34.92C197.215 34.92 196.649 35.0867 196.155 35.42C195.675 35.74 195.295 36.1933 195.015 36.78C194.735 37.3533 194.595 38.0267 194.595 38.8C194.595 39.5467 194.735 40.2133 195.015 40.8C195.295 41.3733 195.682 41.8267 196.175 42.16C196.669 42.48 197.222 42.64 197.835 42.64ZM205.799 44V33.6H207.599V44H205.799ZM206.699 31.82C206.353 31.82 206.053 31.6933 205.799 31.44C205.559 31.1867 205.439 30.8933 205.439 30.56C205.439 30.1733 205.553 29.8667 205.779 29.64C206.006 29.4133 206.313 29.3 206.699 29.3C207.046 29.3 207.339 29.4267 207.579 29.68C207.833 29.92 207.959 30.2133 207.959 30.56C207.959 30.9333 207.846 31.24 207.619 31.48C207.393 31.7067 207.086 31.82 206.699 31.82ZM210.799 44V33.6H212.539V35.34C212.913 34.78 213.386 34.3133 213.959 33.94C214.546 33.5533 215.239 33.36 216.039 33.36C217.213 33.36 218.086 33.7133 218.659 34.42C219.246 35.1267 219.539 36.06 219.539 37.22V44H217.739V37.42C217.739 36.6733 217.559 36.0733 217.199 35.62C216.853 35.1667 216.366 34.94 215.739 34.94C215.126 34.94 214.546 35.16 213.999 35.6C213.453 36.0267 212.986 36.5333 212.599 37.12V44H210.799ZM228.891 48.64C228.491 48.64 228.138 48.6 227.831 48.52C227.538 48.44 227.305 48.3467 227.131 48.24L227.531 46.74C227.691 46.8333 227.891 46.9133 228.131 46.98C228.371 47.0467 228.638 47.08 228.931 47.08C229.491 47.08 229.991 46.9 230.431 46.54C230.871 46.18 231.291 45.4733 231.691 44.42L232.151 43.22H231.191L227.131 34.08L228.731 33.36L232.611 42.02L235.631 33.44L237.291 34.08L233.471 44.52C233.085 45.5867 232.665 46.42 232.211 47.02C231.758 47.62 231.258 48.04 230.711 48.28C230.165 48.52 229.558 48.64 228.891 48.64ZM239.1 44V33.6H240.9V44H239.1ZM240 31.82C239.653 31.82 239.353 31.6933 239.1 31.44C238.86 31.1867 238.74 30.8933 238.74 30.56C238.74 30.1733 238.853 29.8667 239.08 29.64C239.307 29.4133 239.613 29.3 240 29.3C240.347 29.3 240.64 29.4267 240.88 29.68C241.133 29.92 241.26 30.2133 241.26 30.56C241.26 30.9333 241.147 31.24 240.92 31.48C240.693 31.7067 240.387 31.82 240 31.82ZM248.26 44.24C246.767 44.24 245.58 43.7667 244.7 42.82C243.833 41.86 243.4 40.52 243.4 38.8C243.4 37.76 243.593 36.8333 243.98 36.02C244.38 35.1933 244.933 34.5467 245.64 34.08C246.347 33.6 247.167 33.36 248.1 33.36C249.1 33.36 249.927 33.58 250.58 34.02C251.247 34.4467 251.747 35.0267 252.08 35.76C252.413 36.4933 252.58 37.3 252.58 38.18C252.58 38.6467 252.56 39.1 252.52 39.54H245.24C245.36 40.5133 245.7 41.2733 246.26 41.82C246.82 42.3667 247.56 42.64 248.48 42.64C249.08 42.64 249.62 42.58 250.1 42.46C250.58 42.3267 251.04 42.16 251.48 41.96L251.9 43.5C251.42 43.7133 250.88 43.8867 250.28 44.02C249.68 44.1667 249.007 44.24 248.26 44.24ZM245.22 38.08H250.92C250.92 37.0667 250.667 36.2867 250.16 35.74C249.653 35.1933 248.953 34.92 248.06 34.92C247.287 34.92 246.647 35.1933 246.14 35.74C245.633 36.2733 245.327 37.0533 245.22 38.08ZM258.139 44.24C257.526 44.24 256.972 44.1267 256.479 43.9C255.986 43.66 255.592 43.28 255.299 42.76C255.019 42.24 254.879 41.5667 254.879 40.74V29.2H256.679V40.56C256.679 41.28 256.826 41.8133 257.119 42.16C257.426 42.5067 257.846 42.68 258.379 42.68C258.632 42.68 258.879 42.6533 259.119 42.6C259.372 42.5333 259.586 42.46 259.759 42.38L260.199 43.84C259.959 43.9467 259.659 44.04 259.299 44.12C258.952 44.2 258.566 44.24 258.139 44.24ZM265.54 44.24C264.687 44.24 263.907 44.02 263.2 43.58C262.493 43.14 261.933 42.52 261.52 41.72C261.107 40.9067 260.9 39.9533 260.9 38.86C260.9 37.8067 261.107 36.8667 261.52 36.04C261.947 35.2133 262.507 34.56 263.2 34.08C263.907 33.6 264.68 33.36 265.52 33.36C266.213 33.36 266.807 33.5 267.3 33.78C267.807 34.06 268.2 34.3467 268.48 34.64V29.2H270.28V41.48C270.28 41.9867 270.4 42.32 270.64 42.48C270.893 42.6267 271.167 42.7 271.46 42.7L271.08 44.1C269.813 44.1 269.04 43.5933 268.76 42.58C268.467 42.9933 268.053 43.3733 267.52 43.72C267 44.0667 266.34 44.24 265.54 44.24ZM265.94 42.64C266.433 42.64 266.9 42.5267 267.34 42.3C267.793 42.06 268.173 41.7533 268.48 41.38V36.22C268.227 35.9 267.873 35.6067 267.42 35.34C266.967 35.06 266.467 34.92 265.92 34.92C265.28 34.92 264.72 35.0933 264.24 35.44C263.76 35.7867 263.387 36.2533 263.12 36.84C262.867 37.4133 262.74 38.0667 262.74 38.8C262.74 39.5333 262.88 40.1933 263.16 40.78C263.44 41.3533 263.82 41.8067 264.3 42.14C264.793 42.4733 265.34 42.64 265.94 42.64ZM282.042 44L278.762 34.08L280.422 33.5L283.102 41.96L285.542 34.34H287.482L289.862 41.96L292.522 33.5L294.122 34.08L290.822 44H288.842L286.442 36.26L284.022 44H282.042ZM296.229 44V33.6H298.029V44H296.229ZM297.129 31.82C296.782 31.82 296.482 31.6933 296.229 31.44C295.989 31.1867 295.869 30.8933 295.869 30.56C295.869 30.1733 295.982 29.8667 296.209 29.64C296.436 29.4133 296.742 29.3 297.129 29.3C297.476 29.3 297.769 29.4267 298.009 29.68C298.262 29.92 298.389 30.2133 298.389 30.56C298.389 30.9333 298.276 31.24 298.049 31.48C297.822 31.7067 297.516 31.82 297.129 31.82ZM304.869 44.24C303.869 44.24 303.076 43.9133 302.489 43.26C301.916 42.5933 301.629 41.6467 301.629 40.42V35.54H299.829V33.98H301.669L302.049 30.7H303.429V33.98H306.309V35.54H303.429V40.56C303.429 41.3333 303.589 41.8733 303.909 42.18C304.242 42.4867 304.636 42.64 305.089 42.64C305.422 42.64 305.736 42.5867 306.029 42.48C306.336 42.3733 306.616 42.2467 306.869 42.1L307.369 43.54C307.102 43.7 306.742 43.8533 306.289 44C305.836 44.16 305.362 44.24 304.869 44.24ZM309.178 44V29.2H310.978V35.26C311.351 34.7133 311.825 34.26 312.398 33.9C312.971 33.54 313.645 33.36 314.418 33.36C315.591 33.36 316.465 33.7133 317.038 34.42C317.625 35.1267 317.918 36.06 317.918 37.22V44H316.118V37.42C316.118 36.6733 315.945 36.0733 315.598 35.62C315.251 35.1667 314.765 34.94 314.138 34.94C313.525 34.94 312.938 35.16 312.378 35.6C311.831 36.0267 311.365 36.5333 310.978 37.12V44H309.178ZM329.81 44.24C329.023 44.24 328.31 44.14 327.67 43.94C327.043 43.74 326.523 43.48 326.11 43.16L326.87 41.66C327.217 41.9533 327.65 42.2 328.17 42.4C328.703 42.5867 329.27 42.68 329.87 42.68C330.617 42.68 331.177 42.56 331.55 42.32C331.937 42.0667 332.13 41.7467 332.13 41.36C332.13 41.08 332.057 40.8333 331.91 40.62C331.777 40.4067 331.523 40.2 331.15 40C330.777 39.7867 330.237 39.56 329.53 39.32C328.557 38.9867 327.823 38.5933 327.33 38.14C326.85 37.6733 326.61 37.0333 326.61 36.22C326.61 35.42 326.957 34.7467 327.65 34.2C328.357 33.64 329.33 33.36 330.57 33.36C331.237 33.36 331.83 33.4333 332.35 33.58C332.87 33.7133 333.337 33.8867 333.75 34.1L333.25 35.58C332.89 35.3667 332.477 35.1933 332.01 35.06C331.557 34.9267 331.05 34.86 330.49 34.86C329.797 34.86 329.27 35 328.91 35.28C328.55 35.56 328.37 35.8667 328.37 36.2C328.37 36.52 328.51 36.7933 328.79 37.02C329.07 37.2467 329.617 37.4933 330.43 37.76C331.75 38.2 332.67 38.6867 333.19 39.22C333.71 39.7533 333.97 40.42 333.97 41.22C333.97 42.1533 333.59 42.8933 332.83 43.44C332.083 43.9733 331.077 44.24 329.81 44.24ZM340.526 44.24C339.032 44.24 337.846 43.7667 336.966 42.82C336.099 41.86 335.666 40.52 335.666 38.8C335.666 37.76 335.859 36.8333 336.246 36.02C336.646 35.1933 337.199 34.5467 337.906 34.08C338.612 33.6 339.432 33.36 340.366 33.36C341.366 33.36 342.192 33.58 342.846 34.02C343.512 34.4467 344.012 35.0267 344.346 35.76C344.679 36.4933 344.846 37.3 344.846 38.18C344.846 38.6467 344.826 39.1 344.786 39.54H337.506C337.626 40.5133 337.966 41.2733 338.526 41.82C339.086 42.3667 339.826 42.64 340.746 42.64C341.346 42.64 341.886 42.58 342.366 42.46C342.846 42.3267 343.306 42.16 343.746 41.96L344.166 43.5C343.686 43.7133 343.146 43.8867 342.546 44.02C341.946 44.1667 341.272 44.24 340.526 44.24ZM337.486 38.08H343.186C343.186 37.0667 342.932 36.2867 342.426 35.74C341.919 35.1933 341.219 34.92 340.326 34.92C339.552 34.92 338.912 35.1933 338.406 35.74C337.899 36.2733 337.592 37.0533 337.486 38.08ZM351.445 44.24C350.458 44.24 349.591 44.0133 348.845 43.56C348.111 43.0933 347.545 42.4533 347.145 41.64C346.745 40.8133 346.545 39.8667 346.545 38.8C346.545 37.8 346.745 36.8867 347.145 36.06C347.558 35.2333 348.145 34.58 348.905 34.1C349.665 33.6067 350.558 33.36 351.585 33.36C352.171 33.36 352.685 33.4133 353.125 33.52C353.578 33.6267 354.011 33.78 354.425 33.98L353.885 35.5C353.511 35.3133 353.151 35.18 352.805 35.1C352.471 35.0067 352.098 34.96 351.685 34.96C350.751 34.96 349.965 35.3 349.325 35.98C348.698 36.6467 348.385 37.5733 348.385 38.76C348.385 39.48 348.518 40.1333 348.785 40.72C349.051 41.3067 349.418 41.7733 349.885 42.12C350.365 42.4667 350.925 42.64 351.565 42.64C352.071 42.64 352.505 42.5867 352.865 42.48C353.225 42.36 353.611 42.1933 354.025 41.98L354.585 43.5C354.171 43.7267 353.705 43.9067 353.185 44.04C352.678 44.1733 352.098 44.24 351.445 44.24ZM360.078 44.24C359.478 44.24 358.911 44.1133 358.378 43.86C357.845 43.6067 357.411 43.2 357.078 42.64C356.745 42.0667 356.578 41.3067 356.578 40.36V33.6H358.378V40.12C358.378 40.9333 358.551 41.56 358.898 42C359.245 42.4267 359.751 42.64 360.418 42.64C360.965 42.64 361.491 42.5333 361.998 42.32C362.518 42.0933 362.978 41.7933 363.378 41.42V33.6H365.178V41.3C365.178 41.8733 365.298 42.2533 365.538 42.44C365.791 42.6133 366.065 42.7 366.358 42.7L365.978 44.1C364.738 44.1 363.971 43.6067 363.678 42.62C363.211 43.1 362.671 43.4933 362.058 43.8C361.445 44.0933 360.785 44.24 360.078 44.24ZM368.748 44V33.6H370.488V35.86C370.662 35.42 370.895 35.0133 371.188 34.64C371.482 34.2533 371.848 33.9467 372.288 33.72C372.728 33.48 373.242 33.36 373.828 33.36C374.028 33.36 374.228 33.3733 374.428 33.4C374.628 33.4133 374.795 33.44 374.928 33.48L374.388 35.34C374.135 35.2333 373.835 35.18 373.488 35.18C372.995 35.18 372.522 35.32 372.068 35.6C371.628 35.88 371.262 36.3133 370.968 36.9C370.688 37.4867 370.548 38.2333 370.548 39.14V44H368.748ZM380.291 44.24C378.798 44.24 377.611 43.7667 376.731 42.82C375.865 41.86 375.431 40.52 375.431 38.8C375.431 37.76 375.625 36.8333 376.011 36.02C376.411 35.1933 376.965 34.5467 377.671 34.08C378.378 33.6 379.198 33.36 380.131 33.36C381.131 33.36 381.958 33.58 382.611 34.02C383.278 34.4467 383.778 35.0267 384.111 35.76C384.445 36.4933 384.611 37.3 384.611 38.18C384.611 38.6467 384.591 39.1 384.551 39.54H377.271C377.391 40.5133 377.731 41.2733 378.291 41.82C378.851 42.3667 379.591 42.64 380.511 42.64C381.111 42.64 381.651 42.58 382.131 42.46C382.611 42.3267 383.071 42.16 383.511 41.96L383.931 43.5C383.451 43.7133 382.911 43.8867 382.311 44.02C381.711 44.1667 381.038 44.24 380.291 44.24ZM377.251 38.08H382.951C382.951 37.0667 382.698 36.2867 382.191 35.74C381.685 35.1933 380.985 34.92 380.091 34.92C379.318 34.92 378.678 35.1933 378.171 35.74C377.665 36.2733 377.358 37.0533 377.251 38.08ZM397.206 44.24C396.22 44.24 395.353 44.0133 394.606 43.56C393.873 43.0933 393.306 42.4533 392.906 41.64C392.506 40.8133 392.306 39.8667 392.306 38.8C392.306 37.8 392.506 36.8867 392.906 36.06C393.32 35.2333 393.906 34.58 394.666 34.1C395.426 33.6067 396.32 33.36 397.346 33.36C397.933 33.36 398.446 33.4133 398.886 33.52C399.34 33.6267 399.773 33.78 400.186 33.98L399.646 35.5C399.273 35.3133 398.913 35.18 398.566 35.1C398.233 35.0067 397.86 34.96 397.446 34.96C396.513 34.96 395.726 35.3 395.086 35.98C394.46 36.6467 394.146 37.5733 394.146 38.76C394.146 39.48 394.28 40.1333 394.546 40.72C394.813 41.3067 395.18 41.7733 395.646 42.12C396.126 42.4667 396.686 42.64 397.326 42.64C397.833 42.64 398.266 42.5867 398.626 42.48C398.986 42.36 399.373 42.1933 399.786 41.98L400.346 43.5C399.933 43.7267 399.466 43.9067 398.946 44.04C398.44 44.1733 397.86 44.24 397.206 44.24ZM405.84 44.24C405.24 44.24 404.673 44.1133 404.14 43.86C403.607 43.6067 403.173 43.2 402.84 42.64C402.507 42.0667 402.34 41.3067 402.34 40.36V33.6H404.14V40.12C404.14 40.9333 404.313 41.56 404.66 42C405.007 42.4267 405.513 42.64 406.18 42.64C406.727 42.64 407.253 42.5333 407.76 42.32C408.28 42.0933 408.74 41.7933 409.14 41.42V33.6H410.94V41.3C410.94 41.8733 411.06 42.2533 411.3 42.44C411.553 42.6133 411.827 42.7 412.12 42.7L411.74 44.1C410.5 44.1 409.733 43.6067 409.44 42.62C408.973 43.1 408.433 43.4933 407.82 43.8C407.207 44.0933 406.547 44.24 405.84 44.24ZM417.31 44.24C416.523 44.24 415.81 44.14 415.17 43.94C414.543 43.74 414.023 43.48 413.61 43.16L414.37 41.66C414.717 41.9533 415.15 42.2 415.67 42.4C416.203 42.5867 416.77 42.68 417.37 42.68C418.117 42.68 418.677 42.56 419.05 42.32C419.437 42.0667 419.63 41.7467 419.63 41.36C419.63 41.08 419.557 40.8333 419.41 40.62C419.277 40.4067 419.023 40.2 418.65 40C418.277 39.7867 417.737 39.56 417.03 39.32C416.057 38.9867 415.323 38.5933 414.83 38.14C414.35 37.6733 414.11 37.0333 414.11 36.22C414.11 35.42 414.457 34.7467 415.15 34.2C415.857 33.64 416.83 33.36 418.07 33.36C418.737 33.36 419.33 33.4333 419.85 33.58C420.37 33.7133 420.837 33.8867 421.25 34.1L420.75 35.58C420.39 35.3667 419.977 35.1933 419.51 35.06C419.057 34.9267 418.55 34.86 417.99 34.86C417.297 34.86 416.77 35 416.41 35.28C416.05 35.56 415.87 35.8667 415.87 36.2C415.87 36.52 416.01 36.7933 416.29 37.02C416.57 37.2467 417.117 37.4933 417.93 37.76C419.25 38.2 420.17 38.6867 420.69 39.22C421.21 39.7533 421.47 40.42 421.47 41.22C421.47 42.1533 421.09 42.8933 420.33 43.44C419.583 43.9733 418.577 44.24 417.31 44.24ZM427.506 44.24C426.506 44.24 425.712 43.9133 425.126 43.26C424.552 42.5933 424.266 41.6467 424.266 40.42V35.54H422.466V33.98H424.306L424.686 30.7H426.066V33.98H428.946V35.54H426.066V40.56C426.066 41.3333 426.226 41.8733 426.546 42.18C426.879 42.4867 427.272 42.64 427.726 42.64C428.059 42.64 428.372 42.5867 428.666 42.48C428.972 42.3733 429.252 42.2467 429.506 42.1L430.006 43.54C429.739 43.7 429.379 43.8533 428.926 44C428.472 44.16 427.999 44.24 427.506 44.24ZM435.804 44.24C434.818 44.24 433.931 44.0133 433.144 43.56C432.358 43.0933 431.738 42.4533 431.284 41.64C430.844 40.8133 430.624 39.8667 430.624 38.8C430.624 37.68 430.851 36.7133 431.304 35.9C431.758 35.0867 432.378 34.46 433.164 34.02C433.951 33.58 434.831 33.36 435.804 33.36C436.778 33.36 437.651 33.58 438.424 34.02C439.211 34.46 439.831 35.0867 440.284 35.9C440.751 36.7 440.984 37.6533 440.984 38.76C440.984 39.8667 440.758 40.8333 440.304 41.66C439.851 42.4733 439.231 43.1067 438.444 43.56C437.671 44.0133 436.791 44.24 435.804 44.24ZM435.804 42.64C436.858 42.64 437.678 42.2867 438.264 41.58C438.851 40.86 439.144 39.9333 439.144 38.8C439.144 38.1067 438.998 37.4733 438.704 36.9C438.411 36.3133 438.011 35.8467 437.504 35.5C437.011 35.14 436.444 34.96 435.804 34.96C434.751 34.96 433.931 35.3067 433.344 36C432.758 36.6933 432.464 37.6133 432.464 38.76C432.464 39.4533 432.611 40.1 432.904 40.7C433.198 41.2867 433.591 41.76 434.084 42.12C434.591 42.4667 435.164 42.64 435.804 42.64ZM447.317 44.24C446.464 44.24 445.684 44.02 444.977 43.58C444.271 43.14 443.711 42.52 443.297 41.72C442.884 40.9067 442.677 39.9533 442.677 38.86C442.677 37.8067 442.884 36.8667 443.297 36.04C443.724 35.2133 444.284 34.56 444.977 34.08C445.684 33.6 446.457 33.36 447.297 33.36C447.991 33.36 448.584 33.5 449.077 33.78C449.584 34.06 449.977 34.3467 450.257 34.64V29.2H452.057V41.48C452.057 41.9867 452.177 42.32 452.417 42.48C452.671 42.6267 452.944 42.7 453.237 42.7L452.857 44.1C451.591 44.1 450.817 43.5933 450.537 42.58C450.244 42.9933 449.831 43.3733 449.297 43.72C448.777 44.0667 448.117 44.24 447.317 44.24ZM447.717 42.64C448.211 42.64 448.677 42.5267 449.117 42.3C449.571 42.06 449.951 41.7533 450.257 41.38V36.22C450.004 35.9 449.651 35.6067 449.197 35.34C448.744 35.06 448.244 34.92 447.697 34.92C447.057 34.92 446.497 35.0933 446.017 35.44C445.537 35.7867 445.164 36.2533 444.897 36.84C444.644 37.4133 444.517 38.0667 444.517 38.8C444.517 39.5333 444.657 40.1933 444.937 40.78C445.217 41.3533 445.597 41.8067 446.077 42.14C446.571 42.4733 447.117 42.64 447.717 42.64ZM455.512 48.64C455.112 48.64 454.759 48.6 454.452 48.52C454.159 48.44 453.926 48.3467 453.752 48.24L454.152 46.74C454.312 46.8333 454.512 46.9133 454.752 46.98C454.992 47.0467 455.259 47.08 455.552 47.08C456.112 47.08 456.612 46.9 457.052 46.54C457.492 46.18 457.912 45.4733 458.312 44.42L458.772 43.22H457.812L453.752 34.08L455.352 33.36L459.232 42.02L462.252 33.44L463.912 34.08L460.092 44.52C459.706 45.5867 459.286 46.42 458.832 47.02C458.379 47.62 457.879 48.04 457.332 48.28C456.786 48.52 456.179 48.64 455.512 48.64ZM464.1 47.2L463.12 46.64C463.653 45.96 464.08 45.2733 464.4 44.58C464.733 43.8867 464.986 43.0933 465.16 42.2L466.92 42.7C466.786 43.7133 466.466 44.6 465.96 45.36C465.466 46.12 464.846 46.7333 464.1 47.2ZM5.54 72.24C4.68667 72.24 3.90667 72.02 3.2 71.58C2.49333 71.14 1.93333 70.52 1.52 69.72C1.10667 68.9067 0.9 67.9533 0.9 66.86C0.9 65.8067 1.10667 64.8667 1.52 64.04C1.94667 63.2133 2.50667 62.56 3.2 62.08C3.90667 61.6 4.68 61.36 5.52 61.36C6.21333 61.36 6.80667 61.5 7.3 61.78C7.80667 62.06 8.2 62.3467 8.48 62.64V57.2H10.28V69.48C10.28 69.9867 10.4 70.32 10.64 70.48C10.8933 70.6267 11.1667 70.7 11.46 70.7L11.08 72.1C9.81333 72.1 9.04 71.5933 8.76 70.58C8.46667 70.9933 8.05333 71.3733 7.52 71.72C7 72.0667 6.34 72.24 5.54 72.24ZM5.94 70.64C6.43333 70.64 6.9 70.5267 7.34 70.3C7.79333 70.06 8.17333 69.7533 8.48 69.38V64.22C8.22667 63.9 7.87333 63.6067 7.42 63.34C6.96667 63.06 6.46667 62.92 5.92 62.92C5.28 62.92 4.72 63.0933 4.24 63.44C3.76 63.7867 3.38667 64.2533 3.12 64.84C2.86667 65.4133 2.74 66.0667 2.74 66.8C2.74 67.5333 2.88 68.1933 3.16 68.78C3.44 69.3533 3.82 69.8067 4.3 70.14C4.79333 70.4733 5.34 70.64 5.94 70.64ZM17.8303 72.24C16.337 72.24 15.1503 71.7667 14.2703 70.82C13.4036 69.86 12.9703 68.52 12.9703 66.8C12.9703 65.76 13.1636 64.8333 13.5503 64.02C13.9503 63.1933 14.5036 62.5467 15.2103 62.08C15.917 61.6 16.737 61.36 17.6703 61.36C18.6703 61.36 19.497 61.58 20.1503 62.02C20.817 62.4467 21.317 63.0267 21.6503 63.76C21.9836 64.4933 22.1503 65.3 22.1503 66.18C22.1503 66.6467 22.1303 67.1 22.0903 67.54H14.8103C14.9303 68.5133 15.2703 69.2733 15.8303 69.82C16.3903 70.3667 17.1303 70.64 18.0503 70.64C18.6503 70.64 19.1903 70.58 19.6703 70.46C20.1503 70.3267 20.6103 70.16 21.0503 69.96L21.4703 71.5C20.9903 71.7133 20.4503 71.8867 19.8503 72.02C19.2503 72.1667 18.577 72.24 17.8303 72.24ZM14.7903 66.08H20.4903C20.4903 65.0667 20.237 64.2867 19.7303 63.74C19.2236 63.1933 18.5236 62.92 17.6303 62.92C16.857 62.92 16.217 63.1933 15.7103 63.74C15.2036 64.2733 14.897 65.0533 14.7903 66.08ZM28.7092 72.24C27.2159 72.24 26.0292 71.7667 25.1492 70.82C24.2826 69.86 23.8492 68.52 23.8492 66.8C23.8492 65.76 24.0426 64.8333 24.4292 64.02C24.8292 63.1933 25.3826 62.5467 26.0892 62.08C26.7959 61.6 27.6159 61.36 28.5492 61.36C29.5492 61.36 30.3759 61.58 31.0292 62.02C31.6959 62.4467 32.1959 63.0267 32.5292 63.76C32.8626 64.4933 33.0292 65.3 33.0292 66.18C33.0292 66.6467 33.0092 67.1 32.9692 67.54H25.6892C25.8092 68.5133 26.1492 69.2733 26.7092 69.82C27.2692 70.3667 28.0092 70.64 28.9292 70.64C29.5292 70.64 30.0692 70.58 30.5492 70.46C31.0292 70.3267 31.4892 70.16 31.9292 69.96L32.3492 71.5C31.8692 71.7133 31.3292 71.8867 30.7292 72.02C30.1292 72.1667 29.4559 72.24 28.7092 72.24ZM25.6692 66.08H31.3692C31.3692 65.0667 31.1159 64.2867 30.6092 63.74C30.1026 63.1933 29.4026 62.92 28.5092 62.92C27.7359 62.92 27.0959 63.1933 26.5892 63.74C26.0826 64.2733 25.7759 65.0533 25.6692 66.08ZM35.8081 76.4V64.26C35.8081 63.8067 35.6948 63.4867 35.4681 63.3C35.2548 63.1 34.9748 63 34.6281 63L35.0081 61.6C36.2348 61.6 37.0015 62.0867 37.3081 63.06C37.4415 62.86 37.6548 62.6267 37.9481 62.36C38.2548 62.0933 38.6281 61.86 39.0681 61.66C39.5215 61.46 40.0348 61.36 40.6081 61.36C41.4081 61.36 42.1548 61.5733 42.8481 62C43.5548 62.4133 44.1215 63.02 44.5481 63.82C44.9748 64.6067 45.1881 65.5667 45.1881 66.7C45.1881 67.8067 44.9748 68.78 44.5481 69.62C44.1215 70.4467 43.5615 71.0933 42.8681 71.56C42.1881 72.0133 41.4481 72.24 40.6481 72.24C40.0348 72.24 39.4615 72.12 38.9281 71.88C38.3948 71.6267 37.9548 71.34 37.6081 71.02V76.4H35.8081ZM40.2881 70.64C41.1948 70.64 41.9281 70.2867 42.4881 69.58C43.0615 68.86 43.3481 67.92 43.3481 66.76C43.3481 65.96 43.2015 65.2733 42.9081 64.7C42.6281 64.1267 42.2481 63.6867 41.7681 63.38C41.3015 63.0733 40.7815 62.92 40.2081 62.92C39.6348 62.92 39.1148 63.0667 38.6481 63.36C38.1948 63.64 37.8481 63.9467 37.6081 64.28V69.4C37.9548 69.76 38.3548 70.06 38.8081 70.3C39.2615 70.5267 39.7548 70.64 40.2881 70.64ZM56.8498 72.24C56.2365 72.24 55.6832 72.1267 55.1898 71.9C54.6965 71.66 54.3032 71.28 54.0098 70.76C53.7298 70.24 53.5898 69.5667 53.5898 68.74V57.2H55.3898V68.56C55.3898 69.28 55.5365 69.8133 55.8298 70.16C56.1365 70.5067 56.5565 70.68 57.0898 70.68C57.3432 70.68 57.5898 70.6533 57.8298 70.6C58.0832 70.5333 58.2965 70.46 58.4698 70.38L58.9098 71.84C58.6698 71.9467 58.3698 72.04 58.0098 72.12C57.6632 72.2 57.2765 72.24 56.8498 72.24ZM60.6039 72V61.6H62.4039V72H60.6039ZM61.5039 59.82C61.1572 59.82 60.8572 59.6933 60.6039 59.44C60.3639 59.1867 60.2439 58.8933 60.2439 58.56C60.2439 58.1733 60.3572 57.8667 60.5839 57.64C60.8106 57.4133 61.1172 57.3 61.5039 57.3C61.8506 57.3 62.1439 57.4267 62.3839 57.68C62.6372 57.92 62.7639 58.2133 62.7639 58.56C62.7639 58.9333 62.6506 59.24 62.4239 59.48C62.1972 59.7067 61.8906 59.82 61.5039 59.82ZM72.4839 76.4V70.94C72.2039 71.2333 71.8106 71.5267 71.3039 71.82C70.8106 72.1 70.2306 72.24 69.5639 72.24C68.7639 72.24 68.0039 72.0333 67.2839 71.62C66.5772 71.2067 66.0039 70.6 65.5639 69.8C65.1239 68.9867 64.9039 68 64.9039 66.84C64.9039 65.7467 65.1239 64.7933 65.5639 63.98C66.0039 63.1533 66.5906 62.5133 67.3239 62.06C68.0572 61.5933 68.8639 61.36 69.7439 61.36C70.3439 61.36 70.8839 61.4667 71.3639 61.68C71.8572 61.88 72.2839 62.1333 72.6439 62.44V61.6H74.2839V76.4H72.4839ZM69.9639 70.64C70.4972 70.64 70.9839 70.5133 71.4239 70.26C71.8639 70.0067 72.2172 69.7133 72.4839 69.38V63.76C72.1239 63.5067 71.7239 63.3067 71.2839 63.16C70.8572 63 70.4039 62.92 69.9239 62.92C69.3506 62.92 68.8239 63.0733 68.3439 63.38C67.8639 63.6867 67.4772 64.1267 67.1839 64.7C66.8906 65.2733 66.7439 65.9667 66.7439 66.78C66.7439 67.58 66.8906 68.2733 67.1839 68.86C67.4906 69.4333 67.8906 69.8733 68.3839 70.18C68.8772 70.4867 69.4039 70.64 69.9639 70.64ZM80.8789 72.24C80.2789 72.24 79.7122 72.1133 79.1789 71.86C78.6456 71.6067 78.2122 71.2 77.8789 70.64C77.5456 70.0667 77.3789 69.3067 77.3789 68.36V61.6H79.1789V68.12C79.1789 68.9333 79.3522 69.56 79.6989 70C80.0456 70.4267 80.5522 70.64 81.2189 70.64C81.7656 70.64 82.2922 70.5333 82.7989 70.32C83.3189 70.0933 83.7789 69.7933 84.1789 69.42V61.6H85.9789V69.3C85.9789 69.8733 86.0989 70.2533 86.3389 70.44C86.5922 70.6133 86.8656 70.7 87.1589 70.7L86.7789 72.1C85.5389 72.1 84.7722 71.6067 84.4789 70.62C84.0122 71.1 83.4722 71.4933 82.8589 71.8C82.2456 72.0933 81.5856 72.24 80.8789 72.24ZM89.5492 72V61.6H91.3492V72H89.5492ZM90.4492 59.82C90.1026 59.82 89.8026 59.6933 89.5492 59.44C89.3092 59.1867 89.1892 58.8933 89.1892 58.56C89.1892 58.1733 89.3026 57.8667 89.5292 57.64C89.7559 57.4133 90.0626 57.3 90.4492 57.3C90.7959 57.3 91.0892 57.4267 91.3292 57.68C91.5826 57.92 91.7092 58.2133 91.7092 58.56C91.7092 58.9333 91.5959 59.24 91.3692 59.48C91.1426 59.7067 90.8359 59.82 90.4492 59.82ZM98.4892 72.24C97.6359 72.24 96.8559 72.02 96.1492 71.58C95.4426 71.14 94.8826 70.52 94.4692 69.72C94.0559 68.9067 93.8492 67.9533 93.8492 66.86C93.8492 65.8067 94.0559 64.8667 94.4692 64.04C94.8959 63.2133 95.4559 62.56 96.1492 62.08C96.8559 61.6 97.6292 61.36 98.4692 61.36C99.1626 61.36 99.7559 61.5 100.249 61.78C100.756 62.06 101.149 62.3467 101.429 62.64V57.2H103.229V69.48C103.229 69.9867 103.349 70.32 103.589 70.48C103.843 70.6267 104.116 70.7 104.409 70.7L104.029 72.1C102.763 72.1 101.989 71.5933 101.709 70.58C101.416 70.9933 101.003 71.3733 100.469 71.72C99.9492 72.0667 99.2892 72.24 98.4892 72.24ZM98.8892 70.64C99.3826 70.64 99.8492 70.5267 100.289 70.3C100.743 70.06 101.123 69.7533 101.429 69.38V64.22C101.176 63.9 100.823 63.6067 100.369 63.34C99.9159 63.06 99.4159 62.92 98.8692 62.92C98.2292 62.92 97.6692 63.0933 97.1892 63.44C96.7092 63.7867 96.3359 64.2533 96.0692 64.84C95.8159 65.4133 95.6892 66.0667 95.6892 66.8C95.6892 67.5333 95.8292 68.1933 96.1092 68.78C96.3892 69.3533 96.7692 69.8067 97.2492 70.14C97.7426 70.4733 98.2892 70.64 98.8892 70.64ZM106.815 72V61.6H108.615V72H106.815ZM107.715 59.82C107.368 59.82 107.068 59.6933 106.815 59.44C106.575 59.1867 106.455 58.8933 106.455 58.56C106.455 58.1733 106.568 57.8667 106.795 57.64C107.022 57.4133 107.328 57.3 107.715 57.3C108.062 57.3 108.355 57.4267 108.595 57.68C108.848 57.92 108.975 58.2133 108.975 58.56C108.975 58.9333 108.862 59.24 108.635 59.48C108.408 59.7067 108.102 59.82 107.715 59.82ZM115.455 72.24C114.455 72.24 113.662 71.9133 113.075 71.26C112.502 70.5933 112.215 69.6467 112.215 68.42V63.54H110.415V61.98H112.255L112.635 58.7H114.015V61.98H116.895V63.54H114.015V68.56C114.015 69.3333 114.175 69.8733 114.495 70.18C114.828 70.4867 115.222 70.64 115.675 70.64C116.008 70.64 116.322 70.5867 116.615 70.48C116.922 70.3733 117.202 70.2467 117.455 70.1L117.955 71.54C117.688 71.7 117.328 71.8533 116.875 72C116.422 72.16 115.948 72.24 115.455 72.24ZM119.829 76.64C119.429 76.64 119.075 76.6 118.769 76.52C118.475 76.44 118.242 76.3467 118.069 76.24L118.469 74.74C118.629 74.8333 118.829 74.9133 119.069 74.98C119.309 75.0467 119.575 75.08 119.869 75.08C120.429 75.08 120.929 74.9 121.369 74.54C121.809 74.18 122.229 73.4733 122.629 72.42L123.089 71.22H122.129L118.069 62.08L119.669 61.36L123.549 70.02L126.569 61.44L128.229 62.08L124.409 72.52C124.022 73.5867 123.602 74.42 123.149 75.02C122.695 75.62 122.195 76.04 121.649 76.28C121.102 76.52 120.495 76.64 119.829 76.64ZM128.416 75.2L127.436 74.64C127.969 73.96 128.396 73.2733 128.716 72.58C129.049 71.8867 129.303 71.0933 129.476 70.2L131.236 70.7C131.103 71.7133 130.783 72.6 130.276 73.36C129.783 74.12 129.163 74.7333 128.416 75.2ZM144.408 72.24C143.541 72.24 142.755 72.02 142.048 71.58C141.341 71.14 140.775 70.52 140.348 69.72C139.935 68.9067 139.728 67.9533 139.728 66.86C139.728 65.82 139.935 64.8867 140.348 64.06C140.775 63.2333 141.355 62.58 142.088 62.1C142.835 61.6067 143.688 61.36 144.648 61.36C145.248 61.36 145.788 61.4667 146.268 61.68C146.761 61.88 147.188 62.1333 147.548 62.44V61.6H149.188V69.48C149.188 69.9867 149.308 70.32 149.548 70.48C149.801 70.6267 150.075 70.7 150.368 70.7L149.988 72.1C148.708 72.1 147.935 71.58 147.668 70.54C147.361 70.9667 146.941 71.36 146.408 71.72C145.888 72.0667 145.221 72.24 144.408 72.24ZM144.808 70.64C145.315 70.64 145.795 70.52 146.248 70.28C146.701 70.0267 147.081 69.7133 147.388 69.34V63.76C147.028 63.5067 146.628 63.3067 146.188 63.16C145.761 63 145.308 62.92 144.828 62.92C144.188 62.92 143.621 63.0867 143.128 63.42C142.648 63.74 142.268 64.1933 141.988 64.78C141.708 65.3533 141.568 66.0267 141.568 66.8C141.568 67.5467 141.708 68.2133 141.988 68.8C142.268 69.3733 142.655 69.8267 143.148 70.16C143.641 70.48 144.195 70.64 144.808 70.64ZM152.772 72V61.6H154.512V63.34C154.885 62.78 155.359 62.3133 155.932 61.94C156.519 61.5533 157.212 61.36 158.012 61.36C159.185 61.36 160.059 61.7133 160.632 62.42C161.219 63.1267 161.512 64.06 161.512 65.22V72H159.712V65.42C159.712 64.6733 159.532 64.0733 159.172 63.62C158.825 63.1667 158.339 62.94 157.712 62.94C157.099 62.94 156.519 63.16 155.972 63.6C155.425 64.0267 154.959 64.5333 154.572 65.12V72H152.772ZM168.548 72.24C167.694 72.24 166.914 72.02 166.208 71.58C165.501 71.14 164.941 70.52 164.528 69.72C164.114 68.9067 163.908 67.9533 163.908 66.86C163.908 65.8067 164.114 64.8667 164.528 64.04C164.954 63.2133 165.514 62.56 166.208 62.08C166.914 61.6 167.688 61.36 168.528 61.36C169.221 61.36 169.814 61.5 170.308 61.78C170.814 62.06 171.208 62.3467 171.488 62.64V57.2H173.288V69.48C173.288 69.9867 173.408 70.32 173.648 70.48C173.901 70.6267 174.174 70.7 174.468 70.7L174.088 72.1C172.821 72.1 172.048 71.5933 171.768 70.58C171.474 70.9933 171.061 71.3733 170.528 71.72C170.008 72.0667 169.348 72.24 168.548 72.24ZM168.948 70.64C169.441 70.64 169.908 70.5267 170.348 70.3C170.801 70.06 171.181 69.7533 171.488 69.38V64.22C171.234 63.9 170.881 63.6067 170.428 63.34C169.974 63.06 169.474 62.92 168.928 62.92C168.288 62.92 167.728 63.0933 167.248 63.44C166.768 63.7867 166.394 64.2533 166.128 64.84C165.874 65.4133 165.748 66.0667 165.748 66.8C165.748 67.5333 165.888 68.1933 166.168 68.78C166.448 69.3533 166.828 69.8067 167.308 70.14C167.801 70.4733 168.348 70.64 168.948 70.64ZM183.07 72V63.54H181.47V61.98H183.07V60.76C183.07 59.5867 183.396 58.66 184.05 57.98C184.703 57.3 185.556 56.96 186.61 56.96C187.156 56.96 187.636 57.0267 188.05 57.16C188.463 57.28 188.856 57.4333 189.23 57.62L188.69 59.14C188.41 58.9933 188.11 58.86 187.79 58.74C187.47 58.62 187.116 58.56 186.73 58.56C186.17 58.56 185.716 58.74 185.37 59.1C185.036 59.4467 184.87 59.96 184.87 60.64V61.98H187.95V63.54H184.87V72H183.07ZM189.823 72V61.6H191.563V63.86C191.736 63.42 191.969 63.0133 192.263 62.64C192.556 62.2533 192.923 61.9467 193.363 61.72C193.803 61.48 194.316 61.36 194.903 61.36C195.103 61.36 195.303 61.3733 195.503 61.4C195.703 61.4133 195.869 61.44 196.003 61.48L195.463 63.34C195.209 63.2333 194.909 63.18 194.563 63.18C194.069 63.18 193.596 63.32 193.143 63.6C192.703 63.88 192.336 64.3133 192.043 64.9C191.763 65.4867 191.623 66.2333 191.623 67.14V72H189.823ZM197.811 72V61.6H199.611V72H197.811ZM198.711 59.82C198.364 59.82 198.064 59.6933 197.811 59.44C197.571 59.1867 197.451 58.8933 197.451 58.56C197.451 58.1733 197.564 57.8667 197.791 57.64C198.018 57.4133 198.324 57.3 198.711 57.3C199.058 57.3 199.351 57.4267 199.591 57.68C199.844 57.92 199.971 58.2133 199.971 58.56C199.971 58.9333 199.858 59.24 199.631 59.48C199.404 59.7067 199.098 59.82 198.711 59.82ZM207.011 72.24C206.024 72.24 205.158 72.0133 204.411 71.56C203.678 71.0933 203.111 70.4533 202.711 69.64C202.311 68.8133 202.111 67.8667 202.111 66.8C202.111 65.8 202.311 64.8867 202.711 64.06C203.124 63.2333 203.711 62.58 204.471 62.1C205.231 61.6067 206.124 61.36 207.151 61.36C207.738 61.36 208.251 61.4133 208.691 61.52C209.144 61.6267 209.578 61.78 209.991 61.98L209.451 63.5C209.078 63.3133 208.718 63.18 208.371 63.1C208.038 63.0067 207.664 62.96 207.251 62.96C206.318 62.96 205.531 63.3 204.891 63.98C204.264 64.6467 203.951 65.5733 203.951 66.76C203.951 67.48 204.084 68.1333 204.351 68.72C204.618 69.3067 204.984 69.7733 205.451 70.12C205.931 70.4667 206.491 70.64 207.131 70.64C207.638 70.64 208.071 70.5867 208.431 70.48C208.791 70.36 209.178 70.1933 209.591 69.98L210.151 71.5C209.738 71.7267 209.271 71.9067 208.751 72.04C208.244 72.1733 207.664 72.24 207.011 72.24ZM215.885 72.24C214.885 72.24 214.091 71.9133 213.505 71.26C212.931 70.5933 212.645 69.6467 212.645 68.42V63.54H210.845V61.98H212.685L213.065 58.7H214.445V61.98H217.325V63.54H214.445V68.56C214.445 69.3333 214.605 69.8733 214.925 70.18C215.258 70.4867 215.651 70.64 216.105 70.64C216.438 70.64 216.751 70.5867 217.045 70.48C217.351 70.3733 217.631 70.2467 217.885 70.1L218.385 71.54C218.118 71.7 217.758 71.8533 217.305 72C216.851 72.16 216.378 72.24 215.885 72.24ZM220.194 72V61.6H221.994V72H220.194ZM221.094 59.82C220.747 59.82 220.447 59.6933 220.194 59.44C219.954 59.1867 219.834 58.8933 219.834 58.56C219.834 58.1733 219.947 57.8667 220.174 57.64C220.4 57.4133 220.707 57.3 221.094 57.3C221.44 57.3 221.734 57.4267 221.974 57.68C222.227 57.92 222.354 58.2133 222.354 58.56C222.354 58.9333 222.24 59.24 222.014 59.48C221.787 59.7067 221.48 59.82 221.094 59.82ZM229.574 72.24C228.587 72.24 227.7 72.0133 226.914 71.56C226.127 71.0933 225.507 70.4533 225.054 69.64C224.614 68.8133 224.394 67.8667 224.394 66.8C224.394 65.68 224.62 64.7133 225.074 63.9C225.527 63.0867 226.147 62.46 226.934 62.02C227.72 61.58 228.6 61.36 229.574 61.36C230.547 61.36 231.42 61.58 232.194 62.02C232.98 62.46 233.6 63.0867 234.054 63.9C234.52 64.7 234.754 65.6533 234.754 66.76C234.754 67.8667 234.527 68.8333 234.074 69.66C233.62 70.4733 233 71.1067 232.214 71.56C231.44 72.0133 230.56 72.24 229.574 72.24ZM229.574 70.64C230.627 70.64 231.447 70.2867 232.034 69.58C232.62 68.86 232.914 67.9333 232.914 66.8C232.914 66.1067 232.767 65.4733 232.474 64.9C232.18 64.3133 231.78 63.8467 231.274 63.5C230.78 63.14 230.214 62.96 229.574 62.96C228.52 62.96 227.7 63.3067 227.114 64C226.527 64.6933 226.234 65.6133 226.234 66.76C226.234 67.4533 226.38 68.1 226.674 68.7C226.967 69.2867 227.36 69.76 227.854 70.12C228.36 70.4667 228.934 70.64 229.574 70.64ZM237.147 72V61.6H238.887V63.34C239.26 62.78 239.734 62.3133 240.307 61.94C240.894 61.5533 241.587 61.36 242.387 61.36C243.56 61.36 244.434 61.7133 245.007 62.42C245.594 63.1267 245.887 64.06 245.887 65.22V72H244.087V65.42C244.087 64.6733 243.907 64.0733 243.547 63.62C243.2 63.1667 242.714 62.94 242.087 62.94C241.474 62.94 240.894 63.16 240.347 63.6C239.8 64.0267 239.334 64.5333 238.947 65.12V72H237.147ZM252.143 72.24C251.529 72.24 250.976 72.1267 250.483 71.9C249.989 71.66 249.596 71.28 249.303 70.76C249.023 70.24 248.883 69.5667 248.883 68.74V57.2H250.683V68.56C250.683 69.28 250.829 69.8133 251.123 70.16C251.429 70.5067 251.849 70.68 252.383 70.68C252.636 70.68 252.883 70.6533 253.123 70.6C253.376 70.5333 253.589 70.46 253.763 70.38L254.203 71.84C253.963 71.9467 253.663 72.04 253.303 72.12C252.956 72.2 252.569 72.24 252.143 72.24ZM259.764 72.24C258.271 72.24 257.084 71.7667 256.204 70.82C255.337 69.86 254.904 68.52 254.904 66.8C254.904 65.76 255.097 64.8333 255.484 64.02C255.884 63.1933 256.437 62.5467 257.144 62.08C257.851 61.6 258.671 61.36 259.604 61.36C260.604 61.36 261.431 61.58 262.084 62.02C262.751 62.4467 263.251 63.0267 263.584 63.76C263.917 64.4933 264.084 65.3 264.084 66.18C264.084 66.6467 264.064 67.1 264.024 67.54H256.744C256.864 68.5133 257.204 69.2733 257.764 69.82C258.324 70.3667 259.064 70.64 259.984 70.64C260.584 70.64 261.124 70.58 261.604 70.46C262.084 70.3267 262.544 70.16 262.984 69.96L263.404 71.5C262.924 71.7133 262.384 71.8867 261.784 72.02C261.184 72.1667 260.511 72.24 259.764 72.24ZM256.724 66.08H262.424C262.424 65.0667 262.171 64.2867 261.664 63.74C261.157 63.1933 260.457 62.92 259.564 62.92C258.791 62.92 258.151 63.1933 257.644 63.74C257.137 64.2733 256.831 65.0533 256.724 66.08ZM269.283 72.24C268.496 72.24 267.783 72.14 267.143 71.94C266.516 71.74 265.996 71.48 265.583 71.16L266.343 69.66C266.689 69.9533 267.123 70.2 267.643 70.4C268.176 70.5867 268.743 70.68 269.343 70.68C270.089 70.68 270.649 70.56 271.023 70.32C271.409 70.0667 271.603 69.7467 271.603 69.36C271.603 69.08 271.529 68.8333 271.383 68.62C271.249 68.4067 270.996 68.2 270.623 68C270.249 67.7867 269.709 67.56 269.003 67.32C268.029 66.9867 267.296 66.5933 266.803 66.14C266.323 65.6733 266.083 65.0333 266.083 64.22C266.083 63.42 266.429 62.7467 267.123 62.2C267.829 61.64 268.803 61.36 270.043 61.36C270.709 61.36 271.303 61.4333 271.823 61.58C272.343 61.7133 272.809 61.8867 273.223 62.1L272.723 63.58C272.363 63.3667 271.949 63.1933 271.483 63.06C271.029 62.9267 270.523 62.86 269.963 62.86C269.269 62.86 268.743 63 268.383 63.28C268.023 63.56 267.843 63.8667 267.843 64.2C267.843 64.52 267.983 64.7933 268.263 65.02C268.543 65.2467 269.089 65.4933 269.903 65.76C271.223 66.2 272.143 66.6867 272.663 67.22C273.183 67.7533 273.443 68.42 273.443 69.22C273.443 70.1533 273.063 70.8933 272.303 71.44C271.556 71.9733 270.549 72.24 269.283 72.24ZM278.638 72.24C277.852 72.24 277.138 72.14 276.498 71.94C275.872 71.74 275.352 71.48 274.938 71.16L275.698 69.66C276.045 69.9533 276.478 70.2 276.998 70.4C277.532 70.5867 278.098 70.68 278.698 70.68C279.445 70.68 280.005 70.56 280.378 70.32C280.765 70.0667 280.958 69.7467 280.958 69.36C280.958 69.08 280.885 68.8333 280.738 68.62C280.605 68.4067 280.352 68.2 279.978 68C279.605 67.7867 279.065 67.56 278.358 67.32C277.385 66.9867 276.652 66.5933 276.158 66.14C275.678 65.6733 275.438 65.0333 275.438 64.22C275.438 63.42 275.785 62.7467 276.478 62.2C277.185 61.64 278.158 61.36 279.398 61.36C280.065 61.36 280.658 61.4333 281.178 61.58C281.698 61.7133 282.165 61.8867 282.578 62.1L282.078 63.58C281.718 63.3667 281.305 63.1933 280.838 63.06C280.385 62.9267 279.878 62.86 279.318 62.86C278.625 62.86 278.098 63 277.738 63.28C277.378 63.56 277.198 63.8667 277.198 64.2C277.198 64.52 277.338 64.7933 277.618 65.02C277.898 65.2467 278.445 65.4933 279.258 65.76C280.578 66.2 281.498 66.6867 282.018 67.22C282.538 67.7533 282.798 68.42 282.798 69.22C282.798 70.1533 282.418 70.8933 281.658 71.44C280.912 71.9733 279.905 72.24 278.638 72.24ZM295.39 72.24C294.403 72.24 293.537 72.0133 292.79 71.56C292.057 71.0933 291.49 70.4533 291.09 69.64C290.69 68.8133 290.49 67.8667 290.49 66.8C290.49 65.8 290.69 64.8867 291.09 64.06C291.503 63.2333 292.09 62.58 292.85 62.1C293.61 61.6067 294.503 61.36 295.53 61.36C296.117 61.36 296.63 61.4133 297.07 61.52C297.523 61.6267 297.957 61.78 298.37 61.98L297.83 63.5C297.457 63.3133 297.097 63.18 296.75 63.1C296.417 63.0067 296.043 62.96 295.63 62.96C294.697 62.96 293.91 63.3 293.27 63.98C292.643 64.6467 292.33 65.5733 292.33 66.76C292.33 67.48 292.463 68.1333 292.73 68.72C292.997 69.3067 293.363 69.7733 293.83 70.12C294.31 70.4667 294.87 70.64 295.51 70.64C296.017 70.64 296.45 70.5867 296.81 70.48C297.17 70.36 297.557 70.1933 297.97 69.98L298.53 71.5C298.117 71.7267 297.65 71.9067 297.13 72.04C296.623 72.1733 296.043 72.24 295.39 72.24ZM304.408 72.24C303.541 72.24 302.755 72.02 302.048 71.58C301.341 71.14 300.775 70.52 300.348 69.72C299.935 68.9067 299.728 67.9533 299.728 66.86C299.728 65.82 299.935 64.8867 300.348 64.06C300.775 63.2333 301.355 62.58 302.088 62.1C302.835 61.6067 303.688 61.36 304.648 61.36C305.248 61.36 305.788 61.4667 306.268 61.68C306.761 61.88 307.188 62.1333 307.548 62.44V61.6H309.188V69.48C309.188 69.9867 309.308 70.32 309.548 70.48C309.801 70.6267 310.075 70.7 310.368 70.7L309.988 72.1C308.708 72.1 307.935 71.58 307.668 70.54C307.361 70.9667 306.941 71.36 306.408 71.72C305.888 72.0667 305.221 72.24 304.408 72.24ZM304.808 70.64C305.315 70.64 305.795 70.52 306.248 70.28C306.701 70.0267 307.081 69.7133 307.388 69.34V63.76C307.028 63.5067 306.628 63.3067 306.188 63.16C305.761 63 305.308 62.92 304.828 62.92C304.188 62.92 303.621 63.0867 303.128 63.42C302.648 63.74 302.268 64.1933 301.988 64.78C301.708 65.3533 301.568 66.0267 301.568 66.8C301.568 67.5467 301.708 68.2133 301.988 68.8C302.268 69.3733 302.655 69.8267 303.148 70.16C303.641 70.48 304.195 70.64 304.808 70.64ZM312.859 76.4V64.26C312.859 63.8067 312.746 63.4867 312.519 63.3C312.306 63.1 312.026 63 311.679 63L312.059 61.6C313.286 61.6 314.052 62.0867 314.359 63.06C314.492 62.86 314.706 62.6267 314.999 62.36C315.306 62.0933 315.679 61.86 316.119 61.66C316.572 61.46 317.086 61.36 317.659 61.36C318.459 61.36 319.206 61.5733 319.899 62C320.606 62.4133 321.172 63.02 321.599 63.82C322.026 64.6067 322.239 65.5667 322.239 66.7C322.239 67.8067 322.026 68.78 321.599 69.62C321.172 70.4467 320.612 71.0933 319.919 71.56C319.239 72.0133 318.499 72.24 317.699 72.24C317.086 72.24 316.512 72.12 315.979 71.88C315.446 71.6267 315.006 71.34 314.659 71.02V76.4H312.859ZM317.339 70.64C318.246 70.64 318.979 70.2867 319.539 69.58C320.112 68.86 320.399 67.92 320.399 66.76C320.399 65.96 320.252 65.2733 319.959 64.7C319.679 64.1267 319.299 63.6867 318.819 63.38C318.352 63.0733 317.832 62.92 317.259 62.92C316.686 62.92 316.166 63.0667 315.699 63.36C315.246 63.64 314.899 63.9467 314.659 64.28V69.4C315.006 69.76 315.406 70.06 315.859 70.3C316.312 70.5267 316.806 70.64 317.339 70.64ZM324.745 72V61.6H326.545V72H324.745ZM325.645 59.82C325.298 59.82 324.998 59.6933 324.745 59.44C324.505 59.1867 324.385 58.8933 324.385 58.56C324.385 58.1733 324.498 57.8667 324.725 57.64C324.951 57.4133 325.258 57.3 325.645 57.3C325.991 57.3 326.285 57.4267 326.525 57.68C326.778 57.92 326.905 58.2133 326.905 58.56C326.905 58.9333 326.791 59.24 326.565 59.48C326.338 59.7067 326.031 59.82 325.645 59.82ZM333.385 72.24C332.385 72.24 331.591 71.9133 331.005 71.26C330.431 70.5933 330.145 69.6467 330.145 68.42V63.54H328.345V61.98H330.185L330.565 58.7H331.945V61.98H334.825V63.54H331.945V68.56C331.945 69.3333 332.105 69.8733 332.425 70.18C332.758 70.4867 333.151 70.64 333.605 70.64C333.938 70.64 334.251 70.5867 334.545 70.48C334.851 70.3733 335.131 70.2467 335.385 70.1L335.885 71.54C335.618 71.7 335.258 71.8533 334.805 72C334.351 72.16 333.878 72.24 333.385 72.24ZM341.283 72.24C340.416 72.24 339.63 72.02 338.923 71.58C338.216 71.14 337.65 70.52 337.223 69.72C336.81 68.9067 336.603 67.9533 336.603 66.86C336.603 65.82 336.81 64.8867 337.223 64.06C337.65 63.2333 338.23 62.58 338.963 62.1C339.71 61.6067 340.563 61.36 341.523 61.36C342.123 61.36 342.663 61.4667 343.143 61.68C343.636 61.88 344.063 62.1333 344.423 62.44V61.6H346.063V69.48C346.063 69.9867 346.183 70.32 346.423 70.48C346.676 70.6267 346.95 70.7 347.243 70.7L346.863 72.1C345.583 72.1 344.81 71.58 344.543 70.54C344.236 70.9667 343.816 71.36 343.283 71.72C342.763 72.0667 342.096 72.24 341.283 72.24ZM341.683 70.64C342.19 70.64 342.67 70.52 343.123 70.28C343.576 70.0267 343.956 69.7133 344.263 69.34V63.76C343.903 63.5067 343.503 63.3067 343.063 63.16C342.636 63 342.183 62.92 341.703 62.92C341.063 62.92 340.496 63.0867 340.003 63.42C339.523 63.74 339.143 64.1933 338.863 64.78C338.583 65.3533 338.443 66.0267 338.443 66.8C338.443 67.5467 338.583 68.2133 338.863 68.8C339.143 69.3733 339.53 69.8267 340.023 70.16C340.516 70.48 341.07 70.64 341.683 70.64ZM352.807 72.24C352.194 72.24 351.64 72.1267 351.147 71.9C350.654 71.66 350.26 71.28 349.967 70.76C349.687 70.24 349.547 69.5667 349.547 68.74V57.2H351.347V68.56C351.347 69.28 351.494 69.8133 351.787 70.16C352.094 70.5067 352.514 70.68 353.047 70.68C353.3 70.68 353.547 70.6533 353.787 70.6C354.04 70.5333 354.254 70.46 354.427 70.38L354.867 71.84C354.627 71.9467 354.327 72.04 353.967 72.12C353.62 72.2 353.234 72.24 352.807 72.24ZM366.497 72.24C365.644 72.24 364.864 72.02 364.157 71.58C363.45 71.14 362.89 70.52 362.477 69.72C362.064 68.9067 361.857 67.9533 361.857 66.86C361.857 65.8067 362.064 64.8667 362.477 64.04C362.904 63.2133 363.464 62.56 364.157 62.08C364.864 61.6 365.637 61.36 366.477 61.36C367.17 61.36 367.764 61.5 368.257 61.78C368.764 62.06 369.157 62.3467 369.437 62.64V57.2H371.237V69.48C371.237 69.9867 371.357 70.32 371.597 70.48C371.85 70.6267 372.124 70.7 372.417 70.7L372.037 72.1C370.77 72.1 369.997 71.5933 369.717 70.58C369.424 70.9933 369.01 71.3733 368.477 71.72C367.957 72.0667 367.297 72.24 366.497 72.24ZM366.897 70.64C367.39 70.64 367.857 70.5267 368.297 70.3C368.75 70.06 369.13 69.7533 369.437 69.38V64.22C369.184 63.9 368.83 63.6067 368.377 63.34C367.924 63.06 367.424 62.92 366.877 62.92C366.237 62.92 365.677 63.0933 365.197 63.44C364.717 63.7867 364.344 64.2533 364.077 64.84C363.824 65.4133 363.697 66.0667 363.697 66.8C363.697 67.5333 363.837 68.1933 364.117 68.78C364.397 69.3533 364.777 69.8067 365.257 70.14C365.75 70.4733 366.297 70.64 366.897 70.64ZM378.787 72.24C377.294 72.24 376.107 71.7667 375.227 70.82C374.361 69.86 373.927 68.52 373.927 66.8C373.927 65.76 374.121 64.8333 374.507 64.02C374.907 63.1933 375.461 62.5467 376.167 62.08C376.874 61.6 377.694 61.36 378.627 61.36C379.627 61.36 380.454 61.58 381.107 62.02C381.774 62.4467 382.274 63.0267 382.607 63.76C382.941 64.4933 383.107 65.3 383.107 66.18C383.107 66.6467 383.087 67.1 383.047 67.54H375.767C375.887 68.5133 376.227 69.2733 376.787 69.82C377.347 70.3667 378.087 70.64 379.007 70.64C379.607 70.64 380.147 70.58 380.627 70.46C381.107 70.3267 381.567 70.16 382.007 69.96L382.427 71.5C381.947 71.7133 381.407 71.8867 380.807 72.02C380.207 72.1667 379.534 72.24 378.787 72.24ZM375.747 66.08H381.447C381.447 65.0667 381.194 64.2867 380.687 63.74C380.181 63.1933 379.481 62.92 378.587 62.92C377.814 62.92 377.174 63.1933 376.667 63.74C376.161 64.2733 375.854 65.0533 375.747 66.08ZM385.886 76.4V64.26C385.886 63.8067 385.773 63.4867 385.546 63.3C385.333 63.1 385.053 63 384.706 63L385.086 61.6C386.313 61.6 387.08 62.0867 387.386 63.06C387.52 62.86 387.733 62.6267 388.026 62.36C388.333 62.0933 388.706 61.86 389.146 61.66C389.6 61.46 390.113 61.36 390.686 61.36C391.486 61.36 392.233 61.5733 392.926 62C393.633 62.4133 394.2 63.02 394.626 63.82C395.053 64.6067 395.266 65.5667 395.266 66.7C395.266 67.8067 395.053 68.78 394.626 69.62C394.2 70.4467 393.64 71.0933 392.946 71.56C392.266 72.0133 391.526 72.24 390.726 72.24C390.113 72.24 389.54 72.12 389.006 71.88C388.473 71.6267 388.033 71.34 387.686 71.02V76.4H385.886ZM390.366 70.64C391.273 70.64 392.006 70.2867 392.566 69.58C393.14 68.86 393.426 67.92 393.426 66.76C393.426 65.96 393.28 65.2733 392.986 64.7C392.706 64.1267 392.326 63.6867 391.846 63.38C391.38 63.0733 390.86 62.92 390.286 62.92C389.713 62.92 389.193 63.0667 388.726 63.36C388.273 63.64 387.926 63.9467 387.686 64.28V69.4C388.033 69.76 388.433 70.06 388.886 70.3C389.34 70.5267 389.833 70.64 390.366 70.64ZM400.932 72.24C400.319 72.24 399.765 72.1267 399.272 71.9C398.779 71.66 398.385 71.28 398.092 70.76C397.812 70.24 397.672 69.5667 397.672 68.74V57.2H399.472V68.56C399.472 69.28 399.619 69.8133 399.912 70.16C400.219 70.5067 400.639 70.68 401.172 70.68C401.425 70.68 401.672 70.6533 401.912 70.6C402.165 70.5333 402.379 70.46 402.552 70.38L402.992 71.84C402.752 71.9467 402.452 72.04 402.092 72.12C401.745 72.2 401.359 72.24 400.932 72.24ZM408.773 72.24C407.786 72.24 406.9 72.0133 406.113 71.56C405.326 71.0933 404.706 70.4533 404.253 69.64C403.813 68.8133 403.593 67.8667 403.593 66.8C403.593 65.68 403.82 64.7133 404.273 63.9C404.726 63.0867 405.346 62.46 406.133 62.02C406.92 61.58 407.8 61.36 408.773 61.36C409.746 61.36 410.62 61.58 411.393 62.02C412.18 62.46 412.8 63.0867 413.253 63.9C413.72 64.7 413.953 65.6533 413.953 66.76C413.953 67.8667 413.726 68.8333 413.273 69.66C412.82 70.4733 412.2 71.1067 411.413 71.56C410.64 72.0133 409.76 72.24 408.773 72.24ZM408.773 70.64C409.826 70.64 410.646 70.2867 411.233 69.58C411.82 68.86 412.113 67.9333 412.113 66.8C412.113 66.1067 411.966 65.4733 411.673 64.9C411.38 64.3133 410.98 63.8467 410.473 63.5C409.98 63.14 409.413 62.96 408.773 62.96C407.72 62.96 406.9 63.3067 406.313 64C405.726 64.6933 405.433 65.6133 405.433 66.76C405.433 67.4533 405.58 68.1 405.873 68.7C406.166 69.2867 406.56 69.76 407.053 70.12C407.56 70.4667 408.133 70.64 408.773 70.64ZM416.215 76.64C415.815 76.64 415.462 76.6 415.155 76.52C414.862 76.44 414.629 76.3467 414.455 76.24L414.855 74.74C415.015 74.8333 415.215 74.9133 415.455 74.98C415.695 75.0467 415.962 75.08 416.255 75.08C416.815 75.08 417.315 74.9 417.755 74.54C418.195 74.18 418.615 73.4733 419.015 72.42L419.475 71.22H418.515L414.455 62.08L416.055 61.36L419.935 70.02L422.955 61.44L424.615 62.08L420.795 72.52C420.409 73.5867 419.989 74.42 419.535 75.02C419.082 75.62 418.582 76.04 418.035 76.28C417.489 76.52 416.882 76.64 416.215 76.64ZM426.424 72V61.6H428.164V63.34C428.538 62.78 429.011 62.3133 429.584 61.94C430.158 61.5533 430.811 61.36 431.544 61.36C432.371 61.36 433.044 61.56 433.564 61.96C434.098 62.36 434.471 62.8933 434.684 63.56C435.098 62.9467 435.584 62.4267 436.144 62C436.718 61.5733 437.424 61.36 438.264 61.36C439.398 61.36 440.238 61.72 440.784 62.44C441.344 63.1467 441.624 64.0733 441.624 65.22V72H439.824V65.36C439.824 64.64 439.658 64.06 439.324 63.62C438.991 63.1667 438.531 62.94 437.944 62.94C437.344 62.94 436.784 63.1667 436.264 63.62C435.758 64.06 435.311 64.58 434.924 65.18V72H433.124V65.36C433.124 64.64 432.958 64.06 432.624 63.62C432.291 63.1667 431.831 62.94 431.244 62.94C430.658 62.94 430.104 63.16 429.584 63.6C429.064 64.0267 428.611 64.5333 428.224 65.12V72H426.424ZM448.885 72.24C447.392 72.24 446.205 71.7667 445.325 70.82C444.458 69.86 444.025 68.52 444.025 66.8C444.025 65.76 444.218 64.8333 444.605 64.02C445.005 63.1933 445.558 62.5467 446.265 62.08C446.972 61.6 447.792 61.36 448.725 61.36C449.725 61.36 450.552 61.58 451.205 62.02C451.872 62.4467 452.372 63.0267 452.705 63.76C453.038 64.4933 453.205 65.3 453.205 66.18C453.205 66.6467 453.185 67.1 453.145 67.54H445.865C445.985 68.5133 446.325 69.2733 446.885 69.82C447.445 70.3667 448.185 70.64 449.105 70.64C449.705 70.64 450.245 70.58 450.725 70.46C451.205 70.3267 451.665 70.16 452.105 69.96L452.525 71.5C452.045 71.7133 451.505 71.8867 450.905 72.02C450.305 72.1667 449.632 72.24 448.885 72.24ZM445.845 66.08H451.545C451.545 65.0667 451.292 64.2867 450.785 63.74C450.278 63.1933 449.578 62.92 448.685 62.92C447.912 62.92 447.272 63.1933 446.765 63.74C446.258 64.2733 445.952 65.0533 445.845 66.08ZM455.604 72V61.6H457.344V63.34C457.717 62.78 458.191 62.3133 458.764 61.94C459.351 61.5533 460.044 61.36 460.844 61.36C462.017 61.36 462.891 61.7133 463.464 62.42C464.051 63.1267 464.344 64.06 464.344 65.22V72H462.544V65.42C462.544 64.6733 462.364 64.0733 462.004 63.62C461.657 63.1667 461.171 62.94 460.544 62.94C459.931 62.94 459.351 63.16 458.804 63.6C458.257 64.0267 457.791 64.5333 457.404 65.12V72H455.604ZM471.08 72.24C470.08 72.24 469.287 71.9133 468.7 71.26C468.127 70.5933 467.84 69.6467 467.84 68.42V63.54H466.04V61.98H467.88L468.26 58.7H469.64V61.98H472.52V63.54H469.64V68.56C469.64 69.3333 469.8 69.8733 470.12 70.18C470.453 70.4867 470.847 70.64 471.3 70.64C471.633 70.64 471.947 70.5867 472.24 70.48C472.547 70.3733 472.827 70.2467 473.08 70.1L473.58 71.54C473.313 71.7 472.953 71.8533 472.5 72C472.047 72.16 471.573 72.24 471.08 72.24ZM476.789 72.24C476.429 72.24 476.116 72.1067 475.849 71.84C475.582 71.5733 475.449 71.26 475.449 70.9C475.449 70.4867 475.569 70.16 475.809 69.92C476.049 69.68 476.376 69.56 476.789 69.56C477.136 69.56 477.442 69.6933 477.709 69.96C477.989 70.2267 478.129 70.54 478.129 70.9C478.129 71.3 478.002 71.6267 477.749 71.88C477.496 72.12 477.176 72.24 476.789 72.24Z" fill="black" fill-opacity="0.8"/>
</svg>
