<svg width="24" height="25" viewBox="0 0 24 25" fill="none" xmlns="http://www.w3.org/2000/svg">
    <path d="M19.2682 6.25407C17.9382 5.63407 16.4982 5.18407 14.9982 4.92407C14.9718 4.92445 14.9466 4.93523 14.9282 4.95407C14.7482 5.28407 14.5382 5.71407 14.3982 6.04407C12.8072 5.80422 11.1892 5.80422 9.59816 6.04407C9.45816 5.70407 9.24816 5.28407 9.05816 4.95407C9.04816 4.93407 9.01816 4.92407 8.98816 4.92407C7.48816 5.18407 6.05816 5.63407 4.71816 6.25407C4.70816 6.25407 4.69816 6.26407 4.68816 6.27407C1.96816 10.3441 1.21816 14.3041 1.58816 18.2241C1.58816 18.2441 1.59816 18.2641 1.61816 18.2741C3.41816 19.5941 5.14816 20.3941 6.85816 20.9241C6.88816 20.9341 6.91816 20.9241 6.92816 20.9041C7.32816 20.3541 7.68816 19.7741 7.99816 19.1641C8.01816 19.1241 7.99816 19.0841 7.95816 19.0741C7.38816 18.8541 6.84816 18.5941 6.31816 18.2941C6.27816 18.2741 6.27816 18.2141 6.30816 18.1841C6.41816 18.1041 6.52816 18.0141 6.63816 17.9341C6.65816 17.9141 6.68816 17.9141 6.70816 17.9241C10.1482 19.4941 13.8582 19.4941 17.2582 17.9241C17.2782 17.9141 17.3082 17.9141 17.3282 17.9341C17.4382 18.0241 17.5482 18.1041 17.6582 18.1941C17.6982 18.2241 17.6982 18.2841 17.6482 18.3041C17.1282 18.6141 16.5782 18.8641 16.0082 19.0841C15.9682 19.0941 15.9582 19.1441 15.9682 19.1741C16.2882 19.7841 16.6482 20.3641 17.0382 20.9141C17.0682 20.9241 17.0982 20.9341 17.1282 20.9241C18.8482 20.3941 20.5782 19.5941 22.3782 18.2741C22.3982 18.2641 22.4082 18.2441 22.4082 18.2241C22.8482 13.6941 21.6782 9.76407 19.3082 6.27407C19.2982 6.26407 19.2882 6.25407 19.2682 6.25407ZM8.51816 15.8341C7.48816 15.8341 6.62816 14.8841 6.62816 13.7141C6.62816 12.5441 7.46816 11.5941 8.51816 11.5941C9.57817 11.5941 10.4182 12.5541 10.4082 13.7141C10.4082 14.8841 9.56816 15.8341 8.51816 15.8341ZM15.4882 15.8341C14.4582 15.8341 13.5982 14.8841 13.5982 13.7141C13.5982 12.5441 14.4382 11.5941 15.4882 11.5941C16.5482 11.5941 17.3882 12.5541 17.3782 13.7141C17.3782 14.8841 16.5482 15.8341 15.4882 15.8341Z" fill="black" fill-opacity="0.8"/>
</svg>
