<svg xmlns="http://www.w3.org/2000/svg" width="60" height="60" fill="none">
  <path fill="currentColor" fill-rule="evenodd"
    d="M51.964 8.518v.268h-2.143v.535H47.68v.536H46.07v.536h-1.607v.536h-1.607v.535H41.25V12h-1.607v.536H38.57v.535h-3.214v-.535h-2.143V12h-6.428v.536h-2.143v.535h-1.607v.536h-1.072v.536h-1.071v.536h-.536v.535h-1.071v.536h-.536v.536h-.536v.535h-.535v.536h-.536v.536h-.536v.536h-.536v.535h-.535v1.072H15v.535h-.536v1.072h-.535v1.071h-.536v1.607h-.536v2.143h-.536v3.75h-.535v.536h-.536v.536h-.536v.535h-.535v.536h-.536v.536h-.536v.536h-.536v.535h-.535v.536H7.5v.536h-.536v.535H6.43v1.072h-.536v.536h-.536v.535h-.536v.536h-.535v.536H3.75v1.071h-.536v.536H2.68v.536h-.536V42h-.536v1.071h-.536v1.072H.536v1.071H0V49.5h.536v.536h.535v.535h1.072v.536h5.893v-.536h2.143v-.535h1.607V49.5h1.607v-.536h2.143v-.535h.535v-.536h1.608v-.536h1.607v-.536h1.071v-.535h1.072v-.536h1.607v.536h1.607v.535h2.143v.536h6.428v-.536h2.143v-.535h1.607v-.536h1.072v-.536h1.071v-.535h.536v-.536h1.071v-.536h.536v-.536h.536v-.535h.535V42h.536v-.536h.536v-.535h.536v-.536h.535V39.32H45v-.535h.536v-1.072h.535v-1.071h.536v-1.607h.536v-2.143h.536v-4.286h.535v-.536h.536v-.535h.536V27h.535v-.536h.536v-.535h.536v-.536h.536v-.536h.535v-.536h.536v-.535h.536v-.536h.535v-.536h.536v-.535h.536v-.536h.536V20.57h.535v-.535h.536V19.5h.536v-.536h.535v-.535h.536v-1.072h.536v-1.071h.536v-1.072h.535v-1.071H60V9.857h-.536v-.536h-.535v-.535h-1.072V8.25h-5.893zm.536.536v.267h-2.679v.536h-1.607v.536h-2.143v.536h-1.607v.535h-1.607V12h-1.071v.536h-1.607v.535h-1.072v.536H37.5v.536h-1.607v-.536h-.536v.536h.536v.536H34.82v-.536h-.535v.536h.535v.535H33.75v.536h-1.071v-.536h.535v-.535h-1.607v-.536h.536v-.536H31.07v1.072h-.535v.535H30v-1.071h-.536v-.536H30v-.536h-.536v.536h-1.071v-.536h-.536v.536h.536v.536h.536v.536h-1.072v-.536h-.536v.536h.536v.535h-.536v.536h-.535v1.071h-.536v-1.607h.536v-.535h-1.072v-.536h-1.071v.536h-.536v-.536h-1.071v.536H22.5v.535h.536v-.535h1.071v.535h-.536v.536h-.535v.536h.535v-.536h.536v-.536h1.072v-.535h.535v1.071h-.535v.536h-.536v1.071h-.536v-.536h-.536v.536h-.535v.536H22.5v.536h.536v.535h-1.072v.536h-.535v-1.607h.535v-.536h.536v-.536h-.536v.536h-1.071v.536h-.536v-.536h-.536v1.072h1.072v.535h-.536v.536h.536v.536h-.536v.535h-1.071v-.535h.535V19.5H18.75v.536h-.536v1.071h-.535v.536h-1.072v.536h-.536v.535h.536v-.535h.536v1.071H16.07v.536h.536v.535h-.536v.536h.536v-.536h.536v.536h.536v-.536h-.536V23.25h.536v.536h.535v.535h.536v.536h-.536v.536h-.535v.536h-.536v.535h-.536V27h-1.071v.536H15v.535h-.536v.536h-.535v.536h-.536v.536h-.536v1.071h-.536v.536h-.535v.535h-.536v.536h-.536v.536h-.535v.536h-.536v.535h-.536v.536h-.536v.536h-.535v.535H7.5v.536h-.536v.536H6.43v1.071h-.536v.536h-.536v.536h-.536v.535h-.535v1.072H3.75v.536h-.536v.535H2.68v1.072h-.536v.535h-.536v1.072h-.536v1.071H.536v3.75h.535v.536H2.68v1.071H3.75v-.535h.536v.535H7.5v-.535h2.679V49.5h1.607v-.536h1.607v-.535h.536v-.536h.535v.536H15v-.536h-.536v-.536h-1.607v-.536h.536v-.535h.536v.535H15v.536h.536v.536h.535v-.536h-.535v-.536H15v-.535h-1.071v-.536h-.536v-1.071H12.32v.535h-.535v-.535h-.536v-.536h4.286v-.536h2.143v-.536h.535v-.535h-.535V42h-.536v-.536h-.536v-.535h-.536v-.536h-.535V39.32H15v-.535h-.536v-1.072h-.535v-.535h-.536v.535h-.536v-1.071h.536v-.536h.536v-.536h.535v-.535H15V34.5h.536v-.536h.535v-.535h.536v-.536h1.072v-.536h.535v-.536h.536v-.535h.536v-.536h.535v-.536h1.072v-.535h.536v-.536h.535v-.536h1.072v-.536h.535v-.535h1.072V27h.536v-.536h1.071v-.535h.536v-.536h1.071v1.071h-1.071V27h-1.072v.536h-.535v.535h-.536v.536H23.57v1.607h-.535v-.535H22.5v.535h-.536v.536h-.535v.536h-.536v.535h-.536v1.072h-.536v.536H18.75v.535h-.536v.536h-.535v1.071h-.536v1.608h-.536v.535h.536v1.072h.536v-.536h1.071v1.071h.536V38.25h-.536v-.536h.536v-.535h.535v-.536h.536v-.536h1.072v.536h.535v.536h.536v-.536h.536v-.536h1.071v.536h.536v.536h.536v1.071h-.536v-.536h-.536v.536h.536v1.071h-.536v-.535h-.536v-.536H22.5v.536h1.071v.535h.536v.536h-.536v.536H22.5v.536h1.071v.535h.536V42h-.536v.536h.536v.535h-1.071v.536h1.071v-.536h.536v.536h.536v.536h1.071v-.536h1.071v-1.071h.536v1.607h.536v.536h.536v-.536h.535v-.536h-.535v-.536h-.536v-.535h.536v-1.607h.535v-.536h-.535v-.536h1.607v.536h.535v1.071h-.535v-.535H30v.535h-.536V42H30v-.536h.536V42h.535v.536h.536V42h-.536v-.536h1.072v-.535h1.071v.535h-.535V42h-.536v.536h1.071v.535h-1.071v.536h-.536v-.536h-1.071v.536h.535v1.072h.536v-.536h.536v-.536h1.607v.536h.536v.536h-.536v.535h.536v-.535h.535v.535h.536v-.535h-.536v-.536h-.535v-.536h-.536v-.536h1.071v-.535h.536v.535h.536v.536h.536v.536h.535v-.536h-.535v-1.071h.535V42h-.535v-.536h.535v-1.071h.536v.536h1.071v-.536H37.5v-.536h.536v-.536h.535v.536h.536v1.072h.536V39.32h1.071v.536h.536v-.536h-.536v-.535h1.072v-1.072h-.536v-1.071h-.536V35.57h.536v.536h.536v1.072h.535v-1.072h.536v.536h.536v.536h-.536v.535h.536v-.535h.536v-.536h.535v-.536H45v-.536h.536v-.535H45v.535h-.536v.536h-1.607v-.536h1.072v-.535h-1.072V34.5h1.072v-.536h.535v.536H45v-1.071h.536v-1.072h1.071v-.536h.536v-.535h-.536v-.536h-.536v-.536h-.535v-1.071h.535v.536h.536v-.536h-.536v-.536h-.535v-1.071H45v-1.072h-.536v-.535h1.072v.535h.535v-.535h-.535v-.536H45v-.536h.536v-1.071H45v-.536h-1.071v-.536h.535v-.535h-.535v-1.072h-.536v-.536H42.32V19.5h.536v.536h.536V19.5h-.536v-.536h-.536v.536h-.535v-.536h-.536v.536h-2.143v.536h-1.071v.535h-1.607v-.535h.535V19.5h1.607v-.536h1.072v-.535h1.607v-.536h1.071v-.536H45v-.536h4.286v.536h-3.75v.536h-2.143v.536h.536v.535h.535v1.072H45v.535h.536v1.072h.535v1.071h.536v1.607h.536v-.535h.536v.535h.535v1.072h-.535v.536h.535v-.536h.536V24.32h-.536v-.535h-.535v-.536h.535v-.536h.536v1.072h.536v1.071h.535v.536h-.535v.536h-.536v.535h-.536v1.072h.536v-1.072h.536v-.535h.535v-.536h.536v-.536h.536v-.536h.536v-.535h-.536v-.536h-.536v-.536h-.536v-.535h.536v-.536h.536v1.071h.536v.536h.535v.536h.536v-.536h.536v-.536h.535v-1.071h.536v-.536h.536v-.536h.536v-.535h.535V19.5h-.535v-.536h1.071v-.535h.536v-.536h.535V16.82h.536v-.535h.536v-1.072h.536v-1.071h.535v-3.75h-.535v-.536h-.536v-.536H57.32v-.535H52.5zm0 1.607v.268h-1.607v.535h-1.607V12h-2.143v.536H45v.535h-1.071v.536H42.32v.536H41.25v.536h-1.071v.535h-1.072v.536H37.5v.536h-1.071v.535h-1.072v.536h-1.071v.536h-1.072v.536h-1.071v.535H31.07v.536h-.535v.536h-1.072v.535h-1.071v.536H27.32v.536h-.535v.536h-1.072v.535h-.535v.536h-.536v.536H23.57v.535h-.535v.536h-1.072v.536h-.535v.536h-.536v.535h-.536V27h-1.071v.536h-.536v.535h-.536v.536h-.535v.536h-1.072v.536h-.536v.535h-.535v.536H15v.536h-.536v.535h-.535v.536h-.536v.536H12.32v1.071H11.25v.536h-.536v.536h-.535v.535h-.536v.536h-.536v.536h-.536v.536h-.535v.535H7.5v.536h-.536v1.071H5.893v1.072h-.536v.536h-.536V42h-.535v1.071H3.75v1.072h-.536v2.678h.536v1.072h1.071v.536h1.072v.535h3.214v-.535h2.143v-.536h.536v.536h.535v-.536h.536v.536h.536v-.536h-.536v-.536H9.643v.536H8.036v-.536H7.5v-.536h.536v-.535H7.5v.535h-.536v.536H5.893v-.536h.536v-.535h-.536v.535h-.536v-1.607h-.536v-1.607h.536v-1.071h.536v-1.072h.536v-1.071h.535v-.536H7.5v-.536h.536v-.535h.535v-.536h.536v-1.071h.536v-.536h.536v-.536h.535v-.536h.536v-.535h.536V34.5h.535v-.536h.536v-.535h.536v-.536h.536v-.536H15v.536h-.536v.536h-.535v.535h-.536v.536h-.536v.536h-.536v.535h-.535v.536h-.536v.536h-.536v1.071h-.535v.536h-.536v.536h-.536v1.071h-.536v.536h-.535v1.071H7.5v1.607H6.429v.536h.535v1.607H7.5v.536h1.071v.536h3.215v.535h.535v-.535h1.072v-.536h-.536v-.536h-.536v.536H11.25v-.536h-.536v.536H9.643v-.536H7.5v-1.071h.536v.536h.535v-1.072h.536v-.536h-.536v.536H7.5v-.536h.536V42h.535v-1.071h.536v-1.072h.536v-.536h.536v-.535h.535v-.536h.536v-1.071h.536v-.536h.535v-.536h.536v-.536h.536v-.535h.536V34.5h.535v-.536H15v-.535h.536v-.536h.535v-.536h.536v-.536h.536v-.535h.536v-.536h1.071v-.536h.536v-.535h.535v-.536h1.072v-.536h.536v-.536h.535v-.535h1.072V27h.535v-.536h1.072v-.535h.536v-.536h.535v-.536h1.072v-.536h1.071v-.535h.536v-.536h1.071v-.536h1.072v-.535h.535v-.536h1.072v-.536h1.071v-.536h.536v-.535h1.071V19.5h1.072v-.536h1.071v-.535h1.072v-.536h1.071v-.536h1.607v-.536h1.072v-.535h1.607v-.536h2.678v-.536h4.821v.536h.537v.536h.535v.535h-.535v.536h.535v1.607h-.535v1.607h-1.072v-.535h.536V19.5h-.536v-.536h.536v-1.071h-.536v-.536h-1.071v.536h.535v2.678h-.535v1.072h-.536v1.071h.536v1.072h.535v1.071h.536v-.536h.536v-.535H49.82v-1.072h-.535v-.535h.535V20.57h.536v.536h.536v.536h.536v.536h.535v1.071h.536v-1.071h.536v-.536H52.5v-.536h.536v-.536h.535v.536h.536v-.536h-.536v-.535h.536V19.5h.536v-.536h.536v-1.071h1.071v-.536h-.536v-1.071h.536v-1.607h.536V13.07h.535v.536h.536v-.536h-.536v-.535h-.535v.535h-.536V12h-.536v-.536h-1.071v-.535h.536v-.536h-.536v.536h-1.607v-.536H52.5zm4.286 0v.268h.535v-.536h-.535zm1.607 1.071V12h.536v-.536h-.536zm-31.607 1.072v.267h.535v-.535h-.535zm22.5 0v.267h-2.143v.536H45v.536h-1.607v.536h-1.607v.535h-1.072v.536h-1.607v.536H37.5v.535h-.536v.536h-1.607v.536h-1.071v.536h-1.072v.535h-1.071v.536H31.07v.536h-.535v.535h-1.072v.536h-1.071v.536h-.536v.536h-1.071v.535h-.536v.536h-1.071v.536h-.536v.535H23.57v.536h-.535v.536H22.5v.536h-1.071v.535h-.536V27h-.536v.536h-.536v.535h-.535v.536h-1.072v.536h-.535v.536h-.536v.535h-.536v.536h-1.071v1.071H15v.536h.536v-.536h.535v-.535h1.072v-.536h.536v-.536h.535v-.535h.536v-.536h1.071v-.536h.536v-.536h.536v-.535h1.071V27h.536v-.536h.536v-.535h1.071v-.536h1.072v-.536h.535v-.536h.536v-.535h1.071v-.536h.536v-.536h1.072v-.535H30v-.536h1.071v-.536h.536v-.536h1.072v-.535h1.071V19.5h1.071v-.536h1.072v-.535h1.071v-.536h.536v-.536h1.607v-.536h1.072v-.535h1.607v-.536h1.607v-.536h2.143v-.535h5.893v1.071h.535v-.536h.536v.536h1.071v.536H52.5v.535h.536v.536H52.5v1.607h.536v1.072H52.5V19.5h-.536v1.071h-.535v1.072h.535v.536h.536v-.536h-.536v-.536h.536v-.536h.536v-.535h.535v-1.072h.536v-1.071h.536v-1.607h.536v-1.072h-.536v-.535h.536v-.536h-.536V13.07H53.57v-.535h-.535v.535H52.5v-.535h-3.214zm-16.607.803v.536h.535V13.07h-.535zm17.678-.268v.268h.536v-.536h-.536zm2.143.536v.268h.536v-.536H52.5zm4.821.536v.268h.536v-.536h-.536zm-3.75.803v.536h.536v-1.071h-.536zm-25.714.268v.268h.536v.536h-.536v.535h.536v.536h.536v-.536h-.536v-.535h.536v-1.072h-1.072zm-7.5.536v.268h.536v-.536h-.536zm1.072 0v.268H22.5v-.536h-1.071zm8.571 0v.268h.536v.535h1.071v-.535h1.072v-.536h-1.072v.536h-1.071v-.536H30zm19.821.536v.267h.536v-.535h-.536zm6.965 0v.267h.535v-.535h-.535zm-38.036.535v.268h-.536v.536h-.535v.536h1.071v-1.072h.536v-.536h-.536zm10.714 0v.268H30v-.536h-.536zm24.107 0v.268h.536v-.536h-.536zm-30.535 1.072v.268h.535v-.536h-.535zm4.285.268v.535h.536v-.535h1.072v-.536H27.32zm25.715-.268v.268h.535v-.536h-.535zM26.25 19.232v.268h.536v-.536h-.536zm-1.071.536v.268h-1.072v.535h-1.071v1.072h-1.607v.536h-1.072v-.536h-.536v-.536h-.535v.536h.535v.536h.536v.535h-1.071v.536h.535v.536H18.75v-.536h-.536v.536h.536v.535h1.071v-.535h.536v-1.072h.536v.536h.536v-.536h.535v-.535h1.072v-.536h.535v-.536h.536v-.536h1.072v-.535h.535V19.5h-.535zm16.071 0v.268h.536V19.5h-.536zm-24.107.536v.267h-.536v.536h.536v-.536h.536v-.535h-.536zm17.678.535v.268H33.75v.536h-.536v.536h-1.071v.535H31.07v.536H30v.536h-.536v.535h-1.071v.536h-.536v.536h1.072v-.536h.535v-.536h1.072v-.535h.535v.535h.536v-.535h-.536v-.536h1.072v-.536h1.071v-.535h1.072v-.536h1.071v-.536h1.072v-.536H34.82zm8.036.536v.268h.536v-.536h-.536zM17.68 22.446v.268h.535v-.535h-.535zm27.321 0v.268h.536v-.535H45zm-30 .536v.268h.536v-.536H15zm28.929 1.072v.267h.535v-.535h-.535zm-1.072 1.071v.268h.536v-.536h-.536zm-8.036.536v.268h.536v-.536h-.536zm9.108 0v.268h.535v-.536h-.535zm-8.036.535v.268h.536v-.535h-.536zm2.143 0v.268h.535v-.535h-.535zm2.678 0v.268h.536v-.535h-.536zm2.143 0v.268h-.536V27h.536v-.536h.536V27h.536v.536h.535V27h-.535v-.536h-.536v-.535h-.536zm-5.893.536V27h.536v1.071h-.536v-.535h-.535V27h-.536v.536h-.536v.535h.536v-.535h.536v.535h.535v.536h.536v-.536h.536v-.535h.535v.535h.536v.536h.536v-.536h-.536v-.535h-.536V27H37.5v-.536h-.536zm2.143 0V27h.536v.536h.536V27h-.536v-.536h-.536zm-12.321.536v.268h-.536v.535h.536v-.535h.535V27h-.535zm19.285 0v.268h.536V27h-.536zm-3.214.536v.267h.536v-.535h-.536zm-17.678.535v.268h.535v-.536h-.535zm19.285 0v.268H45v.536h.536v-.536H45v-.536h-.536zm-18.214.536v.268h.536v.536h.535v-.536h.536v-.536h-.536v.536h-.535v-.536h-.536zm6.429 0v.268h.535v-.536h-.535zm1.071 0v.268h1.071v-.536H33.75zm2.143 0v.268h.536v-.536h-.536zm2.143 0v.268h.535v-.536h-.535zm-13.393.536v.268h.536v-.536h-.536zm4.286 0v.268h-.536v.535h.536v-.535H30v-.536h-1.071zm1.607.535v.268h.535v-.535h-.535zm1.071 0v.268h.536v-.535h-.536zm1.072 0v.268h.535v-.535h-.535zm1.607 0v.268h-.536v.536h1.071v-1.071h-.535zm1.071 0v.268h.536v-.535h-.536zm-11.786.536v.268h1.072v-.536H23.57zm21.429 0v.268h.536v.536h.535v.535h.536v-.535h-.536v-.536h-.535v-.536H45zm-23.036.536v.268h-.535v.535h.535v.536h.536v-.536h-.536v-.535h.536v-.536h-.536zm6.429 0v.268h-.536v.535h-.536v.536h.536v.536h-1.071v.536h-.536v-.536h-.536v1.071h-.535v-.535h-.536v-.536h-.536v.536h.536v.535h-.536v.536h-.536v-.536h-.535v1.072H22.5v1.071h-.536v-.536h-.535v.536h.535v.536h.536v-.536h.536v-.536h.535v-.535h.536v1.071h.536v.536h.536v.536h.535v.535h.536v-.535h-.536v-1.072h.536v.536h.536v-.536h-.536v-1.071h.536v.535h.535v.536h.536v-.536h-.536v-.535h-.535V34.5h-.536v.536h-.536v-1.072h1.072v-.535h1.071v-.536h.536v1.071h.536v-1.071h.535v-.536H30v.536h.536v.536h.535v-.536h-.535v-.536H30v-.536h-.536v-.535h1.072v.535h.535v.536h.536v-1.071h.536v.535h.536v-.535h.535v-.536h-.535v.536h-.536v-.536h-.536v.536h-.536v-.536h-1.607v.536h-.535v-.536h-.536zm9.107 0v.268h.536v-.536H37.5zm-9.107.536v.267h-.536v.536h.536v.536h.536v-.536h.535v-.536h-.535v-.535h-.536zm16.071 0v.267H45v.536h-.536v.536H45v-.536h.536v-.536H45v-.535h-.536zm-21.428.535v.268h.535v-.536h-.535zm5.357 0v.268h.536v-.536h-.536zm8.571 0v.268h.536v-.536h-.536zm-13.928 1.072v.268h.535v-.536h-.535zm10.178 0v.268h.536v-.536h-.536zm9.107.268v.535h-.535v1.072h.535v.535h-.535v.536h.535v-.536h.536v-.535h-.536V34.5h.536v-.536h.536v-.535h.536v-.536h-.536v.536h-.536v-.536h-.536zm-22.5.267v.268h-.535v.536h.535v-.536h.536v-.535h-.536zm9.643 0v.268H30v-.535h-.536zm5.357 0v.268h.536v-.535h-.536zm3.215 0v.268h1.071v-.535h-1.071zm1.607.268v.536H38.57v.536h1.072V34.5h1.071v.536h.536v-1.072h-1.071v-.535h-.536zm-15 .268v.268h-.536v.536h1.072v.535h-.536v.536h.536v-.536h.535v-.535h-.535v-1.072h-.536zm2.678 0v.268h.536v.536h.536V34.5h-.536v-.536h-.536zm18.75 0v.268h.536v-.536h-.536zm-25.178.536v.268h.536V34.5h-.536zm12.321 0v.268h.536V34.5h-.536zm4.286 0v.268h.536V34.5H37.5zm-17.679 1.071v.268h.536v-.536h-.536zm17.679.268v.536h.536v-.536h.535v-.536H37.5zm1.607 0v.536h.536V35.57h-.536zm-21.428.268v.268h.535v-.536h-.535zm1.071 0v.268h.536v-.536h-.536zm13.929.268v.536h-.536v.535h1.071v.536h1.072v-.536h-1.072v-1.071h.536v-.536h-1.071zm3.75 0v.536h.535v.535h-1.071v.536h-.536v.536h.536v-.536h1.071v-.536h1.072v.536h.535v-.536h-.535v-.535h-1.072v-1.072h-.535zm-1.072.268v.268h-.536v.535h.536v-.535h.536v-.536h-.536zm4.822 0v.268h.535v-.536h-.535zm4.821 0v.268h.536v-.536H45zm-27.857.535v.268h.536v-.535h-.536zm1.071 0v.268h.536v-.535h-.536zm2.679 0v.268H19.82v.536h1.072v.536h.536v-.536h.535v-.536h-.535v-.535h-.536zm2.143 0v.268h.535v-.535h-.535zm16.071 0v.268h.536v.536h.536v.536h.535v-.536h-.535v-.536h-.536v-.535h-.536zm-26.786.536v.268h-.535v.536h-.536v1.071h-.536v1.072h-.535V42h-.536v1.607h.536v.536h1.071v-.536h-.536V40.93h.536v-1.072h.536v-.536h.535V38.25h.536v-.536h-.536zm8.572 0v.268h.536v-.536h-.536zm9.107 0v.268h-.536v.536h-.535v.535H30v-.535h.536v-1.072H30zm1.071.536v.803h-.535v.536h1.071v.536h.536v-.536h.536v.536h.535v-.536h.536v.536h.536v-.536h-.536v-.536h.536v-.535h-.536v.535h-1.607v-.535h.536v-.536h-.536v.536h-.536v-1.072h-.536zm12.858-.536v.268h.535v-.536h-.535zm-27.858.536v.268h.536v-.536h-.536zm9.108.536v.267h.535v-.535h-.535zm12.321 0v.267h.536v-.535H37.5zm-15 .535v.268h.536v-.536H22.5zm9.107 0v.268h.536v-.536h-.536zm-13.393.536v.268h.536v-.536h-.536zm2.679 0v.268h.536v-.536h-.536zm5.357 0v.268h-.536v.536h.536v.535h.536v-.535h.535v.535h.536V42h.536v-.536h-.536v-.535h-.536v-.536h-.535v-.536h-.536zm-2.679.536v.268h.536v-.536h-.536zm1.072 0v.268h.536v-.536h-.536zm1.607 0v.268h.536v-.536h-.536zm2.143 0v.268h.536v-.536h-.536zm-8.572.535v.268h.536v-.535h-.536zm1.072 0v.268h.536V42h.535v-.536h-.535v-.535h-.536zm19.821 0v.268h.536v-.535h-.536zm-21.964.536V42h.536v.536h.535V42h-.535v-.536h-.536zm3.75 0V42h.536v-.536H22.5zm2.679 0V42h.535v-.536h-.535zm14.464 0V42H38.57v.536h.536v.535h.536V42h.536v-.536h-.536zm-15.536.536v.268h.536v.535h.536v.536h.535v-.536h-.535v-.535h-.536V42h-.536zm11.786 0v.268h.536V42h-.536zm1.607 0v.268h.536V42H37.5zm-16.607.536v.267h.536v-.535h-.536zm5.357 0v.267h.536v-.535h-.536zm3.214 0v.267H30v-.535h-.536zm-11.25 1.071v.268h.536v-.536h-.536zm10.179 0v.268h.536v-.536h-.536zm-4.822.536v.268h.536v-.536h-.536zm9.108 0v.268h.535v-.536h-.535zm-18.75.535v.268h.535v-.535h-.535zm1.607 0v.268h.535v.536h-.535v.536h.535v.535h.536v-.535h-.536v-.536h.536v-.536h-.536v-.535h-.535zm1.607 0v.268h.536v-.535h-.536zm2.143 0v.268h.535v-.535h-.535zm10.714 0v.268h.536v-.535H30zm-27.857.536v.268h.536v-.536h-.536zm16.071 0v.268h.536v-.536h-.536zm2.143 0v.268h.536v-.536h-.536zm-1.607 1.072v.267h.536v-.535h-.536zm-10.179.535v.268h.536v-.536h-.536zm8.572 0v.268h.536v-.536h-.536zm-10.179.536v.268H7.5v-.536h-.536zm-2.678 1.607v.268h.535v-.536h-.535zm2.678.536v.268H7.5V49.5h-.536z"
    clip-rule="evenodd" />
</svg>