<svg width="80" height="80" viewBox="0 0 80 80" fill="none" xmlns="http://www.w3.org/2000/svg">
<path d="M3.71957 49.0364C-1.23985 44.0915 -1.23986 36.0702 3.71957 31.1255C4.86669 29.9816 6.20995 29.0802 7.66964 28.4531V20.9755C7.66964 17.2534 9.43873 13.7795 11.8107 11.4792C14.1319 9.32098 17.2535 7.99734 20.6762 7.99734C22.3235 7.99734 23.9391 8.30918 25.4433 8.90047L30.5611 3.79774C35.6396 -1.26591 43.8696 -1.26592 48.9482 3.79774C50.1653 5.01127 51.1169 6.44109 51.7651 7.99725H59.2507C66.3518 7.99725 72.1253 13.7395 72.1253 20.8436C72.1253 22.5913 71.7684 24.3022 71.0949 25.8791L76.2256 30.9947C81.2582 36.0124 81.2582 44.1515 76.2256 49.1691C75.0382 50.3533 73.6431 51.2818 72.1258 51.9198V59.1964C72.1258 66.2125 66.424 71.8835 59.4113 71.8835C57.6907 71.8835 56.0062 71.5356 54.4518 70.8785L49.0271 76.2875C44.0624 81.2375 36.0173 81.2375 31.0527 76.2875C29.7853 75.0238 28.8125 73.5207 28.1791 71.8842H20.758C13.7602 71.884 8.07049 66.2253 8.07049 59.224C8.07049 57.5335 8.40928 55.8787 9.04857 54.3496L3.71957 49.0364Z" fill="#C62A2F"/>
<path d="M26.1936 13.1979C25.8222 12.8527 26.61 13.4774 26.1936 13.1979L32.9736 6.43778C36.72 2.70238 42.7942 2.70238 46.5405 6.43778C47.9484 7.84145 48.8736 9.63676 49.2093 11.5674H59.092C64.318 11.5674 68.5544 15.7913 68.5544 21.0019C68.5544 23.0153 67.9087 24.9628 66.7314 26.569L73.5925 33.4101C77.2878 37.0944 77.2878 43.0679 73.5925 46.7522C72.2129 48.1279 70.4509 49.0351 68.5549 49.3704V59.0375C68.5549 64.1608 64.3894 68.3141 59.2511 68.3141C57.2645 68.3141 55.3436 67.6806 53.76 66.5262L46.6187 73.6464C42.9853 77.2691 37.0944 77.2691 33.4611 73.6464C32.0089 72.1986 31.0865 70.3215 30.8178 68.3146H20.9174C15.7939 68.3146 11.6405 64.1735 11.6405 59.065C11.6405 57.1061 12.2637 55.2119 13.3996 53.6455L6.35387 46.6206C2.73101 43.0084 2.73099 37.1519 6.35387 33.5395C7.6951 32.2022 9.40416 31.3173 11.243 30.9817V21.1326C11.243 18.4433 12.5031 15.8736 14.295 14.1358C16.0087 12.5424 18.3084 11.5675 20.8362 11.5675C22.7584 11.5675 24.6214 12.1426 26.1936 13.1979Z" fill="#C62A2F"/>
<path fill-rule="evenodd" clip-rule="evenodd" d="M53.9034 28.4921C54.565 27.8305 54.565 26.7579 53.9034 26.0963C53.2418 25.4347 52.1692 25.4347 51.5076 26.0963L39.9996 37.6043L28.4916 26.0963C27.8301 25.4347 26.7574 25.4347 26.0958 26.0963C25.4342 26.7579 25.4342 27.8305 26.0958 28.4921L37.6038 40.0001L26.0958 51.5081C25.4342 52.1697 25.4342 53.2423 26.0958 53.9039C26.7574 54.5655 27.8301 54.5655 28.4916 53.9039L39.9996 42.3959L51.5076 53.9039C52.1692 54.5655 53.2418 54.5655 53.9034 53.9039C54.565 53.2423 54.565 52.1697 53.9034 51.5081L42.3955 40.0001L53.9034 28.4921Z" fill="white" fill-opacity="0.95"/>
</svg>
