<svg width="28" height="28" viewBox="0 0 28 28" fill="none" xmlns="http://www.w3.org/2000/svg">
  <path
    d="M27.1318 0.00180051C27.1272 0.287009 27.1204 0.572218 27.1023 0.857426C26.9398 3.47657 25.9637 6.03663 24.3399 8.09786C23.7172 8.91144 22.9559 9.60117 22.2401 10.3295C17.9233 14.6486 13.6043 18.9642 9.28752 23.2844C8.04214 24.5138 7.32855 26.2467 7.32628 27.9954C5.16506 27.9966 3.00383 27.9977 0.84375 27.9943C0.848295 27.7466 0.85398 27.5 0.864206 27.2534C1.0267 24.1354 2.35729 21.0959 4.53896 18.8631C9.25115 14.1486 13.9668 9.43641 18.6789 4.72081C19.9289 3.49021 20.6447 1.75396 20.6481 0.00180023C22.8094 0.000664036 24.9706 -0.00160845 27.1318 0.00180051Z"
    fill="currentColor" />
  <path
    d="M26.7778 24.9581C27.013 25.9523 27.1267 26.9739 27.1312 27.9954C24.97 27.9999 22.8076 27.9897 20.6464 27.9999C20.6385 26.6796 20.2464 25.3603 19.4988 24.2695C18.6318 22.9764 17.2955 22.0208 15.8047 21.5844C17.4387 19.9561 19.0647 18.321 20.6998 16.6938C23.7292 18.4801 25.9802 21.531 26.7778 24.9581Z"
    fill="currentColor" />
  <path
    d="M12.1675 6.41143C10.5347 8.04087 8.9075 9.67485 7.27238 11.3032C4.59869 9.7203 2.51928 7.16252 1.53071 4.21498C1.07165 2.86053 0.844389 1.43108 0.839844 0.0016254C3.0022 0.000489202 5.16343 0.00162448 7.32578 0.000488281C7.32919 1.50721 7.85189 3.00597 8.80296 4.17635C9.65972 5.24446 10.854 6.0285 12.1675 6.41143Z"
    fill="currentColor" />
  <path
    d="M10.7424 0C10.7371 0.472999 10.8349 0.946626 11.0485 1.37897C11.6962 2.83796 13.5086 3.61859 15.0142 3.07772C16.3265 2.67194 17.2322 1.35022 17.2351 0H10.7424Z"
    fill="currentColor" />
  <path
    d="M17.2352 27.9968C17.2372 27.6978 17.1954 27.3976 17.1047 27.1059C16.99 26.7014 16.7957 26.3208 16.5354 25.9912C15.5901 24.7356 13.6924 24.3754 12.3505 25.1936C11.3489 25.7497 10.7533 26.8718 10.7422 27.9968H17.2352Z"
    fill="currentColor" />
</svg>