<svg width="24" height="25" viewBox="0 0 24 25" fill="none" xmlns="http://www.w3.org/2000/svg">
    <path d="M17.8333 2.99976H6.16667C3.86583 2.99976 2 4.86559 2 7.16642V18.8331C2 21.1339 3.86583 22.9998 6.16667 22.9998H17.8333C20.135 22.9998 22 21.1339 22 18.8331V7.16642C22 4.86559 20.135 2.99976 17.8333 2.99976ZM8.66667 18.8331H6.16667V9.66642H8.66667V18.8331ZM7.41667 8.60976C6.61167 8.60976 5.95833 7.95142 5.95833 7.13976C5.95833 6.32809 6.61167 5.66976 7.41667 5.66976C8.22167 5.66976 8.875 6.32809 8.875 7.13976C8.875 7.95142 8.2225 8.60976 7.41667 8.60976ZM18.6667 18.8331H16.1667V14.1631C16.1667 11.3564 12.8333 11.5689 12.8333 14.1631V18.8331H10.3333V9.66642H12.8333V11.1373C13.9967 8.98226 18.6667 8.82309 18.6667 13.2006V18.8331Z" fill="black" fill-opacity="0.8"/>
</svg>

