<svg width="29" height="30" viewBox="0 0 29 30" fill="none" xmlns="http://www.w3.org/2000/svg">
<path opacity="0.2" d="M28.6417 15C28.6417 22.8105 22.31 29.1422 14.4996 29.1422C6.68907 29.1422 0.357422 22.8105 0.357422 15C0.357422 7.18956 6.68907 0.85791 14.4996 0.85791C22.31 0.85791 28.6417 7.18956 28.6417 15ZM4.60006 15C4.60006 20.4674 9.03222 24.8995 14.4996 24.8995C19.9669 24.8995 24.3991 20.4674 24.3991 15C24.3991 9.53271 19.9669 5.10055 14.4996 5.10055C9.03222 5.10055 4.60006 9.53271 4.60006 15Z" fill="currentColor"/>
<path d="M12.6165 0.983741C14.8284 0.68658 17.0793 0.91713 19.185 1.65654C21.2907 2.39595 23.1916 3.62323 24.7321 5.23803L21.6623 8.16661C20.584 7.03625 19.2534 6.17715 17.7794 5.65956C16.3054 5.14198 14.7298 4.98059 13.1814 5.1886L12.6165 0.983741Z" fill="currentColor"/>
</svg>
