<svg width="28" height="36" viewBox="0 0 28 36" fill="none" xmlns="http://www.w3.org/2000/svg">
    <path d="M24 12.1667H22.3333V8.83333C22.3333 4.23333 18.6 0.5 14 0.5C9.39996 0.5 5.66663 4.23333 5.66663 8.83333V12.1667H3.99996C2.16663 12.1667 0.666626 13.6667 0.666626 15.5V32.1667C0.666626 34 2.16663 35.5 3.99996 35.5H24C25.8333 35.5 27.3333 34 27.3333 32.1667V15.5C27.3333 13.6667 25.8333 12.1667 24 12.1667ZM14 27.1667C12.1666 27.1667 10.6666 25.6667 10.6666 23.8333C10.6666 22 12.1666 20.5 14 20.5C15.8333 20.5 17.3333 22 17.3333 23.8333C17.3333 25.6667 15.8333 27.1667 14 27.1667ZM19.1666 12.1667H8.83329V8.83333C8.83329 5.98333 11.15 3.66667 14 3.66667C16.85 3.66667 19.1666 5.98333 19.1666 8.83333V12.1667Z" fill="black"/>
</svg>
