<svg width="186" height="30" fill="currentColor" viewBox="0 0 186 30" xmlns="http://www.w3.org/2000/svg">
<path d="M184.799 22.5172V26.1765C183.771 26.6907 182.803 26.9024 181.563 26.9024C178.237 26.9024 176.15 24.9971 176.15 21.3679V14.0492H172.884V10.4503H176.15V5.67188H180.323V10.4503H184.95V14.0492H180.323V20.4002C180.323 22.2752 181.17 23.0313 182.682 23.0313C183.469 23.0313 184.194 22.8498 184.799 22.5172Z" />
<path d="M172.288 6.70007C172.288 8.12147 171.139 9.17997 169.475 9.17997C167.842 9.17997 166.693 8.12147 166.693 6.70007C166.693 5.21817 167.842 4.15967 169.475 4.15967C171.139 4.15967 172.288 5.21817 172.288 6.70007ZM171.623 26.5999H167.419V10.4502H171.623V26.5999Z" />
<path d="M165.046 20.2189C165.046 24.2412 162.082 26.6001 157.304 26.6001H148.805V4.88574H156.971C161.538 4.88574 164.35 6.94225 164.35 10.6621C164.35 12.6581 163.231 14.261 161.296 15.259C163.715 16.1058 165.046 17.8297 165.046 20.2189ZM156.608 8.51486H152.979V13.5654H156.608C158.846 13.5654 159.995 12.5977 159.995 11.025C159.995 9.48265 158.846 8.51486 156.608 8.51486ZM156.941 17.2248H152.979V22.971H156.941C159.421 22.971 160.721 21.8822 160.721 20.0374C160.721 18.3136 159.421 17.2248 156.941 17.2248Z" />
<path d="M138.55 26.8722C133.711 26.8722 130.475 23.5153 130.475 18.4647C130.475 13.6561 133.832 10.1479 138.49 10.1479C143.601 10.1479 146.988 14.2912 146.232 19.5535H134.77C135.042 22.1846 136.312 23.6363 138.459 23.6363C140.304 23.6363 141.544 22.729 142.028 21.1261H146.202C145.294 24.7855 142.482 26.8722 138.55 26.8722ZM138.399 13.2327C136.433 13.2327 135.193 14.5029 134.83 16.8921H141.786C141.665 14.6541 140.395 13.2327 138.399 13.2327Z" />
<path d="M121.666 26.9025C117.009 26.9025 113.803 23.4548 113.803 18.5252C113.803 13.6864 117.129 10.1479 121.666 10.1479C125.87 10.1479 128.985 12.9908 129.499 17.3457H125.083C124.872 15.1985 123.571 13.8678 121.666 13.8678C119.488 13.8678 118.097 15.6521 118.097 18.5252C118.097 21.4285 119.458 23.1826 121.666 23.1826C123.601 23.1826 124.841 21.9124 125.083 19.7047H129.499C129.015 24.1504 125.99 26.9025 121.666 26.9025Z" />
<path d="M101.743 17.7994V26.6001H97.5389V10.4504H101.41V12.7488C102.59 11.146 104.253 10.1479 106.37 10.1479C109.606 10.1479 111.844 12.2649 111.844 16.1663V26.6001H107.67V17.5877C107.67 15.1985 106.733 13.8678 104.828 13.8678C103.164 13.8678 101.743 15.1985 101.743 17.7994Z" />
<path d="M90.1932 19.7952V10.4502H94.3669V26.5999H90.5261V24.4829C89.6489 25.9043 87.8645 26.9023 85.8081 26.9023C82.572 26.9023 80.2131 24.9365 80.2131 20.7328V10.4502H84.417V19.9162C84.417 22.1844 85.5358 23.1824 87.2294 23.1824C88.7417 23.1824 90.1932 21.9727 90.1932 19.7952Z" />
<path d="M70.0907 26.9025C65.4032 26.9025 61.895 23.2129 61.895 18.5252C61.895 13.8073 65.4032 10.1479 70.0907 10.1479C74.7783 10.1479 78.2867 13.8073 78.2867 18.5252C78.2867 23.2129 74.7783 26.9025 70.0907 26.9025ZM70.0907 23.1826C72.1775 23.1826 73.9619 21.5193 73.9619 18.5252C73.9619 15.5312 72.1775 13.8981 70.0907 13.8981C68.0039 13.8981 66.2198 15.5312 66.2198 18.5252C66.2198 21.5193 68.0039 23.1826 70.0907 23.1826Z" />
<path d="M60.5804 20.2189C60.5804 24.2412 57.6166 26.6001 52.8382 26.6001H44.3401V4.88574H52.5056C57.0722 4.88574 59.885 6.94225 59.885 10.6621C59.885 12.6581 58.7658 14.261 56.8304 15.259C59.2499 16.1058 60.5804 17.8297 60.5804 20.2189ZM52.1428 8.51489H48.5135V13.5654H52.1428C54.3808 13.5654 55.53 12.5977 55.53 11.025C55.53 9.48265 54.3808 8.51489 52.1428 8.51489ZM52.4755 17.2248H48.5135V22.971H52.4755C54.9552 22.971 56.2559 21.8822 56.2559 20.0374C56.2559 18.3136 54.9552 17.2248 52.4755 17.2248Z" />
<path d="M28.0993 0.501865C28.0946 0.797259 28.0876 1.09265 28.0688 1.38805C27.9004 4.10073 26.8895 6.75223 25.2078 8.88706C24.5629 9.72971 23.7743 10.4441 23.0329 11.1984C18.562 15.6717 14.0887 20.1415 9.61776 24.6159C8.3279 25.8893 7.58884 27.684 7.58649 29.4952C5.34806 29.4964 3.10967 29.4976 0.872437 29.4941C0.877143 29.2375 0.883033 28.9821 0.893624 28.7267C1.06192 25.4974 2.44003 22.3493 4.69962 20.0367C9.58009 15.1539 14.4641 10.2734 19.3446 5.3894C20.6392 4.11485 21.3806 2.3166 21.3841 0.501865C23.6225 0.500688 25.8609 0.498334 28.0993 0.501865Z" />
<path d="M27.7344 26.3494C27.978 27.3792 28.0957 28.4372 28.1004 29.4952C25.862 29.4999 23.6224 29.4893 21.384 29.4999C21.3758 28.1324 20.9698 26.766 20.1954 25.6363C19.2974 24.2969 17.9134 23.3072 16.3694 22.8553C18.0617 21.1688 19.7458 19.4753 21.4393 17.79C24.5769 19.6401 26.9082 22.8 27.7344 26.3494Z" />
<path d="M12.6022 7.1404C10.9111 8.82803 9.22577 10.5204 7.53225 12.2068C4.76307 10.5674 2.60941 7.9183 1.58554 4.8655C1.11008 3.46268 0.874702 1.98217 0.869995 0.501666C3.10958 0.500489 5.348 0.501665 7.58758 0.500488C7.59109 2.06102 8.13246 3.61331 9.11751 4.82548C10.0049 5.93174 11.2418 6.7438 12.6022 7.1404Z" />
<path d="M11.1257 0.5C11.1202 0.989891 11.2215 1.48043 11.4428 1.92822C12.1136 3.43932 13.9907 4.24782 15.55 3.68765C16.9092 3.26737 17.8473 1.89844 17.8502 0.5H11.1257Z" />
<path d="M17.851 29.4964C17.853 29.1867 17.8098 28.8758 17.7159 28.5737C17.597 28.1547 17.3958 27.7605 17.1263 27.4192C16.1471 26.1187 14.1817 25.7457 12.7919 26.593C11.7545 27.169 11.1376 28.3312 11.1261 29.4964H17.851Z" />
</svg>
