<svg width="179" height="36" viewBox="0 0 179 36" fill="none" xmlns="http://www.w3.org/2000/svg">
    <g clip-path="url(#clip0_693_4352)">
        <path d="M10.9506 15.1268L17.9038 8.13775L24.8597 15.1325L28.9032 11.0636L17.9038 0L6.9043 11.0607L10.9506 15.1268Z" fill="#1C3F3A"/>
        <path d="M0 18.0005L4.04485 13.9331L8.08971 18.0005L4.04485 22.0679L0 18.0005Z" fill="#1C3F3A"/>
        <path d="M10.9504 20.8732L17.9036 27.8651L24.8595 20.8704L28.9058 24.9335L28.903 24.9364L17.9036 36L6.90409 24.9421L6.89844 24.9364L10.9504 20.8732Z" fill="#1C3F3A"/>
        <path d="M27.7109 18.0017L31.7558 13.9343L35.8006 18.0017L31.7558 22.0691L27.7109 18.0017Z" fill="#1C3F3A"/>
        <path d="M22.0063 17.9987L17.9035 13.8701L14.8694 16.9211L14.5188 17.2708L13.8006 17.993L13.7949 17.9987L13.8006 18.0072L17.9035 22.1301L22.0063 18.0015L22.0092 17.9987H22.0063Z" fill="#1C3F3A"/>
        <path d="M42.1094 8.72363H50.9089C53.0919 8.72363 54.7432 9.29231 55.8629 10.4297C56.2848 10.8498 56.6174 11.3517 56.8405 11.905C57.0636 12.4583 57.1726 13.0514 57.1608 13.6484V13.7024C57.1684 14.1914 57.1007 14.6786 56.9601 15.1468C56.8348 15.5499 56.6529 15.9328 56.42 16.2842C56.2028 16.6155 55.9401 16.9142 55.6396 17.1713C55.346 17.4254 55.0243 17.6449 54.681 17.8253C55.6711 18.1721 56.5614 18.7579 57.2739 19.5313C57.9036 20.2516 58.2184 21.2468 58.2184 22.5169V22.5709C58.2362 23.3641 58.0646 24.15 57.7179 24.8626C57.3819 25.5193 56.8893 26.082 56.2843 26.5004C55.6002 26.9616 54.8385 27.294 54.0363 27.4814C53.0832 27.7087 52.1061 27.8185 51.1267 27.8084H42.1094V8.72363ZM50.0267 16.4406C50.788 16.4776 51.5457 16.3128 52.2238 15.9629C52.4882 15.8075 52.7042 15.5809 52.8471 15.3085C52.99 15.0361 53.0542 14.7289 53.0325 14.4218V14.3677C53.0465 14.0847 52.9893 13.8027 52.8663 13.5477C52.7432 13.2928 52.5582 13.0731 52.3284 12.9091C51.859 12.5736 51.1813 12.4058 50.2954 12.4058H46.1783V16.4406H50.0267ZM51.138 24.1319C51.8965 24.1746 52.6515 24.0001 53.3153 23.6286C53.5738 23.4615 53.7832 23.2278 53.9214 22.9518C54.0597 22.6757 54.1218 22.3675 54.1013 22.0591V22.005C54.1115 21.7119 54.0501 21.4208 53.9224 21.157C53.7947 20.8933 53.6047 20.6651 53.369 20.4924C52.8826 20.1133 52.0966 19.9237 51.0107 19.9237H46.1783V24.1319H51.138Z" fill="#1C3F3A"/>
        <path d="M63.4609 8.72363H67.6373V27.8141H63.4609V8.72363Z" fill="#1C3F3A"/>
        <path d="M73.957 8.72363H77.8083L86.7096 20.4725V8.72363H90.8323V27.8141H87.278L78.0854 15.6785V27.8141H73.957V8.72363Z" fill="#1C3F3A"/>
        <path d="M103.478 8.58691H107.323L115.458 27.8138H111.098L109.362 23.5317H101.334L99.5982 27.8138H95.3398L103.478 8.58691ZM107.872 19.8239L105.344 13.6311L102.827 19.8239H107.872Z" fill="#1C3F3A"/>
        <path d="M119.973 8.72363H123.824L132.72 20.4725V8.72363H136.842V27.8141H133.288L124.095 15.6785V27.8141H119.973V8.72363Z" fill="#1C3F3A"/>
        <path d="M151.875 28.1495C150.544 28.161 149.225 27.9018 147.996 27.3875C146.839 26.9071 145.789 26.1988 144.909 25.3041C144.029 24.4095 143.335 23.3467 142.869 22.1784C142.378 20.9564 142.129 19.6495 142.137 18.3313V18.2773C142.115 15.6791 143.109 13.1763 144.905 11.3082C145.789 10.3957 146.847 9.67224 148.016 9.18135C149.287 8.6518 150.652 8.38771 152.028 8.4051C152.842 8.399 153.654 8.47232 154.454 8.62404C155.138 8.75417 155.807 8.95523 156.451 9.224C157.034 9.47098 157.589 9.78184 158.105 10.1509C158.608 10.5109 159.081 10.9123 159.518 11.3508L156.863 14.4331C156.185 13.8036 155.424 13.2708 154.601 12.8493C153.793 12.4608 152.907 12.2661 152.011 12.2806C151.266 12.2726 150.528 12.4242 149.845 12.7252C149.162 13.0262 148.551 13.4698 148.052 14.0265C147.558 14.5817 147.17 15.2249 146.91 15.923C146.638 16.6607 146.501 17.442 146.506 18.229V18.283C146.503 19.0688 146.64 19.8488 146.91 20.5861C147.167 21.2867 147.551 21.9335 148.041 22.494C148.536 23.0576 149.146 23.5077 149.829 23.8139C150.512 24.12 151.252 24.2749 152 24.2683C152.952 24.2985 153.897 24.0924 154.751 23.6684C155.564 23.2227 156.316 22.6721 156.988 22.0306L159.646 24.7318C159.176 25.244 158.669 25.7193 158.127 26.1535C157.595 26.5764 157.018 26.9379 156.405 27.2311C155.753 27.54 155.065 27.7682 154.358 27.9107C153.541 28.0754 152.709 28.1555 151.875 28.1495Z" fill="#1C3F3A"/>
        <path d="M164.574 8.72363H178.862V12.4598H168.683V16.3325H177.646V20.0687H168.697V24.0779H179.004V27.8141H164.583L164.574 8.72363Z" fill="#1C3F3A"/>
    </g>
    <defs>
        <clipPath id="clip0_693_4352">
            <rect width="179" height="36" fill="white"/>
        </clipPath>
    </defs>
</svg>
