<svg width="139" height="16" viewBox="0 0 139 16" fill="none" xmlns="http://www.w3.org/2000/svg">
    <path d="M9.53075 10.568C9.53075 11.5493 9.56808 12.36 9.64275 13C8.91742 12.968 7.69608 12.952 5.97875 12.952C3.65342 12.952 1.91475 12.968 0.76275 13V12.68C1.11475 12.6587 1.37075 12.616 1.53075 12.552C1.70142 12.488 1.81342 12.3653 1.86675 12.184C1.93075 12.0027 1.96275 11.7093 1.96275 11.304V3.368C1.96275 2.96267 1.93075 2.66933 1.86675 2.488C1.81342 2.30667 1.70142 2.184 1.53075 2.12C1.37075 2.056 1.11475 2.01333 0.76275 1.992V1.672C1.91475 1.704 3.65342 1.72 5.97875 1.72C7.54675 1.72 8.66142 1.704 9.32275 1.672C9.24808 2.55733 9.21075 3.34667 9.21075 4.04C9.21075 4.50933 9.22675 4.872 9.25875 5.128H8.89075C8.73075 3.98667 8.44275 3.18667 8.02675 2.728C7.61075 2.26933 7.02408 2.04 6.26675 2.04H5.61075C5.28008 2.04 5.04008 2.06667 4.89075 2.12C4.74142 2.17333 4.64008 2.28 4.58675 2.44C4.53342 2.58933 4.50675 2.83467 4.50675 3.176V7.144H5.01875C5.58408 7.144 6.01075 6.936 6.29875 6.52C6.59742 6.104 6.80542 5.608 6.92275 5.032H7.29075C7.25875 5.48 7.24275 5.98133 7.24275 6.536V7.304C7.24275 7.848 7.27475 8.60533 7.33875 9.576H6.97075C6.74675 8.168 6.09608 7.464 5.01875 7.464H4.50675V11.496C4.50675 11.8373 4.53342 12.088 4.58675 12.248C4.64008 12.3973 4.74142 12.4987 4.89075 12.552C5.04008 12.6053 5.28008 12.632 5.61075 12.632H6.39475C7.15208 12.632 7.76008 12.376 8.21875 11.864C8.68808 11.3413 9.01875 10.4613 9.21075 9.224H9.57875C9.54675 9.576 9.53075 10.024 9.53075 10.568ZM18.0394 11.864C18.21 12.1093 18.3594 12.296 18.4874 12.424C18.6154 12.552 18.7647 12.632 18.9354 12.664V13C18.082 12.9573 17.5114 12.936 17.2234 12.936C16.9034 12.936 16.21 12.9573 15.1434 13V12.664C15.3034 12.664 15.4314 12.6373 15.5274 12.584C15.634 12.5307 15.6874 12.4507 15.6874 12.344C15.6874 12.28 15.6607 12.2053 15.6074 12.12L13.9434 9.64L13.3834 10.344C13.0314 10.8027 12.8554 11.2293 12.8554 11.624C12.8554 11.9227 12.9567 12.168 13.1594 12.36C13.3727 12.5413 13.6554 12.648 14.0074 12.68V13C13.3887 12.968 12.6207 12.952 11.7034 12.952C11.266 12.952 10.8927 12.968 10.5834 13V12.68C10.8287 12.5947 11.0634 12.456 11.2874 12.264C11.5114 12.072 11.762 11.8 12.0394 11.448L13.7514 9.352L11.3994 5.864C11.1967 5.576 11.0367 5.37867 10.9194 5.272C10.802 5.15467 10.6634 5.08533 10.5034 5.064V4.728C11.442 4.77067 12.0767 4.792 12.4074 4.792C12.6847 4.792 13.314 4.77067 14.2954 4.728V5.064C14.1354 5.064 14.002 5.09067 13.8954 5.144C13.7994 5.19733 13.7514 5.27733 13.7514 5.384C13.7514 5.46933 13.778 5.544 13.8314 5.608L15.3354 7.848L15.9434 7.048C16.3167 6.55733 16.5034 6.14667 16.5034 5.816C16.5034 5.592 16.418 5.416 16.2474 5.288C16.0874 5.14933 15.8474 5.06933 15.5274 5.048V4.728C16.146 4.76 16.7487 4.776 17.3354 4.776C17.7834 4.776 18.162 4.76 18.4714 4.728V5.048C18.0234 5.19733 17.5327 5.608 16.9994 6.28L15.5274 8.12L18.0394 11.864ZM23.169 4.504C23.5637 4.504 23.937 4.54667 24.289 4.632C24.641 4.71733 24.9343 4.83467 25.169 4.984C25.4463 5.15467 25.6597 5.37333 25.809 5.64C25.969 5.896 26.049 6.17867 26.049 6.488C26.049 6.86133 25.9317 7.17067 25.697 7.416C25.4623 7.65067 25.1583 7.768 24.785 7.768C24.4117 7.768 24.113 7.66133 23.889 7.448C23.665 7.23467 23.553 6.94667 23.553 6.584C23.553 6.264 23.6543 5.98667 23.857 5.752C24.0597 5.51733 24.3103 5.35733 24.609 5.272C24.5237 5.15467 24.3903 5.064 24.209 5C24.0383 4.92533 23.8517 4.888 23.649 4.888C23.009 4.888 22.5077 5.24 22.145 5.944C21.793 6.63733 21.617 7.54933 21.617 8.68C21.617 9.82133 21.8197 10.6427 22.225 11.144C22.6303 11.6453 23.137 11.896 23.745 11.896C24.1077 11.896 24.4703 11.8 24.833 11.608C25.2063 11.416 25.5423 11.08 25.841 10.6L26.113 10.696C25.8997 11.3893 25.5263 11.9867 24.993 12.488C24.4597 12.9787 23.7717 13.224 22.929 13.224C21.8303 13.224 20.9343 12.8613 20.241 12.136C19.5477 11.4107 19.201 10.3333 19.201 8.904C19.201 7.96533 19.3717 7.16533 19.713 6.504C20.0543 5.84267 20.5237 5.34667 21.121 5.016C21.7183 4.67467 22.401 4.504 23.169 4.504ZM30.1945 5.992C30.6745 5 31.5438 4.504 32.8025 4.504C33.6345 4.504 34.2212 4.712 34.5625 5.128C34.7438 5.33067 34.8718 5.59733 34.9465 5.928C35.0318 6.248 35.0745 6.67467 35.0745 7.208V11.512C35.0745 11.9493 35.1492 12.2533 35.2985 12.424C35.4478 12.584 35.7145 12.664 36.0985 12.664V13C34.9892 12.9573 34.2852 12.936 33.9865 12.936C33.6238 12.936 32.9305 12.9573 31.9065 13V12.664C32.2265 12.664 32.4505 12.584 32.5785 12.424C32.7065 12.2533 32.7705 11.9493 32.7705 11.512V6.536C32.7705 6.09867 32.6958 5.768 32.5465 5.544C32.4078 5.32 32.1518 5.208 31.7785 5.208C31.3305 5.208 30.9518 5.384 30.6425 5.736C30.3438 6.07733 30.1945 6.51467 30.1945 7.048V11.512C30.1945 11.9493 30.2585 12.2533 30.3865 12.424C30.5145 12.584 30.7385 12.664 31.0585 12.664V13C30.0345 12.9573 29.3732 12.936 29.0745 12.936C28.7118 12.936 27.9758 12.9573 26.8665 13V12.664C27.2398 12.664 27.5012 12.584 27.6505 12.424C27.8105 12.2533 27.8905 11.9493 27.8905 11.512V2.408C27.8905 1.91733 27.8105 1.56 27.6505 1.336C27.5012 1.112 27.2398 0.999999 26.8665 0.999999V0.664C27.2078 0.696 27.5385 0.712 27.8585 0.712C28.7865 0.712 29.5652 0.637333 30.1945 0.487999V5.992ZM38.7929 13.112C38.1102 13.112 37.5982 12.936 37.2569 12.584C36.9262 12.232 36.7609 11.768 36.7609 11.192C36.7609 10.712 36.8835 10.3173 37.1289 10.008C37.3849 9.688 37.6889 9.44267 38.0409 9.272C38.4035 9.10133 38.8622 8.92 39.4169 8.728C40.0035 8.52533 40.4302 8.344 40.6969 8.184C40.9742 8.01333 41.1129 7.784 41.1129 7.496V6.248C41.1129 5.8 41.0062 5.45333 40.7929 5.208C40.5902 4.952 40.2702 4.824 39.8329 4.824C39.3209 4.824 38.9315 4.952 38.6649 5.208C38.9635 5.31467 39.1929 5.47467 39.3529 5.688C39.5235 5.90133 39.6089 6.152 39.6089 6.44C39.6089 6.80267 39.4862 7.09067 39.2409 7.304C38.9955 7.51733 38.6969 7.624 38.3449 7.624C37.9715 7.624 37.6835 7.50667 37.4809 7.272C37.2782 7.03733 37.1769 6.744 37.1769 6.392C37.1769 6.09333 37.2462 5.84267 37.3849 5.64C37.5342 5.42667 37.7582 5.22933 38.0569 5.048C38.3449 4.87733 38.6969 4.744 39.1129 4.648C39.5395 4.552 40.0035 4.504 40.5049 4.504C41.0275 4.504 41.4809 4.55733 41.8649 4.664C42.2489 4.77067 42.5689 4.952 42.8249 5.208C43.0595 5.44267 43.2142 5.73067 43.2889 6.072C43.3742 6.41333 43.4169 6.87733 43.4169 7.464V11.816C43.4169 12.072 43.4382 12.2533 43.4809 12.36C43.5342 12.4667 43.6302 12.52 43.7689 12.52C43.9289 12.52 44.1209 12.4293 44.3449 12.248L44.5049 12.52C44.0249 12.9147 43.4382 13.112 42.7449 13.112C42.1582 13.112 41.7475 12.9947 41.5129 12.76C41.2782 12.5253 41.1555 12.2107 41.1449 11.816C40.6115 12.68 39.8275 13.112 38.7929 13.112ZM40.0249 12.088C40.4409 12.088 40.8035 11.8693 41.1129 11.432V8.152C40.9849 8.36533 40.7129 8.6 40.2969 8.856C39.8809 9.12267 39.5662 9.38933 39.3529 9.656C39.1395 9.92267 39.0329 10.3067 39.0329 10.808C39.0329 11.2453 39.1235 11.5707 39.3049 11.784C39.4862 11.9867 39.7262 12.088 40.0249 12.088ZM50.9141 4.504C51.7248 4.504 52.3115 4.712 52.6741 5.128C52.8555 5.33067 52.9835 5.592 53.0581 5.912C53.1328 6.232 53.1701 6.664 53.1701 7.208V11.512C53.1701 11.9493 53.2448 12.2533 53.3941 12.424C53.5541 12.584 53.8208 12.664 54.1941 12.664V13C53.1275 12.9573 52.4235 12.936 52.0821 12.936C51.7621 12.936 51.0688 12.9573 50.0021 13V12.664C50.3221 12.664 50.5461 12.584 50.6741 12.424C50.8021 12.2533 50.8661 11.9493 50.8661 11.512V6.536C50.8661 6.09867 50.7915 5.768 50.6421 5.544C50.5035 5.32 50.2475 5.208 49.8741 5.208C49.4368 5.208 49.0635 5.38933 48.7541 5.752C48.4448 6.104 48.2901 6.54133 48.2901 7.064V11.512C48.2901 11.9493 48.3541 12.2533 48.4821 12.424C48.6101 12.584 48.8341 12.664 49.1541 12.664V13C48.1728 12.9573 47.5115 12.936 47.1701 12.936C46.8501 12.936 46.1141 12.9573 44.9621 13V12.664C45.3461 12.664 45.6128 12.584 45.7621 12.424C45.9115 12.2533 45.9861 11.9493 45.9861 11.512V6.472C45.9861 5.98133 45.9115 5.624 45.7621 5.4C45.6128 5.176 45.3461 5.064 44.9621 5.064V4.728C45.3035 4.76 45.6341 4.776 45.9541 4.776C46.9035 4.776 47.6821 4.70133 48.2901 4.552V5.992C48.7701 5 49.6448 4.504 50.9141 4.504ZM62.2649 6.264C62.0515 6.264 61.8702 6.19467 61.7209 6.056C61.5715 5.90667 61.4969 5.69867 61.4969 5.432C61.4969 5.176 61.5609 4.91467 61.6889 4.648C61.4329 4.75467 61.2195 4.87733 61.0489 5.016C60.8889 5.144 60.7502 5.30933 60.6329 5.512C60.9635 5.90667 61.1289 6.41867 61.1289 7.048C61.1289 7.89067 60.8355 8.52533 60.2489 8.952C59.6729 9.37867 58.9049 9.592 57.9449 9.592H57.6569C57.2195 9.848 57.0009 10.1307 57.0009 10.44C57.0009 10.7813 57.2142 10.952 57.6409 10.952H59.3849C60.3235 10.952 61.0702 11.128 61.6249 11.48C62.1902 11.8213 62.4729 12.3493 62.4729 13.064C62.4729 13.608 62.2969 14.0987 61.9449 14.536C61.6035 14.984 61.0809 15.3413 60.3769 15.608C59.6729 15.8747 58.8089 16.008 57.7849 16.008C56.7502 16.008 55.9182 15.8747 55.2889 15.608C54.6702 15.352 54.3609 14.9787 54.3609 14.488C54.3609 14.1573 54.5102 13.8587 54.8089 13.592C55.1075 13.336 55.5502 13.1333 56.1369 12.984L56.2809 13.24C55.8969 13.56 55.7049 13.928 55.7049 14.344C55.7049 14.792 55.9075 15.1333 56.3129 15.368C56.7182 15.6133 57.2782 15.736 57.9929 15.736C58.7395 15.736 59.3422 15.5867 59.8009 15.288C60.2702 14.9893 60.5049 14.568 60.5049 14.024C60.5049 13.672 60.3715 13.3947 60.1049 13.192C59.8489 12.9893 59.3955 12.888 58.7449 12.888H57.7529C57.0702 12.888 56.5369 12.776 56.1529 12.552C55.7689 12.3173 55.5769 11.9653 55.5769 11.496C55.5769 11.1013 55.7155 10.7493 55.9929 10.44C56.2702 10.1307 56.6915 9.832 57.2569 9.544C56.4889 9.448 55.8809 9.192 55.4329 8.776C54.9849 8.36 54.7609 7.784 54.7609 7.048C54.7609 6.20533 55.0489 5.57067 55.6249 5.144C56.2115 4.71733 56.9849 4.504 57.9449 4.504C59.0115 4.504 59.8275 4.75467 60.3929 5.256C60.5955 4.968 60.8462 4.73867 61.1449 4.568C61.4435 4.39733 61.7475 4.312 62.0569 4.312C62.3769 4.312 62.6275 4.408 62.8089 4.6C63.0009 4.78133 63.0969 5.02133 63.0969 5.32C63.0969 5.61867 63.0115 5.85333 62.8409 6.024C62.6809 6.184 62.4889 6.264 62.2649 6.264ZM57.9449 9.304C58.2435 9.304 58.4675 9.13333 58.6169 8.792C58.7769 8.45067 58.8569 7.86933 58.8569 7.048C58.8569 6.22667 58.7769 5.64533 58.6169 5.304C58.4675 4.96267 58.2435 4.792 57.9449 4.792C57.6462 4.792 57.4169 4.96267 57.2569 5.304C57.1075 5.64533 57.0329 6.22667 57.0329 7.048C57.0329 7.86933 57.1075 8.45067 57.2569 8.792C57.4169 9.13333 57.6462 9.304 57.9449 9.304ZM67.9786 11.912C68.8533 11.912 69.5573 11.4853 70.0906 10.632L70.3786 10.728C70.1653 11.4213 69.7813 12.0133 69.2266 12.504C68.6826 12.984 68 13.224 67.1786 13.224C66.048 13.224 65.1466 12.8667 64.4746 12.152C63.8133 11.4267 63.4826 10.36 63.4826 8.952C63.4826 7.512 63.84 6.41333 64.5546 5.656C65.2693 4.888 66.2186 4.504 67.4026 4.504C69.408 4.504 70.4106 5.688 70.4106 8.056H65.9146C65.904 8.216 65.8986 8.46667 65.8986 8.808C65.8986 9.512 65.9946 10.0987 66.1866 10.568C66.3893 11.0373 66.6453 11.3787 66.9546 11.592C67.2746 11.8053 67.616 11.912 67.9786 11.912ZM67.3066 4.84C66.9226 4.84 66.6026 5.08 66.3466 5.56C66.1013 6.02933 65.9466 6.76 65.8826 7.752H68.3946C68.416 6.90933 68.3306 6.216 68.1386 5.672C67.9573 5.11733 67.68 4.84 67.3066 4.84ZM78.9755 8.424V11.208C78.9755 11.6347 79.0182 11.9493 79.1035 12.152C79.1995 12.344 79.3595 12.472 79.5835 12.536C79.8182 12.6 80.1862 12.6373 80.6875 12.648V13C79.3755 12.968 78.3995 12.952 77.7595 12.952C77.2262 12.952 76.5542 12.9627 75.7435 12.984L75.2315 13V12.68C75.5835 12.6587 75.8395 12.616 75.9995 12.552C76.1702 12.488 76.2822 12.3653 76.3355 12.184C76.3995 12.0027 76.4315 11.7093 76.4315 11.304V3.368C76.4315 2.96267 76.3995 2.66933 76.3355 2.488C76.2822 2.30667 76.1702 2.184 75.9995 2.12C75.8395 2.056 75.5835 2.01333 75.2315 1.992V1.672C75.7755 1.704 76.5862 1.72 77.6635 1.72L79.4395 1.704C79.6528 1.69333 79.8982 1.688 80.1755 1.688C81.6155 1.688 82.7142 1.976 83.4715 2.552C84.2288 3.11733 84.6075 3.88 84.6075 4.84C84.6075 5.42667 84.4582 5.992 84.1595 6.536C83.8608 7.06933 83.3542 7.51733 82.6395 7.88C81.9355 8.24267 80.9968 8.424 79.8235 8.424H78.9755ZM79.9675 1.992C79.6795 1.992 79.4662 2.02933 79.3275 2.104C79.1995 2.17867 79.1088 2.312 79.0555 2.504C79.0022 2.696 78.9755 2.984 78.9755 3.368V8.104H79.6635C80.5275 8.104 81.1248 7.82667 81.4555 7.272C81.7862 6.71733 81.9515 5.96533 81.9515 5.016C81.9515 3.98133 81.7968 3.21867 81.4875 2.728C81.1888 2.23733 80.6822 1.992 79.9675 1.992ZM87.246 13.112C86.5633 13.112 86.0513 12.936 85.71 12.584C85.3793 12.232 85.214 11.768 85.214 11.192C85.214 10.712 85.3367 10.3173 85.582 10.008C85.838 9.688 86.142 9.44267 86.494 9.272C86.8567 9.10133 87.3153 8.92 87.87 8.728C88.4567 8.52533 88.8833 8.344 89.15 8.184C89.4273 8.01333 89.566 7.784 89.566 7.496V6.248C89.566 5.8 89.4593 5.45333 89.246 5.208C89.0433 4.952 88.7233 4.824 88.286 4.824C87.774 4.824 87.3847 4.952 87.118 5.208C87.4167 5.31467 87.646 5.47467 87.806 5.688C87.9767 5.90133 88.062 6.152 88.062 6.44C88.062 6.80267 87.9393 7.09067 87.694 7.304C87.4487 7.51733 87.15 7.624 86.798 7.624C86.4247 7.624 86.1367 7.50667 85.934 7.272C85.7313 7.03733 85.63 6.744 85.63 6.392C85.63 6.09333 85.6993 5.84267 85.838 5.64C85.9873 5.42667 86.2113 5.22933 86.51 5.048C86.798 4.87733 87.15 4.744 87.566 4.648C87.9927 4.552 88.4567 4.504 88.958 4.504C89.4807 4.504 89.934 4.55733 90.318 4.664C90.702 4.77067 91.022 4.952 91.278 5.208C91.5127 5.44267 91.6673 5.73067 91.742 6.072C91.8273 6.41333 91.87 6.87733 91.87 7.464V11.816C91.87 12.072 91.8913 12.2533 91.934 12.36C91.9873 12.4667 92.0833 12.52 92.222 12.52C92.382 12.52 92.574 12.4293 92.798 12.248L92.958 12.52C92.478 12.9147 91.8913 13.112 91.198 13.112C90.6113 13.112 90.2007 12.9947 89.966 12.76C89.7313 12.5253 89.6087 12.2107 89.598 11.816C89.0647 12.68 88.2807 13.112 87.246 13.112ZM88.478 12.088C88.894 12.088 89.2567 11.8693 89.566 11.432V8.152C89.438 8.36533 89.166 8.6 88.75 8.856C88.334 9.12267 88.0193 9.38933 87.806 9.656C87.5927 9.92267 87.486 10.3067 87.486 10.808C87.486 11.2453 87.5767 11.5707 87.758 11.784C87.9393 11.9867 88.1793 12.088 88.478 12.088ZM98.9193 4.504C99.3993 4.504 99.7619 4.648 100.007 4.936C100.253 5.224 100.375 5.57067 100.375 5.976C100.375 6.37067 100.258 6.696 100.023 6.952C99.7993 7.19733 99.5006 7.32 99.1273 7.32C98.7646 7.32 98.4766 7.22933 98.2633 7.048C98.0499 6.856 97.9433 6.60533 97.9433 6.296C97.9433 5.784 98.1779 5.368 98.6473 5.048C98.6046 5.03733 98.5406 5.032 98.4553 5.032C98.3486 5.032 98.2633 5.04267 98.1993 5.064C97.7939 5.128 97.4473 5.37333 97.1593 5.8C96.8819 6.22667 96.7433 6.664 96.7433 7.112V11.352C96.7433 11.8427 96.8606 12.184 97.0953 12.376C97.3406 12.568 97.7246 12.664 98.2473 12.664V13C98.0979 13 97.9753 12.9947 97.8793 12.984C96.7913 12.952 96.0659 12.936 95.7033 12.936C95.4153 12.936 94.7593 12.952 93.7353 12.984C93.6499 12.9947 93.5433 13 93.4153 13V12.664C93.7993 12.664 94.0659 12.584 94.2153 12.424C94.3646 12.2533 94.4393 11.9493 94.4393 11.512V6.472C94.4393 5.98133 94.3646 5.624 94.2153 5.4C94.0659 5.176 93.7993 5.064 93.4153 5.064V4.728C93.7566 4.76 94.0873 4.776 94.4073 4.776C95.3566 4.776 96.1353 4.70133 96.7433 4.552V6.04C96.9459 5.58133 97.2393 5.21333 97.6233 4.936C98.0073 4.648 98.4393 4.504 98.9193 4.504ZM104.132 4.728H106.02V5.048H104.132V11.512C104.132 11.832 104.185 12.0613 104.292 12.2C104.409 12.328 104.591 12.392 104.836 12.392C105.295 12.392 105.657 12.072 105.924 11.432L106.196 11.576C105.791 12.6747 105.06 13.224 104.004 13.224C103.3 13.224 102.767 13.0427 102.404 12.68C102.18 12.456 102.025 12.1787 101.94 11.848C101.865 11.5067 101.828 11.0427 101.828 10.456V5.048H100.484V4.728H101.828V2.616C102.713 2.616 103.481 2.44533 104.132 2.104V4.728ZM112.461 4.504C113.272 4.504 113.858 4.712 114.221 5.128C114.402 5.33067 114.53 5.592 114.605 5.912C114.68 6.232 114.717 6.664 114.717 7.208V11.512C114.717 11.9493 114.792 12.2533 114.941 12.424C115.101 12.584 115.368 12.664 115.741 12.664V13C114.674 12.9573 113.97 12.936 113.629 12.936C113.309 12.936 112.616 12.9573 111.549 13V12.664C111.869 12.664 112.093 12.584 112.221 12.424C112.349 12.2533 112.413 11.9493 112.413 11.512V6.536C112.413 6.09867 112.338 5.768 112.189 5.544C112.05 5.32 111.794 5.208 111.421 5.208C110.984 5.208 110.61 5.38933 110.301 5.752C109.992 6.104 109.837 6.54133 109.837 7.064V11.512C109.837 11.9493 109.901 12.2533 110.029 12.424C110.157 12.584 110.381 12.664 110.701 12.664V13C109.72 12.9573 109.058 12.936 108.717 12.936C108.397 12.936 107.661 12.9573 106.509 13V12.664C106.893 12.664 107.16 12.584 107.309 12.424C107.458 12.2533 107.533 11.9493 107.533 11.512V6.472C107.533 5.98133 107.458 5.624 107.309 5.4C107.16 5.176 106.893 5.064 106.509 5.064V4.728C106.85 4.76 107.181 4.776 107.501 4.776C108.45 4.776 109.229 4.70133 109.837 4.552V5.992C110.317 5 111.192 4.504 112.461 4.504ZM121.041 11.912C121.916 11.912 122.62 11.4853 123.153 10.632L123.441 10.728C123.228 11.4213 122.844 12.0133 122.289 12.504C121.745 12.984 121.062 13.224 120.241 13.224C119.11 13.224 118.209 12.8667 117.537 12.152C116.876 11.4267 116.545 10.36 116.545 8.952C116.545 7.512 116.902 6.41333 117.617 5.656C118.332 4.888 119.281 4.504 120.465 4.504C122.47 4.504 123.473 5.688 123.473 8.056H118.977C118.966 8.216 118.961 8.46667 118.961 8.808C118.961 9.512 119.057 10.0987 119.249 10.568C119.452 11.0373 119.708 11.3787 120.017 11.592C120.337 11.8053 120.678 11.912 121.041 11.912ZM120.369 4.84C119.985 4.84 119.665 5.08 119.409 5.56C119.164 6.02933 119.009 6.76 118.945 7.752H121.457C121.478 6.90933 121.393 6.216 121.201 5.672C121.02 5.11733 120.742 4.84 120.369 4.84ZM129.81 4.504C130.29 4.504 130.653 4.648 130.898 4.936C131.143 5.224 131.266 5.57067 131.266 5.976C131.266 6.37067 131.149 6.696 130.914 6.952C130.69 7.19733 130.391 7.32 130.018 7.32C129.655 7.32 129.367 7.22933 129.154 7.048C128.941 6.856 128.834 6.60533 128.834 6.296C128.834 5.784 129.069 5.368 129.538 5.048C129.495 5.03733 129.431 5.032 129.346 5.032C129.239 5.032 129.154 5.04267 129.09 5.064C128.685 5.128 128.338 5.37333 128.05 5.8C127.773 6.22667 127.634 6.664 127.634 7.112V11.352C127.634 11.8427 127.751 12.184 127.986 12.376C128.231 12.568 128.615 12.664 129.138 12.664V13C128.989 13 128.866 12.9947 128.77 12.984C127.682 12.952 126.957 12.936 126.594 12.936C126.306 12.936 125.65 12.952 124.626 12.984C124.541 12.9947 124.434 13 124.306 13V12.664C124.69 12.664 124.957 12.584 125.106 12.424C125.255 12.2533 125.33 11.9493 125.33 11.512V6.472C125.33 5.98133 125.255 5.624 125.106 5.4C124.957 5.176 124.69 5.064 124.306 5.064V4.728C124.647 4.76 124.978 4.776 125.298 4.776C126.247 4.776 127.026 4.70133 127.634 4.552V6.04C127.837 5.58133 128.13 5.21333 128.514 4.936C128.898 4.648 129.33 4.504 129.81 4.504ZM134.943 4.504C135.348 4.504 135.721 4.55733 136.063 4.664C136.404 4.76 136.665 4.872 136.847 5C136.953 5.07467 137.049 5.112 137.135 5.112C137.231 5.112 137.311 5.064 137.375 4.968C137.449 4.86133 137.497 4.712 137.519 4.52H137.855C137.812 5.064 137.791 6.00267 137.791 7.336H137.455C137.359 6.632 137.145 6.04533 136.815 5.576C136.495 5.096 136.025 4.856 135.407 4.856C135.087 4.856 134.82 4.94667 134.607 5.128C134.404 5.30933 134.303 5.56 134.303 5.88C134.303 6.24267 134.425 6.55733 134.671 6.824C134.916 7.08 135.3 7.39467 135.823 7.768L136.287 8.104C136.937 8.59467 137.417 9.032 137.727 9.416C138.036 9.8 138.191 10.28 138.191 10.856C138.191 11.3253 138.052 11.7413 137.775 12.104C137.508 12.4667 137.145 12.744 136.687 12.936C136.228 13.128 135.721 13.224 135.167 13.224C134.58 13.224 134.079 13.112 133.663 12.888C133.321 12.7173 133.076 12.6053 132.927 12.552C132.82 12.52 132.724 12.5573 132.639 12.664C132.564 12.76 132.505 12.9093 132.463 13.112H132.127C132.169 12.504 132.191 11.4373 132.191 9.912H132.527C132.74 11.8747 133.46 12.856 134.687 12.856C134.996 12.856 135.257 12.7653 135.471 12.584C135.695 12.392 135.807 12.104 135.807 11.72C135.807 11.4213 135.737 11.1547 135.599 10.92C135.471 10.6853 135.305 10.4773 135.103 10.296C134.9 10.1147 134.596 9.864 134.191 9.544C133.711 9.16 133.343 8.85067 133.087 8.616C132.841 8.38133 132.628 8.104 132.447 7.784C132.276 7.464 132.191 7.10667 132.191 6.712C132.191 6.02933 132.457 5.49067 132.991 5.096C133.524 4.70133 134.175 4.504 134.943 4.504Z" fill="black"/>
</svg>
