<svg width="102" height="40" viewBox="0 0 102 40" fill="none" xmlns="http://www.w3.org/2000/svg">
    <g clip-path="url(#clip0_693_4369)">
        <path d="M72.6992 29.2436V2.94092H77.968V29.2436H72.6992Z" fill="#1C3F3A"/>
        <path d="M11.295 30.5463H0V4.24365H10.8413C16.1101 4.24365 19.1795 7.12604 19.1795 11.632C19.1795 14.5497 17.2075 16.4356 15.8428 17.0638C17.4725 17.8015 19.557 19.4638 19.557 22.9745C19.557 27.8863 16.1101 30.5463 11.295 30.5463ZM10.4239 8.82488H5.26883V14.8838H10.4228C12.6586 14.8838 13.9095 13.6649 13.9095 11.8532C13.9095 10.0449 12.6597 8.82488 10.4239 8.82488ZM10.7639 19.5015H5.27V25.9674H10.7663C13.1545 25.9674 14.2894 24.4898 14.2894 22.7156C14.2894 20.9427 13.1521 19.5015 10.7663 19.5015H10.7639ZM35.6273 19.7603V30.5463H30.396V19.7603L22.2841 4.24365H28.0078L33.0492 14.8461L38.0143 4.24365H43.7369L35.6273 19.7603ZM58.6746 30.5463H47.3796V4.24365H58.2197C63.4886 4.24365 66.5591 7.12604 66.5591 11.632C66.5591 14.5497 64.5871 16.4356 63.2224 17.0638C64.8521 17.8015 66.9366 19.4638 66.9366 22.9745C66.9366 27.8863 63.4897 30.5463 58.6746 30.5463ZM57.8035 8.82488H52.6484V14.8838H57.8035C60.0393 14.8838 61.2903 13.6649 61.2903 11.8532C61.2903 10.0449 60.0393 8.82488 57.8035 8.82488ZM58.1435 19.5015H52.6472V25.9674H58.1435C60.5329 25.9674 61.6678 24.4898 61.6678 22.7156C61.6678 20.9427 60.5329 19.5015 58.1435 19.5015ZM94.9491 8.82606V30.5487H89.6803V8.82488H82.6317V4.24365H102V8.82488L94.9491 8.82606Z" fill="#1C3F3A"/>
    </g>
    <defs>
        <clipPath id="clip0_693_4369">
            <rect width="102" height="40" fill="white"/>
        </clipPath>
    </defs>
</svg>
