<svg width="176" height="26" viewBox="0 0 176 26" fill="none" xmlns="http://www.w3.org/2000/svg">
    <g clip-path="url(#clip0_693_4376)">
        <path d="M95.1527 4.96892V10.6889C96.1098 9.44092 97.4922 8.81692 99.3001 8.81692C100.151 8.81692 100.895 8.92092 101.533 9.23292C102.278 9.44092 102.916 9.85692 103.448 10.3769C104.086 10.8969 104.511 11.5209 104.83 12.2489C105.149 12.9769 105.255 13.9129 105.255 14.9529C105.255 16.0969 105.043 17.1369 104.617 18.1769C104.192 19.1129 103.554 19.9449 102.597 20.5689C101.64 21.1929 100.576 21.5049 99.1938 21.5049C97.2796 21.5049 95.8971 20.8809 95.0463 19.7369V21.1929H91.3243V4.96892H95.1527ZM81.0089 8.50492C88.2403 8.50492 87.6022 16.0969 87.6022 16.0969H77.8185C78.2439 17.5529 79.52 18.5929 81.3279 18.5929C83.5611 18.5929 84.7309 17.3449 84.7309 17.3449L86.8578 19.4249C85.7944 20.4649 84.3055 21.4009 81.3279 21.4009C76.7551 21.4009 74.3092 18.3849 74.3092 15.2649C74.3092 12.1449 76.0107 8.50492 81.0089 8.50492ZM170.445 8.40092C173.528 8.40092 175.549 9.54492 175.549 9.54492L174.167 12.2489C170.019 10.1689 168.211 11.6249 168.211 12.3529C168.211 13.0809 168.956 13.1849 171.827 13.7049C174.698 14.2249 175.974 15.3689 175.974 17.2409C175.974 19.1129 174.273 21.1929 170.232 21.1929C166.191 21.1929 164.383 19.9449 164.383 19.9449L165.659 17.3449C168.849 19.3209 172.465 18.6969 172.465 17.5529C172.465 16.7209 171.295 16.5129 170.019 16.3049L169.487 16.2009C169.275 16.2009 168.956 16.0969 168.743 16.0969C167.148 15.8889 164.702 14.9529 164.702 12.5609C164.596 10.0649 167.361 8.40092 170.445 8.40092ZM152.366 4.03292V13.8089L157.79 8.81692H162.15L156.832 13.8089L162.681 21.2969H158.321L154.28 16.2009L152.366 17.9689V21.2969H148.75V4.03292H152.366ZM139.498 8.40092C142.051 8.40092 144.284 9.64892 145.56 11.5209L142.476 13.2889C141.944 12.2489 140.774 11.5209 139.498 11.5209C137.584 11.5209 136.095 12.9769 136.095 14.8489C136.095 16.7209 137.584 18.1769 139.498 18.1769C140.774 18.1769 141.838 17.5529 142.37 16.5129L145.454 18.1769C144.177 19.9449 142.051 21.1929 139.498 21.1929C135.564 21.1929 132.48 18.2809 132.48 14.7449C132.373 11.2089 135.564 8.40092 139.498 8.40092ZM122.802 8.40092C126.737 8.40092 129.821 11.3129 129.821 14.8489C129.821 18.3849 126.631 21.2969 122.802 21.2969C118.867 21.2969 115.783 18.3849 115.783 14.8489C115.677 11.2089 118.867 8.40092 122.802 8.40092ZM58.8892 8.71292V21.0889H54.9545V8.71292H58.8892ZM51.5515 4.96892V8.08892H42.8312V12.2489H50.488V15.2649H42.8312V21.0889H38.8965V4.96892H51.5515ZM67.2904 10.2729C67.2904 10.2729 68.6729 8.19292 71.5442 8.50492V11.9369C71.5442 11.9369 68.4602 11.2089 67.2904 14.3289V21.1929H63.5684V8.71292H67.0778L67.2904 10.2729ZM111.955 4.03292V21.0889H108.02V4.03292H111.955ZM98.2367 11.5209C96.1098 11.5209 95.0463 12.7689 95.0463 15.3689C95.0463 16.3049 95.3654 17.1369 95.8971 17.8649C96.4288 18.4889 97.2796 18.8009 98.4493 18.8009C99.1938 18.8009 99.8318 18.5929 100.257 18.2809C100.683 17.8649 101.002 17.4489 101.214 16.9289C101.427 16.4089 101.533 15.7849 101.533 15.2649C101.533 14.2249 101.321 13.2889 100.789 12.6649C100.151 11.8329 99.3001 11.5209 98.2367 11.5209ZM122.802 11.4169C120.888 11.4169 119.399 12.8729 119.399 14.7449C119.399 16.6169 120.888 18.0729 122.802 18.0729C124.716 18.0729 126.205 16.6169 126.205 14.7449C126.099 12.9769 124.61 11.4169 122.802 11.4169ZM81.0089 11.1049C79.0947 11.1049 78.0312 12.2489 77.7122 13.7049H84.0929C84.0929 13.3929 83.4548 11.1049 81.0089 11.1049ZM56.975 2.88892C58.2512 2.88892 59.3146 3.82492 59.3146 4.96892C59.3146 6.11292 58.2512 7.04892 56.975 7.04892C55.6989 7.04892 54.6355 6.11292 54.6355 4.96892C54.6355 3.82492 55.6989 2.88892 56.975 2.88892Z" fill="#1C3F3A"/>
        <path d="M25.8417 0C26.4798 0 26.9051 0.416 26.9051 1.04V24.96C26.9051 25.584 26.4798 26 25.8417 26H1.06344C0.425378 26 0 25.584 0 24.96V1.04C0 0.416 0.425378 0 1.06344 0H25.8417ZM13.5057 7.176L6.06163 18.72H21.0562L13.5057 7.176Z" fill="#1C3F3A"/>
    </g>
    <defs>
        <clipPath id="clip0_693_4376">
            <rect width="176" height="26" fill="white"/>
        </clipPath>
    </defs>
</svg>
