<svg width="132" height="38" viewBox="0 0 132 38" fill="none" xmlns="http://www.w3.org/2000/svg">
    <g clip-path="url(#clip0_693_4373)">
        <path d="M13.027 0L18.2069 5.4055L23.3845 0L35.5217 12.6683C34.1474 14.1019 32.2838 14.9072 30.3407 14.9072C28.3975 14.9072 26.5339 14.1019 25.1597 12.6683L18.2069 5.41025L5.18441 19L0.00455172 13.5921L13.027 0ZM0 24.4079L5.181 19L18.2035 32.5921L13.0225 38L0 24.4079ZM18.2035 32.5921L25.1597 25.3318C26.5339 23.8981 28.3975 23.0928 30.3407 23.0928C32.2838 23.0928 34.1474 23.8981 35.5217 25.3318L23.3845 38L18.2035 32.5921Z" fill="#1C3F3A"/>
        <path d="M55.8282 29.8549C60.752 29.8549 64.6221 26.4111 65.5336 21.2716H61.1788C60.4676 23.8853 58.4477 25.549 55.8282 25.549C52.4417 25.549 49.9087 22.7572 49.9087 19.0142C49.9087 15.2736 52.4417 12.4509 55.8282 12.4509C58.3328 12.4509 60.3253 13.9946 61.1503 16.4314H65.4483C64.5379 11.5009 60.6667 8.14502 55.8282 8.14502C49.9656 8.14502 45.5254 12.8368 45.5254 19.0142C45.5254 25.1631 49.9656 29.8549 55.8282 29.8549ZM72.9473 25.2225V20.9451H79.8625V16.8767H72.9461V12.7478H80.6021V8.59033H68.6493V29.3787H80.9162V25.2225H72.9461H72.9473ZM96.4432 8.59033V12.7775H88.8441V17.3517H95.7036V21.4201H88.8441V29.3799H84.5485V8.59033H96.4432ZM111.674 12.7775V8.59033H99.7774V29.3787H104.075V21.4189H110.935V17.3505H104.075V12.7775H111.674ZM131.259 21.5685C131.259 26.4396 127.731 29.8549 123.034 29.8549C118.31 29.8549 114.781 26.4396 114.781 21.5697V8.58914H119.107V21.3595C119.107 23.9435 120.729 25.6072 123.034 25.6072C125.311 25.6072 126.934 23.9447 126.934 21.3595V8.59033H131.259V21.5685Z" fill="#1C3F3A"/>
    </g>
    <defs>
        <clipPath id="clip0_693_4373">
            <rect width="132" height="38" fill="white"/>
        </clipPath>
    </defs>
</svg>
