<svg width="128" height="16" viewBox="0 0 128 16" fill="none" xmlns="http://www.w3.org/2000/svg">
    <path d="M5.74263 1.448C6.38263 1.448 6.92663 1.53867 7.37463 1.72C7.82263 1.90133 8.25996 2.15733 8.68663 2.488C8.80396 2.584 8.90529 2.632 8.99063 2.632C9.20396 2.632 9.34263 2.312 9.40663 1.672H9.77463C9.73196 2.39733 9.71063 3.688 9.71063 5.544H9.34263C9.24663 4.75467 9.11863 4.152 8.95863 3.736C8.79863 3.32 8.52663 2.95733 8.14263 2.648C7.87596 2.392 7.56663 2.2 7.21463 2.072C6.86263 1.93333 6.49463 1.864 6.11063 1.864C5.03329 1.864 4.23329 2.392 3.71063 3.448C3.18796 4.49333 2.92663 5.8 2.92663 7.368C2.92663 8.92533 3.19863 10.2267 3.74263 11.272C4.28663 12.3173 5.09729 12.84 6.17463 12.84C6.53729 12.84 6.89463 12.776 7.24663 12.648C7.60929 12.5093 7.91329 12.312 8.15863 12.056C8.55329 11.7573 8.82529 11.384 8.97463 10.936C9.13463 10.488 9.25729 9.832 9.34263 8.968H9.71063C9.71063 10.8987 9.73196 12.2427 9.77463 13H9.40663C9.37463 12.6587 9.32663 12.4187 9.26263 12.28C9.20929 12.1307 9.12929 12.056 9.02263 12.056C8.93729 12.056 8.82529 12.0987 8.68663 12.184C8.20663 12.5253 7.74796 12.7867 7.31063 12.968C6.87329 13.1387 6.34529 13.224 5.72663 13.224C4.59596 13.224 3.60396 12.9947 2.75063 12.536C1.90796 12.0773 1.25196 11.416 0.782625 10.552C0.313292 9.67733 0.078625 8.63733 0.078625 7.432C0.078625 6.25867 0.318625 5.21867 0.798625 4.312C1.27863 3.40533 1.94529 2.70133 2.79863 2.2C3.66263 1.69867 4.64396 1.448 5.74263 1.448ZM19.0239 11.256C19.0239 11.7467 19.0985 12.104 19.2479 12.328C19.4079 12.552 19.6745 12.664 20.0479 12.664V13C19.7172 12.968 19.3865 12.952 19.0559 12.952C18.1279 12.952 17.3492 13.0267 16.7199 13.176V11.736C16.2292 12.728 15.3705 13.224 14.1439 13.224C13.3439 13.224 12.7625 13.016 12.3999 12.6C12.2292 12.3973 12.1012 12.136 12.0159 11.816C11.9412 11.4853 11.9039 11.0533 11.9039 10.52V6.472C11.9039 5.98133 11.8239 5.624 11.6639 5.4C11.5145 5.176 11.2532 5.064 10.8799 5.064V4.728C11.2105 4.76 11.5412 4.776 11.8719 4.776C12.7999 4.776 13.5785 4.70133 14.2079 4.552V11.176C14.2079 11.624 14.2719 11.96 14.3999 12.184C14.5385 12.408 14.7945 12.52 15.1679 12.52C15.5945 12.52 15.9572 12.344 16.2559 11.992C16.5652 11.6293 16.7199 11.1867 16.7199 10.664V6.472C16.7199 5.98133 16.6399 5.624 16.4799 5.4C16.3305 5.176 16.0692 5.064 15.6959 5.064V4.728C16.0372 4.76 16.3679 4.776 16.6879 4.776C17.6159 4.776 18.3945 4.70133 19.0239 4.552V11.256ZM23.927 4.504C24.3323 4.504 24.7057 4.55733 25.047 4.664C25.3883 4.76 25.6497 4.872 25.831 5C25.9377 5.07467 26.0337 5.112 26.119 5.112C26.215 5.112 26.295 5.064 26.359 4.968C26.4337 4.86133 26.4817 4.712 26.503 4.52H26.839C26.7963 5.064 26.775 6.00267 26.775 7.336H26.439C26.343 6.632 26.1297 6.04533 25.799 5.576C25.479 5.096 25.0097 4.856 24.391 4.856C24.071 4.856 23.8043 4.94667 23.591 5.128C23.3883 5.30933 23.287 5.56 23.287 5.88C23.287 6.24267 23.4097 6.55733 23.655 6.824C23.9003 7.08 24.2843 7.39467 24.807 7.768L25.271 8.104C25.9217 8.59467 26.4017 9.032 26.711 9.416C27.0203 9.8 27.175 10.28 27.175 10.856C27.175 11.3253 27.0363 11.7413 26.759 12.104C26.4923 12.4667 26.1297 12.744 25.671 12.936C25.2123 13.128 24.7057 13.224 24.151 13.224C23.5643 13.224 23.063 13.112 22.647 12.888C22.3057 12.7173 22.0603 12.6053 21.911 12.552C21.8043 12.52 21.7083 12.5573 21.623 12.664C21.5483 12.76 21.4897 12.9093 21.447 13.112H21.111C21.1537 12.504 21.175 11.4373 21.175 9.912H21.511C21.7243 11.8747 22.4443 12.856 23.671 12.856C23.9803 12.856 24.2417 12.7653 24.455 12.584C24.679 12.392 24.791 12.104 24.791 11.72C24.791 11.4213 24.7217 11.1547 24.583 10.92C24.455 10.6853 24.2897 10.4773 24.087 10.296C23.8843 10.1147 23.5803 9.864 23.175 9.544C22.695 9.16 22.327 8.85067 22.071 8.616C21.8257 8.38133 21.6123 8.104 21.431 7.784C21.2603 7.464 21.175 7.10667 21.175 6.712C21.175 6.02933 21.4417 5.49067 21.975 5.096C22.5083 4.70133 23.159 4.504 23.927 4.504ZM31.3976 4.728H33.2856V5.048H31.3976V11.512C31.3976 11.832 31.451 12.0613 31.5576 12.2C31.675 12.328 31.8563 12.392 32.1016 12.392C32.5603 12.392 32.923 12.072 33.1896 11.432L33.4616 11.576C33.0563 12.6747 32.3256 13.224 31.2696 13.224C30.5656 13.224 30.0323 13.0427 29.6696 12.68C29.4456 12.456 29.291 12.1787 29.2056 11.848C29.131 11.5067 29.0936 11.0427 29.0936 10.456V5.048H27.7496V4.728H29.0936V2.616C29.979 2.616 30.747 2.44533 31.3976 2.104V4.728ZM37.8401 4.504C39.0668 4.504 40.0268 4.856 40.7201 5.56C41.4135 6.25333 41.7601 7.35733 41.7601 8.872C41.7601 10.3867 41.4135 11.4907 40.7201 12.184C40.0268 12.8773 39.0668 13.224 37.8401 13.224C36.6241 13.224 35.6641 12.8773 34.9601 12.184C34.2668 11.4907 33.9201 10.3867 33.9201 8.872C33.9201 7.35733 34.2668 6.25333 34.9601 5.56C35.6641 4.856 36.6241 4.504 37.8401 4.504ZM37.8401 4.824C37.3815 4.824 37.0135 5.16 36.7361 5.832C36.4695 6.49333 36.3361 7.50667 36.3361 8.872C36.3361 10.2373 36.4695 11.2507 36.7361 11.912C37.0135 12.5733 37.3815 12.904 37.8401 12.904C38.3095 12.904 38.6775 12.5787 38.9441 11.928C39.2108 11.2667 39.3441 10.248 39.3441 8.872C39.3441 7.496 39.2055 6.47733 38.9281 5.816C38.6615 5.15467 38.2988 4.824 37.8401 4.824ZM50.631 11.24C50.631 11.7307 50.7057 12.088 50.855 12.312C51.0043 12.536 51.271 12.648 51.655 12.648V12.984C51.3243 12.952 50.9937 12.936 50.663 12.936C49.7137 12.936 48.935 13.0107 48.327 13.16V11.784C47.9643 12.744 47.271 13.224 46.247 13.224C45.2443 13.224 44.4443 12.8613 43.847 12.136C43.2603 11.4 42.9723 10.296 42.983 8.824C42.983 7.88533 43.1323 7.096 43.431 6.456C43.7403 5.80533 44.1617 5.32 44.695 5C45.239 4.66933 45.8577 4.504 46.551 4.504C47.3297 4.504 47.9217 4.70667 48.327 5.112V2.392C48.327 1.90133 48.247 1.544 48.087 1.32C47.9377 1.096 47.6763 0.983999 47.303 0.983999V0.648C47.6443 0.679999 47.975 0.695999 48.295 0.695999C49.223 0.695999 50.0017 0.621332 50.631 0.471999V11.24ZM46.903 12.536C47.255 12.536 47.5643 12.408 47.831 12.152C48.1083 11.896 48.2737 11.5493 48.327 11.112V5.512C48.0603 5.14933 47.671 4.968 47.159 4.968C46.5937 4.968 46.1563 5.29333 45.847 5.944C45.5377 6.59467 45.3883 7.56533 45.399 8.856C45.3883 10.1573 45.511 11.096 45.767 11.672C46.0337 12.248 46.4123 12.536 46.903 12.536ZM58.9135 4.776C59.4468 4.776 59.8575 4.76 60.1455 4.728V5.048C59.9215 5.112 59.7188 5.25067 59.5375 5.464C59.3668 5.66667 59.2015 5.98667 59.0415 6.424L56.1775 14.472C55.9642 15.0267 55.7295 15.4053 55.4735 15.608C55.1642 15.8747 54.7002 16.008 54.0815 16.008C53.6335 16.008 53.2282 15.896 52.8655 15.672C52.5135 15.4587 52.3375 15.144 52.3375 14.728C52.3375 14.3973 52.4548 14.1307 52.6895 13.928C52.9242 13.736 53.2335 13.64 53.6175 13.64C53.9802 13.64 54.2682 13.7253 54.4815 13.896C54.7055 14.0773 54.8175 14.328 54.8175 14.648C54.8175 14.872 54.7482 15.0747 54.6095 15.256C54.4708 15.448 54.2735 15.592 54.0175 15.688C54.0922 15.6987 54.2148 15.704 54.3855 15.704C55.0468 15.704 55.5322 15.2827 55.8415 14.44L56.0975 13.672L52.7055 5.96C52.5348 5.59733 52.3695 5.35733 52.2095 5.24C52.0495 5.12267 51.8842 5.064 51.7135 5.064V4.728C52.4175 4.792 53.1482 4.824 53.9055 4.824C54.5348 4.824 55.2762 4.792 56.1295 4.728V5.064C55.7882 5.064 55.5322 5.09067 55.3615 5.144C55.2015 5.18667 55.1215 5.30933 55.1215 5.512C55.1215 5.62933 55.1588 5.77867 55.2335 5.96L57.1855 10.68L58.2895 7.608C58.4602 7.10667 58.5455 6.68 58.5455 6.328C58.5455 5.54933 58.1508 5.12267 57.3615 5.048V4.728C57.8628 4.76 58.3802 4.776 58.9135 4.776ZM67.8036 8.424V11.208C67.8036 11.6347 67.8463 11.9493 67.9316 12.152C68.0276 12.344 68.1876 12.472 68.4116 12.536C68.6463 12.6 69.0143 12.6373 69.5156 12.648V13C68.2036 12.968 67.2276 12.952 66.5876 12.952C66.0543 12.952 65.3823 12.9627 64.5716 12.984L64.0596 13V12.68C64.4116 12.6587 64.6676 12.616 64.8276 12.552C64.9983 12.488 65.1103 12.3653 65.1636 12.184C65.2276 12.0027 65.2596 11.7093 65.2596 11.304V3.368C65.2596 2.96267 65.2276 2.66933 65.1636 2.488C65.1103 2.30667 64.9983 2.184 64.8276 2.12C64.6676 2.056 64.4116 2.01333 64.0596 1.992V1.672C64.6036 1.704 65.4143 1.72 66.4916 1.72L68.2676 1.704C68.481 1.69333 68.7263 1.688 69.0036 1.688C70.4436 1.688 71.5423 1.976 72.2996 2.552C73.057 3.11733 73.4356 3.88 73.4356 4.84C73.4356 5.42667 73.2863 5.992 72.9876 6.536C72.689 7.06933 72.1823 7.51733 71.4676 7.88C70.7636 8.24267 69.825 8.424 68.6516 8.424H67.8036ZM68.7956 1.992C68.5076 1.992 68.2943 2.02933 68.1556 2.104C68.0276 2.17867 67.937 2.312 67.8836 2.504C67.8303 2.696 67.8036 2.984 67.8036 3.368V8.104H68.4916C69.3556 8.104 69.953 7.82667 70.2836 7.272C70.6143 6.71733 70.7796 5.96533 70.7796 5.016C70.7796 3.98133 70.625 3.21867 70.3156 2.728C70.017 2.23733 69.5103 1.992 68.7956 1.992ZM76.0741 13.112C75.3915 13.112 74.8795 12.936 74.5381 12.584C74.2075 12.232 74.0421 11.768 74.0421 11.192C74.0421 10.712 74.1648 10.3173 74.4101 10.008C74.6661 9.688 74.9701 9.44267 75.3221 9.272C75.6848 9.10133 76.1435 8.92 76.6981 8.728C77.2848 8.52533 77.7115 8.344 77.9781 8.184C78.2555 8.01333 78.3941 7.784 78.3941 7.496V6.248C78.3941 5.8 78.2875 5.45333 78.0741 5.208C77.8715 4.952 77.5515 4.824 77.1141 4.824C76.6021 4.824 76.2128 4.952 75.9461 5.208C76.2448 5.31467 76.4741 5.47467 76.6341 5.688C76.8048 5.90133 76.8901 6.152 76.8901 6.44C76.8901 6.80267 76.7675 7.09067 76.5221 7.304C76.2768 7.51733 75.9781 7.624 75.6261 7.624C75.2528 7.624 74.9648 7.50667 74.7621 7.272C74.5595 7.03733 74.4581 6.744 74.4581 6.392C74.4581 6.09333 74.5275 5.84267 74.6661 5.64C74.8155 5.42667 75.0395 5.22933 75.3381 5.048C75.6261 4.87733 75.9781 4.744 76.3941 4.648C76.8208 4.552 77.2848 4.504 77.7861 4.504C78.3088 4.504 78.7621 4.55733 79.1461 4.664C79.5301 4.77067 79.8501 4.952 80.1061 5.208C80.3408 5.44267 80.4955 5.73067 80.5701 6.072C80.6555 6.41333 80.6981 6.87733 80.6981 7.464V11.816C80.6981 12.072 80.7195 12.2533 80.7621 12.36C80.8155 12.4667 80.9115 12.52 81.0501 12.52C81.2101 12.52 81.4021 12.4293 81.6261 12.248L81.7861 12.52C81.3061 12.9147 80.7195 13.112 80.0261 13.112C79.4395 13.112 79.0288 12.9947 78.7941 12.76C78.5595 12.5253 78.4368 12.2107 78.4261 11.816C77.8928 12.68 77.1088 13.112 76.0741 13.112ZM77.3061 12.088C77.7221 12.088 78.0848 11.8693 78.3941 11.432V8.152C78.2661 8.36533 77.9941 8.6 77.5781 8.856C77.1621 9.12267 76.8475 9.38933 76.6341 9.656C76.4208 9.92267 76.3141 10.3067 76.3141 10.808C76.3141 11.2453 76.4048 11.5707 76.5861 11.784C76.7675 11.9867 77.0075 12.088 77.3061 12.088ZM87.7474 4.504C88.2274 4.504 88.59 4.648 88.8354 4.936C89.0807 5.224 89.2034 5.57067 89.2034 5.976C89.2034 6.37067 89.086 6.696 88.8514 6.952C88.6274 7.19733 88.3287 7.32 87.9554 7.32C87.5927 7.32 87.3047 7.22933 87.0914 7.048C86.878 6.856 86.7714 6.60533 86.7714 6.296C86.7714 5.784 87.006 5.368 87.4754 5.048C87.4327 5.03733 87.3687 5.032 87.2834 5.032C87.1767 5.032 87.0914 5.04267 87.0274 5.064C86.622 5.128 86.2754 5.37333 85.9874 5.8C85.71 6.22667 85.5714 6.664 85.5714 7.112V11.352C85.5714 11.8427 85.6887 12.184 85.9234 12.376C86.1687 12.568 86.5527 12.664 87.0754 12.664V13C86.926 13 86.8034 12.9947 86.7074 12.984C85.6194 12.952 84.894 12.936 84.5314 12.936C84.2434 12.936 83.5874 12.952 82.5634 12.984C82.478 12.9947 82.3714 13 82.2434 13V12.664C82.6274 12.664 82.894 12.584 83.0434 12.424C83.1927 12.2533 83.2674 11.9493 83.2674 11.512V6.472C83.2674 5.98133 83.1927 5.624 83.0434 5.4C82.894 5.176 82.6274 5.064 82.2434 5.064V4.728C82.5847 4.76 82.9154 4.776 83.2354 4.776C84.1847 4.776 84.9634 4.70133 85.5714 4.552V6.04C85.774 5.58133 86.0674 5.21333 86.4514 4.936C86.8354 4.648 87.2674 4.504 87.7474 4.504ZM92.9601 4.728H94.8481V5.048H92.9601V11.512C92.9601 11.832 93.0135 12.0613 93.1201 12.2C93.2375 12.328 93.4188 12.392 93.6641 12.392C94.1228 12.392 94.4855 12.072 94.7521 11.432L95.0241 11.576C94.6188 12.6747 93.8881 13.224 92.8321 13.224C92.1281 13.224 91.5948 13.0427 91.2321 12.68C91.0081 12.456 90.8535 12.1787 90.7681 11.848C90.6935 11.5067 90.6561 11.0427 90.6561 10.456V5.048H89.3121V4.728H90.6561V2.616C91.5415 2.616 92.3095 2.44533 92.9601 2.104V4.728ZM101.289 4.504C102.1 4.504 102.686 4.712 103.049 5.128C103.23 5.33067 103.358 5.592 103.433 5.912C103.508 6.232 103.545 6.664 103.545 7.208V11.512C103.545 11.9493 103.62 12.2533 103.769 12.424C103.929 12.584 104.196 12.664 104.569 12.664V13C103.502 12.9573 102.798 12.936 102.457 12.936C102.137 12.936 101.444 12.9573 100.377 13V12.664C100.697 12.664 100.921 12.584 101.049 12.424C101.177 12.2533 101.241 11.9493 101.241 11.512V6.536C101.241 6.09867 101.166 5.768 101.017 5.544C100.878 5.32 100.622 5.208 100.249 5.208C99.8118 5.208 99.4385 5.38933 99.1291 5.752C98.8198 6.104 98.6651 6.54133 98.6651 7.064V11.512C98.6651 11.9493 98.7291 12.2533 98.8571 12.424C98.9851 12.584 99.2091 12.664 99.5291 12.664V13C98.5478 12.9573 97.8865 12.936 97.5451 12.936C97.2251 12.936 96.4891 12.9573 95.3371 13V12.664C95.7211 12.664 95.9878 12.584 96.1371 12.424C96.2865 12.2533 96.3611 11.9493 96.3611 11.512V6.472C96.3611 5.98133 96.2865 5.624 96.1371 5.4C95.9878 5.176 95.7211 5.064 95.3371 5.064V4.728C95.6785 4.76 96.0091 4.776 96.3291 4.776C97.2785 4.776 98.0571 4.70133 98.6651 4.552V5.992C99.1451 5 100.02 4.504 101.289 4.504ZM109.869 11.912C110.744 11.912 111.448 11.4853 111.981 10.632L112.269 10.728C112.056 11.4213 111.672 12.0133 111.117 12.504C110.573 12.984 109.891 13.224 109.069 13.224C107.939 13.224 107.037 12.8667 106.365 12.152C105.704 11.4267 105.373 10.36 105.373 8.952C105.373 7.512 105.731 6.41333 106.445 5.656C107.16 4.888 108.109 4.504 109.293 4.504C111.299 4.504 112.301 5.688 112.301 8.056H107.805C107.795 8.216 107.789 8.46667 107.789 8.808C107.789 9.512 107.885 10.0987 108.077 10.568C108.28 11.0373 108.536 11.3787 108.845 11.592C109.165 11.8053 109.507 11.912 109.869 11.912ZM109.197 4.84C108.813 4.84 108.493 5.08 108.237 5.56C107.992 6.02933 107.837 6.76 107.773 7.752H110.285C110.307 6.90933 110.221 6.216 110.029 5.672C109.848 5.11733 109.571 4.84 109.197 4.84ZM118.638 4.504C119.118 4.504 119.481 4.648 119.726 4.936C119.971 5.224 120.094 5.57067 120.094 5.976C120.094 6.37067 119.977 6.696 119.742 6.952C119.518 7.19733 119.219 7.32 118.846 7.32C118.483 7.32 118.195 7.22933 117.982 7.048C117.769 6.856 117.662 6.60533 117.662 6.296C117.662 5.784 117.897 5.368 118.366 5.048C118.323 5.03733 118.259 5.032 118.174 5.032C118.067 5.032 117.982 5.04267 117.918 5.064C117.513 5.128 117.166 5.37333 116.878 5.8C116.601 6.22667 116.462 6.664 116.462 7.112V11.352C116.462 11.8427 116.579 12.184 116.814 12.376C117.059 12.568 117.443 12.664 117.966 12.664V13C117.817 13 117.694 12.9947 117.598 12.984C116.51 12.952 115.785 12.936 115.422 12.936C115.134 12.936 114.478 12.952 113.454 12.984C113.369 12.9947 113.262 13 113.134 13V12.664C113.518 12.664 113.785 12.584 113.934 12.424C114.083 12.2533 114.158 11.9493 114.158 11.512V6.472C114.158 5.98133 114.083 5.624 113.934 5.4C113.785 5.176 113.518 5.064 113.134 5.064V4.728C113.475 4.76 113.806 4.776 114.126 4.776C115.075 4.776 115.854 4.70133 116.462 4.552V6.04C116.665 5.58133 116.958 5.21333 117.342 4.936C117.726 4.648 118.158 4.504 118.638 4.504ZM123.771 4.504C124.176 4.504 124.549 4.55733 124.891 4.664C125.232 4.76 125.493 4.872 125.675 5C125.781 5.07467 125.877 5.112 125.963 5.112C126.059 5.112 126.139 5.064 126.203 4.968C126.277 4.86133 126.325 4.712 126.347 4.52H126.683C126.64 5.064 126.619 6.00267 126.619 7.336H126.283C126.187 6.632 125.973 6.04533 125.643 5.576C125.323 5.096 124.853 4.856 124.235 4.856C123.915 4.856 123.648 4.94667 123.435 5.128C123.232 5.30933 123.131 5.56 123.131 5.88C123.131 6.24267 123.253 6.55733 123.499 6.824C123.744 7.08 124.128 7.39467 124.651 7.768L125.115 8.104C125.765 8.59467 126.245 9.032 126.555 9.416C126.864 9.8 127.019 10.28 127.019 10.856C127.019 11.3253 126.88 11.7413 126.603 12.104C126.336 12.4667 125.973 12.744 125.515 12.936C125.056 13.128 124.549 13.224 123.995 13.224C123.408 13.224 122.907 13.112 122.491 12.888C122.149 12.7173 121.904 12.6053 121.755 12.552C121.648 12.52 121.552 12.5573 121.467 12.664C121.392 12.76 121.333 12.9093 121.291 13.112H120.955C120.997 12.504 121.019 11.4373 121.019 9.912H121.355C121.568 11.8747 122.288 12.856 123.515 12.856C123.824 12.856 124.085 12.7653 124.299 12.584C124.523 12.392 124.635 12.104 124.635 11.72C124.635 11.4213 124.565 11.1547 124.427 10.92C124.299 10.6853 124.133 10.4773 123.931 10.296C123.728 10.1147 123.424 9.864 123.019 9.544C122.539 9.16 122.171 8.85067 121.915 8.616C121.669 8.38133 121.456 8.104 121.275 7.784C121.104 7.464 121.019 7.10667 121.019 6.712C121.019 6.02933 121.285 5.49067 121.819 5.096C122.352 4.70133 123.003 4.504 123.771 4.504Z" fill="black"/>
</svg>
