<svg width="104" height="30" viewBox="0 0 104 30" fill="none" xmlns="http://www.w3.org/2000/svg">
    <g clip-path="url(#clip0_693_4367)">
        <path d="M30.501 0.00733399H0.693655C0.50868 0.00733399 0.332294 0.0772348 0.202151 0.202785C0.138805 0.262843 0.0881684 0.335651 0.053391 0.416677C0.0186136 0.497703 0.000439658 0.585215 0 0.673767L0 29.3263C0 29.5028 0.0726686 29.6724 0.202811 29.7973C0.332954 29.9222 0.509341 29.9927 0.692994 29.9927H30.501C30.6853 29.9927 30.861 29.9222 30.9918 29.7973C31.0553 29.7373 31.106 29.6645 31.1409 29.5835C31.1758 29.5024 31.1941 29.4149 31.1947 29.3263V0.673767C31.1947 0.497318 31.122 0.327656 30.9918 0.202785C30.8582 0.0762126 30.6828 0.00637374 30.501 0.00733399ZM20.7964 19.3312C20.7964 19.5076 20.7238 19.6773 20.593 19.8022C20.4597 19.9285 20.2848 19.9983 20.1034 19.9976H11.0912C10.9076 19.9976 10.7312 19.927 10.601 19.8022C10.5376 19.7422 10.4868 19.6694 10.4519 19.5883C10.417 19.5073 10.3987 19.4198 10.3982 19.3312V10.6689C10.3982 10.4925 10.4709 10.3228 10.601 10.1979C10.7312 10.0724 10.9076 10.0025 11.0912 10.0025H20.1034C20.2871 10.0025 20.4635 10.0724 20.593 10.1979C20.6566 10.2578 20.7075 10.3306 20.7425 10.4116C20.7775 10.4927 20.7959 10.5802 20.7964 10.6689V19.3312ZM92.9035 10.0038H83.8913C83.5081 10.0038 83.1976 10.3024 83.1976 10.6703V19.3325C83.1976 19.7004 83.5081 19.999 83.8913 19.999H92.9028C93.286 19.999 93.5965 19.7004 93.5965 19.3325V10.6703C93.5965 10.3018 93.286 10.0038 92.9028 10.0038H92.9035ZM82.5073 0.00733399H73.4957C73.1125 0.00733399 72.8021 0.305939 72.8021 0.674446V9.33672C72.8021 9.70454 73.1125 10.0031 73.4957 10.0031H82.5066C82.8898 10.0031 83.2003 9.70454 83.2003 9.33672V0.674446C83.2003 0.305939 82.8898 0.00801264 82.5066 0.00801264L82.5073 0.00733399ZM103.307 0.00733399H94.2948C93.9123 0.00733399 93.6018 0.305939 93.6018 0.674446V9.33672C93.6018 9.70454 93.9123 10.0031 94.2954 10.0031H103.306C103.69 10.0031 104 9.70454 104 9.33672V0.674446C104 0.305939 103.69 0.00801264 103.306 0.00801264L103.307 0.00733399ZM82.5073 19.9983H73.4957C73.1125 19.9983 72.8021 20.2969 72.8021 20.6647V29.3277C72.8021 29.6955 73.1125 29.9934 73.4957 29.9934H82.5066C82.8898 29.9934 83.2003 29.6948 83.2003 29.3277V20.6647C83.2003 20.2969 82.8904 19.9983 82.5073 19.9983ZM103.307 19.9983H94.2948C93.9123 19.9983 93.6018 20.2969 93.6018 20.6647V29.3277C93.6018 29.6955 93.9123 29.9934 94.2954 29.9934H103.306C103.69 29.9934 104 29.6948 104 29.3277V20.6647C104 20.2969 103.69 19.9983 103.306 19.9983H103.307ZM66.8974 0.00733399H57.8865C57.5033 0.00733399 57.1928 0.305939 57.1928 0.674446V9.33672C57.1928 9.70454 57.5033 10.0031 57.8865 10.0031H66.8974C67.2806 10.0031 67.591 9.70454 67.591 9.33672V0.674446C67.591 0.305939 67.2806 0.00801264 66.8974 0.00801264V0.00733399ZM66.8974 19.9983H57.8865C57.5033 19.9983 57.1928 20.2969 57.1928 20.6647V29.3277C57.1928 29.6955 57.5033 29.9934 57.8865 29.9934H66.8974C67.2806 29.9934 67.591 29.6948 67.591 29.3277V20.6647C67.591 20.2969 67.2806 19.9983 66.8974 19.9983ZM57.1902 10.6614C57.1902 10.485 57.1162 10.3153 56.9867 10.1898C56.8532 10.0636 56.678 9.99396 56.4965 9.99501H46.7913V0.673767C46.7913 0.497318 46.7186 0.327656 46.5885 0.202785C46.455 0.0763143 46.2799 0.00647801 46.0983 0.00733399H37.0868C36.9024 0.00733399 36.7261 0.0772348 36.5959 0.202785C36.5324 0.262784 36.4817 0.335565 36.4468 0.416594C36.4119 0.497623 36.3936 0.585165 36.3931 0.673767V29.3114C36.3931 29.4878 36.4658 29.6575 36.5959 29.7824C36.7261 29.9072 36.9024 29.9778 37.0868 29.9778H46.0977C46.282 29.9778 46.4584 29.9072 46.5885 29.7824C46.7186 29.6575 46.7913 29.4878 46.7913 29.3114V19.9901H56.4959C56.6802 19.9901 56.8566 19.9196 56.9867 19.7947C57.0502 19.7347 57.1009 19.6619 57.1358 19.5809C57.1707 19.4998 57.189 19.4123 57.1895 19.3237L57.1902 10.6614Z" fill="#1C3F3A"/>
    </g>
    <defs>
        <clipPath id="clip0_693_4367">
            <rect width="104" height="30" fill="white"/>
        </clipPath>
    </defs>
</svg>
