<svg width="154" height="40" viewBox="0 0 154 40" fill="none" xmlns="http://www.w3.org/2000/svg">
    <g clip-path="url(#clip0_693_4382)">
        <path fill-rule="evenodd" clip-rule="evenodd" d="M77.4239 19.3702C77.4239 17.2416 76.0294 15.7516 74.1582 15.7516C72.2871 15.7516 70.8925 17.2416 70.8925 19.3702C70.8925 21.4988 72.2871 22.9888 74.1582 22.9888C76.0117 22.9888 77.4239 21.4811 77.4239 19.3702ZM68.1211 19.3702C68.1211 15.9112 70.7513 13.2505 74.1582 13.2505C77.5652 13.2505 80.1954 15.9112 80.1954 19.3702C80.1954 22.8292 77.5652 25.49 74.1582 25.49C70.7513 25.49 68.1211 22.8292 68.1211 19.3702Z" fill="#1C3F3A"/>
        <path fill-rule="evenodd" clip-rule="evenodd" d="M84.0267 19.3347C84.0267 21.4988 85.4565 22.9888 87.2747 22.9888C89.093 22.9888 90.5228 21.5166 90.5228 19.3347C90.5228 17.1529 89.093 15.6806 87.2747 15.6806C85.4565 15.6984 84.0267 17.1707 84.0267 19.3347ZM84.115 23.929H84.062V29.6407H81.3965V13.4101H84.062V14.7582H84.115C84.874 13.9955 86.0214 13.1973 87.8043 13.1973C90.8758 13.1973 93.2766 15.6629 93.2766 19.3525C93.2766 23.0421 90.8758 25.5077 87.8043 25.5077C86.0391 25.4899 84.874 24.6917 84.115 23.929Z" fill="#1C3F3A"/>
        <path fill-rule="evenodd" clip-rule="evenodd" d="M97.2474 19.3347C97.2474 21.4988 98.6772 22.9888 100.495 22.9888C102.314 22.9888 103.744 21.5166 103.744 19.3347C103.744 17.1529 102.314 15.6806 100.495 15.6806C98.6772 15.6806 97.2474 17.1707 97.2474 19.3347ZM97.3357 23.929H97.2827V29.6407H94.6172V13.4101H97.2827V14.7582H97.3357C98.0947 13.9955 99.2421 13.1973 101.025 13.1973C104.097 13.1973 106.497 15.6629 106.497 19.3525C106.497 23.0421 104.097 25.5077 101.025 25.5077C99.2598 25.4899 98.0947 24.6917 97.3357 23.929Z" fill="#1C3F3A"/>
        <path fill-rule="evenodd" clip-rule="evenodd" d="M110.328 18.1464H116.118C115.836 16.6564 114.636 15.5744 113.223 15.5744C111.811 15.5744 110.611 16.6564 110.328 18.1464ZM116.03 21.4635L118.819 21.836C117.707 24.55 115.765 25.4901 113.382 25.4901C109.975 25.4901 107.469 23.0245 107.469 19.3349C107.469 15.6453 109.975 13.1797 113.188 13.1797C116.401 13.1797 119.084 15.4147 119.084 20.2041H110.364C110.558 22.1021 111.9 23.1132 113.418 23.1132C114.636 23.1132 115.571 22.4923 116.03 21.4635Z" fill="#1C3F3A"/>
        <path fill-rule="evenodd" clip-rule="evenodd" d="M123.019 13.4102V14.7583H123.072C123.672 13.9956 124.537 13.3215 126.126 13.3215C126.32 13.3215 126.726 13.3747 126.991 13.4634V16.1419C126.638 16.0532 126.161 16 125.861 16C123.866 16 123.037 16.8692 123.037 18.8027V25.2594H120.371V13.4102H123.019Z" fill="#1C3F3A"/>
        <path fill-rule="evenodd" clip-rule="evenodd" d="M63.9382 21.2151C63.4439 22.3503 62.4907 23.0244 61.2373 23.0421C60.1076 23.0244 59.2073 22.4568 58.6777 21.4989C58.5718 21.286 58.4659 21.0377 58.3953 20.7716H58.3776C58.2541 20.3459 58.1835 19.867 58.1835 19.3348C58.1835 18.8027 58.2541 18.3237 58.3776 17.898H58.3953C58.4659 17.6319 58.5718 17.4013 58.6777 17.1707C59.2073 16.2129 60.1076 15.6452 61.2373 15.6275C62.473 15.6452 63.4439 16.337 63.9382 17.4723C63.9911 17.5965 64.0441 17.7384 64.0794 17.898C64.0794 17.9158 64.0794 17.9335 64.097 17.9335H66.9214C66.8508 17.5432 66.7449 17.153 66.6037 16.7982C65.774 14.5987 63.8499 13.2151 61.3609 13.2151H61.1138C58.9249 13.2151 57.1773 14.2971 56.224 16.0887C55.7121 17.0111 55.4297 18.1109 55.4297 19.3703C55.4297 20.6297 55.7121 21.7295 56.224 22.6519C57.1773 24.4435 58.9249 25.5255 61.1138 25.5255H61.3609C63.8499 25.5255 65.7564 24.1242 66.586 21.9069C66.6743 21.694 66.7449 21.4634 66.7979 21.2506H63.9382V21.2151Z" fill="#1C3F3A"/>
        <path fill-rule="evenodd" clip-rule="evenodd" d="M125.033 23.6629C125.033 22.7405 125.863 21.8713 126.816 21.8713C127.769 21.8713 128.599 22.7405 128.599 23.6629C128.599 24.5853 127.752 25.4545 126.816 25.4545C125.881 25.4545 125.033 24.603 125.033 23.6629Z" fill="#1C3F3A"/>
        <path fill-rule="evenodd" clip-rule="evenodd" d="M151.246 19.3702C151.246 17.2416 149.852 15.7516 147.981 15.7516C146.109 15.7516 144.715 17.2416 144.715 19.3702C144.715 21.4988 146.109 22.9888 147.981 22.9888C149.852 22.9888 151.246 21.4811 151.246 19.3702ZM141.926 19.3702C141.926 15.9112 144.556 13.2505 147.963 13.2505C151.37 13.2505 154 15.9112 154 19.3702C154 22.8292 151.37 25.49 147.963 25.49C144.556 25.49 141.926 22.8292 141.926 19.3702Z" fill="#1C3F3A"/>
        <path fill-rule="evenodd" clip-rule="evenodd" d="M137.673 21.2151C137.178 22.3503 136.225 23.0244 134.972 23.0421C133.842 23.0244 132.942 22.4568 132.412 21.4989C132.306 21.286 132.2 21.0377 132.13 20.7716H132.112C131.988 20.3459 131.918 19.867 131.918 19.3348C131.918 18.8027 131.988 18.3237 132.112 17.898H132.13C132.2 17.6319 132.306 17.4013 132.412 17.1707C132.942 16.2129 133.842 15.6452 134.972 15.6275C136.207 15.6452 137.178 16.337 137.673 17.4723C137.726 17.5965 137.778 17.7384 137.814 17.898C137.814 17.9158 137.814 17.9335 137.831 17.9335H140.656C140.585 17.5432 140.479 17.153 140.338 16.7982C139.491 14.5987 137.584 13.2151 135.095 13.2151H134.848C132.659 13.2151 130.912 14.2971 129.958 16.0887C129.447 17.0111 129.164 18.1109 129.164 19.3703C129.164 20.6297 129.447 21.7295 129.958 22.6519C130.912 24.4435 132.659 25.5255 134.848 25.5255H135.095C137.584 25.5255 139.491 24.1242 140.32 21.9069C140.409 21.694 140.479 21.4634 140.532 21.2506H137.673V21.2151Z" fill="#1C3F3A"/>
        <path fill-rule="evenodd" clip-rule="evenodd" d="M37.1408 31.6098C35.2519 33.7561 33.1513 34.8559 31.7215 35.4058C27.732 36.9135 23.6896 36.8603 19.7354 35.2284C15.693 33.561 12.0743 30.102 10.309 26.2173C9.51467 24.4789 9.09101 22.6519 9.03806 20.7894C9.0204 20.3991 9.0204 19.9557 9.0204 19.867V19.2816C9.07336 16.6208 10.1325 14.0488 11.9684 12.0621C12.798 11.1752 13.7513 10.4834 14.8457 10.0044C15.9225 9.5255 17.1052 9.27716 18.3762 9.24168C17.9349 9.59645 17.5289 9.96896 17.1405 10.3947C14.934 12.7716 13.716 16.0355 13.716 19.6009C13.716 23.1663 14.934 26.4302 17.1405 28.8071C18.4115 30.1729 19.9296 31.184 21.6596 31.7871C22.8776 32.2129 24.2015 32.4257 25.5784 32.4257C27.8909 32.4257 31.2272 31.8049 33.9633 28.8248C34.8989 27.8137 35.658 26.6253 36.2228 25.3126H40.7419C39.9652 27.6718 38.7471 29.8359 37.1408 31.6098ZM7.02568 31.6098C4.09537 28.4701 2.47134 24.1951 2.47134 19.5654C2.47134 14.9357 4.09537 10.6253 7.02568 7.45011C9.99129 4.23947 14.1043 2.48337 18.5704 2.48337C19.6825 2.48337 20.7946 2.5898 21.8537 2.80266C27.5025 3.95565 31.9509 8.12417 33.7515 13.8537H29.2325C28.6676 12.541 27.9085 11.3703 26.9729 10.3415C25.7196 8.97561 24.2192 7.98226 22.5069 7.37916C21.2889 6.95344 19.9649 6.74058 18.588 6.74058C16.8934 6.74058 15.3047 7.05987 13.8395 7.71619C12.445 8.33703 11.2093 9.22395 10.1502 10.3592C9.88537 10.643 9.63824 10.9268 9.40876 11.2284C7.92595 12.878 6.97272 15.0599 6.65497 17.7561C6.58436 18.235 6.54906 18.714 6.54906 19.1929V19.5654V19.6896V19.7605V19.796C6.54906 20.0976 6.54906 20.3991 6.56671 20.6829V20.8071C6.61967 23.0067 7.11394 25.1707 8.04952 27.2106C9.7265 30.9002 12.851 34.235 16.4874 36.3459C12.8157 35.9202 9.51467 34.2705 7.02568 31.6098ZM35.7286 6.102C38.1293 8.12417 39.7886 10.7849 40.6006 13.8714H36.3111C35.0048 9.0643 32.0922 5.14412 28.191 2.71397C31.0154 3.13969 33.5926 4.29268 35.7286 6.102ZM26.9553 28.7894C27.8909 27.7783 28.6499 26.5898 29.2148 25.2772H33.4514C33.0807 25.9512 32.6394 26.5543 32.1275 27.1042C30.0621 29.3392 27.5555 29.8714 25.7549 29.9069C26.1786 29.5876 26.5846 29.1973 26.9553 28.7894ZM43.5839 22.8115H27.5025L27.2024 23.6452C26.7258 24.9756 26.0374 26.1463 25.1371 27.122C24.2368 28.0976 23.1953 28.8248 22.0126 29.286C20.8299 28.8071 19.7884 28.0798 18.9058 27.122C17.1229 25.2062 16.152 22.5277 16.152 19.6009C16.152 16.6741 17.1229 14.0133 18.9058 12.0798C19.7354 11.1929 20.6887 10.5011 21.7831 10.0222C21.8714 9.9867 21.9773 9.93348 22.0656 9.898C23.2306 10.3769 24.2545 11.0865 25.1371 12.0443C26.0374 13.02 26.7258 14.1907 27.2024 15.5211L27.5025 16.3548H43.6016C43.6016 11.4767 40.5124 6.88248 37.3349 4.20399C34.0692 1.45455 29.9915 0.0177384 25.5431 0.0177384C24.378 0.0177384 23.2306 0.124169 22.1009 0.337029C20.9535 0.124169 19.7707 0 18.5704 0C13.4159 0 8.66735 2.03991 5.22513 5.76497C1.85351 9.40133 0 14.2971 0 19.5654C0 24.8337 1.85351 29.7118 5.22513 33.2949C8.6497 36.949 13.3806 38.9712 18.5527 38.9712C19.7354 38.9712 21.4654 38.9712 22.754 38.6874C23.8132 38.8825 24.8723 38.9712 25.9315 38.9712C28.1557 38.9712 30.3622 38.5455 32.5864 37.7118C34.2811 37.0732 36.7524 35.7783 38.959 33.2594L38.9766 33.2417C41.2008 30.8115 43.3191 27.1929 43.5839 22.8115Z" fill="#1C3F3A"/>
    </g>
    <defs>
        <clipPath id="clip0_693_4382">
            <rect width="154" height="40" fill="white"/>
        </clipPath>
    </defs>
</svg>
