<svg width="16" height="16" viewBox="0 0 16 16" fill="none" xmlns="http://www.w3.org/2000/svg">
  <path
    d="M8.75065 1.16663V0.416626H7.25065V1.16663H8.75065ZM7.25065 3.83329V4.58329H8.75065V3.83329H7.25065ZM13.4173 7.99996C13.4173 10.9915 10.9922 13.4166 8.00065 13.4166V14.9166C11.8206 14.9166 14.9173 11.8199 14.9173 7.99996H13.4173ZM8.00065 13.4166C5.00911 13.4166 2.58398 10.9915 2.58398 7.99996H1.08398C1.08398 11.8199 4.18068 14.9166 8.00065 14.9166V13.4166ZM2.58398 7.99996C2.58398 5.96595 3.70478 4.1927 5.36605 3.26591L4.63526 1.95597C2.51837 3.13694 1.08398 5.40043 1.08398 7.99996H2.58398ZM10.6693 3.28508C12.3119 4.21705 13.4173 5.97989 13.4173 7.99996H14.9173C14.9173 5.41828 13.5025 3.168 11.4096 1.98045L10.6693 3.28508ZM7.25065 1.16663V3.83329H8.75065V1.16663H7.25065Z"
    fill="currentColor" />
</svg>