<svg width="20" height="20" viewBox="0 0 20 20" fill="none" xmlns="http://www.w3.org/2000/svg">
<path d="M10.834 0.833496H9.16732V3.3335H10.834V0.833496Z" fill="#FFC53D"/>
<path d="M10.834 16.6668H9.16732V19.1668H10.834V16.6668Z" fill="#FFC53D"/>
<path d="M17.0707 4.10854L15.3005 5.87872L14.122 4.70021L15.8922 2.93003L17.0707 4.10854Z" fill="#FFC53D"/>
<path d="M5.87929 15.3001L4.70078 14.1216L2.9306 15.8918L4.10911 17.0703L5.87929 15.3001Z" fill="#FFC53D"/>
<path d="M16.6673 9.16685H19.1673V10.8335H16.6673V9.16685Z" fill="#FFC53D"/>
<path d="M0.833984 9.16685V10.8335H3.33398V9.16685H0.833984Z" fill="#FFC53D"/>
<path d="M15.3005 14.1216L17.0707 15.8918L15.8922 17.0703L14.122 15.3001L15.3005 14.1216Z" fill="#FFC53D"/>
<path d="M4.10911 2.93003L2.9306 4.10854L4.70078 5.87872L5.87929 4.70021L4.10911 2.93003Z" fill="#FFC53D"/>
<path d="M6.46512 6.46463C8.41774 4.51201 11.5836 4.51201 13.5362 6.46463C15.4888 8.41725 15.4888 11.5831 13.5362 13.5357C11.5836 15.4883 8.41774 15.4883 6.46512 13.5357C4.5125 11.5831 4.5125 8.41725 6.46512 6.46463Z" fill="#FFC53D"/>
</svg>
